<svg width="339" height="351" viewBox="0 0 339 351" fill="none" xmlns="http://www.w3.org/2000/svg">
<circle cx="162.5" cy="188.5" r="162.5" fill="#AF20A5"/>
<g filter="url(#filter0_d)">
<ellipse cx="216.5" cy="116" rx="118.5" ry="116" fill="#E18803"/>
<ellipse cx="216.5" cy="116" rx="118.5" ry="116" fill="url(#paint0_linear)" style="mix-blend-mode:soft-light"/>
<ellipse cx="216.5" cy="116" rx="118.5" ry="116" fill="url(#paint1_linear)" style="mix-blend-mode:hard-light"/>
</g>
<mask id="mask0" mask-type="alpha" maskUnits="userSpaceOnUse" x="0" y="26" width="325" height="325">
<circle cx="162.5" cy="188.5" r="162.5" fill="#AF89C1"/>
</mask>
<g mask="url(#mask0)">
<g filter="url(#filter1_d)">
<path d="M193.285 224.29L184.002 197.094C180.59 187.095 169.683 181.738 159.683 185.151L132.487 194.433C127.369 179.439 111.003 171.401 96.0082 176.519C81.0139 181.637 72.9764 198.003 78.0939 212.998L50.8975 222.28C40.8983 225.693 35.5419 236.6 38.9546 246.599L51.3308 282.861L60.3963 279.767C65.205 278.126 70.4686 278.462 75.0293 280.702C79.59 282.941 83.0742 286.901 84.7154 291.71C86.3566 296.518 86.0204 301.782 83.7806 306.343C81.5409 310.903 77.5812 314.388 72.7726 316.029L63.7071 319.123L76.0833 355.385C79.496 365.384 90.4031 370.74 100.402 367.328L136.664 354.951L133.57 345.886C131.929 341.077 132.265 335.814 134.505 331.253C136.745 326.692 140.704 323.208 145.513 321.567C150.322 319.926 155.585 320.262 160.146 322.502C164.707 324.741 168.191 328.701 169.832 333.51L172.926 342.575L209.188 330.199C219.187 326.786 224.544 315.879 221.131 305.88L211.849 278.683C226.843 273.566 234.881 257.199 229.763 242.205C224.646 227.21 208.279 219.173 193.285 224.29Z" fill="#17D741"/>
<path d="M193.285 224.29L184.002 197.094C180.59 187.095 169.683 181.738 159.683 185.151L132.487 194.433C127.369 179.439 111.003 171.401 96.0082 176.519C81.0139 181.637 72.9764 198.003 78.0939 212.998L50.8975 222.28C40.8983 225.693 35.5419 236.6 38.9546 246.599L51.3308 282.861L60.3963 279.767C65.205 278.126 70.4686 278.462 75.0293 280.702C79.59 282.941 83.0742 286.901 84.7154 291.71C86.3566 296.518 86.0204 301.782 83.7806 306.343C81.5409 310.903 77.5812 314.388 72.7726 316.029L63.7071 319.123L76.0833 355.385C79.496 365.384 90.4031 370.74 100.402 367.328L136.664 354.951L133.57 345.886C131.929 341.077 132.265 335.814 134.505 331.253C136.745 326.692 140.704 323.208 145.513 321.567C150.322 319.926 155.585 320.262 160.146 322.502C164.707 324.741 168.191 328.701 169.832 333.51L172.926 342.575L209.188 330.199C219.187 326.786 224.544 315.879 221.131 305.88L211.849 278.683C226.843 273.566 234.881 257.199 229.763 242.205C224.646 227.21 208.279 219.173 193.285 224.29Z" fill="url(#paint2_linear)" style="mix-blend-mode:soft-light"/>
<path d="M193.285 224.29L184.002 197.094C180.59 187.095 169.683 181.738 159.683 185.151L132.487 194.433C127.369 179.439 111.003 171.401 96.0082 176.519C81.0139 181.637 72.9764 198.003 78.0939 212.998L50.8975 222.28C40.8983 225.693 35.5419 236.6 38.9546 246.599L51.3308 282.861L60.3963 279.767C65.205 278.126 70.4686 278.462 75.0293 280.702C79.59 282.941 83.0742 286.901 84.7154 291.71C86.3566 296.518 86.0204 301.782 83.7806 306.343C81.5409 310.903 77.5812 314.388 72.7726 316.029L63.7071 319.123L76.0833 355.385C79.496 365.384 90.4031 370.74 100.402 367.328L136.664 354.951L133.57 345.886C131.929 341.077 132.265 335.814 134.505 331.253C136.745 326.692 140.704 323.208 145.513 321.567C150.322 319.926 155.585 320.262 160.146 322.502C164.707 324.741 168.191 328.701 169.832 333.51L172.926 342.575L209.188 330.199C219.187 326.786 224.544 315.879 221.131 305.88L211.849 278.683C226.843 273.566 234.881 257.199 229.763 242.205C224.646 227.21 208.279 219.173 193.285 224.29Z" fill="url(#paint3_linear)" style="mix-blend-mode:hard-light"/>
</g>
</g>
<path d="M266.427 65.9771C273.009 65.0621 278.278 71.3501 276.227 77.6703L243.608 178.15C241.424 184.876 232.692 186.572 228.15 181.152L156.133 95.2187C151.591 89.7984 154.787 81.4974 161.792 80.5236L266.427 65.9771Z" fill="white"/>
<defs>
<filter id="filter0_d" x="94" y="0" width="245" height="240" filterUnits="userSpaceOnUse" color-interpolation-filters="sRGB">
<feFlood flood-opacity="0" result="BackgroundImageFix"/>
<feColorMatrix in="SourceAlpha" type="matrix" values="0 0 0 0 0 0 0 0 0 0 0 0 0 0 0 0 0 0 127 0"/>
<feOffset dy="4"/>
<feGaussianBlur stdDeviation="2"/>
<feColorMatrix type="matrix" values="0 0 0 0 0 0 0 0 0 0 0 0 0 0 0 0 0 0 0.25 0"/>
<feBlend mode="normal" in2="BackgroundImageFix" result="effect1_dropShadow"/>
<feBlend mode="normal" in="SourceGraphic" in2="effect1_dropShadow" result="shape"/>
</filter>
<filter id="filter1_d" x="19.4843" y="142.484" width="239.031" height="239.031" filterUnits="userSpaceOnUse" color-interpolation-filters="sRGB">
<feFlood flood-opacity="0" result="BackgroundImageFix"/>
<feColorMatrix in="SourceAlpha" type="matrix" values="0 0 0 0 0 0 0 0 0 0 0 0 0 0 0 0 0 0 127 0"/>
<feOffset dy="4"/>
<feGaussianBlur stdDeviation="2"/>
<feColorMatrix type="matrix" values="0 0 0 0 0 0 0 0 0 0 0 0 0 0 0 0 0 0 0.25 0"/>
<feBlend mode="normal" in2="BackgroundImageFix" result="effect1_dropShadow"/>
<feBlend mode="normal" in="SourceGraphic" in2="effect1_dropShadow" result="shape"/>
</filter>
<linearGradient id="paint0_linear" x1="216.5" y1="0.765676" x2="216.5" y2="232" gradientUnits="userSpaceOnUse">
<stop stop-color="white" stop-opacity="0.94"/>
<stop offset="1" stop-color="white" stop-opacity="0"/>
</linearGradient>
<linearGradient id="paint1_linear" x1="216.5" y1="0.765676" x2="216.5" y2="232" gradientUnits="userSpaceOnUse">
<stop offset="0.416667" stop-color="#C10000" stop-opacity="0"/>
<stop offset="1" stop-color="#860000" stop-opacity="0.31"/>
</linearGradient>
<linearGradient id="paint2_linear" x1="109.606" y1="171.878" x2="168.394" y2="344.122" gradientUnits="userSpaceOnUse">
<stop stop-color="white" stop-opacity="0.74"/>
<stop offset="1" stop-color="white" stop-opacity="0"/>
</linearGradient>
<linearGradient id="paint3_linear" x1="109.606" y1="171.878" x2="168.394" y2="344.122" gradientUnits="userSpaceOnUse">
<stop stop-color="#001897" stop-opacity="0"/>
<stop offset="1" stop-color="#051EA2" stop-opacity="0.17"/>
</linearGradient>
</defs>
</svg>
