<svg width="192" height="202" viewBox="0 0 192 202" fill="none" xmlns="http://www.w3.org/2000/svg">
<circle cx="96.1904" cy="106.5" r="95.5" fill="#291EA6"/>
<mask id="mask0" mask-type="alpha" maskUnits="userSpaceOnUse" x="0" y="0" width="192" height="202">
<path d="M191.69 106.5C191.69 159.243 148.934 202 96.1905 202C43.4473 202 0.690455 159.243 0.690455 106.5C0.690455 78.2276 -0.0238934 35.4859 19.5 17.9999C36.3986 2.86513 77.5001 -9.00008 96.1905 11C148.934 11 191.69 53.7568 191.69 106.5Z" fill="#C4C4C4"/>
</mask>
<g mask="url(#mask0)">
<g filter="url(#filter0_d)">
<path d="M106.63 135.374V118.486C106.63 112.276 101.58 107.227 95.3708 107.227H78.4823C78.4823 97.9156 70.9051 90.3384 61.5939 90.3384C52.2828 90.3384 44.7055 97.9156 44.7055 107.227H27.8171C21.6077 107.227 16.5581 112.276 16.5581 118.486V141.004H22.1876C25.1736 141.004 28.0374 142.19 30.1489 144.301C32.2603 146.413 33.4465 149.277 33.4465 152.263C33.4465 155.249 32.2603 158.112 30.1489 160.224C28.0374 162.335 25.1736 163.522 22.1876 163.522V169.151L27.8171 176.5C31.1147 182.41 29.9465 182.742 38 186.039L41.5 189L50.335 191.669C50.335 188.683 51.5212 185.819 53.6326 183.708C55.7441 181.596 58.6078 180.41 61.5939 180.41C64.58 180.41 67.4437 181.596 69.5552 183.708C71.6666 185.819 72.8529 188.683 72.8529 191.669V197.298H95.3708C101.58 197.298 106.63 192.249 106.63 186.039V169.151C115.941 169.151 123.518 161.574 123.518 152.263C123.518 142.951 115.941 135.374 106.63 135.374Z" fill="#F92D2D"/>
<path d="M106.63 135.374V118.486C106.63 112.276 101.58 107.227 95.3708 107.227H78.4823C78.4823 97.9156 70.9051 90.3384 61.5939 90.3384C52.2828 90.3384 44.7055 97.9156 44.7055 107.227H27.8171C21.6077 107.227 16.5581 112.276 16.5581 118.486V141.004H22.1876C25.1736 141.004 28.0374 142.19 30.1489 144.301C32.2603 146.413 33.4465 149.277 33.4465 152.263C33.4465 155.249 32.2603 158.112 30.1489 160.224C28.0374 162.335 25.1736 163.522 22.1876 163.522V169.151L27.8171 176.5C31.1147 182.41 29.9465 182.742 38 186.039L41.5 189L50.335 191.669C50.335 188.683 51.5212 185.819 53.6326 183.708C55.7441 181.596 58.6078 180.41 61.5939 180.41C64.58 180.41 67.4437 181.596 69.5552 183.708C71.6666 185.819 72.8529 188.683 72.8529 191.669V197.298H95.3708C101.58 197.298 106.63 192.249 106.63 186.039V169.151C115.941 169.151 123.518 161.574 123.518 152.263C123.518 142.951 115.941 135.374 106.63 135.374Z" fill="url(#paint0_linear)" style="mix-blend-mode:soft-light"/>
<path d="M106.63 135.374V118.486C106.63 112.276 101.58 107.227 95.3708 107.227H78.4823C78.4823 97.9156 70.9051 90.3384 61.5939 90.3384C52.2828 90.3384 44.7055 97.9156 44.7055 107.227H27.8171C21.6077 107.227 16.5581 112.276 16.5581 118.486V141.004H22.1876C25.1736 141.004 28.0374 142.19 30.1489 144.301C32.2603 146.413 33.4465 149.277 33.4465 152.263C33.4465 155.249 32.2603 158.112 30.1489 160.224C28.0374 162.335 25.1736 163.522 22.1876 163.522V169.151L27.8171 176.5C31.1147 182.41 29.9465 182.742 38 186.039L41.5 189L50.335 191.669C50.335 188.683 51.5212 185.819 53.6326 183.708C55.7441 181.596 58.6078 180.41 61.5939 180.41C64.58 180.41 67.4437 181.596 69.5552 183.708C71.6666 185.819 72.8529 188.683 72.8529 191.669V197.298H95.3708C101.58 197.298 106.63 192.249 106.63 186.039V169.151C115.941 169.151 123.518 161.574 123.518 152.263C123.518 142.951 115.941 135.374 106.63 135.374Z" fill="url(#paint1_linear)" style="mix-blend-mode:hard-light"/>
</g>
<g filter="url(#filter1_d)">
<path d="M167.987 106.227H184.875C187.426 106.227 189.78 107.079 191.67 108.513C191.067 137.649 177.416 163.579 156.323 180.695C154.725 179.859 152.935 179.41 151.099 179.41C148.112 179.41 145.249 180.596 143.137 182.708C141.026 184.819 140 188.395 140 191.381L128.581 196.298H117.322C111.112 196.298 106.063 191.249 106.063 185.039V162.522H111.692C114.678 162.522 117.542 161.335 119.653 159.224C121.765 157.112 122.951 154.249 122.951 151.263C122.951 148.277 121.765 145.413 119.653 143.301C117.542 141.19 114.678 140.004 111.692 140.004H106.063V117.486C106.063 111.276 111.112 106.227 117.322 106.227H134.21C134.21 96.9156 141.787 89.3384 151.099 89.3384C160.41 89.3384 167.987 96.9156 167.987 106.227Z" fill="#E8C100"/>
<path d="M167.987 106.227H184.875C187.426 106.227 189.78 107.079 191.67 108.513C191.067 137.649 177.416 163.579 156.323 180.695C154.725 179.859 152.935 179.41 151.099 179.41C148.112 179.41 145.249 180.596 143.137 182.708C141.026 184.819 140 188.395 140 191.381L128.581 196.298H117.322C111.112 196.298 106.063 191.249 106.063 185.039V162.522H111.692C114.678 162.522 117.542 161.335 119.653 159.224C121.765 157.112 122.951 154.249 122.951 151.263C122.951 148.277 121.765 145.413 119.653 143.301C117.542 141.19 114.678 140.004 111.692 140.004H106.063V117.486C106.063 111.276 111.112 106.227 117.322 106.227H134.21C134.21 96.9156 141.787 89.3384 151.099 89.3384C160.41 89.3384 167.987 96.9156 167.987 106.227Z" fill="url(#paint2_linear)" style="mix-blend-mode:soft-light"/>
<path d="M167.987 106.227H184.875C187.426 106.227 189.78 107.079 191.67 108.513C191.067 137.649 177.416 163.579 156.323 180.695C154.725 179.859 152.935 179.41 151.099 179.41C148.112 179.41 145.249 180.596 143.137 182.708C141.026 184.819 140 188.395 140 191.381L128.581 196.298H117.322C111.112 196.298 106.063 191.249 106.063 185.039V162.522H111.692C114.678 162.522 117.542 161.335 119.653 159.224C121.765 157.112 122.951 154.249 122.951 151.263C122.951 148.277 121.765 145.413 119.653 143.301C117.542 141.19 114.678 140.004 111.692 140.004H106.063V117.486C106.063 111.276 111.112 106.227 117.322 106.227H134.21C134.21 96.9156 141.787 89.3384 151.099 89.3384C160.41 89.3384 167.987 96.9156 167.987 106.227Z" fill="url(#paint3_linear)" style="mix-blend-mode:hard-light"/>
</g>
<g filter="url(#filter2_d)">
<path d="M106.63 46.6327V29.7443C106.63 23.535 101.58 18.4853 95.3708 18.4853H78.4823C78.4823 9.1742 70.9051 1.59692 61.5939 1.59692C52.2828 1.59692 44.7055 9.1742 44.7055 18.4853H27.8171C21.6077 18.4853 16.5581 23.535 16.5581 29.7443V52.2622H22.1876C25.1736 52.2622 28.0374 53.4484 30.1489 55.5599C32.2603 57.6713 33.4465 60.5351 33.4465 63.5211C33.4465 66.5072 32.2603 69.3709 30.1489 71.4824C28.0374 73.5939 25.1736 74.7801 22.1876 74.7801H16.5581V97.298C16.5581 103.507 21.6077 108.557 27.8171 108.557H50.335V102.927C50.335 99.9414 51.5212 97.0776 53.6326 94.9662C55.7441 92.8547 58.6078 91.6685 61.5939 91.6685C64.58 91.6685 67.4437 92.8547 69.5552 94.9662C71.6666 97.0776 72.8529 99.9414 72.8529 102.927V108.557H95.3708C101.58 108.557 106.63 103.507 106.63 97.298V80.4096C115.941 80.4096 123.518 72.8323 123.518 63.5211C123.518 54.21 115.941 46.6327 106.63 46.6327Z" fill="#5FB8E9"/>
<path d="M106.63 46.6327V29.7443C106.63 23.535 101.58 18.4853 95.3708 18.4853H78.4823C78.4823 9.1742 70.9051 1.59692 61.5939 1.59692C52.2828 1.59692 44.7055 9.1742 44.7055 18.4853H27.8171C21.6077 18.4853 16.5581 23.535 16.5581 29.7443V52.2622H22.1876C25.1736 52.2622 28.0374 53.4484 30.1489 55.5599C32.2603 57.6713 33.4465 60.5351 33.4465 63.5211C33.4465 66.5072 32.2603 69.3709 30.1489 71.4824C28.0374 73.5939 25.1736 74.7801 22.1876 74.7801H16.5581V97.298C16.5581 103.507 21.6077 108.557 27.8171 108.557H50.335V102.927C50.335 99.9414 51.5212 97.0776 53.6326 94.9662C55.7441 92.8547 58.6078 91.6685 61.5939 91.6685C64.58 91.6685 67.4437 92.8547 69.5552 94.9662C71.6666 97.0776 72.8529 99.9414 72.8529 102.927V108.557H95.3708C101.58 108.557 106.63 103.507 106.63 97.298V80.4096C115.941 80.4096 123.518 72.8323 123.518 63.5211C123.518 54.21 115.941 46.6327 106.63 46.6327Z" fill="url(#paint4_linear)" style="mix-blend-mode:soft-light"/>
<path d="M106.63 46.6327V29.7443C106.63 23.535 101.58 18.4853 95.3708 18.4853H78.4823C78.4823 9.1742 70.9051 1.59692 61.5939 1.59692C52.2828 1.59692 44.7055 9.1742 44.7055 18.4853H27.8171C21.6077 18.4853 16.5581 23.535 16.5581 29.7443V52.2622H22.1876C25.1736 52.2622 28.0374 53.4484 30.1489 55.5599C32.2603 57.6713 33.4465 60.5351 33.4465 63.5211C33.4465 66.5072 32.2603 69.3709 30.1489 71.4824C28.0374 73.5939 25.1736 74.7801 22.1876 74.7801H16.5581V97.298C16.5581 103.507 21.6077 108.557 27.8171 108.557H50.335V102.927C50.335 99.9414 51.5212 97.0776 53.6326 94.9662C55.7441 92.8547 58.6078 91.6685 61.5939 91.6685C64.58 91.6685 67.4437 92.8547 69.5552 94.9662C71.6666 97.0776 72.8529 99.9414 72.8529 102.927V108.557H95.3708C101.58 108.557 106.63 103.507 106.63 97.298V80.4096C115.941 80.4096 123.518 72.8323 123.518 63.5211C123.518 54.21 115.941 46.6327 106.63 46.6327Z" fill="url(#paint5_linear)" style="mix-blend-mode:hard-light"/>
</g>
</g>
<defs>
<filter id="filter0_d" x="12.5581" y="90.3384" width="114.96" height="114.96" filterUnits="userSpaceOnUse" color-interpolation-filters="sRGB">
<feFlood flood-opacity="0" result="BackgroundImageFix"/>
<feColorMatrix in="SourceAlpha" type="matrix" values="0 0 0 0 0 0 0 0 0 0 0 0 0 0 0 0 0 0 127 0"/>
<feOffset dy="4"/>
<feGaussianBlur stdDeviation="2"/>
<feColorMatrix type="matrix" values="0 0 0 0 0 0 0 0 0 0 0 0 0 0 0 0 0 0 0.25 0"/>
<feBlend mode="normal" in2="BackgroundImageFix" result="effect1_dropShadow"/>
<feBlend mode="normal" in="SourceGraphic" in2="effect1_dropShadow" result="shape"/>
</filter>
<filter id="filter1_d" x="102.063" y="89.3384" width="93.6069" height="114.96" filterUnits="userSpaceOnUse" color-interpolation-filters="sRGB">
<feFlood flood-opacity="0" result="BackgroundImageFix"/>
<feColorMatrix in="SourceAlpha" type="matrix" values="0 0 0 0 0 0 0 0 0 0 0 0 0 0 0 0 0 0 127 0"/>
<feOffset dy="4"/>
<feGaussianBlur stdDeviation="2"/>
<feColorMatrix type="matrix" values="0 0 0 0 0 0 0 0 0 0 0 0 0 0 0 0 0 0 0.25 0"/>
<feBlend mode="normal" in2="BackgroundImageFix" result="effect1_dropShadow"/>
<feBlend mode="normal" in="SourceGraphic" in2="effect1_dropShadow" result="shape"/>
</filter>
<filter id="filter2_d" x="12.5581" y="1.59692" width="114.96" height="114.96" filterUnits="userSpaceOnUse" color-interpolation-filters="sRGB">
<feFlood flood-opacity="0" result="BackgroundImageFix"/>
<feColorMatrix in="SourceAlpha" type="matrix" values="0 0 0 0 0 0 0 0 0 0 0 0 0 0 0 0 0 0 127 0"/>
<feOffset dy="4"/>
<feGaussianBlur stdDeviation="2"/>
<feColorMatrix type="matrix" values="0 0 0 0 0 0 0 0 0 0 0 0 0 0 0 0 0 0 0.25 0"/>
<feBlend mode="normal" in2="BackgroundImageFix" result="effect1_dropShadow"/>
<feBlend mode="normal" in="SourceGraphic" in2="effect1_dropShadow" result="shape"/>
</filter>
<linearGradient id="paint0_linear" x1="70.0381" y1="90.6914" x2="70.0381" y2="197.298" gradientUnits="userSpaceOnUse">
<stop stop-color="white" stop-opacity="0.94"/>
<stop offset="1" stop-color="white" stop-opacity="0"/>
</linearGradient>
<linearGradient id="paint1_linear" x1="70.0381" y1="90.6914" x2="70.0381" y2="197.298" gradientUnits="userSpaceOnUse">
<stop offset="0.416667" stop-color="#C10000" stop-opacity="0"/>
<stop offset="1" stop-color="#860000" stop-opacity="0.69"/>
</linearGradient>
<linearGradient id="paint2_linear" x1="148.866" y1="89.6914" x2="148.866" y2="196.298" gradientUnits="userSpaceOnUse">
<stop stop-color="white" stop-opacity="0.94"/>
<stop offset="1" stop-color="white" stop-opacity="0"/>
</linearGradient>
<linearGradient id="paint3_linear" x1="148.866" y1="89.6914" x2="148.866" y2="196.298" gradientUnits="userSpaceOnUse">
<stop stop-color="#972400" stop-opacity="0"/>
<stop offset="1" stop-color="#744328" stop-opacity="0.69"/>
</linearGradient>
<linearGradient id="paint4_linear" x1="70.0381" y1="1.59692" x2="70.0381" y2="108.557" gradientUnits="userSpaceOnUse">
<stop stop-color="white" stop-opacity="0.74"/>
<stop offset="1" stop-color="white" stop-opacity="0"/>
</linearGradient>
<linearGradient id="paint5_linear" x1="70.0381" y1="1.59692" x2="70.0381" y2="108.557" gradientUnits="userSpaceOnUse">
<stop stop-color="#001897" stop-opacity="0"/>
<stop offset="1" stop-color="#051EA2" stop-opacity="0.17"/>
</linearGradient>
</defs>
</svg>
