<svg width="70" height="70" viewBox="0 0 316 316" fill="none" xmlns="http://www.w3.org/2000/svg">
<g filter="url(#filter0_i)">
<circle cx="158" cy="158" r="158" fill="#A85237"/>
</g>
<circle cx="158" cy="158" r="143.5" stroke="#D66441" stroke-width="29"/>
<circle cx="158" cy="158" r="143.5" stroke="url(#paint0_linear)" stroke-opacity="0.38" stroke-width="29" style="mix-blend-mode:luminosity"/>
<g filter="url(#filter1_d)">
<path d="M204 106H176.83C174.1 98.46 166.95 93 158.5 93C150.05 93 142.9 98.46 140.17 106H113C105.85 106 100 111.85 100 119V210C100 217.15 105.85 223 113 223H204C211.15 223 217 217.15 217 210V119C217 111.85 211.15 106 204 106ZM158.5 106C162.075 106 165 108.925 165 112.5C165 116.075 162.075 119 158.5 119C154.925 119 152 116.075 152 112.5C152 108.925 154.925 106 158.5 106ZM165 197H132.5C128.925 197 126 194.075 126 190.5C126 186.925 128.925 184 132.5 184H165C168.575 184 171.5 186.925 171.5 190.5C171.5 194.075 168.575 197 165 197ZM184.5 171H132.5C128.925 171 126 168.075 126 164.5C126 160.925 128.925 158 132.5 158H184.5C188.075 158 191 160.925 191 164.5C191 168.075 188.075 171 184.5 171ZM184.5 145H132.5C128.925 145 126 142.075 126 138.5C126 134.925 128.925 132 132.5 132H184.5C188.075 132 191 134.925 191 138.5C191 142.075 188.075 145 184.5 145Z" fill="#D66441"/>
</g>
<defs>
<filter id="filter0_i" x="0" y="0" width="316" height="316" filterUnits="userSpaceOnUse" color-interpolation-filters="sRGB">
<feFlood flood-opacity="0" result="BackgroundImageFix"/>
<feBlend mode="normal" in="SourceGraphic" in2="BackgroundImageFix" result="shape"/>
<feColorMatrix in="SourceAlpha" type="matrix" values="0 0 0 0 0 0 0 0 0 0 0 0 0 0 0 0 0 0 127 0" result="hardAlpha"/>
<feMorphology radius="38" operator="erode" in="SourceAlpha" result="effect1_innerShadow"/>
<feOffset/>
<feGaussianBlur stdDeviation="4.5"/>
<feComposite in2="hardAlpha" operator="arithmetic" k2="-1" k3="1"/>
<feColorMatrix type="matrix" values="0 0 0 0 0 0 0 0 0 0 0 0 0 0 0 0 0 0 0.3 0"/>
<feBlend mode="soft-light" in2="shape" result="effect1_innerShadow"/>
</filter>
<filter id="filter1_d" x="96" y="93" width="125" height="138" filterUnits="userSpaceOnUse" color-interpolation-filters="sRGB">
<feFlood flood-opacity="0" result="BackgroundImageFix"/>
<feColorMatrix in="SourceAlpha" type="matrix" values="0 0 0 0 0 0 0 0 0 0 0 0 0 0 0 0 0 0 127 0"/>
<feOffset dy="4"/>
<feGaussianBlur stdDeviation="2"/>
<feColorMatrix type="matrix" values="0 0 0 0 0 0 0 0 0 0 0 0 0 0 0 0 0 0 0.25 0"/>
<feBlend mode="normal" in2="BackgroundImageFix" result="effect1_dropShadow"/>
<feBlend mode="normal" in="SourceGraphic" in2="effect1_dropShadow" result="shape"/>
</filter>
<linearGradient id="paint0_linear" x1="66" y1="46" x2="224" y2="290" gradientUnits="userSpaceOnUse">
<stop offset="0.21865" stop-color="white" stop-opacity="0"/>
<stop offset="0.21875" stop-color="white"/>
<stop offset="0.317708" stop-color="white"/>
<stop offset="0.317808" stop-color="white" stop-opacity="0"/>
<stop offset="0.515525" stop-color="white" stop-opacity="0"/>
<stop offset="0.515625" stop-color="white"/>
<stop offset="0.755108" stop-color="white"/>
<stop offset="0.755208" stop-color="white" stop-opacity="0"/>
</linearGradient>
</defs>
</svg>
