<svg width="324" height="324" viewBox="0 0 324 324" fill="none" xmlns="http://www.w3.org/2000/svg">
<g filter="url(#filter0_di)">
<circle cx="162" cy="158" r="158" fill="#A85237"/>
<circle cx="162" cy="158" r="143.5" stroke="#D66441" stroke-width="29"/>
<circle cx="162" cy="158" r="143.5" stroke="url(#paint0_linear)" stroke-opacity="0.38" stroke-width="29" style="mix-blend-mode:luminosity"/>
</g>
<g filter="url(#filter1_d)">
<path d="M212.474 147.737V127.211C212.474 119.664 206.336 113.526 198.789 113.526H178.263C178.263 102.209 169.054 93 157.737 93C146.42 93 137.211 102.209 137.211 113.526H116.684C109.137 113.526 103 119.664 103 127.211V154.579H109.842C113.471 154.579 116.952 156.021 119.518 158.587C122.085 161.153 123.526 164.634 123.526 168.263C123.526 171.892 122.085 175.373 119.518 177.939C116.952 180.506 113.471 181.947 109.842 181.947H103V209.316C103 216.863 109.137 223 116.684 223H144.053V216.158C144.053 212.529 145.494 209.048 148.061 206.482C150.627 203.915 154.108 202.474 157.737 202.474C161.366 202.474 164.847 203.915 167.413 206.482C169.979 209.048 171.421 212.529 171.421 216.158V223H198.789C206.336 223 212.474 216.863 212.474 209.316V188.789C223.791 188.789 233 179.58 233 168.263C233 156.946 223.791 147.737 212.474 147.737Z" fill="#D66441"/>
</g>
<defs>
<filter id="filter0_di" x="0" y="0" width="324" height="324" filterUnits="userSpaceOnUse" color-interpolation-filters="sRGB">
<feFlood flood-opacity="0" result="BackgroundImageFix"/>
<feColorMatrix in="SourceAlpha" type="matrix" values="0 0 0 0 0 0 0 0 0 0 0 0 0 0 0 0 0 0 127 0"/>
<feOffset dy="4"/>
<feGaussianBlur stdDeviation="2"/>
<feColorMatrix type="matrix" values="0 0 0 0 0 0 0 0 0 0 0 0 0 0 0 0 0 0 0.7 0"/>
<feBlend mode="normal" in2="BackgroundImageFix" result="effect1_dropShadow"/>
<feBlend mode="normal" in="SourceGraphic" in2="effect1_dropShadow" result="shape"/>
<feColorMatrix in="SourceAlpha" type="matrix" values="0 0 0 0 0 0 0 0 0 0 0 0 0 0 0 0 0 0 127 0" result="hardAlpha"/>
<feMorphology radius="38" operator="erode" in="SourceAlpha" result="effect2_innerShadow"/>
<feOffset/>
<feGaussianBlur stdDeviation="4.5"/>
<feComposite in2="hardAlpha" operator="arithmetic" k2="-1" k3="1"/>
<feColorMatrix type="matrix" values="0 0 0 0 0 0 0 0 0 0 0 0 0 0 0 0 0 0 0.3 0"/>
<feBlend mode="soft-light" in2="shape" result="effect2_innerShadow"/>
</filter>
<filter id="filter1_d" x="99" y="93" width="138" height="138" filterUnits="userSpaceOnUse" color-interpolation-filters="sRGB">
<feFlood flood-opacity="0" result="BackgroundImageFix"/>
<feColorMatrix in="SourceAlpha" type="matrix" values="0 0 0 0 0 0 0 0 0 0 0 0 0 0 0 0 0 0 127 0"/>
<feOffset dy="4"/>
<feGaussianBlur stdDeviation="2"/>
<feColorMatrix type="matrix" values="0 0 0 0 0 0 0 0 0 0 0 0 0 0 0 0 0 0 0.25 0"/>
<feBlend mode="normal" in2="BackgroundImageFix" result="effect1_dropShadow"/>
<feBlend mode="normal" in="SourceGraphic" in2="effect1_dropShadow" result="shape"/>
</filter>
<linearGradient id="paint0_linear" x1="70" y1="46" x2="228" y2="290" gradientUnits="userSpaceOnUse">
<stop offset="0.21865" stop-color="white" stop-opacity="0"/>
<stop offset="0.21875" stop-color="white"/>
<stop offset="0.317708" stop-color="white"/>
<stop offset="0.317808" stop-color="white" stop-opacity="0"/>
<stop offset="0.515525" stop-color="white" stop-opacity="0"/>
<stop offset="0.515625" stop-color="white"/>
<stop offset="0.755108" stop-color="white"/>
<stop offset="0.755208" stop-color="white" stop-opacity="0"/>
</linearGradient>
</defs>
</svg>
