<svg width="70" height="70" viewBox="0 0 316 316" fill="none" xmlns="http://www.w3.org/2000/svg">
<g filter="url(#filter0_ii)">
<circle cx="158" cy="158" r="143.5" fill="#D88203"/>
<circle cx="158" cy="158" r="143.5" stroke="#FFA01B" stroke-width="29"/>
<circle cx="158" cy="158" r="143.5" stroke="url(#paint0_linear)" stroke-opacity="0.38" stroke-width="29" style="mix-blend-mode:luminosity"/>
<path d="M206.474 147.737V127.211C206.474 119.664 200.336 113.526 192.789 113.526H172.263C172.263 102.209 163.054 93 151.737 93C140.42 93 131.211 102.209 131.211 113.526H110.684C103.137 113.526 97 119.664 97 127.211V154.579H103.842C107.471 154.579 110.952 156.021 113.518 158.587C116.085 161.153 117.526 164.634 117.526 168.263C117.526 171.892 116.085 175.373 113.518 177.939C110.952 180.506 107.471 181.947 103.842 181.947H97V209.316C97 216.863 103.137 223 110.684 223H138.053V216.158C138.053 212.529 139.494 209.048 142.061 206.482C144.627 203.915 148.108 202.474 151.737 202.474C155.366 202.474 158.847 203.915 161.413 206.482C163.979 209.048 165.421 212.529 165.421 216.158V223H192.789C200.336 223 206.474 216.863 206.474 209.316V188.789C217.791 188.789 227 179.58 227 168.263C227 156.946 217.791 147.737 206.474 147.737Z" fill="#FFA01B"/>
</g>
<defs>
<filter id="filter0_ii" x="0" y="0" width="316" height="316" filterUnits="userSpaceOnUse" color-interpolation-filters="sRGB">
<feFlood flood-opacity="0" result="BackgroundImageFix"/>
<feBlend mode="normal" in="SourceGraphic" in2="BackgroundImageFix" result="shape"/>
<feColorMatrix in="SourceAlpha" type="matrix" values="0 0 0 0 0 0 0 0 0 0 0 0 0 0 0 0 0 0 127 0" result="hardAlpha"/>
<feOffset dy="352"/>
<feGaussianBlur stdDeviation="1"/>
<feComposite in2="hardAlpha" operator="arithmetic" k2="-1" k3="1"/>
<feColorMatrix type="matrix" values="0 0 0 0 0 0 0 0 0 0 0 0 0 0 0 0 0 0 0.31 0"/>
<feBlend mode="hue" in2="shape" result="effect1_innerShadow"/>
<feColorMatrix in="SourceAlpha" type="matrix" values="0 0 0 0 0 0 0 0 0 0 0 0 0 0 0 0 0 0 127 0" result="hardAlpha"/>
<feOffset dy="-470"/>
<feGaussianBlur stdDeviation="2"/>
<feComposite in2="hardAlpha" operator="arithmetic" k2="-1" k3="1"/>
<feColorMatrix type="matrix" values="0 0 0 0 0 0 0 0 0 0 0 0 0 0 0 0 0 0 0.46 0"/>
<feBlend mode="saturation" in2="effect1_innerShadow" result="effect2_innerShadow"/>
</filter>
<linearGradient id="paint0_linear" x1="66" y1="46" x2="224" y2="290" gradientUnits="userSpaceOnUse">
<stop offset="0.21865" stop-color="white" stop-opacity="0"/>
<stop offset="0.21875" stop-color="white"/>
<stop offset="0.317708" stop-color="white"/>
<stop offset="0.317808" stop-color="white" stop-opacity="0"/>
<stop offset="0.515525" stop-color="white" stop-opacity="0"/>
<stop offset="0.515625" stop-color="white"/>
<stop offset="0.755108" stop-color="white"/>
<stop offset="0.755208" stop-color="white" stop-opacity="0"/>
</linearGradient>
</defs>
</svg>
