<svg width="70" height="70" viewBox="0 0 316 316" fill="none" xmlns="http://www.w3.org/2000/svg">
<g filter="url(#filter0_ii)">
<circle cx="158" cy="158" r="143.5" fill="#696969"/>
<circle cx="158" cy="158" r="143.5" stroke="#C8C8C8" stroke-width="29" style="mix-blend-mode:hard-light"/>
<circle cx="158" cy="158" r="143.5" stroke="url(#paint0_linear)" stroke-opacity="0.38" stroke-width="29" style="mix-blend-mode:luminosity"/>
<path d="M201 106H173.83C171.1 98.46 163.95 93 155.5 93C147.05 93 139.9 98.46 137.17 106H110C102.85 106 97 111.85 97 119V210C97 217.15 102.85 223 110 223H201C208.15 223 214 217.15 214 210V119C214 111.85 208.15 106 201 106ZM155.5 106C159.075 106 162 108.925 162 112.5C162 116.075 159.075 119 155.5 119C151.925 119 149 116.075 149 112.5C149 108.925 151.925 106 155.5 106ZM162 197H129.5C125.925 197 123 194.075 123 190.5C123 186.925 125.925 184 129.5 184H162C165.575 184 168.5 186.925 168.5 190.5C168.5 194.075 165.575 197 162 197ZM181.5 171H129.5C125.925 171 123 168.075 123 164.5C123 160.925 125.925 158 129.5 158H181.5C185.075 158 188 160.925 188 164.5C188 168.075 185.075 171 181.5 171ZM181.5 145H129.5C125.925 145 123 142.075 123 138.5C123 134.925 125.925 132 129.5 132H181.5C185.075 132 188 134.925 188 138.5C188 142.075 185.075 145 181.5 145Z" fill="#B7B7B7"/>
</g>
<defs>
<filter id="filter0_ii" x="0" y="0" width="316" height="316" filterUnits="userSpaceOnUse" color-interpolation-filters="sRGB">
<feFlood flood-opacity="0" result="BackgroundImageFix"/>
<feBlend mode="normal" in="SourceGraphic" in2="BackgroundImageFix" result="shape"/>
<feColorMatrix in="SourceAlpha" type="matrix" values="0 0 0 0 0 0 0 0 0 0 0 0 0 0 0 0 0 0 127 0" result="hardAlpha"/>
<feOffset dy="352"/>
<feGaussianBlur stdDeviation="1"/>
<feComposite in2="hardAlpha" operator="arithmetic" k2="-1" k3="1"/>
<feColorMatrix type="matrix" values="0 0 0 0 0 0 0 0 0 0 0 0 0 0 0 0 0 0 0.37 0"/>
<feBlend mode="normal" in2="shape" result="effect1_innerShadow"/>
<feColorMatrix in="SourceAlpha" type="matrix" values="0 0 0 0 0 0 0 0 0 0 0 0 0 0 0 0 0 0 127 0" result="hardAlpha"/>
<feOffset dy="-470"/>
<feGaussianBlur stdDeviation="2"/>
<feComposite in2="hardAlpha" operator="arithmetic" k2="-1" k3="1"/>
<feColorMatrix type="matrix" values="0 0 0 0 0 0 0 0 0 0 0 0 0 0 0 0 0 0 0.46 0"/>
<feBlend mode="saturation" in2="effect1_innerShadow" result="effect2_innerShadow"/>
</filter>
<linearGradient id="paint0_linear" x1="66" y1="46" x2="224" y2="290" gradientUnits="userSpaceOnUse">
<stop offset="0.21865" stop-color="white" stop-opacity="0"/>
<stop offset="0.21875" stop-color="white"/>
<stop offset="0.317708" stop-color="white"/>
<stop offset="0.317808" stop-color="white" stop-opacity="0"/>
<stop offset="0.515525" stop-color="white" stop-opacity="0"/>
<stop offset="0.515625" stop-color="white"/>
<stop offset="0.755108" stop-color="white"/>
<stop offset="0.755208" stop-color="white" stop-opacity="0"/>
</linearGradient>
</defs>
</svg>
