<svg width="324" height="324" viewBox="0 0 324 324" fill="none" xmlns="http://www.w3.org/2000/svg">
<g filter="url(#filter0_di)">
<circle cx="162" cy="158" r="158" fill="#A85237"/>
<circle cx="162" cy="158" r="143.5" stroke="#D66441" stroke-width="29"/>
<circle cx="162" cy="158" r="143.5" stroke="url(#paint0_linear)" stroke-opacity="0.38" stroke-width="29" style="mix-blend-mode:luminosity"/>
</g>
<g filter="url(#filter1_d)">
<path d="M208 106H180.83C178.1 98.46 170.95 93 162.5 93C154.05 93 146.9 98.46 144.17 106H117C109.85 106 104 111.85 104 119V210C104 217.15 109.85 223 117 223H208C215.15 223 221 217.15 221 210V119C221 111.85 215.15 106 208 106ZM162.5 106C166.075 106 169 108.925 169 112.5C169 116.075 166.075 119 162.5 119C158.925 119 156 116.075 156 112.5C156 108.925 158.925 106 162.5 106ZM169 197H136.5C132.925 197 130 194.075 130 190.5C130 186.925 132.925 184 136.5 184H169C172.575 184 175.5 186.925 175.5 190.5C175.5 194.075 172.575 197 169 197ZM188.5 171H136.5C132.925 171 130 168.075 130 164.5C130 160.925 132.925 158 136.5 158H188.5C192.075 158 195 160.925 195 164.5C195 168.075 192.075 171 188.5 171ZM188.5 145H136.5C132.925 145 130 142.075 130 138.5C130 134.925 132.925 132 136.5 132H188.5C192.075 132 195 134.925 195 138.5C195 142.075 192.075 145 188.5 145Z" fill="#D66441"/>
</g>
<defs>
<filter id="filter0_di" x="0" y="0" width="324" height="324" filterUnits="userSpaceOnUse" color-interpolation-filters="sRGB">
<feFlood flood-opacity="0" result="BackgroundImageFix"/>
<feColorMatrix in="SourceAlpha" type="matrix" values="0 0 0 0 0 0 0 0 0 0 0 0 0 0 0 0 0 0 127 0"/>
<feOffset dy="4"/>
<feGaussianBlur stdDeviation="2"/>
<feColorMatrix type="matrix" values="0 0 0 0 0 0 0 0 0 0 0 0 0 0 0 0 0 0 0.7 0"/>
<feBlend mode="normal" in2="BackgroundImageFix" result="effect1_dropShadow"/>
<feBlend mode="normal" in="SourceGraphic" in2="effect1_dropShadow" result="shape"/>
<feColorMatrix in="SourceAlpha" type="matrix" values="0 0 0 0 0 0 0 0 0 0 0 0 0 0 0 0 0 0 127 0" result="hardAlpha"/>
<feMorphology radius="38" operator="erode" in="SourceAlpha" result="effect2_innerShadow"/>
<feOffset/>
<feGaussianBlur stdDeviation="4.5"/>
<feComposite in2="hardAlpha" operator="arithmetic" k2="-1" k3="1"/>
<feColorMatrix type="matrix" values="0 0 0 0 0 0 0 0 0 0 0 0 0 0 0 0 0 0 0.3 0"/>
<feBlend mode="soft-light" in2="shape" result="effect2_innerShadow"/>
</filter>
<filter id="filter1_d" x="100" y="93" width="125" height="138" filterUnits="userSpaceOnUse" color-interpolation-filters="sRGB">
<feFlood flood-opacity="0" result="BackgroundImageFix"/>
<feColorMatrix in="SourceAlpha" type="matrix" values="0 0 0 0 0 0 0 0 0 0 0 0 0 0 0 0 0 0 127 0"/>
<feOffset dy="4"/>
<feGaussianBlur stdDeviation="2"/>
<feColorMatrix type="matrix" values="0 0 0 0 0 0 0 0 0 0 0 0 0 0 0 0 0 0 0.25 0"/>
<feBlend mode="normal" in2="BackgroundImageFix" result="effect1_dropShadow"/>
<feBlend mode="normal" in="SourceGraphic" in2="effect1_dropShadow" result="shape"/>
</filter>
<linearGradient id="paint0_linear" x1="70" y1="46" x2="228" y2="290" gradientUnits="userSpaceOnUse">
<stop offset="0.21865" stop-color="white" stop-opacity="0"/>
<stop offset="0.21875" stop-color="white"/>
<stop offset="0.317708" stop-color="white"/>
<stop offset="0.317808" stop-color="white" stop-opacity="0"/>
<stop offset="0.515525" stop-color="white" stop-opacity="0"/>
<stop offset="0.515625" stop-color="white"/>
<stop offset="0.755108" stop-color="white"/>
<stop offset="0.755208" stop-color="white" stop-opacity="0"/>
</linearGradient>
</defs>
</svg>
