<svg width="70" height="70" viewBox="0 0 316 316" fill="none" xmlns="http://www.w3.org/2000/svg">
<g filter="url(#filter0_i)">
<circle cx="158" cy="158" r="158" fill="#A85237"/>
</g>
<circle cx="158" cy="158" r="143.5" stroke="#D66441" stroke-width="29"/>
<circle cx="158" cy="158" r="143.5" stroke="url(#paint0_linear)" stroke-opacity="0.38" stroke-width="29" style="mix-blend-mode:luminosity"/>
<g filter="url(#filter1_d)">
<path d="M222.997 141.748H174.248L192.472 123.525C183.267 114.319 171.023 109.249 157.999 109.249C144.975 109.249 132.739 114.319 123.526 123.525C114.32 132.73 109.251 144.974 109.251 157.998C109.251 171.022 114.32 183.257 123.526 192.471C132.731 201.676 144.975 206.746 157.999 206.746C164.951 206.766 171.826 205.29 178.157 202.417C184.488 199.545 190.127 195.343 194.69 190.098L206.918 200.799C198.332 210.613 186.992 217.618 174.373 220.903C161.753 224.189 148.438 223.602 136.156 219.22C123.874 214.838 113.194 206.863 105.504 196.332C97.8147 185.801 93.4703 173.2 93.0361 160.167C92.6018 147.134 96.0977 134.272 103.069 123.252C110.041 112.232 120.166 103.564 132.129 98.3742C144.092 93.1843 157.339 91.7127 170.149 94.1506C182.959 96.5885 194.74 102.823 203.96 112.044L222.997 93V141.748Z" fill="#D66441"/>
</g>
<defs>
<filter id="filter0_i" x="0" y="0" width="316" height="316" filterUnits="userSpaceOnUse" color-interpolation-filters="sRGB">
<feFlood flood-opacity="0" result="BackgroundImageFix"/>
<feBlend mode="normal" in="SourceGraphic" in2="BackgroundImageFix" result="shape"/>
<feColorMatrix in="SourceAlpha" type="matrix" values="0 0 0 0 0 0 0 0 0 0 0 0 0 0 0 0 0 0 127 0" result="hardAlpha"/>
<feMorphology radius="38" operator="erode" in="SourceAlpha" result="effect1_innerShadow"/>
<feOffset/>
<feGaussianBlur stdDeviation="4.5"/>
<feComposite in2="hardAlpha" operator="arithmetic" k2="-1" k3="1"/>
<feColorMatrix type="matrix" values="0 0 0 0 0 0 0 0 0 0 0 0 0 0 0 0 0 0 0.3 0"/>
<feBlend mode="soft-light" in2="shape" result="effect1_innerShadow"/>
</filter>
<filter id="filter1_d" x="89" y="93" width="137.997" height="138" filterUnits="userSpaceOnUse" color-interpolation-filters="sRGB">
<feFlood flood-opacity="0" result="BackgroundImageFix"/>
<feColorMatrix in="SourceAlpha" type="matrix" values="0 0 0 0 0 0 0 0 0 0 0 0 0 0 0 0 0 0 127 0"/>
<feOffset dy="4"/>
<feGaussianBlur stdDeviation="2"/>
<feColorMatrix type="matrix" values="0 0 0 0 0 0 0 0 0 0 0 0 0 0 0 0 0 0 0.25 0"/>
<feBlend mode="normal" in2="BackgroundImageFix" result="effect1_dropShadow"/>
<feBlend mode="normal" in="SourceGraphic" in2="effect1_dropShadow" result="shape"/>
</filter>
<linearGradient id="paint0_linear" x1="66" y1="46" x2="224" y2="290" gradientUnits="userSpaceOnUse">
<stop offset="0.21865" stop-color="white" stop-opacity="0"/>
<stop offset="0.21875" stop-color="white"/>
<stop offset="0.317708" stop-color="white"/>
<stop offset="0.317808" stop-color="white" stop-opacity="0"/>
<stop offset="0.515525" stop-color="white" stop-opacity="0"/>
<stop offset="0.515625" stop-color="white"/>
<stop offset="0.755108" stop-color="white"/>
<stop offset="0.755208" stop-color="white" stop-opacity="0"/>
</linearGradient>
</defs>
</svg>
