<svg width="70" height="70" viewBox="0 0 316 316" fill="none" xmlns="http://www.w3.org/2000/svg">
<g filter="url(#filter0_ii)">
<circle cx="158" cy="158" r="143.5" fill="#696969"/>
<circle cx="158" cy="158" r="143.5" stroke="#C8C8C8" stroke-width="29" style="mix-blend-mode:hard-light"/>
<circle cx="158" cy="158" r="143.5" stroke="url(#paint0_linear)" stroke-opacity="0.38" stroke-width="29" style="mix-blend-mode:luminosity"/>
<path d="M132 93H184C194.343 93 204.263 97.1089 211.577 104.423C218.891 111.737 223 121.657 223 132V184C223 194.343 218.891 204.263 211.577 211.577C204.263 218.891 194.343 223 184 223H132C121.657 223 111.737 218.891 104.423 211.577C97.1089 204.263 93 194.343 93 184V132C93 121.657 97.1089 111.737 104.423 104.423C111.737 97.1089 121.657 93 132 93V93ZM171 151.5C169.276 151.5 167.623 152.185 166.404 153.404C165.185 154.623 164.5 156.276 164.5 158C164.5 159.724 165.185 161.377 166.404 162.596C167.623 163.815 169.276 164.5 171 164.5H190.5C192.224 164.5 193.877 163.815 195.096 162.596C196.315 161.377 197 159.724 197 158C197 156.276 196.315 154.623 195.096 153.404C193.877 152.185 192.224 151.5 190.5 151.5H171ZM158 177.5C156.276 177.5 154.623 178.185 153.404 179.404C152.185 180.623 151.5 182.276 151.5 184C151.5 185.724 152.185 187.377 153.404 188.596C154.623 189.815 156.276 190.5 158 190.5H190.5C192.224 190.5 193.877 189.815 195.096 188.596C196.315 187.377 197 185.724 197 184C197 182.276 196.315 180.623 195.096 179.404C193.877 178.185 192.224 177.5 190.5 177.5H158ZM158 125.5C156.276 125.5 154.623 126.185 153.404 127.404C152.185 128.623 151.5 130.276 151.5 132C151.5 133.724 152.185 135.377 153.404 136.596C154.623 137.815 156.276 138.5 158 138.5H190.5C192.224 138.5 193.877 137.815 195.096 136.596C196.315 135.377 197 133.724 197 132C197 130.276 196.315 128.623 195.096 127.404C193.877 126.185 192.224 125.5 190.5 125.5H158ZM130.882 159.58L126.286 154.984C125.687 154.363 124.97 153.868 124.177 153.527C123.384 153.187 122.531 153.007 121.668 153C120.805 152.992 119.949 153.157 119.15 153.484C118.351 153.81 117.625 154.293 117.015 154.903C116.405 155.514 115.922 156.239 115.595 157.038C115.268 157.837 115.104 158.693 115.111 159.556C115.119 160.419 115.298 161.272 115.639 162.065C115.98 162.858 116.475 163.575 117.095 164.175L126.286 173.366C126.89 173.97 127.607 174.45 128.396 174.777C129.185 175.104 130.031 175.272 130.885 175.272C131.739 175.272 132.585 175.104 133.374 174.777C134.163 174.45 134.88 173.97 135.484 173.366L153.866 154.984C154.47 154.381 154.95 153.664 155.277 152.875C155.605 152.086 155.774 151.241 155.774 150.387C155.775 149.533 155.607 148.687 155.281 147.897C154.955 147.108 154.476 146.391 153.872 145.787C153.269 145.182 152.552 144.703 151.764 144.375C150.975 144.048 150.129 143.879 149.275 143.878C148.421 143.878 147.575 144.045 146.786 144.372C145.997 144.698 145.279 145.177 144.675 145.78L130.882 159.573V159.58Z" fill="#B7B7B7"/>
</g>
<defs>
<filter id="filter0_ii" x="0" y="0" width="316" height="316" filterUnits="userSpaceOnUse" color-interpolation-filters="sRGB">
<feFlood flood-opacity="0" result="BackgroundImageFix"/>
<feBlend mode="normal" in="SourceGraphic" in2="BackgroundImageFix" result="shape"/>
<feColorMatrix in="SourceAlpha" type="matrix" values="0 0 0 0 0 0 0 0 0 0 0 0 0 0 0 0 0 0 127 0" result="hardAlpha"/>
<feOffset dy="352"/>
<feGaussianBlur stdDeviation="1"/>
<feComposite in2="hardAlpha" operator="arithmetic" k2="-1" k3="1"/>
<feColorMatrix type="matrix" values="0 0 0 0 0 0 0 0 0 0 0 0 0 0 0 0 0 0 0.37 0"/>
<feBlend mode="normal" in2="shape" result="effect1_innerShadow"/>
<feColorMatrix in="SourceAlpha" type="matrix" values="0 0 0 0 0 0 0 0 0 0 0 0 0 0 0 0 0 0 127 0" result="hardAlpha"/>
<feOffset dy="-470"/>
<feGaussianBlur stdDeviation="2"/>
<feComposite in2="hardAlpha" operator="arithmetic" k2="-1" k3="1"/>
<feColorMatrix type="matrix" values="0 0 0 0 0 0 0 0 0 0 0 0 0 0 0 0 0 0 0.46 0"/>
<feBlend mode="saturation" in2="effect1_innerShadow" result="effect2_innerShadow"/>
</filter>
<linearGradient id="paint0_linear" x1="66" y1="46" x2="224" y2="290" gradientUnits="userSpaceOnUse">
<stop offset="0.21865" stop-color="white" stop-opacity="0"/>
<stop offset="0.21875" stop-color="white"/>
<stop offset="0.317708" stop-color="white"/>
<stop offset="0.317808" stop-color="white" stop-opacity="0"/>
<stop offset="0.515525" stop-color="white" stop-opacity="0"/>
<stop offset="0.515625" stop-color="white"/>
<stop offset="0.755108" stop-color="white"/>
<stop offset="0.755208" stop-color="white" stop-opacity="0"/>
</linearGradient>
</defs>
</svg>
