<svg width="316" height="316" viewBox="0 0 316 316" fill="none" xmlns="http://www.w3.org/2000/svg">
<g filter="url(#filter0_ii)">
<circle cx="158" cy="158" r="143.5" fill="#696969"/>
<circle cx="158" cy="158" r="143.5" stroke="#C8C8C8" stroke-width="29" style="mix-blend-mode:hard-light"/>
<circle cx="158" cy="158" r="143.5" stroke="url(#paint0_linear)" stroke-opacity="0.38" stroke-width="29" style="mix-blend-mode:luminosity"/>
<path d="M204.474 147.737V127.211C204.474 119.664 198.336 113.526 190.789 113.526H170.263C170.263 102.209 161.054 93 149.737 93C138.42 93 129.211 102.209 129.211 113.526H108.684C101.137 113.526 95 119.664 95 127.211V154.579H101.842C105.471 154.579 108.952 156.021 111.518 158.587C114.085 161.153 115.526 164.634 115.526 168.263C115.526 171.892 114.085 175.373 111.518 177.939C108.952 180.506 105.471 181.947 101.842 181.947H95V209.316C95 216.863 101.137 223 108.684 223H136.053V216.158C136.053 212.529 137.494 209.048 140.061 206.482C142.627 203.915 146.108 202.474 149.737 202.474C153.366 202.474 156.847 203.915 159.413 206.482C161.979 209.048 163.421 212.529 163.421 216.158V223H190.789C198.336 223 204.474 216.863 204.474 209.316V188.789C215.791 188.789 225 179.58 225 168.263C225 156.946 215.791 147.737 204.474 147.737Z" fill="#B7B7B7"/>
</g>
<defs>
<filter id="filter0_ii" x="0" y="0" width="316" height="316" filterUnits="userSpaceOnUse" color-interpolation-filters="sRGB">
<feFlood flood-opacity="0" result="BackgroundImageFix"/>
<feBlend mode="normal" in="SourceGraphic" in2="BackgroundImageFix" result="shape"/>
<feColorMatrix in="SourceAlpha" type="matrix" values="0 0 0 0 0 0 0 0 0 0 0 0 0 0 0 0 0 0 127 0" result="hardAlpha"/>
<feOffset dy="352"/>
<feGaussianBlur stdDeviation="1"/>
<feComposite in2="hardAlpha" operator="arithmetic" k2="-1" k3="1"/>
<feColorMatrix type="matrix" values="0 0 0 0 0 0 0 0 0 0 0 0 0 0 0 0 0 0 0.37 0"/>
<feBlend mode="normal" in2="shape" result="effect1_innerShadow"/>
<feColorMatrix in="SourceAlpha" type="matrix" values="0 0 0 0 0 0 0 0 0 0 0 0 0 0 0 0 0 0 127 0" result="hardAlpha"/>
<feOffset dy="-470"/>
<feGaussianBlur stdDeviation="2"/>
<feComposite in2="hardAlpha" operator="arithmetic" k2="-1" k3="1"/>
<feColorMatrix type="matrix" values="0 0 0 0 0 0 0 0 0 0 0 0 0 0 0 0 0 0 0.46 0"/>
<feBlend mode="saturation" in2="effect1_innerShadow" result="effect2_innerShadow"/>
</filter>
<linearGradient id="paint0_linear" x1="66" y1="46" x2="224" y2="290" gradientUnits="userSpaceOnUse">
<stop offset="0.21865" stop-color="white" stop-opacity="0"/>
<stop offset="0.21875" stop-color="white"/>
<stop offset="0.317708" stop-color="white"/>
<stop offset="0.317808" stop-color="white" stop-opacity="0"/>
<stop offset="0.515525" stop-color="white" stop-opacity="0"/>
<stop offset="0.515625" stop-color="white"/>
<stop offset="0.755108" stop-color="white"/>
<stop offset="0.755208" stop-color="white" stop-opacity="0"/>
</linearGradient>
</defs>
</svg>
