<svg width="284" height="430" viewBox="0 0 284 430" fill="none" xmlns="http://www.w3.org/2000/svg">
<g filter="url(#filter0_d)">
<path d="M144.761 57.94L140.424 41.2657C138.83 35.1351 132.547 31.4462 126.417 33.0409L109.742 37.378C107.351 28.1849 97.9239 22.6496 88.7307 25.0408C79.5376 27.432 74.0023 36.8591 76.3935 46.0522L59.7192 50.3894C53.5886 51.984 49.8997 58.2664 51.4944 64.397L57.2772 86.6295L62.8353 85.1838C65.7835 84.4169 68.9156 84.8527 71.5425 86.3951C74.1695 87.9376 76.0761 90.4604 76.843 93.4086C77.6098 96.3568 77.1741 99.4889 75.6316 102.116C74.0892 104.743 71.5663 106.649 68.6181 107.416L63.06 108.862L68.8429 131.094C70.4375 137.225 76.7199 140.914 82.8505 139.319L105.083 133.536L103.637 127.978C102.87 125.03 103.306 121.898 104.849 119.271C106.391 116.644 108.914 114.737 111.862 113.971C114.81 113.204 117.942 113.64 120.569 115.182C123.196 116.724 125.103 119.247 125.87 122.195L127.315 127.754L149.548 121.971C155.678 120.376 159.367 114.094 157.773 107.963L153.436 91.2887C162.629 88.8975 168.164 79.4704 165.773 70.2772C163.382 61.0841 153.954 55.5488 144.761 57.94Z" fill="#5FB8E9"/>
<path d="M144.761 57.94L140.424 41.2657C138.83 35.1351 132.547 31.4462 126.417 33.0409L109.742 37.378C107.351 28.1849 97.9239 22.6496 88.7307 25.0408C79.5376 27.432 74.0023 36.8591 76.3935 46.0522L59.7192 50.3894C53.5886 51.984 49.8997 58.2664 51.4944 64.397L57.2772 86.6295L62.8353 85.1838C65.7835 84.4169 68.9156 84.8527 71.5425 86.3951C74.1695 87.9376 76.0761 90.4604 76.843 93.4086C77.6098 96.3568 77.1741 99.4889 75.6316 102.116C74.0892 104.743 71.5663 106.649 68.6181 107.416L63.06 108.862L68.8429 131.094C70.4375 137.225 76.7199 140.914 82.8505 139.319L105.083 133.536L103.637 127.978C102.87 125.03 103.306 121.898 104.849 119.271C106.391 116.644 108.914 114.737 111.862 113.971C114.81 113.204 117.942 113.64 120.569 115.182C123.196 116.724 125.103 119.247 125.87 122.195L127.315 127.754L149.548 121.971C155.678 120.376 159.367 114.094 157.773 107.963L153.436 91.2887C162.629 88.8975 168.164 79.4704 165.773 70.2772C163.382 61.0841 153.954 55.5488 144.761 57.94Z" fill="url(#paint0_linear)" style="mix-blend-mode:soft-light"/>
<path d="M144.761 57.94L140.424 41.2657C138.83 35.1351 132.547 31.4462 126.417 33.0409L109.742 37.378C107.351 28.1849 97.9239 22.6496 88.7307 25.0408C79.5376 27.432 74.0023 36.8591 76.3935 46.0522L59.7192 50.3894C53.5886 51.984 49.8997 58.2664 51.4944 64.397L57.2772 86.6295L62.8353 85.1838C65.7835 84.4169 68.9156 84.8527 71.5425 86.3951C74.1695 87.9376 76.0761 90.4604 76.843 93.4086C77.6098 96.3568 77.1741 99.4889 75.6316 102.116C74.0892 104.743 71.5663 106.649 68.6181 107.416L63.06 108.862L68.8429 131.094C70.4375 137.225 76.7199 140.914 82.8505 139.319L105.083 133.536L103.637 127.978C102.87 125.03 103.306 121.898 104.849 119.271C106.391 116.644 108.914 114.737 111.862 113.971C114.81 113.204 117.942 113.64 120.569 115.182C123.196 116.724 125.103 119.247 125.87 122.195L127.315 127.754L149.548 121.971C155.678 120.376 159.367 114.094 157.773 107.963L153.436 91.2887C162.629 88.8975 168.164 79.4704 165.773 70.2772C163.382 61.0841 153.954 55.5488 144.761 57.94Z" fill="url(#paint1_linear)" style="mix-blend-mode:hard-light"/>
</g>
<g filter="url(#filter1_d)">
<path d="M172.013 163.854L167.675 147.18C166.081 141.049 159.798 137.36 153.668 138.955L136.993 143.292C134.602 134.099 125.175 128.564 115.982 130.955C106.789 133.346 101.254 142.773 103.645 151.966L86.9704 156.303C80.8398 157.898 77.151 164.18 78.7456 170.311L84.5285 192.544L90.0866 191.098C93.0348 190.331 96.1669 190.767 98.7938 192.309C101.421 193.852 103.327 196.374 104.094 199.323C104.861 202.271 104.425 205.403 102.883 208.03C101.34 210.657 98.8176 212.563 95.8694 213.33L90.3113 214.776L96.0941 237.008C97.6888 243.139 103.971 246.828 110.102 245.233L132.334 239.45L130.889 233.892C130.122 230.944 130.557 227.812 132.1 225.185C133.642 222.558 136.165 220.652 139.113 219.885C142.062 219.118 145.194 219.554 147.821 221.096C150.448 222.638 152.354 225.161 153.121 228.109L154.567 233.668L176.799 227.885C182.93 226.29 186.619 220.008 185.024 213.877L180.687 197.203C189.88 194.812 195.415 185.384 193.024 176.191C190.633 166.998 181.206 161.463 172.013 163.854Z" fill="#5FB8E9"/>
<path d="M172.013 163.854L167.675 147.18C166.081 141.049 159.798 137.36 153.668 138.955L136.993 143.292C134.602 134.099 125.175 128.564 115.982 130.955C106.789 133.346 101.254 142.773 103.645 151.966L86.9704 156.303C80.8398 157.898 77.151 164.18 78.7456 170.311L84.5285 192.544L90.0866 191.098C93.0348 190.331 96.1669 190.767 98.7938 192.309C101.421 193.852 103.327 196.374 104.094 199.323C104.861 202.271 104.425 205.403 102.883 208.03C101.34 210.657 98.8176 212.563 95.8694 213.33L90.3113 214.776L96.0941 237.008C97.6888 243.139 103.971 246.828 110.102 245.233L132.334 239.45L130.889 233.892C130.122 230.944 130.557 227.812 132.1 225.185C133.642 222.558 136.165 220.652 139.113 219.885C142.062 219.118 145.194 219.554 147.821 221.096C150.448 222.638 152.354 225.161 153.121 228.109L154.567 233.668L176.799 227.885C182.93 226.29 186.619 220.008 185.024 213.877L180.687 197.203C189.88 194.812 195.415 185.384 193.024 176.191C190.633 166.998 181.206 161.463 172.013 163.854Z" fill="url(#paint2_linear)" style="mix-blend-mode:soft-light"/>
<path d="M172.013 163.854L167.675 147.18C166.081 141.049 159.798 137.36 153.668 138.955L136.993 143.292C134.602 134.099 125.175 128.564 115.982 130.955C106.789 133.346 101.254 142.773 103.645 151.966L86.9704 156.303C80.8398 157.898 77.151 164.18 78.7456 170.311L84.5285 192.544L90.0866 191.098C93.0348 190.331 96.1669 190.767 98.7938 192.309C101.421 193.852 103.327 196.374 104.094 199.323C104.861 202.271 104.425 205.403 102.883 208.03C101.34 210.657 98.8176 212.563 95.8694 213.33L90.3113 214.776L96.0941 237.008C97.6888 243.139 103.971 246.828 110.102 245.233L132.334 239.45L130.889 233.892C130.122 230.944 130.557 227.812 132.1 225.185C133.642 222.558 136.165 220.652 139.113 219.885C142.062 219.118 145.194 219.554 147.821 221.096C150.448 222.638 152.354 225.161 153.121 228.109L154.567 233.668L176.799 227.885C182.93 226.29 186.619 220.008 185.024 213.877L180.687 197.203C189.88 194.812 195.415 185.384 193.024 176.191C190.633 166.998 181.206 161.463 172.013 163.854Z" fill="url(#paint3_linear)" style="mix-blend-mode:hard-light"/>
</g>
<g filter="url(#filter2_d)">
<path d="M201.877 278.67L197.54 261.996C195.945 255.865 189.663 252.176 183.532 253.771L166.858 258.108C164.467 248.915 155.04 243.38 145.847 245.771C136.653 248.162 131.118 257.589 133.509 266.782L116.835 271.12C110.704 272.714 107.016 278.997 108.61 285.127L114.393 307.36L119.951 305.914C122.899 305.147 126.031 305.583 128.658 307.125C131.285 308.668 133.192 311.191 133.959 314.139C134.726 317.087 134.29 320.219 132.747 322.846C131.205 325.473 128.682 327.38 125.734 328.146L120.176 329.592L125.959 351.825C127.553 357.955 133.836 361.644 139.966 360.049L162.199 354.267L160.753 348.708C159.986 345.76 160.422 342.628 161.964 340.001C163.507 337.374 166.03 335.468 168.978 334.701C171.926 333.934 175.058 334.37 177.685 335.912C180.312 337.455 182.219 339.977 182.986 342.926L184.431 348.484L206.664 342.701C212.794 341.106 216.483 334.824 214.889 328.693L210.551 312.019C219.745 309.628 225.28 300.201 222.889 291.007C220.497 281.814 211.07 276.279 201.877 278.67Z" fill="#5FB8E9"/>
<path d="M201.877 278.67L197.54 261.996C195.945 255.865 189.663 252.176 183.532 253.771L166.858 258.108C164.467 248.915 155.04 243.38 145.847 245.771C136.653 248.162 131.118 257.589 133.509 266.782L116.835 271.12C110.704 272.714 107.016 278.997 108.61 285.127L114.393 307.36L119.951 305.914C122.899 305.147 126.031 305.583 128.658 307.125C131.285 308.668 133.192 311.191 133.959 314.139C134.726 317.087 134.29 320.219 132.747 322.846C131.205 325.473 128.682 327.38 125.734 328.146L120.176 329.592L125.959 351.825C127.553 357.955 133.836 361.644 139.966 360.049L162.199 354.267L160.753 348.708C159.986 345.76 160.422 342.628 161.964 340.001C163.507 337.374 166.03 335.468 168.978 334.701C171.926 333.934 175.058 334.37 177.685 335.912C180.312 337.455 182.219 339.977 182.986 342.926L184.431 348.484L206.664 342.701C212.794 341.106 216.483 334.824 214.889 328.693L210.551 312.019C219.745 309.628 225.28 300.201 222.889 291.007C220.497 281.814 211.07 276.279 201.877 278.67Z" fill="url(#paint4_linear)" style="mix-blend-mode:soft-light"/>
<path d="M201.877 278.67L197.54 261.996C195.945 255.865 189.663 252.176 183.532 253.771L166.858 258.108C164.467 248.915 155.04 243.38 145.847 245.771C136.653 248.162 131.118 257.589 133.509 266.782L116.835 271.12C110.704 272.714 107.016 278.997 108.61 285.127L114.393 307.36L119.951 305.914C122.899 305.147 126.031 305.583 128.658 307.125C131.285 308.668 133.192 311.191 133.959 314.139C134.726 317.087 134.29 320.219 132.747 322.846C131.205 325.473 128.682 327.38 125.734 328.146L120.176 329.592L125.959 351.825C127.553 357.955 133.836 361.644 139.966 360.049L162.199 354.267L160.753 348.708C159.986 345.76 160.422 342.628 161.964 340.001C163.507 337.374 166.03 335.468 168.978 334.701C171.926 333.934 175.058 334.37 177.685 335.912C180.312 337.455 182.219 339.977 182.986 342.926L184.431 348.484L206.664 342.701C212.794 341.106 216.483 334.824 214.889 328.693L210.551 312.019C219.745 309.628 225.28 300.201 222.889 291.007C220.497 281.814 211.07 276.279 201.877 278.67Z" fill="url(#paint5_linear)" style="mix-blend-mode:hard-light"/>
</g>
<path d="M107.869 97.5582C107.661 96.7564 106.842 96.2756 106.04 96.4841C105.238 96.6926 104.757 97.5116 104.966 98.3134L107.869 97.5582ZM121.773 156.971L126.379 140.274L109.616 144.635L121.773 156.971ZM104.966 98.3134L116.923 144.284L119.827 143.529L107.869 97.5582L104.966 98.3134Z" fill="white"/>
<path d="M194.758 167.436C193.956 167.644 193.475 168.463 193.684 169.265C193.892 170.067 194.711 170.548 195.513 170.339L194.758 167.436ZM224.169 161.336L225.621 160.958C225.412 160.156 224.593 159.675 223.792 159.884L224.169 161.336ZM273.005 349.088L273.383 350.54C274.185 350.331 274.665 349.512 274.457 348.711L273.005 349.088ZM179.129 373.506L178.751 372.055C177.95 372.263 177.469 373.082 177.677 373.884L179.129 373.506ZM187.688 406.411L192.293 389.714L175.53 394.075L187.688 406.411ZM195.513 170.339L224.547 162.787L223.792 159.884L194.758 167.436L195.513 170.339ZM222.718 161.713L271.554 349.466L274.457 348.711L225.621 160.958L222.718 161.713ZM272.628 347.637L178.751 372.055L179.506 374.958L273.383 350.54L272.628 347.637ZM177.677 373.884L182.838 393.724L185.741 392.969L180.581 373.129L177.677 373.884Z" fill="white"/>
<path d="M82.2807 199.792C83.0824 199.583 83.5633 198.764 83.3548 197.963C83.1462 197.161 82.3272 196.68 81.5255 196.888L82.2807 199.792ZM42.2234 208.661L41.8458 207.209C41.044 207.418 40.5632 208.237 40.7717 209.039L42.2234 208.661ZM76.4589 340.282L75.0072 340.659C75.2157 341.461 76.0347 341.942 76.8365 341.733L76.4589 340.282ZM111.3 331.219L94.6026 326.614L98.9627 343.377L111.3 331.219ZM81.5255 196.888L41.8458 207.209L42.601 210.113L82.2807 199.792L81.5255 196.888ZM40.7717 209.039L75.0072 340.659L77.9106 339.904L43.6751 208.284L40.7717 209.039ZM76.8365 341.733L98.6119 336.069L97.8567 333.166L76.0813 338.83L76.8365 341.733Z" fill="white"/>
<defs>
<filter id="filter0_d" x="40.2658" y="9.13794" width="141.073" height="141.073" filterUnits="userSpaceOnUse" color-interpolation-filters="sRGB">
<feFlood flood-opacity="0" result="BackgroundImageFix"/>
<feColorMatrix in="SourceAlpha" type="matrix" values="0 0 0 0 0 0 0 0 0 0 0 0 0 0 0 0 0 0 127 0"/>
<feOffset dy="4"/>
<feGaussianBlur stdDeviation="2"/>
<feColorMatrix type="matrix" values="0 0 0 0 0 0 0 0 0 0 0 0 0 0 0 0 0 0 0.25 0"/>
<feBlend mode="normal" in2="BackgroundImageFix" result="effect1_dropShadow"/>
<feBlend mode="normal" in="SourceGraphic" in2="effect1_dropShadow" result="shape"/>
</filter>
<filter id="filter1_d" x="67.5171" y="115.052" width="141.073" height="141.073" filterUnits="userSpaceOnUse" color-interpolation-filters="sRGB">
<feFlood flood-opacity="0" result="BackgroundImageFix"/>
<feColorMatrix in="SourceAlpha" type="matrix" values="0 0 0 0 0 0 0 0 0 0 0 0 0 0 0 0 0 0 127 0"/>
<feOffset dy="4"/>
<feGaussianBlur stdDeviation="2"/>
<feColorMatrix type="matrix" values="0 0 0 0 0 0 0 0 0 0 0 0 0 0 0 0 0 0 0.25 0"/>
<feBlend mode="normal" in2="BackgroundImageFix" result="effect1_dropShadow"/>
<feBlend mode="normal" in="SourceGraphic" in2="effect1_dropShadow" result="shape"/>
</filter>
<filter id="filter2_d" x="97.3817" y="229.868" width="141.073" height="141.073" filterUnits="userSpaceOnUse" color-interpolation-filters="sRGB">
<feFlood flood-opacity="0" result="BackgroundImageFix"/>
<feColorMatrix in="SourceAlpha" type="matrix" values="0 0 0 0 0 0 0 0 0 0 0 0 0 0 0 0 0 0 127 0"/>
<feOffset dy="4"/>
<feGaussianBlur stdDeviation="2"/>
<feColorMatrix type="matrix" values="0 0 0 0 0 0 0 0 0 0 0 0 0 0 0 0 0 0 0.25 0"/>
<feBlend mode="normal" in2="BackgroundImageFix" result="effect1_dropShadow"/>
<feBlend mode="normal" in="SourceGraphic" in2="effect1_dropShadow" result="shape"/>
</filter>
<linearGradient id="paint0_linear" x1="97.0679" y1="22.8722" x2="124.536" y2="128.476" gradientUnits="userSpaceOnUse">
<stop stop-color="white" stop-opacity="0.74"/>
<stop offset="1" stop-color="white" stop-opacity="0"/>
</linearGradient>
<linearGradient id="paint1_linear" x1="97.0679" y1="22.8722" x2="124.536" y2="128.476" gradientUnits="userSpaceOnUse">
<stop stop-color="#001897" stop-opacity="0"/>
<stop offset="1" stop-color="#051EA2" stop-opacity="0.17"/>
</linearGradient>
<linearGradient id="paint2_linear" x1="124.319" y1="128.786" x2="151.788" y2="234.39" gradientUnits="userSpaceOnUse">
<stop stop-color="white" stop-opacity="0.74"/>
<stop offset="1" stop-color="white" stop-opacity="0"/>
</linearGradient>
<linearGradient id="paint3_linear" x1="124.319" y1="128.786" x2="151.788" y2="234.39" gradientUnits="userSpaceOnUse">
<stop stop-color="#001897" stop-opacity="0"/>
<stop offset="1" stop-color="#051EA2" stop-opacity="0.17"/>
</linearGradient>
<linearGradient id="paint4_linear" x1="154.184" y1="243.602" x2="181.652" y2="349.207" gradientUnits="userSpaceOnUse">
<stop stop-color="white" stop-opacity="0.74"/>
<stop offset="1" stop-color="white" stop-opacity="0"/>
</linearGradient>
<linearGradient id="paint5_linear" x1="154.184" y1="243.602" x2="181.652" y2="349.207" gradientUnits="userSpaceOnUse">
<stop stop-color="#001897" stop-opacity="0"/>
<stop offset="1" stop-color="#051EA2" stop-opacity="0.17"/>
</linearGradient>
</defs>
</svg>
