<svg width="226" height="307" viewBox="0 0 226 307" fill="none" xmlns="http://www.w3.org/2000/svg">
<g clip-path="url(#clip0)">
<path d="M55 297.036L56.5976 291.893L72.2544 280L68.7396 302.179L55 297.036Z" fill="#004DE3"/>
<path d="M147.663 307V286.75L163 291.893V295.429L147.663 307Z" fill="#004DE3"/>
<path d="M70.4952 183.075L73.171 189.784L70.4952 192.021C69.1573 191.914 66.4145 190.423 66.147 185.311C65.8794 180.199 68.9343 181.69 70.4952 183.075Z" fill="#127DDB"/>
<path d="M64.5117 135.788C82.2019 119.494 101.602 111.187 101.602 111.187L92.9052 140.581C91.3213 140.581 90.9523 141.573 90.2294 142.782C88.6958 145.346 84.3438 147.539 82.2019 149.527C84.1712 152.838 86.8846 163.124 87.8881 165.822L80.5295 196.174C75.1779 194.896 68.1538 199.369 65.478 192.66C65.478 190.964 63.4304 184.448 64.809 183.394C66.4814 182.436 67.1504 183.394 67.1504 183.394C68.4883 184.672 68.7478 189.002 69.1572 189.784C69.8262 191.062 69.1572 191.382 70.6765 190.743C69.7592 188.001 68.4864 183.297 69.1572 179.88C70.1607 174.768 72.4276 172.927 74.5089 169.975L66.1469 159.751C66.1469 159.751 58.7884 149.527 58.7884 144.095C58.7884 140.581 61.4642 138.595 64.5117 135.788Z" fill="#5FB8E9"/>
<path d="M64.5117 135.788C82.2019 119.494 101.602 111.187 101.602 111.187L92.9052 140.581C91.3213 140.581 90.9523 141.573 90.2294 142.782C88.6958 145.346 84.3438 147.539 82.2019 149.527C84.1712 152.838 86.8846 163.124 87.8881 165.822L80.5295 196.174C75.1779 194.896 68.1538 199.369 65.478 192.66C65.478 190.964 63.4304 184.448 64.809 183.394C66.4814 182.436 67.1504 183.394 67.1504 183.394C68.4883 184.672 68.7478 189.002 69.1572 189.784C69.8262 191.062 69.1572 191.382 70.6765 190.743C69.7592 188.001 68.4864 183.297 69.1572 179.88C70.1607 174.768 72.4276 172.927 74.5089 169.975L66.1469 159.751C66.1469 159.751 58.7884 149.527 58.7884 144.095C58.7884 140.581 61.4642 138.595 64.5117 135.788Z" fill="url(#paint0_linear)" style="mix-blend-mode:soft-light"/>
<path d="M64.5117 135.788C82.2019 119.494 101.602 111.187 101.602 111.187L92.9052 140.581C91.3213 140.581 90.9523 141.573 90.2294 142.782C88.6958 145.346 84.3438 147.539 82.2019 149.527C84.1712 152.838 86.8846 163.124 87.8881 165.822L80.5295 196.174C75.1779 194.896 68.1538 199.369 65.478 192.66C65.478 190.964 63.4304 184.448 64.809 183.394C66.4814 182.436 67.1504 183.394 67.1504 183.394C68.4883 184.672 68.7478 189.002 69.1572 189.784C69.8262 191.062 69.1572 191.382 70.6765 190.743C69.7592 188.001 68.4864 183.297 69.1572 179.88C70.1607 174.768 72.4276 172.927 74.5089 169.975L66.1469 159.751C66.1469 159.751 58.7884 149.527 58.7884 144.095C58.7884 140.581 61.4642 138.595 64.5117 135.788Z" fill="url(#paint1_linear)" style="mix-blend-mode:hard-light"/>
<path d="M99.2604 122.05C95.4499 125.402 88.9375 134.83 86.2157 146.651L89.5605 144.095L90.6386 144.714C94.3811 134.829 103.071 118.697 99.2604 122.05Z" fill="#002ABE"/>
<path d="M72.1676 193.618L70.6959 190.743C70.6959 190.743 70.1294 190.906 70.1607 190.966C70.4283 191.478 71.4986 192.66 72.1676 193.618Z" fill="#002ABE"/>
<path d="M169.017 183.075L166.461 189.784L169.017 192.021C170.295 191.914 172.915 190.423 173.17 185.311C173.426 180.199 170.508 181.69 169.017 183.075Z" fill="#127DDB"/>
<path d="M174.732 135.788C157.834 119.494 139.303 111.187 139.303 111.187L147.61 140.581C149.123 140.581 149.475 141.573 150.166 142.782C151.631 145.346 155.788 147.539 157.834 149.527C155.953 152.838 153.361 163.124 152.402 165.822L159.431 196.174C164.544 194.896 171.253 199.369 173.809 192.66C173.809 190.964 175.765 184.448 174.448 183.394C172.851 182.436 172.212 183.394 172.212 183.394C170.934 184.672 170.686 189.002 170.295 189.784C169.656 191.062 170.295 191.382 168.843 190.743C169.72 188.001 170.935 183.297 170.295 179.88C169.336 174.768 167.171 172.927 165.183 169.975L173.17 159.751C173.17 159.751 180.199 149.527 180.199 144.095C180.199 140.581 177.643 138.595 174.732 135.788Z" fill="#5FB8E9"/>
<path d="M174.732 135.788C157.834 119.494 139.303 111.187 139.303 111.187L147.61 140.581C149.123 140.581 149.475 141.573 150.166 142.782C151.631 145.346 155.788 147.539 157.834 149.527C155.953 152.838 153.361 163.124 152.402 165.822L159.431 196.174C164.544 194.896 171.253 199.369 173.809 192.66C173.809 190.964 175.765 184.448 174.448 183.394C172.851 182.436 172.212 183.394 172.212 183.394C170.934 184.672 170.686 189.002 170.295 189.784C169.656 191.062 170.295 191.382 168.843 190.743C169.72 188.001 170.935 183.297 170.295 179.88C169.336 174.768 167.171 172.927 165.183 169.975L173.17 159.751C173.17 159.751 180.199 149.527 180.199 144.095C180.199 140.581 177.643 138.595 174.732 135.788Z" fill="url(#paint2_linear)" style="mix-blend-mode:soft-light"/>
<path d="M174.732 135.788C157.834 119.494 139.303 111.187 139.303 111.187L147.61 140.581C149.123 140.581 149.475 141.573 150.166 142.782C151.631 145.346 155.788 147.539 157.834 149.527C155.953 152.838 153.361 163.124 152.402 165.822L159.431 196.174C164.544 194.896 171.253 199.369 173.809 192.66C173.809 190.964 175.765 184.448 174.448 183.394C172.851 182.436 172.212 183.394 172.212 183.394C170.934 184.672 170.686 189.002 170.295 189.784C169.656 191.062 170.295 191.382 168.843 190.743C169.72 188.001 170.935 183.297 170.295 179.88C169.336 174.768 167.171 172.927 165.183 169.975L173.17 159.751C173.17 159.751 180.199 149.527 180.199 144.095C180.199 140.581 177.643 138.595 174.732 135.788Z" fill="url(#paint3_linear)" style="mix-blend-mode:hard-light"/>
<path d="M141.539 122.05C145.179 125.402 151.4 134.83 154 146.651L150.805 144.095L149.775 144.714C146.2 134.829 137.9 118.697 141.539 122.05Z" fill="#002ABE"/>
<path d="M167.419 193.618L168.825 190.743C168.825 190.743 169.366 190.906 169.336 190.966C169.08 191.478 168.058 192.66 167.419 193.618Z" fill="#002ABE"/>
<path fill-rule="evenodd" clip-rule="evenodd" d="M94.6081 114H143.625C143.625 114 155.529 149.855 159.221 186.99C162.521 220.18 162.717 280.732 162.722 292.954C160.494 293.061 157.948 292.954 153.492 294.875C155.295 294.554 159.667 293.914 162.722 293.914C162.722 293.914 168.695 294.313 173.226 299.677C175.949 302.9 178 308 178 308H139.169L129.62 214.521H110.523L74.2375 308H44C44 308 46.4067 301.412 49.0926 298.716C52.4774 295.319 55.7767 293.914 55.7767 293.914C61.5059 293.274 64.6888 294.554 68.19 298.716C67.001 295.942 63.0974 292.954 56.4133 292.954L94.6081 114Z" fill="#5FB8E9"/>
<path fill-rule="evenodd" clip-rule="evenodd" d="M94.6081 114H143.625C143.625 114 155.529 149.855 159.221 186.99C162.521 220.18 162.717 280.732 162.722 292.954C160.494 293.061 157.948 292.954 153.492 294.875C155.295 294.554 159.667 293.914 162.722 293.914C162.722 293.914 168.695 294.313 173.226 299.677C175.949 302.9 178 308 178 308H139.169L129.62 214.521H110.523L74.2375 308H44C44 308 46.4067 301.412 49.0926 298.716C52.4774 295.319 55.7767 293.914 55.7767 293.914C61.5059 293.274 64.6888 294.554 68.19 298.716C67.001 295.942 63.0974 292.954 56.4133 292.954L94.6081 114Z" fill="url(#paint4_linear)" style="mix-blend-mode:soft-light"/>
<path fill-rule="evenodd" clip-rule="evenodd" d="M94.6081 114H143.625C143.625 114 155.529 149.855 159.221 186.99C162.521 220.18 162.717 280.732 162.722 292.954C160.494 293.061 157.948 292.954 153.492 294.875C155.295 294.554 159.667 293.914 162.722 293.914C162.722 293.914 168.695 294.313 173.226 299.677C175.949 302.9 178 308 178 308H139.169L129.62 214.521H110.523L74.2375 308H44C44 308 46.4067 301.412 49.0926 298.716C52.4774 295.319 55.7767 293.914 55.7767 293.914C61.5059 293.274 64.6888 294.554 68.19 298.716C67.001 295.942 63.0974 292.954 56.4133 292.954L94.6081 114Z" fill="url(#paint5_linear)" style="mix-blend-mode:hard-light"/>
<path d="M44.2114 115H193.707C194.812 115 195.707 114.105 195.707 113V73.0519C195.707 67.6939 202.196 65.0227 205.968 68.8278L214.372 77.3052C218.794 81.7658 226.407 78.6378 226.407 72.3601V40.7232C226.407 34.4456 218.794 31.3175 214.372 35.7781L205.968 44.2555C202.196 48.0607 195.707 45.3894 195.707 40.0314V2C195.707 0.895431 194.812 0 193.707 0H137.093C131.731 0 129.062 6.49522 132.873 10.2655L141.344 18.6453C145.809 23.0626 142.678 30.6667 136.394 30.6667H104.723C98.4387 30.6667 95.3074 23.0626 99.7727 18.6453L108.244 10.2655C112.055 6.49522 109.385 0 104.024 0H44.2114C43.1068 0 42.2114 0.89543 42.2114 2V40.0314C42.2114 45.3894 35.7225 48.0607 31.9503 44.2555L23.5463 35.7781C19.1244 31.3175 11.5122 34.4456 11.5122 40.7232V72.3602C11.5122 78.6378 19.1244 81.7658 23.5463 77.3052L31.9503 68.8278C35.7225 65.0227 42.2114 67.6939 42.2114 73.052V113C42.2114 114.105 43.1068 115 44.2114 115Z" fill="#5FB8E9"/>
<path d="M44.2114 115H193.707C194.812 115 195.707 114.105 195.707 113V73.0519C195.707 67.6939 202.196 65.0227 205.968 68.8278L214.372 77.3052C218.794 81.7658 226.407 78.6378 226.407 72.3601V40.7232C226.407 34.4456 218.794 31.3175 214.372 35.7781L205.968 44.2555C202.196 48.0607 195.707 45.3894 195.707 40.0314V2C195.707 0.895431 194.812 0 193.707 0H137.093C131.731 0 129.062 6.49522 132.873 10.2655L141.344 18.6453C145.809 23.0626 142.678 30.6667 136.394 30.6667H104.723C98.4387 30.6667 95.3074 23.0626 99.7727 18.6453L108.244 10.2655C112.055 6.49522 109.385 0 104.024 0H44.2114C43.1068 0 42.2114 0.89543 42.2114 2V40.0314C42.2114 45.3894 35.7225 48.0607 31.9503 44.2555L23.5463 35.7781C19.1244 31.3175 11.5122 34.4456 11.5122 40.7232V72.3602C11.5122 78.6378 19.1244 81.7658 23.5463 77.3052L31.9503 68.8278C35.7225 65.0227 42.2114 67.6939 42.2114 73.052V113C42.2114 114.105 43.1068 115 44.2114 115Z" fill="url(#paint6_linear)" style="mix-blend-mode:soft-light"/>
<path d="M44.2114 115H193.707C194.812 115 195.707 114.105 195.707 113V73.0519C195.707 67.6939 202.196 65.0227 205.968 68.8278L214.372 77.3052C218.794 81.7658 226.407 78.6378 226.407 72.3601V40.7232C226.407 34.4456 218.794 31.3175 214.372 35.7781L205.968 44.2555C202.196 48.0607 195.707 45.3894 195.707 40.0314V2C195.707 0.895431 194.812 0 193.707 0H137.093C131.731 0 129.062 6.49522 132.873 10.2655L141.344 18.6453C145.809 23.0626 142.678 30.6667 136.394 30.6667H104.723C98.4387 30.6667 95.3074 23.0626 99.7727 18.6453L108.244 10.2655C112.055 6.49522 109.385 0 104.024 0H44.2114C43.1068 0 42.2114 0.89543 42.2114 2V40.0314C42.2114 45.3894 35.7225 48.0607 31.9503 44.2555L23.5463 35.7781C19.1244 31.3175 11.5122 34.4456 11.5122 40.7232V72.3602C11.5122 78.6378 19.1244 81.7658 23.5463 77.3052L31.9503 68.8278C35.7225 65.0227 42.2114 67.6939 42.2114 73.052V113C42.2114 114.105 43.1068 115 44.2114 115Z" fill="url(#paint7_linear)" style="mix-blend-mode:hard-light"/>
<ellipse cx="80.5854" cy="76.6667" rx="12.7913" ry="12.7778" fill="white"/>
<ellipse cx="157.333" cy="76.6667" rx="12.7913" ry="12.7778" fill="white"/>
<ellipse cx="80.5853" cy="76.6667" rx="5.7561" ry="5.75" fill="black"/>
<path d="M163.089 76.6667C163.089 79.8423 160.512 82.4167 157.333 82.4167C154.154 82.4167 151.577 79.8423 151.577 76.6667C151.577 73.491 154.154 70.9167 157.333 70.9167C160.512 70.9167 163.089 73.491 163.089 76.6667Z" fill="black"/>
<path d="M69.0731 54.5195C69.3929 54.2 82.1842 45.575 91.7777 54.5195" stroke="#2C60AE" stroke-width="3" stroke-linecap="round" stroke-linejoin="round"/>
<path d="M145.821 54.5195C146.141 54.2 158.932 45.575 168.526 54.5195" stroke="#2C60AE" stroke-width="3" stroke-linecap="round" stroke-linejoin="round"/>
<path d="M125.995 94.5556C125.995 97.3783 122.845 99.6667 118.959 99.6667C115.074 99.6667 111.924 97.3783 111.924 94.5556" stroke="black" stroke-width="3" stroke-linecap="round"/>
</g>
<defs>
<linearGradient id="paint0_linear" x1="80.195" y1="111.187" x2="80.195" y2="196.468" gradientUnits="userSpaceOnUse">
<stop stop-color="white" stop-opacity="0.74"/>
<stop offset="1" stop-color="white" stop-opacity="0"/>
</linearGradient>
<linearGradient id="paint1_linear" x1="80.195" y1="111.187" x2="80.195" y2="196.468" gradientUnits="userSpaceOnUse">
<stop stop-color="#001897" stop-opacity="0"/>
<stop offset="1" stop-color="#051EA2" stop-opacity="0.17"/>
</linearGradient>
<linearGradient id="paint2_linear" x1="159.751" y1="111.187" x2="159.751" y2="196.468" gradientUnits="userSpaceOnUse">
<stop stop-color="white" stop-opacity="0.74"/>
<stop offset="1" stop-color="white" stop-opacity="0"/>
</linearGradient>
<linearGradient id="paint3_linear" x1="159.751" y1="111.187" x2="159.751" y2="196.468" gradientUnits="userSpaceOnUse">
<stop stop-color="#001897" stop-opacity="0"/>
<stop offset="1" stop-color="#051EA2" stop-opacity="0.17"/>
</linearGradient>
<linearGradient id="paint4_linear" x1="111" y1="114.64" x2="111" y2="308" gradientUnits="userSpaceOnUse">
<stop stop-color="white" stop-opacity="0.74"/>
<stop offset="1" stop-color="white" stop-opacity="0"/>
</linearGradient>
<linearGradient id="paint5_linear" x1="111" y1="114.64" x2="111" y2="308" gradientUnits="userSpaceOnUse">
<stop stop-color="#001897" stop-opacity="0"/>
<stop offset="1" stop-color="#051EA2" stop-opacity="0.17"/>
</linearGradient>
<linearGradient id="paint6_linear" x1="118.959" y1="0" x2="118.959" y2="115" gradientUnits="userSpaceOnUse">
<stop stop-color="white" stop-opacity="0.74"/>
<stop offset="1" stop-color="white" stop-opacity="0"/>
</linearGradient>
<linearGradient id="paint7_linear" x1="118.959" y1="0" x2="118.959" y2="115" gradientUnits="userSpaceOnUse">
<stop stop-color="#001897" stop-opacity="0"/>
<stop offset="1" stop-color="#051EA2" stop-opacity="0.17"/>
</linearGradient>
<clipPath id="clip0">
<rect width="226" height="307" fill="white"/>
</clipPath>
</defs>
</svg>
