<svg width="226" height="307" viewBox="0 0 226 307" fill="none" xmlns="http://www.w3.org/2000/svg">
<g clip-path="url(#clip0)">
<path d="M55 297.036L56.5976 291.893L72.2544 280L68.7396 302.179L55 297.036Z" fill="#004DE3"/>
<path d="M147.663 307V286.75L163 291.893V295.429L147.663 307Z" fill="#004DE3"/>
<path fill-rule="evenodd" clip-rule="evenodd" d="M94.6081 114H143.625C143.625 114 155.529 149.855 159.221 186.99C162.521 220.18 162.717 280.732 162.722 292.954C160.494 293.061 157.948 292.954 153.492 294.875C155.295 294.554 159.667 293.914 162.722 293.914C162.722 293.914 168.695 294.313 173.226 299.677C175.949 302.9 178 308 178 308H139.169L129.62 214.521H110.523L74.2375 308H44C44 308 46.4067 301.412 49.0926 298.716C52.4774 295.319 55.7767 293.914 55.7767 293.914C61.5059 293.274 64.6888 294.554 68.19 298.716C67.001 295.942 63.0974 292.954 56.4133 292.954L94.6081 114Z" fill="#5FB8E9"/>
<path fill-rule="evenodd" clip-rule="evenodd" d="M94.6081 114H143.625C143.625 114 155.529 149.855 159.221 186.99C162.521 220.18 162.717 280.732 162.722 292.954C160.494 293.061 157.948 292.954 153.492 294.875C155.295 294.554 159.667 293.914 162.722 293.914C162.722 293.914 168.695 294.313 173.226 299.677C175.949 302.9 178 308 178 308H139.169L129.62 214.521H110.523L74.2375 308H44C44 308 46.4067 301.412 49.0926 298.716C52.4774 295.319 55.7767 293.914 55.7767 293.914C61.5059 293.274 64.6888 294.554 68.19 298.716C67.001 295.942 63.0974 292.954 56.4133 292.954L94.6081 114Z" fill="url(#paint0_linear)" style="mix-blend-mode:soft-light"/>
<path fill-rule="evenodd" clip-rule="evenodd" d="M94.6081 114H143.625C143.625 114 155.529 149.855 159.221 186.99C162.521 220.18 162.717 280.732 162.722 292.954C160.494 293.061 157.948 292.954 153.492 294.875C155.295 294.554 159.667 293.914 162.722 293.914C162.722 293.914 168.695 294.313 173.226 299.677C175.949 302.9 178 308 178 308H139.169L129.62 214.521H110.523L74.2375 308H44C44 308 46.4067 301.412 49.0926 298.716C52.4774 295.319 55.7767 293.914 55.7767 293.914C61.5059 293.274 64.6888 294.554 68.19 298.716C67.001 295.942 63.0974 292.954 56.4133 292.954L94.6081 114Z" fill="url(#paint1_linear)" style="mix-blend-mode:hard-light"/>
<path d="M45.2114 115H192.707C194.364 115 195.707 113.657 195.707 112V73.0519C195.707 67.6939 202.196 65.0227 205.968 68.8278L214.372 77.3052C218.794 81.7658 226.407 78.6378 226.407 72.3601V40.7232C226.407 34.4456 218.794 31.3175 214.372 35.7781L205.968 44.2555C202.196 48.0607 195.707 45.3894 195.707 40.0314V3C195.707 1.34315 194.364 0 192.707 0H137.093C131.731 0 129.062 6.49522 132.873 10.2655L141.344 18.6453C145.809 23.0626 142.678 30.6667 136.394 30.6667H104.723C98.4387 30.6667 95.3074 23.0626 99.7727 18.6453L108.244 10.2655C112.055 6.49522 109.385 0 104.024 0H45.2114C43.5545 0 42.2114 1.34315 42.2114 3V40.0314C42.2114 45.3894 35.7225 48.0607 31.9503 44.2555L23.5463 35.7781C19.1244 31.3175 11.5122 34.4456 11.5122 40.7232V72.3602C11.5122 78.6378 19.1244 81.7658 23.5463 77.3052L31.9503 68.8278C35.7225 65.0227 42.2114 67.6939 42.2114 73.052V112C42.2114 113.657 43.5545 115 45.2114 115Z" fill="#5FB8E9"/>
<path d="M45.2114 115H192.707C194.364 115 195.707 113.657 195.707 112V73.0519C195.707 67.6939 202.196 65.0227 205.968 68.8278L214.372 77.3052C218.794 81.7658 226.407 78.6378 226.407 72.3601V40.7232C226.407 34.4456 218.794 31.3175 214.372 35.7781L205.968 44.2555C202.196 48.0607 195.707 45.3894 195.707 40.0314V3C195.707 1.34315 194.364 0 192.707 0H137.093C131.731 0 129.062 6.49522 132.873 10.2655L141.344 18.6453C145.809 23.0626 142.678 30.6667 136.394 30.6667H104.723C98.4387 30.6667 95.3074 23.0626 99.7727 18.6453L108.244 10.2655C112.055 6.49522 109.385 0 104.024 0H45.2114C43.5545 0 42.2114 1.34315 42.2114 3V40.0314C42.2114 45.3894 35.7225 48.0607 31.9503 44.2555L23.5463 35.7781C19.1244 31.3175 11.5122 34.4456 11.5122 40.7232V72.3602C11.5122 78.6378 19.1244 81.7658 23.5463 77.3052L31.9503 68.8278C35.7225 65.0227 42.2114 67.6939 42.2114 73.052V112C42.2114 113.657 43.5545 115 45.2114 115Z" fill="url(#paint2_linear)" style="mix-blend-mode:soft-light"/>
<path d="M45.2114 115H192.707C194.364 115 195.707 113.657 195.707 112V73.0519C195.707 67.6939 202.196 65.0227 205.968 68.8278L214.372 77.3052C218.794 81.7658 226.407 78.6378 226.407 72.3601V40.7232C226.407 34.4456 218.794 31.3175 214.372 35.7781L205.968 44.2555C202.196 48.0607 195.707 45.3894 195.707 40.0314V3C195.707 1.34315 194.364 0 192.707 0H137.093C131.731 0 129.062 6.49522 132.873 10.2655L141.344 18.6453C145.809 23.0626 142.678 30.6667 136.394 30.6667H104.723C98.4387 30.6667 95.3074 23.0626 99.7727 18.6453L108.244 10.2655C112.055 6.49522 109.385 0 104.024 0H45.2114C43.5545 0 42.2114 1.34315 42.2114 3V40.0314C42.2114 45.3894 35.7225 48.0607 31.9503 44.2555L23.5463 35.7781C19.1244 31.3175 11.5122 34.4456 11.5122 40.7232V72.3602C11.5122 78.6378 19.1244 81.7658 23.5463 77.3052L31.9503 68.8278C35.7225 65.0227 42.2114 67.6939 42.2114 73.052V112C42.2114 113.657 43.5545 115 45.2114 115Z" fill="url(#paint3_linear)" style="mix-blend-mode:hard-light"/>
<path d="M118.959 102.222C122.845 102.222 125.995 96.5014 125.995 89.4444H111.924C111.924 96.5014 115.074 102.222 118.959 102.222Z" fill="url(#paint4_radial)"/>
<path d="M66.5149 79.8611C66.5149 77.4416 72.2418 72.1945 79.3062 72.1945C86.3707 72.1945 92.0975 77.4416 92.0975 79.8611" stroke="black" stroke-width="5" stroke-linecap="round"/>
<path d="M145.182 79.8611C145.182 77.4416 150.908 72.1945 157.973 72.1945C165.037 72.1945 170.764 77.4416 170.764 79.8611" stroke="black" stroke-width="5" stroke-linecap="round"/>
<g style="mix-blend-mode:color-burn">
<path d="M69.0732 54.5195C69.393 54.2 82.1843 45.575 91.7778 54.5195" stroke="#2C60AE" stroke-width="3" stroke-linecap="round" stroke-linejoin="round"/>
</g>
<g style="mix-blend-mode:color-burn">
<path d="M145.821 54.5195C146.141 54.2 158.932 45.575 168.526 54.5195" stroke="#2C60AE" stroke-width="3" stroke-linecap="round" stroke-linejoin="round"/>
</g>
</g>
<defs>
<linearGradient id="paint0_linear" x1="111" y1="114.64" x2="111" y2="308" gradientUnits="userSpaceOnUse">
<stop stop-color="white" stop-opacity="0.74"/>
<stop offset="1" stop-color="white" stop-opacity="0"/>
</linearGradient>
<linearGradient id="paint1_linear" x1="111" y1="114.64" x2="111" y2="308" gradientUnits="userSpaceOnUse">
<stop stop-color="#001897" stop-opacity="0"/>
<stop offset="1" stop-color="#051EA2" stop-opacity="0.17"/>
</linearGradient>
<linearGradient id="paint2_linear" x1="118.959" y1="0" x2="118.959" y2="115" gradientUnits="userSpaceOnUse">
<stop stop-color="white" stop-opacity="0.74"/>
<stop offset="1" stop-color="white" stop-opacity="0"/>
</linearGradient>
<linearGradient id="paint3_linear" x1="118.959" y1="0" x2="118.959" y2="115" gradientUnits="userSpaceOnUse">
<stop stop-color="#001897" stop-opacity="0"/>
<stop offset="1" stop-color="#051EA2" stop-opacity="0.17"/>
</linearGradient>
<radialGradient id="paint4_radial" cx="0" cy="0" r="1" gradientUnits="userSpaceOnUse" gradientTransform="translate(118.959 99.0278) rotate(90) scale(9.26389 15.9892)">
<stop offset="0.4999" stop-color="#DE1313"/>
<stop offset="0.5" stop-color="#830B1A"/>
</radialGradient>
<clipPath id="clip0">
<rect width="226" height="307" fill="white"/>
</clipPath>
</defs>
</svg>
