<svg width="247" height="307" viewBox="0 0 247 307" fill="none" xmlns="http://www.w3.org/2000/svg">
<path d="M36.6391 81.5728C39.4533 90.9386 42.2245 90.2741 44.6047 97.1245L24.4908 98.124C22.8721 96.3211 13.6294 90.4671 11.3715 89.5281C9.66474 88.8183 4.48206 88.5156 3.80147 87.3465C2.92937 83.3483 11.488 84.8346 11.9232 84.7894C17.3278 85.8224 21.4383 86.0716 26.7806 88.2118C26.7806 88.2118 29.8304 89.074 30.2835 87.8159C30.7306 86.5746 30.9725 86.8006 31.2053 85.4047C31.6307 82.8528 31.0529 81.6104 30.2722 79.0123C29.802 77.4474 31.0012 74.8636 32.8953 75.2012C34.7894 75.5388 36.0502 79.613 36.6391 81.5728Z" fill="#127DDB"/>
<path d="M96.5765 137.407C96.5765 137.407 51.3333 117.72 42.8592 112.023C42.8592 112.023 27.4739 101.051 24.3507 98.9808C22.6517 96.6372 13.3404 86.6159 13.3404 86.6159C13.3404 86.6159 5.9757 79.5798 9.86364 78.3557C11.3098 77.9004 13.8806 80.689 13.8806 80.689L27.6171 92.1955C27.6171 92.1955 39.2071 92.1445 46.5231 98.8361C49.768 101.804 66.7618 103.947 84.2496 109.626C106.191 116.751 129.842 128.111 138.696 138.539L96.5765 137.407Z" fill="#5FB8E9"/>
<path d="M96.5765 137.407C96.5765 137.407 51.3333 117.72 42.8592 112.023C42.8592 112.023 27.4739 101.051 24.3507 98.9808C22.6517 96.6372 13.3404 86.6159 13.3404 86.6159C13.3404 86.6159 5.9757 79.5798 9.86364 78.3557C11.3098 77.9004 13.8806 80.689 13.8806 80.689L27.6171 92.1955C27.6171 92.1955 39.2071 92.1445 46.5231 98.8361C49.768 101.804 66.7618 103.947 84.2496 109.626C106.191 116.751 129.842 128.111 138.696 138.539L96.5765 137.407Z" fill="url(#paint0_linear)" style="mix-blend-mode:soft-light"/>
<path d="M96.5765 137.407C96.5765 137.407 51.3333 117.72 42.8592 112.023C42.8592 112.023 27.4739 101.051 24.3507 98.9808C22.6517 96.6372 13.3404 86.6159 13.3404 86.6159C13.3404 86.6159 5.9757 79.5798 9.86364 78.3557C11.3098 77.9004 13.8806 80.689 13.8806 80.689L27.6171 92.1955C27.6171 92.1955 39.2071 92.1445 46.5231 98.8361C49.768 101.804 66.7618 103.947 84.2496 109.626C106.191 116.751 129.842 128.111 138.696 138.539L96.5765 137.407Z" fill="url(#paint1_linear)" style="mix-blend-mode:hard-light"/>
<path d="M212.284 79.9622C209.433 88.7188 206.838 88.0336 204.45 94.4314L223.364 95.8054C224.927 94.143 233.754 88.831 235.9 87.9956C237.522 87.3642 242.408 87.1908 243.074 86.1048C243.981 82.3596 235.892 83.5746 235.483 83.5226C230.373 84.3788 226.498 84.5248 221.422 86.4246C221.422 86.4246 218.532 87.1706 218.133 85.9765C217.739 84.7983 217.506 85.0058 217.317 83.6867C216.972 81.2751 217.542 80.1179 218.333 77.6888C218.809 76.2258 217.736 73.7675 215.946 74.0445C214.155 74.3216 212.881 78.1299 212.284 79.9622Z" fill="#127DDB"/>
<path d="M154.656 131.235C154.656 131.235 197.672 113.676 205.773 108.495C205.773 108.495 220.493 98.4966 223.478 96.615C225.128 94.4454 234.109 85.2116 234.109 85.2116C234.109 85.2116 241.194 78.7462 237.56 77.5101C236.209 77.0503 233.728 79.6203 233.728 79.6203L220.549 90.1569C220.549 90.1569 209.639 89.8593 202.607 96.0015C199.489 98.7257 183.444 100.377 166.859 105.347C146.049 111.582 123.539 121.768 114.979 131.393L154.656 131.235Z" fill="#5FB8E9"/>
<path d="M154.656 131.235C154.656 131.235 197.672 113.676 205.773 108.495C205.773 108.495 220.493 98.4966 223.478 96.615C225.128 94.4454 234.109 85.2116 234.109 85.2116C234.109 85.2116 241.194 78.7462 237.56 77.5101C236.209 77.0503 233.728 79.6203 233.728 79.6203L220.549 90.1569C220.549 90.1569 209.639 89.8593 202.607 96.0015C199.489 98.7257 183.444 100.377 166.859 105.347C146.049 111.582 123.539 121.768 114.979 131.393L154.656 131.235Z" fill="url(#paint2_linear)" style="mix-blend-mode:soft-light"/>
<path d="M154.656 131.235C154.656 131.235 197.672 113.676 205.773 108.495C205.773 108.495 220.493 98.4966 223.478 96.615C225.128 94.4454 234.109 85.2116 234.109 85.2116C234.109 85.2116 241.194 78.7462 237.56 77.5101C236.209 77.0503 233.728 79.6203 233.728 79.6203L220.549 90.1569C220.549 90.1569 209.639 89.8593 202.607 96.0015C199.489 98.7257 183.444 100.377 166.859 105.347C146.049 111.582 123.539 121.768 114.979 131.393L154.656 131.235Z" fill="url(#paint3_linear)" style="mix-blend-mode:hard-light"/>
<g clip-path="url(#clip0)">
<path d="M61 297.036L62.5976 291.893L78.2544 280L74.7396 302.179L61 297.036Z" fill="#004DE3"/>
<path d="M153.663 307V286.75L169 291.893V295.429L153.663 307Z" fill="#004DE3"/>
<path fill-rule="evenodd" clip-rule="evenodd" d="M100.608 114H149.625C149.625 114 161.529 149.855 165.221 186.99C168.521 220.18 168.717 280.732 168.722 292.954C166.494 293.061 163.948 292.954 159.492 294.875C161.295 294.554 165.667 293.914 168.722 293.914C168.722 293.914 174.695 294.313 179.226 299.677C181.949 302.9 184 308 184 308H145.169L135.62 214.521H116.523L80.2375 308H50C50 308 52.4067 301.412 55.0926 298.716C58.4774 295.319 61.7767 293.914 61.7767 293.914C67.5059 293.274 70.6888 294.554 74.19 298.716C73.001 295.942 69.0974 292.954 62.4133 292.954L100.608 114Z" fill="#5FB8E9"/>
<path fill-rule="evenodd" clip-rule="evenodd" d="M100.608 114H149.625C149.625 114 161.529 149.855 165.221 186.99C168.521 220.18 168.717 280.732 168.722 292.954C166.494 293.061 163.948 292.954 159.492 294.875C161.295 294.554 165.667 293.914 168.722 293.914C168.722 293.914 174.695 294.313 179.226 299.677C181.949 302.9 184 308 184 308H145.169L135.62 214.521H116.523L80.2375 308H50C50 308 52.4067 301.412 55.0926 298.716C58.4774 295.319 61.7767 293.914 61.7767 293.914C67.5059 293.274 70.6888 294.554 74.19 298.716C73.001 295.942 69.0974 292.954 62.4133 292.954L100.608 114Z" fill="url(#paint4_linear)" style="mix-blend-mode:soft-light"/>
<path fill-rule="evenodd" clip-rule="evenodd" d="M100.608 114H149.625C149.625 114 161.529 149.855 165.221 186.99C168.521 220.18 168.717 280.732 168.722 292.954C166.494 293.061 163.948 292.954 159.492 294.875C161.295 294.554 165.667 293.914 168.722 293.914C168.722 293.914 174.695 294.313 179.226 299.677C181.949 302.9 184 308 184 308H145.169L135.62 214.521H116.523L80.2375 308H50C50 308 52.4067 301.412 55.0926 298.716C58.4774 295.319 61.7767 293.914 61.7767 293.914C67.5059 293.274 70.6888 294.554 74.19 298.716C73.001 295.942 69.0974 292.954 62.4133 292.954L100.608 114Z" fill="url(#paint5_linear)" style="mix-blend-mode:hard-light"/>
<path d="M51.2114 115H198.707C200.364 115 201.707 113.657 201.707 112V73.0519C201.707 67.6939 208.196 65.0227 211.968 68.8278L220.372 77.3052C224.794 81.7658 232.407 78.6378 232.407 72.3601V40.7232C232.407 34.4456 224.794 31.3175 220.372 35.7781L211.968 44.2555C208.196 48.0607 201.707 45.3894 201.707 40.0314V3C201.707 1.34315 200.364 0 198.707 0H143.093C137.731 0 135.062 6.49522 138.873 10.2655L147.344 18.6453C151.809 23.0626 148.678 30.6667 142.394 30.6667H110.723C104.439 30.6667 101.307 23.0626 105.773 18.6453L114.244 10.2655C118.055 6.49522 115.385 0 110.024 0H51.2114C49.5545 0 48.2114 1.34315 48.2114 3V40.0314C48.2114 45.3894 41.7225 48.0607 37.9503 44.2555L29.5463 35.7781C25.1244 31.3175 17.5122 34.4456 17.5122 40.7232V72.3602C17.5122 78.6378 25.1244 81.7658 29.5463 77.3052L37.9503 68.8278C41.7225 65.0227 48.2114 67.6939 48.2114 73.052V112C48.2114 113.657 49.5545 115 51.2114 115Z" fill="#5FB8E9"/>
<path d="M51.2114 115H198.707C200.364 115 201.707 113.657 201.707 112V73.0519C201.707 67.6939 208.196 65.0227 211.968 68.8278L220.372 77.3052C224.794 81.7658 232.407 78.6378 232.407 72.3601V40.7232C232.407 34.4456 224.794 31.3175 220.372 35.7781L211.968 44.2555C208.196 48.0607 201.707 45.3894 201.707 40.0314V3C201.707 1.34315 200.364 0 198.707 0H143.093C137.731 0 135.062 6.49522 138.873 10.2655L147.344 18.6453C151.809 23.0626 148.678 30.6667 142.394 30.6667H110.723C104.439 30.6667 101.307 23.0626 105.773 18.6453L114.244 10.2655C118.055 6.49522 115.385 0 110.024 0H51.2114C49.5545 0 48.2114 1.34315 48.2114 3V40.0314C48.2114 45.3894 41.7225 48.0607 37.9503 44.2555L29.5463 35.7781C25.1244 31.3175 17.5122 34.4456 17.5122 40.7232V72.3602C17.5122 78.6378 25.1244 81.7658 29.5463 77.3052L37.9503 68.8278C41.7225 65.0227 48.2114 67.6939 48.2114 73.052V112C48.2114 113.657 49.5545 115 51.2114 115Z" fill="url(#paint6_linear)" style="mix-blend-mode:soft-light"/>
<path d="M51.2114 115H198.707C200.364 115 201.707 113.657 201.707 112V73.0519C201.707 67.6939 208.196 65.0227 211.968 68.8278L220.372 77.3052C224.794 81.7658 232.407 78.6378 232.407 72.3601V40.7232C232.407 34.4456 224.794 31.3175 220.372 35.7781L211.968 44.2555C208.196 48.0607 201.707 45.3894 201.707 40.0314V3C201.707 1.34315 200.364 0 198.707 0H143.093C137.731 0 135.062 6.49522 138.873 10.2655L147.344 18.6453C151.809 23.0626 148.678 30.6667 142.394 30.6667H110.723C104.439 30.6667 101.307 23.0626 105.773 18.6453L114.244 10.2655C118.055 6.49522 115.385 0 110.024 0H51.2114C49.5545 0 48.2114 1.34315 48.2114 3V40.0314C48.2114 45.3894 41.7225 48.0607 37.9503 44.2555L29.5463 35.7781C25.1244 31.3175 17.5122 34.4456 17.5122 40.7232V72.3602C17.5122 78.6378 25.1244 81.7658 29.5463 77.3052L37.9503 68.8278C41.7225 65.0227 48.2114 67.6939 48.2114 73.052V112C48.2114 113.657 49.5545 115 51.2114 115Z" fill="url(#paint7_linear)" style="mix-blend-mode:hard-light"/>
<path d="M124.959 102.222C128.845 102.222 131.995 96.5014 131.995 89.4444H117.924C117.924 96.5014 121.074 102.222 124.959 102.222Z" fill="url(#paint8_radial)"/>
<path d="M72.5149 79.8611C72.5149 77.4416 78.2418 72.1945 85.3062 72.1945C92.3707 72.1945 98.0975 77.4416 98.0975 79.8611" stroke="black" stroke-width="5" stroke-linecap="round"/>
<path d="M151.182 79.8611C151.182 77.4416 156.908 72.1945 163.973 72.1945C171.037 72.1945 176.764 77.4416 176.764 79.8611" stroke="black" stroke-width="5" stroke-linecap="round"/>
<g style="mix-blend-mode:color-burn">
<path d="M75.0732 54.5195C75.393 54.2 88.1843 45.575 97.7778 54.5195" stroke="#2C60AE" stroke-width="3" stroke-linecap="round" stroke-linejoin="round"/>
</g>
<g style="mix-blend-mode:color-burn">
<path d="M151.821 54.5195C152.141 54.2 164.932 45.575 174.526 54.5195" stroke="#2C60AE" stroke-width="3" stroke-linecap="round" stroke-linejoin="round"/>
</g>
</g>
<defs>
<linearGradient id="paint0_linear" x1="124.868" y1="92.5198" x2="21.7648" y2="123.5" gradientUnits="userSpaceOnUse">
<stop stop-color="white" stop-opacity="0.74"/>
<stop offset="1" stop-color="white" stop-opacity="0"/>
</linearGradient>
<linearGradient id="paint1_linear" x1="124.868" y1="92.5198" x2="21.7648" y2="123.5" gradientUnits="userSpaceOnUse">
<stop stop-color="#001897" stop-opacity="0"/>
<stop offset="1" stop-color="#051EA2" stop-opacity="0.17"/>
</linearGradient>
<linearGradient id="paint2_linear" x1="128.988" y1="88.3682" x2="225.384" y2="119.754" gradientUnits="userSpaceOnUse">
<stop stop-color="white" stop-opacity="0.74"/>
<stop offset="1" stop-color="white" stop-opacity="0"/>
</linearGradient>
<linearGradient id="paint3_linear" x1="128.988" y1="88.3682" x2="225.384" y2="119.754" gradientUnits="userSpaceOnUse">
<stop stop-color="#001897" stop-opacity="0"/>
<stop offset="1" stop-color="#051EA2" stop-opacity="0.17"/>
</linearGradient>
<linearGradient id="paint4_linear" x1="117" y1="114.64" x2="117" y2="308" gradientUnits="userSpaceOnUse">
<stop stop-color="white" stop-opacity="0.74"/>
<stop offset="1" stop-color="white" stop-opacity="0"/>
</linearGradient>
<linearGradient id="paint5_linear" x1="117" y1="114.64" x2="117" y2="308" gradientUnits="userSpaceOnUse">
<stop stop-color="#001897" stop-opacity="0"/>
<stop offset="1" stop-color="#051EA2" stop-opacity="0.17"/>
</linearGradient>
<linearGradient id="paint6_linear" x1="124.959" y1="0" x2="124.959" y2="115" gradientUnits="userSpaceOnUse">
<stop stop-color="white" stop-opacity="0.74"/>
<stop offset="1" stop-color="white" stop-opacity="0"/>
</linearGradient>
<linearGradient id="paint7_linear" x1="124.959" y1="0" x2="124.959" y2="115" gradientUnits="userSpaceOnUse">
<stop stop-color="#001897" stop-opacity="0"/>
<stop offset="1" stop-color="#051EA2" stop-opacity="0.17"/>
</linearGradient>
<radialGradient id="paint8_radial" cx="0" cy="0" r="1" gradientUnits="userSpaceOnUse" gradientTransform="translate(124.959 99.0278) rotate(90) scale(9.26389 15.9892)">
<stop offset="0.4999" stop-color="#DE1313"/>
<stop offset="0.5" stop-color="#830B1A"/>
</radialGradient>
<clipPath id="clip0">
<rect width="226" height="307" fill="white" transform="translate(6)"/>
</clipPath>
</defs>
</svg>
