<svg width="339" height="436" viewBox="0 0 339 436" fill="none" xmlns="http://www.w3.org/2000/svg">
<g filter="url(#filter0_d)">
<path d="M236.949 49.5933L232.612 32.919C231.018 26.7884 224.735 23.0996 218.605 24.6942L201.93 29.0313C199.539 19.8382 190.112 14.3029 180.919 16.6941C171.726 19.0853 166.19 28.5124 168.582 37.7056L151.907 42.0427C145.777 43.6373 142.088 49.9197 143.682 56.0503L149.465 78.2828L155.023 76.8371C157.972 76.0702 161.104 76.506 163.731 78.0484C166.358 79.5909 168.264 82.1137 169.031 85.0619C169.798 88.0101 169.362 91.1422 167.82 93.7691C166.277 96.3961 163.754 98.3027 160.806 99.0696L155.248 100.515L161.031 122.748C162.626 128.878 168.908 132.567 175.039 130.973L197.271 125.19L195.825 119.632C195.059 116.683 195.494 113.551 197.037 110.924C198.579 108.297 201.102 106.391 204.05 105.624C206.998 104.857 210.13 105.293 212.757 106.835C215.384 108.378 217.291 110.901 218.058 113.849L219.504 119.407L241.736 113.624C247.867 112.029 251.555 105.747 249.961 99.6164L245.624 82.942C254.817 80.5508 260.352 71.1237 257.961 61.9306C255.57 52.7374 246.143 47.2021 236.949 49.5933Z" fill="#F92D2D"/>
<path d="M236.949 49.5933L232.612 32.919C231.018 26.7884 224.735 23.0996 218.605 24.6942L201.93 29.0313C199.539 19.8382 190.112 14.3029 180.919 16.6941C171.726 19.0853 166.19 28.5124 168.582 37.7056L151.907 42.0427C145.777 43.6373 142.088 49.9197 143.682 56.0503L149.465 78.2828L155.023 76.8371C157.972 76.0702 161.104 76.506 163.731 78.0484C166.358 79.5909 168.264 82.1137 169.031 85.0619C169.798 88.0101 169.362 91.1422 167.82 93.7691C166.277 96.3961 163.754 98.3027 160.806 99.0696L155.248 100.515L161.031 122.748C162.626 128.878 168.908 132.567 175.039 130.973L197.271 125.19L195.825 119.632C195.059 116.683 195.494 113.551 197.037 110.924C198.579 108.297 201.102 106.391 204.05 105.624C206.998 104.857 210.13 105.293 212.757 106.835C215.384 108.378 217.291 110.901 218.058 113.849L219.504 119.407L241.736 113.624C247.867 112.029 251.555 105.747 249.961 99.6164L245.624 82.942C254.817 80.5508 260.352 71.1237 257.961 61.9306C255.57 52.7374 246.143 47.2021 236.949 49.5933Z" fill="url(#paint0_linear)" style="mix-blend-mode:soft-light"/>
<path d="M236.949 49.5933L232.612 32.919C231.018 26.7884 224.735 23.0996 218.605 24.6942L201.93 29.0313C199.539 19.8382 190.112 14.3029 180.919 16.6941C171.726 19.0853 166.19 28.5124 168.582 37.7056L151.907 42.0427C145.777 43.6373 142.088 49.9197 143.682 56.0503L149.465 78.2828L155.023 76.8371C157.972 76.0702 161.104 76.506 163.731 78.0484C166.358 79.5909 168.264 82.1137 169.031 85.0619C169.798 88.0101 169.362 91.1422 167.82 93.7691C166.277 96.3961 163.754 98.3027 160.806 99.0696L155.248 100.515L161.031 122.748C162.626 128.878 168.908 132.567 175.039 130.973L197.271 125.19L195.825 119.632C195.059 116.683 195.494 113.551 197.037 110.924C198.579 108.297 201.102 106.391 204.05 105.624C206.998 104.857 210.13 105.293 212.757 106.835C215.384 108.378 217.291 110.901 218.058 113.849L219.504 119.407L241.736 113.624C247.867 112.029 251.555 105.747 249.961 99.6164L245.624 82.942C254.817 80.5508 260.352 71.1237 257.961 61.9306C255.57 52.7374 246.143 47.2021 236.949 49.5933Z" fill="url(#paint1_linear)" style="mix-blend-mode:hard-light"/>
</g>
<g filter="url(#filter1_d)">
<path d="M264.201 155.508L259.864 138.833C258.269 132.703 251.987 129.014 245.856 130.608L229.182 134.946C226.79 125.752 217.363 120.217 208.17 122.608C198.977 125 193.442 134.427 195.833 143.62L179.159 147.957C173.028 149.552 169.339 155.834 170.934 161.965L176.717 184.197L182.275 182.751C185.223 181.985 188.355 182.42 190.982 183.963C193.609 185.505 195.515 188.028 196.282 190.976C197.049 193.924 196.613 197.057 195.071 199.683C193.529 202.31 191.006 204.217 188.058 204.984L182.499 206.43L188.282 228.662C189.877 234.793 196.159 238.481 202.29 236.887L224.522 231.104L223.077 225.546C222.31 222.598 222.746 219.466 224.288 216.839C225.83 214.212 228.353 212.305 231.301 211.538C234.25 210.771 237.382 211.207 240.009 212.75C242.636 214.292 244.542 216.815 245.309 219.763L246.755 225.321L268.987 219.538C275.118 217.944 278.807 211.661 277.212 205.531L272.875 188.856C282.068 186.465 287.603 177.038 285.212 167.845C282.821 158.652 273.394 153.116 264.201 155.508Z" fill="#F92D2D"/>
<path d="M264.201 155.508L259.864 138.833C258.269 132.703 251.987 129.014 245.856 130.608L229.182 134.946C226.79 125.752 217.363 120.217 208.17 122.608C198.977 125 193.442 134.427 195.833 143.62L179.159 147.957C173.028 149.552 169.339 155.834 170.934 161.965L176.717 184.197L182.275 182.751C185.223 181.985 188.355 182.42 190.982 183.963C193.609 185.505 195.515 188.028 196.282 190.976C197.049 193.924 196.613 197.057 195.071 199.683C193.529 202.31 191.006 204.217 188.058 204.984L182.499 206.43L188.282 228.662C189.877 234.793 196.159 238.481 202.29 236.887L224.522 231.104L223.077 225.546C222.31 222.598 222.746 219.466 224.288 216.839C225.83 214.212 228.353 212.305 231.301 211.538C234.25 210.771 237.382 211.207 240.009 212.75C242.636 214.292 244.542 216.815 245.309 219.763L246.755 225.321L268.987 219.538C275.118 217.944 278.807 211.661 277.212 205.531L272.875 188.856C282.068 186.465 287.603 177.038 285.212 167.845C282.821 158.652 273.394 153.116 264.201 155.508Z" fill="url(#paint2_linear)" style="mix-blend-mode:soft-light"/>
<path d="M264.201 155.508L259.864 138.833C258.269 132.703 251.987 129.014 245.856 130.608L229.182 134.946C226.79 125.752 217.363 120.217 208.17 122.608C198.977 125 193.442 134.427 195.833 143.62L179.159 147.957C173.028 149.552 169.339 155.834 170.934 161.965L176.717 184.197L182.275 182.751C185.223 181.985 188.355 182.42 190.982 183.963C193.609 185.505 195.515 188.028 196.282 190.976C197.049 193.924 196.613 197.057 195.071 199.683C193.529 202.31 191.006 204.217 188.058 204.984L182.499 206.43L188.282 228.662C189.877 234.793 196.159 238.481 202.29 236.887L224.522 231.104L223.077 225.546C222.31 222.598 222.746 219.466 224.288 216.839C225.83 214.212 228.353 212.305 231.301 211.538C234.25 210.771 237.382 211.207 240.009 212.75C242.636 214.292 244.542 216.815 245.309 219.763L246.755 225.321L268.987 219.538C275.118 217.944 278.807 211.661 277.212 205.531L272.875 188.856C282.068 186.465 287.603 177.038 285.212 167.845C282.821 158.652 273.394 153.116 264.201 155.508Z" fill="url(#paint3_linear)" style="mix-blend-mode:hard-light"/>
</g>
<g filter="url(#filter2_d)">
<path d="M128.618 190.398L124.28 173.724C122.686 167.593 116.403 163.905 110.273 165.499L93.5985 169.836C91.2073 160.643 81.7801 155.108 72.587 157.499C63.3939 159.89 57.8586 169.317 60.2498 178.51L43.5754 182.848C37.4448 184.442 33.756 190.725 35.3506 196.855L41.1335 219.088L46.6916 217.642C49.6398 216.875 52.7719 217.311 55.3988 218.853C58.0258 220.396 59.9324 222.919 60.6992 225.867C61.4661 228.815 61.0304 231.947 59.4879 234.574C57.9455 237.201 55.4226 239.108 52.4744 239.874L46.9163 241.32L52.6991 263.553C54.2938 269.683 60.5762 273.372 66.7068 271.777L88.9393 265.995L87.4935 260.437C86.7267 257.488 87.1624 254.356 88.7049 251.729C90.2473 249.102 92.7701 247.196 95.7184 246.429C98.6666 245.662 101.799 246.098 104.426 247.64C107.053 249.183 108.959 251.705 109.726 254.654L111.172 260.212L133.404 254.429C139.535 252.834 143.224 246.552 141.629 240.421L137.292 223.747C146.485 221.356 152.02 211.929 149.629 202.735C147.238 193.542 137.811 188.007 128.618 190.398Z" fill="#F92D2D"/>
<path d="M128.618 190.398L124.28 173.724C122.686 167.593 116.403 163.905 110.273 165.499L93.5985 169.836C91.2073 160.643 81.7801 155.108 72.587 157.499C63.3939 159.89 57.8586 169.317 60.2498 178.51L43.5754 182.848C37.4448 184.442 33.756 190.725 35.3506 196.855L41.1335 219.088L46.6916 217.642C49.6398 216.875 52.7719 217.311 55.3988 218.853C58.0258 220.396 59.9324 222.919 60.6992 225.867C61.4661 228.815 61.0304 231.947 59.4879 234.574C57.9455 237.201 55.4226 239.108 52.4744 239.874L46.9163 241.32L52.6991 263.553C54.2938 269.683 60.5762 273.372 66.7068 271.777L88.9393 265.995L87.4935 260.437C86.7267 257.488 87.1624 254.356 88.7049 251.729C90.2473 249.102 92.7701 247.196 95.7184 246.429C98.6666 245.662 101.799 246.098 104.426 247.64C107.053 249.183 108.959 251.705 109.726 254.654L111.172 260.212L133.404 254.429C139.535 252.834 143.224 246.552 141.629 240.421L137.292 223.747C146.485 221.356 152.02 211.929 149.629 202.735C147.238 193.542 137.811 188.007 128.618 190.398Z" fill="url(#paint4_linear)" style="mix-blend-mode:soft-light"/>
<path d="M128.618 190.398L124.28 173.724C122.686 167.593 116.403 163.905 110.273 165.499L93.5985 169.836C91.2073 160.643 81.7801 155.108 72.587 157.499C63.3939 159.89 57.8586 169.317 60.2498 178.51L43.5754 182.848C37.4448 184.442 33.756 190.725 35.3506 196.855L41.1335 219.088L46.6916 217.642C49.6398 216.875 52.7719 217.311 55.3988 218.853C58.0258 220.396 59.9324 222.919 60.6992 225.867C61.4661 228.815 61.0304 231.947 59.4879 234.574C57.9455 237.201 55.4226 239.108 52.4744 239.874L46.9163 241.32L52.6991 263.553C54.2938 269.683 60.5762 273.372 66.7068 271.777L88.9393 265.995L87.4935 260.437C86.7267 257.488 87.1624 254.356 88.7049 251.729C90.2473 249.102 92.7701 247.196 95.7184 246.429C98.6666 245.662 101.799 246.098 104.426 247.64C107.053 249.183 108.959 251.705 109.726 254.654L111.172 260.212L133.404 254.429C139.535 252.834 143.224 246.552 141.629 240.421L137.292 223.747C146.485 221.356 152.02 211.929 149.629 202.735C147.238 193.542 137.811 188.007 128.618 190.398Z" fill="url(#paint5_linear)" style="mix-blend-mode:hard-light"/>
</g>
<g filter="url(#filter3_d)">
<path d="M294.065 270.324L289.728 253.649C288.134 247.519 281.851 243.83 275.72 245.424L259.046 249.762C256.655 240.568 247.228 235.033 238.035 237.424C228.842 239.816 223.306 249.243 225.697 258.436L209.023 262.773C202.892 264.368 199.204 270.65 200.798 276.781L206.581 299.013L212.139 297.567C215.087 296.8 218.22 297.236 220.846 298.779C223.473 300.321 225.38 302.844 226.147 305.792C226.914 308.74 226.478 311.872 224.936 314.499C223.393 317.126 220.87 319.033 217.922 319.8L212.364 321.245L218.147 343.478C219.741 349.609 226.024 353.297 232.154 351.703L254.387 345.92L252.941 340.362C252.174 337.414 252.61 334.282 254.153 331.655C255.695 329.028 258.218 327.121 261.166 326.354C264.114 325.587 267.246 326.023 269.873 327.565C272.5 329.108 274.407 331.631 275.174 334.579L276.619 340.137L298.852 334.354C304.982 332.76 308.671 326.477 307.077 320.347L302.74 303.672C311.933 301.281 317.468 291.854 315.077 282.661C312.686 273.468 303.258 267.932 294.065 270.324Z" fill="#F92D2D"/>
<path d="M294.065 270.324L289.728 253.649C288.134 247.519 281.851 243.83 275.72 245.424L259.046 249.762C256.655 240.568 247.228 235.033 238.035 237.424C228.842 239.816 223.306 249.243 225.697 258.436L209.023 262.773C202.892 264.368 199.204 270.65 200.798 276.781L206.581 299.013L212.139 297.567C215.087 296.8 218.22 297.236 220.846 298.779C223.473 300.321 225.38 302.844 226.147 305.792C226.914 308.74 226.478 311.872 224.936 314.499C223.393 317.126 220.87 319.033 217.922 319.8L212.364 321.245L218.147 343.478C219.741 349.609 226.024 353.297 232.154 351.703L254.387 345.92L252.941 340.362C252.174 337.414 252.61 334.282 254.153 331.655C255.695 329.028 258.218 327.121 261.166 326.354C264.114 325.587 267.246 326.023 269.873 327.565C272.5 329.108 274.407 331.631 275.174 334.579L276.619 340.137L298.852 334.354C304.982 332.76 308.671 326.477 307.077 320.347L302.74 303.672C311.933 301.281 317.468 291.854 315.077 282.661C312.686 273.468 303.258 267.932 294.065 270.324Z" fill="url(#paint6_linear)" style="mix-blend-mode:soft-light"/>
<path d="M294.065 270.324L289.728 253.649C288.134 247.519 281.851 243.83 275.72 245.424L259.046 249.762C256.655 240.568 247.228 235.033 238.035 237.424C228.842 239.816 223.306 249.243 225.697 258.436L209.023 262.773C202.892 264.368 199.204 270.65 200.798 276.781L206.581 299.013L212.139 297.567C215.087 296.8 218.22 297.236 220.846 298.779C223.473 300.321 225.38 302.844 226.147 305.792C226.914 308.74 226.478 311.872 224.936 314.499C223.393 317.126 220.87 319.033 217.922 319.8L212.364 321.245L218.147 343.478C219.741 349.609 226.024 353.297 232.154 351.703L254.387 345.92L252.941 340.362C252.174 337.414 252.61 334.282 254.153 331.655C255.695 329.028 258.218 327.121 261.166 326.354C264.114 325.587 267.246 326.023 269.873 327.565C272.5 329.108 274.407 331.631 275.174 334.579L276.619 340.137L298.852 334.354C304.982 332.76 308.671 326.477 307.077 320.347L302.74 303.672C311.933 301.281 317.468 291.854 315.077 282.661C312.686 273.468 303.258 267.932 294.065 270.324Z" fill="url(#paint7_linear)" style="mix-blend-mode:hard-light"/>
</g>
<path d="M204.085 104.696C203.877 103.895 203.058 103.414 202.256 103.622C201.454 103.831 200.973 104.65 201.182 105.452L204.085 104.696ZM213.961 148.625L218.567 131.928L201.804 136.288L213.961 148.625ZM201.182 105.452L209.111 135.937L212.015 135.182L204.085 104.696L201.182 105.452Z" fill="white"/>
<path d="M231.776 211.154C231.567 210.352 230.748 209.871 229.946 210.08C229.145 210.288 228.664 211.107 228.872 211.909L231.776 211.154ZM240.645 251.211L245.25 234.514L228.488 238.874L240.645 251.211ZM228.872 211.909L235.795 238.524L238.698 237.768L231.776 211.154L228.872 211.909Z" fill="white"/>
<path d="M267.773 349.549C267.565 348.747 266.746 348.266 265.944 348.475C265.142 348.683 264.661 349.502 264.87 350.304L267.773 349.549ZM276.391 388.638L280.996 371.941L264.233 376.302L276.391 388.638ZM264.87 350.304L271.541 375.951L274.444 375.196L267.773 349.549L264.87 350.304Z" fill="white"/>
<path d="M181.534 194.774C182.336 194.565 182.817 193.746 182.608 192.944C182.4 192.143 181.581 191.662 180.779 191.87L181.534 194.774ZM122.121 208.678L138.818 213.283L134.458 196.52L122.121 208.678ZM180.779 191.87L134.809 203.828L135.564 206.731L181.534 194.774L180.779 191.87Z" fill="white"/>
<path d="M102.79 267.436C102.581 266.634 101.762 266.153 100.961 266.362C100.159 266.571 99.6779 267.39 99.8865 268.191L102.79 267.436ZM120.218 340.399L118.766 340.776C118.975 341.578 119.794 342.059 120.596 341.85L120.218 340.399ZM208.996 317.307L192.299 312.701L196.659 329.464L208.996 317.307ZM99.8865 268.191L118.766 340.776L121.67 340.021L102.79 267.436L99.8865 268.191ZM120.596 341.85L196.308 322.157L195.553 319.253L119.84 338.947L120.596 341.85Z" fill="white"/>
<defs>
<filter id="filter0_d" x="132.454" y="0.79126" width="141.073" height="141.073" filterUnits="userSpaceOnUse" color-interpolation-filters="sRGB">
<feFlood flood-opacity="0" result="BackgroundImageFix"/>
<feColorMatrix in="SourceAlpha" type="matrix" values="0 0 0 0 0 0 0 0 0 0 0 0 0 0 0 0 0 0 127 0"/>
<feOffset dy="4"/>
<feGaussianBlur stdDeviation="2"/>
<feColorMatrix type="matrix" values="0 0 0 0 0 0 0 0 0 0 0 0 0 0 0 0 0 0 0.25 0"/>
<feBlend mode="normal" in2="BackgroundImageFix" result="effect1_dropShadow"/>
<feBlend mode="normal" in="SourceGraphic" in2="effect1_dropShadow" result="shape"/>
</filter>
<filter id="filter1_d" x="159.705" y="106.706" width="141.073" height="141.073" filterUnits="userSpaceOnUse" color-interpolation-filters="sRGB">
<feFlood flood-opacity="0" result="BackgroundImageFix"/>
<feColorMatrix in="SourceAlpha" type="matrix" values="0 0 0 0 0 0 0 0 0 0 0 0 0 0 0 0 0 0 127 0"/>
<feOffset dy="4"/>
<feGaussianBlur stdDeviation="2"/>
<feColorMatrix type="matrix" values="0 0 0 0 0 0 0 0 0 0 0 0 0 0 0 0 0 0 0.25 0"/>
<feBlend mode="normal" in2="BackgroundImageFix" result="effect1_dropShadow"/>
<feBlend mode="normal" in="SourceGraphic" in2="effect1_dropShadow" result="shape"/>
</filter>
<filter id="filter2_d" x="24.1221" y="141.596" width="141.073" height="141.073" filterUnits="userSpaceOnUse" color-interpolation-filters="sRGB">
<feFlood flood-opacity="0" result="BackgroundImageFix"/>
<feColorMatrix in="SourceAlpha" type="matrix" values="0 0 0 0 0 0 0 0 0 0 0 0 0 0 0 0 0 0 127 0"/>
<feOffset dy="4"/>
<feGaussianBlur stdDeviation="2"/>
<feColorMatrix type="matrix" values="0 0 0 0 0 0 0 0 0 0 0 0 0 0 0 0 0 0 0.25 0"/>
<feBlend mode="normal" in2="BackgroundImageFix" result="effect1_dropShadow"/>
<feBlend mode="normal" in="SourceGraphic" in2="effect1_dropShadow" result="shape"/>
</filter>
<filter id="filter3_d" x="189.57" y="221.521" width="141.073" height="141.073" filterUnits="userSpaceOnUse" color-interpolation-filters="sRGB">
<feFlood flood-opacity="0" result="BackgroundImageFix"/>
<feColorMatrix in="SourceAlpha" type="matrix" values="0 0 0 0 0 0 0 0 0 0 0 0 0 0 0 0 0 0 127 0"/>
<feOffset dy="4"/>
<feGaussianBlur stdDeviation="2"/>
<feColorMatrix type="matrix" values="0 0 0 0 0 0 0 0 0 0 0 0 0 0 0 0 0 0 0.25 0"/>
<feBlend mode="normal" in2="BackgroundImageFix" result="effect1_dropShadow"/>
<feBlend mode="normal" in="SourceGraphic" in2="effect1_dropShadow" result="shape"/>
</filter>
<linearGradient id="paint0_linear" x1="189.347" y1="14.8741" x2="216.725" y2="120.13" gradientUnits="userSpaceOnUse">
<stop stop-color="white" stop-opacity="0.94"/>
<stop offset="1" stop-color="white" stop-opacity="0"/>
</linearGradient>
<linearGradient id="paint1_linear" x1="189.347" y1="14.8741" x2="216.725" y2="120.13" gradientUnits="userSpaceOnUse">
<stop offset="0.416667" stop-color="#C10000" stop-opacity="0"/>
<stop offset="1" stop-color="#860000" stop-opacity="0.69"/>
</linearGradient>
<linearGradient id="paint2_linear" x1="216.598" y1="120.788" x2="243.976" y2="226.044" gradientUnits="userSpaceOnUse">
<stop stop-color="white" stop-opacity="0.94"/>
<stop offset="1" stop-color="white" stop-opacity="0"/>
</linearGradient>
<linearGradient id="paint3_linear" x1="216.598" y1="120.788" x2="243.976" y2="226.044" gradientUnits="userSpaceOnUse">
<stop offset="0.416667" stop-color="#C10000" stop-opacity="0"/>
<stop offset="1" stop-color="#860000" stop-opacity="0.69"/>
</linearGradient>
<linearGradient id="paint4_linear" x1="81.0148" y1="155.679" x2="108.393" y2="260.935" gradientUnits="userSpaceOnUse">
<stop stop-color="white" stop-opacity="0.94"/>
<stop offset="1" stop-color="white" stop-opacity="0"/>
</linearGradient>
<linearGradient id="paint5_linear" x1="81.0148" y1="155.679" x2="108.393" y2="260.935" gradientUnits="userSpaceOnUse">
<stop offset="0.416667" stop-color="#C10000" stop-opacity="0"/>
<stop offset="1" stop-color="#860000" stop-opacity="0.69"/>
</linearGradient>
<linearGradient id="paint6_linear" x1="246.462" y1="235.604" x2="273.84" y2="340.86" gradientUnits="userSpaceOnUse">
<stop stop-color="white" stop-opacity="0.94"/>
<stop offset="1" stop-color="white" stop-opacity="0"/>
</linearGradient>
<linearGradient id="paint7_linear" x1="246.462" y1="235.604" x2="273.84" y2="340.86" gradientUnits="userSpaceOnUse">
<stop offset="0.416667" stop-color="#C10000" stop-opacity="0"/>
<stop offset="1" stop-color="#860000" stop-opacity="0.69"/>
</linearGradient>
</defs>
</svg>
