<svg width="212" height="360" viewBox="0 0 212 360" fill="none" xmlns="http://www.w3.org/2000/svg">
<g filter="url(#filter0_d)">
<path d="M118.203 55.4581L113.273 36.5099C111.461 29.5433 104.321 25.3518 97.3545 27.1643L78.4063 32.0941C75.6884 21.6473 64.9752 15.3577 54.5284 18.0757C44.0817 20.7936 37.7921 31.5068 40.51 41.9536L21.5619 46.8833C14.5953 48.6958 10.4037 55.8353 12.2163 62.8019L18.7893 88.0662L25.1053 86.4229C28.4556 85.5513 32.0148 86.0462 35.0002 87.7989C37.9855 89.5515 40.1523 92.4183 41.0239 95.7685C41.8956 99.1187 41.4006 102.678 39.648 105.663C37.8953 108.649 35.0286 110.815 31.6783 111.687L25.3623 113.33L31.9353 138.595C33.7478 145.561 40.8873 149.753 47.8539 147.94L73.1181 141.367L71.4748 135.051C70.6032 131.701 71.0981 128.142 72.8508 125.156C74.6034 122.171 77.4702 120.004 80.8204 119.133C84.1707 118.261 87.73 118.756 90.7153 120.508C93.7006 122.261 95.8674 125.128 96.739 128.478L98.3823 134.794L123.647 128.221C130.613 126.409 134.805 119.269 132.992 112.303L128.062 93.3544C138.509 90.6365 144.799 79.9232 142.081 69.4765C139.363 59.0297 128.65 52.7401 118.203 55.4581Z" fill="#E8C100"/>
<path d="M118.203 55.4581L113.273 36.5099C111.461 29.5433 104.321 25.3518 97.3545 27.1643L78.4063 32.0941C75.6884 21.6473 64.9752 15.3577 54.5284 18.0757C44.0817 20.7936 37.7921 31.5068 40.51 41.9536L21.5619 46.8833C14.5953 48.6958 10.4037 55.8353 12.2163 62.8019L18.7893 88.0662L25.1053 86.4229C28.4556 85.5513 32.0148 86.0462 35.0002 87.7989C37.9855 89.5515 40.1523 92.4183 41.0239 95.7685C41.8956 99.1187 41.4006 102.678 39.648 105.663C37.8953 108.649 35.0286 110.815 31.6783 111.687L25.3623 113.33L31.9353 138.595C33.7478 145.561 40.8873 149.753 47.8539 147.94L73.1181 141.367L71.4748 135.051C70.6032 131.701 71.0981 128.142 72.8508 125.156C74.6034 122.171 77.4702 120.004 80.8204 119.133C84.1707 118.261 87.73 118.756 90.7153 120.508C93.7006 122.261 95.8674 125.128 96.739 128.478L98.3823 134.794L123.647 128.221C130.613 126.409 134.805 119.269 132.992 112.303L128.062 93.3544C138.509 90.6365 144.799 79.9232 142.081 69.4765C139.363 59.0297 128.65 52.7401 118.203 55.4581Z" fill="url(#paint0_linear)" style="mix-blend-mode:soft-light"/>
<path d="M118.203 55.4581L113.273 36.5099C111.461 29.5433 104.321 25.3518 97.3545 27.1643L78.4063 32.0941C75.6884 21.6473 64.9752 15.3577 54.5284 18.0757C44.0817 20.7936 37.7921 31.5068 40.51 41.9536L21.5619 46.8833C14.5953 48.6958 10.4037 55.8353 12.2163 62.8019L18.7893 88.0662L25.1053 86.4229C28.4556 85.5513 32.0148 86.0462 35.0002 87.7989C37.9855 89.5515 40.1523 92.4183 41.0239 95.7685C41.8956 99.1187 41.4006 102.678 39.648 105.663C37.8953 108.649 35.0286 110.815 31.6783 111.687L25.3623 113.33L31.9353 138.595C33.7478 145.561 40.8873 149.753 47.8539 147.94L73.1181 141.367L71.4748 135.051C70.6032 131.701 71.0981 128.142 72.8508 125.156C74.6034 122.171 77.4702 120.004 80.8204 119.133C84.1707 118.261 87.73 118.756 90.7153 120.508C93.7006 122.261 95.8674 125.128 96.739 128.478L98.3823 134.794L123.647 128.221C130.613 126.409 134.805 119.269 132.992 112.303L128.062 93.3544C138.509 90.6365 144.799 79.9232 142.081 69.4765C139.363 59.0297 128.65 52.7401 118.203 55.4581Z" fill="url(#paint1_linear)" style="mix-blend-mode:hard-light"/>
</g>
<g filter="url(#filter1_d)">
<path d="M144.137 155.14L139.207 136.192C137.395 129.225 130.255 125.033 123.289 126.846L104.341 131.776C101.623 121.329 90.9094 115.039 80.4626 117.757C70.0159 120.475 63.7263 131.188 66.4442 141.635L47.4961 146.565C40.5295 148.377 36.338 155.517 38.1505 162.484L44.7235 187.748L51.0395 186.105C54.3898 185.233 57.949 185.728 60.9344 187.48C63.9197 189.233 66.0865 192.1 66.9581 195.45C67.8298 198.8 67.3348 202.36 65.5822 205.345C63.8295 208.33 60.9628 210.497 57.6125 211.369L51.2965 213.012L57.8695 238.276C59.682 245.243 66.8215 249.434 73.7881 247.622L99.0523 241.049L97.409 234.733C96.5374 231.383 97.0324 227.823 98.785 224.838C100.538 221.853 103.404 219.686 106.755 218.814C110.105 217.943 113.664 218.437 116.649 220.19C119.635 221.943 121.802 224.81 122.673 228.16L124.317 234.476L149.581 227.903C156.547 226.09 160.739 218.951 158.926 211.984L153.997 193.036C164.443 190.318 170.733 179.605 168.015 169.158C165.297 158.711 154.584 152.422 144.137 155.14Z" fill="#E8C100"/>
<path d="M144.137 155.14L139.207 136.192C137.395 129.225 130.255 125.033 123.289 126.846L104.341 131.776C101.623 121.329 90.9094 115.039 80.4626 117.757C70.0159 120.475 63.7263 131.188 66.4442 141.635L47.4961 146.565C40.5295 148.377 36.338 155.517 38.1505 162.484L44.7235 187.748L51.0395 186.105C54.3898 185.233 57.949 185.728 60.9344 187.48C63.9197 189.233 66.0865 192.1 66.9581 195.45C67.8298 198.8 67.3348 202.36 65.5822 205.345C63.8295 208.33 60.9628 210.497 57.6125 211.369L51.2965 213.012L57.8695 238.276C59.682 245.243 66.8215 249.434 73.7881 247.622L99.0523 241.049L97.409 234.733C96.5374 231.383 97.0324 227.823 98.785 224.838C100.538 221.853 103.404 219.686 106.755 218.814C110.105 217.943 113.664 218.437 116.649 220.19C119.635 221.943 121.802 224.81 122.673 228.16L124.317 234.476L149.581 227.903C156.547 226.09 160.739 218.951 158.926 211.984L153.997 193.036C164.443 190.318 170.733 179.605 168.015 169.158C165.297 158.711 154.584 152.422 144.137 155.14Z" fill="url(#paint2_linear)" style="mix-blend-mode:soft-light"/>
<path d="M144.137 155.14L139.207 136.192C137.395 129.225 130.255 125.033 123.289 126.846L104.341 131.776C101.623 121.329 90.9094 115.039 80.4626 117.757C70.0159 120.475 63.7263 131.188 66.4442 141.635L47.4961 146.565C40.5295 148.377 36.338 155.517 38.1505 162.484L44.7235 187.748L51.0395 186.105C54.3898 185.233 57.949 185.728 60.9344 187.48C63.9197 189.233 66.0865 192.1 66.9581 195.45C67.8298 198.8 67.3348 202.36 65.5822 205.345C63.8295 208.33 60.9628 210.497 57.6125 211.369L51.2965 213.012L57.8695 238.276C59.682 245.243 66.8215 249.434 73.7881 247.622L99.0523 241.049L97.409 234.733C96.5374 231.383 97.0324 227.823 98.785 224.838C100.538 221.853 103.404 219.686 106.755 218.814C110.105 217.943 113.664 218.437 116.649 220.19C119.635 221.943 121.802 224.81 122.673 228.16L124.317 234.476L149.581 227.903C156.547 226.09 160.739 218.951 158.926 211.984L153.997 193.036C164.443 190.318 170.733 179.605 168.015 169.158C165.297 158.711 154.584 152.422 144.137 155.14Z" fill="url(#paint3_linear)" style="mix-blend-mode:hard-light"/>
</g>
<g filter="url(#filter2_d)">
<path d="M170.323 255.789L165.393 236.841C163.581 229.874 156.441 225.683 149.475 227.495L130.527 232.425C127.809 221.978 117.095 215.689 106.649 218.406C96.2019 221.124 89.9123 231.838 92.6303 242.284L73.6821 247.214C66.7155 249.027 62.524 256.166 64.3365 263.133L70.9095 288.397L77.2256 286.754C80.5758 285.882 84.1351 286.377 87.1204 288.13C90.1057 289.882 92.2725 292.749 93.1442 296.099C94.0158 299.45 93.5209 303.009 91.7682 305.994C90.0156 308.979 87.1488 311.146 83.7986 312.018L77.4825 313.661L84.0555 338.925C85.868 345.892 93.0075 350.083 99.9741 348.271L125.238 341.698L123.595 335.382C122.723 332.032 123.218 328.472 124.971 325.487C126.724 322.502 129.59 320.335 132.941 319.463C136.291 318.592 139.85 319.087 142.836 320.839C145.821 322.592 147.988 325.459 148.859 328.809L150.503 335.125L175.767 328.552C182.733 326.739 186.925 319.6 185.112 312.633L180.183 293.685C190.629 290.967 196.919 280.254 194.201 269.807C191.483 259.361 180.77 253.071 170.323 255.789Z" fill="#E8C100"/>
<path d="M170.323 255.789L165.393 236.841C163.581 229.874 156.441 225.683 149.475 227.495L130.527 232.425C127.809 221.978 117.095 215.689 106.649 218.406C96.2019 221.124 89.9123 231.838 92.6303 242.284L73.6821 247.214C66.7155 249.027 62.524 256.166 64.3365 263.133L70.9095 288.397L77.2256 286.754C80.5758 285.882 84.1351 286.377 87.1204 288.13C90.1057 289.882 92.2725 292.749 93.1442 296.099C94.0158 299.45 93.5209 303.009 91.7682 305.994C90.0156 308.979 87.1488 311.146 83.7986 312.018L77.4825 313.661L84.0555 338.925C85.868 345.892 93.0075 350.083 99.9741 348.271L125.238 341.698L123.595 335.382C122.723 332.032 123.218 328.472 124.971 325.487C126.724 322.502 129.59 320.335 132.941 319.463C136.291 318.592 139.85 319.087 142.836 320.839C145.821 322.592 147.988 325.459 148.859 328.809L150.503 335.125L175.767 328.552C182.733 326.739 186.925 319.6 185.112 312.633L180.183 293.685C190.629 290.967 196.919 280.254 194.201 269.807C191.483 259.361 180.77 253.071 170.323 255.789Z" fill="url(#paint4_linear)" style="mix-blend-mode:soft-light"/>
<path d="M170.323 255.789L165.393 236.841C163.581 229.874 156.441 225.683 149.475 227.495L130.527 232.425C127.809 221.978 117.095 215.689 106.649 218.406C96.2019 221.124 89.9123 231.838 92.6303 242.284L73.6821 247.214C66.7155 249.027 62.524 256.166 64.3365 263.133L70.9095 288.397L77.2256 286.754C80.5758 285.882 84.1351 286.377 87.1204 288.13C90.1057 289.882 92.2725 292.749 93.1442 296.099C94.0158 299.45 93.5209 303.009 91.7682 305.994C90.0156 308.979 87.1488 311.146 83.7986 312.018L77.4825 313.661L84.0555 338.925C85.868 345.892 93.0075 350.083 99.9741 348.271L125.238 341.698L123.595 335.382C122.723 332.032 123.218 328.472 124.971 325.487C126.724 322.502 129.59 320.335 132.941 319.463C136.291 318.592 139.85 319.087 142.836 320.839C145.821 322.592 147.988 325.459 148.859 328.809L150.503 335.125L175.767 328.552C182.733 326.739 186.925 319.6 185.112 312.633L180.183 293.685C190.629 290.967 196.919 280.254 194.201 269.807C191.483 259.361 180.77 253.071 170.323 255.789Z" fill="url(#paint5_linear)" style="mix-blend-mode:hard-light"/>
</g>
<path d="M74.6957 68.6265C74.2785 67.023 72.6405 66.0613 71.037 66.4785C69.4335 66.8957 68.4718 68.5337 68.889 70.1372L74.6957 68.6265ZM132.977 304.553L142.186 271.158L108.661 279.881L132.977 304.553ZM68.889 70.1372L123.275 279.178L129.082 277.667L74.6957 68.6265L68.889 70.1372Z" fill="white"/>
<defs>
<filter id="filter0_d" x="0" y="0" width="159.227" height="159.227" filterUnits="userSpaceOnUse" color-interpolation-filters="sRGB">
<feFlood flood-opacity="0" result="BackgroundImageFix"/>
<feColorMatrix in="SourceAlpha" type="matrix" values="0 0 0 0 0 0 0 0 0 0 0 0 0 0 0 0 0 0 127 0"/>
<feOffset dy="4"/>
<feGaussianBlur stdDeviation="2"/>
<feColorMatrix type="matrix" values="0 0 0 0 0 0 0 0 0 0 0 0 0 0 0 0 0 0 0.25 0"/>
<feBlend mode="normal" in2="BackgroundImageFix" result="effect1_dropShadow"/>
<feBlend mode="normal" in="SourceGraphic" in2="effect1_dropShadow" result="shape"/>
</filter>
<filter id="filter1_d" x="25.9342" y="99.6816" width="159.227" height="159.227" filterUnits="userSpaceOnUse" color-interpolation-filters="sRGB">
<feFlood flood-opacity="0" result="BackgroundImageFix"/>
<feColorMatrix in="SourceAlpha" type="matrix" values="0 0 0 0 0 0 0 0 0 0 0 0 0 0 0 0 0 0 127 0"/>
<feOffset dy="4"/>
<feGaussianBlur stdDeviation="2"/>
<feColorMatrix type="matrix" values="0 0 0 0 0 0 0 0 0 0 0 0 0 0 0 0 0 0 0.25 0"/>
<feBlend mode="normal" in2="BackgroundImageFix" result="effect1_dropShadow"/>
<feBlend mode="normal" in="SourceGraphic" in2="effect1_dropShadow" result="shape"/>
</filter>
<filter id="filter2_d" x="52.1202" y="200.331" width="159.227" height="159.227" filterUnits="userSpaceOnUse" color-interpolation-filters="sRGB">
<feFlood flood-opacity="0" result="BackgroundImageFix"/>
<feColorMatrix in="SourceAlpha" type="matrix" values="0 0 0 0 0 0 0 0 0 0 0 0 0 0 0 0 0 0 127 0"/>
<feOffset dy="4"/>
<feGaussianBlur stdDeviation="2"/>
<feColorMatrix type="matrix" values="0 0 0 0 0 0 0 0 0 0 0 0 0 0 0 0 0 0 0.25 0"/>
<feBlend mode="normal" in2="BackgroundImageFix" result="effect1_dropShadow"/>
<feBlend mode="normal" in="SourceGraphic" in2="effect1_dropShadow" result="shape"/>
</filter>
<linearGradient id="paint0_linear" x1="64.1055" y1="16.0068" x2="95.2243" y2="135.616" gradientUnits="userSpaceOnUse">
<stop stop-color="white" stop-opacity="0.94"/>
<stop offset="1" stop-color="white" stop-opacity="0"/>
</linearGradient>
<linearGradient id="paint1_linear" x1="64.1055" y1="16.0068" x2="95.2243" y2="135.616" gradientUnits="userSpaceOnUse">
<stop stop-color="#972400" stop-opacity="0"/>
<stop offset="1" stop-color="#744328" stop-opacity="0.69"/>
</linearGradient>
<linearGradient id="paint2_linear" x1="90.0397" y1="115.688" x2="121.158" y2="235.297" gradientUnits="userSpaceOnUse">
<stop stop-color="white" stop-opacity="0.94"/>
<stop offset="1" stop-color="white" stop-opacity="0"/>
</linearGradient>
<linearGradient id="paint3_linear" x1="90.0397" y1="115.688" x2="121.158" y2="235.297" gradientUnits="userSpaceOnUse">
<stop stop-color="#972400" stop-opacity="0"/>
<stop offset="1" stop-color="#744328" stop-opacity="0.69"/>
</linearGradient>
<linearGradient id="paint4_linear" x1="116.226" y1="216.338" x2="147.345" y2="335.947" gradientUnits="userSpaceOnUse">
<stop stop-color="white" stop-opacity="0.94"/>
<stop offset="1" stop-color="white" stop-opacity="0"/>
</linearGradient>
<linearGradient id="paint5_linear" x1="116.226" y1="216.338" x2="147.345" y2="335.947" gradientUnits="userSpaceOnUse">
<stop stop-color="#972400" stop-opacity="0"/>
<stop offset="1" stop-color="#744328" stop-opacity="0.69"/>
</linearGradient>
</defs>
</svg>
