<svg width="238" height="228" viewBox="0 0 238 228" fill="none" xmlns="http://www.w3.org/2000/svg">
<g opacity="0.3">
<path d="M111.977 4.87828C115.009 -0.681248 122.991 -0.681242 126.023 4.87829L158.615 64.6384C159.765 66.7483 161.804 68.229 164.166 68.6714L231.072 81.2007C237.297 82.3663 239.763 89.9584 235.413 94.56L188.649 144.023C186.998 145.769 186.219 148.165 186.529 150.549L195.288 218.052C196.103 224.332 189.644 229.024 183.924 226.309L122.431 197.118C120.26 196.088 117.74 196.088 115.569 197.118L54.0763 226.309C48.3555 229.024 41.8973 224.332 42.7122 218.052L51.4714 150.549C51.7806 148.165 51.0021 145.769 49.3511 144.023L2.5871 94.56C-1.76339 89.9584 0.703454 82.3663 6.92782 81.2007L73.8344 68.6714C76.1965 68.229 78.2346 66.7483 79.3853 64.6384L111.977 4.87828Z" fill="#7A7A7A"/>
<path d="M111.977 4.87828C115.009 -0.681248 122.991 -0.681242 126.023 4.87829L158.615 64.6384C159.765 66.7483 161.804 68.229 164.166 68.6714L231.072 81.2007C237.297 82.3663 239.763 89.9584 235.413 94.56L188.649 144.023C186.998 145.769 186.219 148.165 186.529 150.549L195.288 218.052C196.103 224.332 189.644 229.024 183.924 226.309L122.431 197.118C120.26 196.088 117.74 196.088 115.569 197.118L54.0763 226.309C48.3555 229.024 41.8973 224.332 42.7122 218.052L51.4714 150.549C51.7806 148.165 51.0021 145.769 49.3511 144.023L2.5871 94.56C-1.76339 89.9584 0.703454 82.3663 6.92782 81.2007L73.8344 68.6714C76.1965 68.229 78.2346 66.7483 79.3853 64.6384L111.977 4.87828Z" fill="url(#paint0_linear)" style="mix-blend-mode:soft-light"/>
<path d="M111.977 4.87828C115.009 -0.681248 122.991 -0.681242 126.023 4.87829L158.615 64.6384C159.765 66.7483 161.804 68.229 164.166 68.6714L231.072 81.2007C237.297 82.3663 239.763 89.9584 235.413 94.56L188.649 144.023C186.998 145.769 186.219 148.165 186.529 150.549L195.288 218.052C196.103 224.332 189.644 229.024 183.924 226.309L122.431 197.118C120.26 196.088 117.74 196.088 115.569 197.118L54.0763 226.309C48.3555 229.024 41.8973 224.332 42.7122 218.052L51.4714 150.549C51.7806 148.165 51.0021 145.769 49.3511 144.023L2.5871 94.56C-1.76339 89.9584 0.703454 82.3663 6.92782 81.2007L73.8344 68.6714C76.1965 68.229 78.2346 66.7483 79.3853 64.6384L111.977 4.87828Z" fill="url(#paint1_linear)" style="mix-blend-mode:hard-light"/>
</g>
<defs>
<linearGradient id="paint0_linear" x1="119" y1="-7.12211" x2="119" y2="258" gradientUnits="userSpaceOnUse">
<stop stop-color="white" stop-opacity="0.94"/>
<stop offset="1" stop-color="white" stop-opacity="0"/>
</linearGradient>
<linearGradient id="paint1_linear" x1="119" y1="-7.12211" x2="119" y2="258" gradientUnits="userSpaceOnUse">
<stop stop-color="#6C6966" stop-opacity="0"/>
<stop offset="0.751058" stop-color="#4D4A38" stop-opacity="0.69"/>
</linearGradient>
</defs>
</svg>
