<svg width="369" height="180" viewBox="0 0 369 180" fill="none" xmlns="http://www.w3.org/2000/svg">
<path d="M68 180H304C305.105 180 306 179.105 306 178V106.115C306 100.756 312.492 98.0851 316.263 101.893L335.184 121C342.098 127.981 354 123.085 354 113.259V63.7406C354 53.9148 342.098 49.0188 335.184 56.0005L316.263 75.1067C312.492 78.9149 306 76.2444 306 70.8848V2C306 0.89543 305.105 0 304 0H206.115C200.756 0 198.085 6.49204 201.893 10.2633L220.999 29.184C227.981 36.0979 223.085 48 213.259 48H163.741C153.915 48 149.019 36.0979 156.001 29.184L175.107 10.2633C178.915 6.49204 176.244 0 170.885 0H68C66.8954 0 66 0.895428 66 2V70.8848C66 76.2443 59.508 78.9149 55.7367 75.1067L36.816 56.0005C29.9021 49.0188 18 53.9148 18 63.7406V113.259C18 123.085 29.9021 127.981 36.816 120.999L55.7367 101.893C59.508 98.0851 66 100.756 66 106.115V178C66 179.105 66.8954 180 68 180Z" fill="#F92D2D"/>
<path d="M68 180H304C305.105 180 306 179.105 306 178V106.115C306 100.756 312.492 98.0851 316.263 101.893L335.184 121C342.098 127.981 354 123.085 354 113.259V63.7406C354 53.9148 342.098 49.0188 335.184 56.0005L316.263 75.1067C312.492 78.9149 306 76.2444 306 70.8848V2C306 0.89543 305.105 0 304 0H206.115C200.756 0 198.085 6.49204 201.893 10.2633L220.999 29.184C227.981 36.0979 223.085 48 213.259 48H163.741C153.915 48 149.019 36.0979 156.001 29.184L175.107 10.2633C178.915 6.49204 176.244 0 170.885 0H68C66.8954 0 66 0.895428 66 2V70.8848C66 76.2443 59.508 78.9149 55.7367 75.1067L36.816 56.0005C29.9021 49.0188 18 53.9148 18 63.7406V113.259C18 123.085 29.9021 127.981 36.816 120.999L55.7367 101.893C59.508 98.0851 66 100.756 66 106.115V178C66 179.105 66.8954 180 68 180Z" fill="url(#paint0_linear)" style="mix-blend-mode:soft-light"/>
<path d="M68 180H304C305.105 180 306 179.105 306 178V106.115C306 100.756 312.492 98.0851 316.263 101.893L335.184 121C342.098 127.981 354 123.085 354 113.259V63.7406C354 53.9148 342.098 49.0188 335.184 56.0005L316.263 75.1067C312.492 78.9149 306 76.2444 306 70.8848V2C306 0.89543 305.105 0 304 0H206.115C200.756 0 198.085 6.49204 201.893 10.2633L220.999 29.184C227.981 36.0979 223.085 48 213.259 48H163.741C153.915 48 149.019 36.0979 156.001 29.184L175.107 10.2633C178.915 6.49204 176.244 0 170.885 0H68C66.8954 0 66 0.895428 66 2V70.8848C66 76.2443 59.508 78.9149 55.7367 75.1067L36.816 56.0005C29.9021 49.0188 18 53.9148 18 63.7406V113.259C18 123.085 29.9021 127.981 36.816 120.999L55.7367 101.893C59.508 98.0851 66 100.756 66 106.115V178C66 179.105 66.8954 180 68 180Z" fill="url(#paint1_linear)" style="mix-blend-mode:hard-light"/>
<circle cx="126" cy="120" r="20" fill="white"/>
<circle cx="246" cy="120" r="20" fill="white"/>
<circle cx="126" cy="120" r="9" fill="black"/>
<path d="M255 120C255 124.971 250.971 129 246 129C241.029 129 237 124.971 237 120C237 115.029 241.029 111 246 111C250.971 111 255 115.029 255 120Z" fill="black"/>
<g style="mix-blend-mode:color-burn">
<path d="M110.945 86.9056C111.567 87.2401 134.554 94.396 144.816 76.6695" stroke="#2C60AE" stroke-width="5" stroke-linecap="round" stroke-linejoin="round"/>
</g>
<g style="mix-blend-mode:color-burn">
<path d="M227.833 77C228.165 77.6228 243.34 96.3136 261.703 87.2387" stroke="#2C60AE" stroke-width="5" stroke-linecap="round" stroke-linejoin="round"/>
</g>
<path d="M175 156C175 151.582 179.925 148 186 148C192.075 148 197 151.582 197 156" stroke="black" stroke-width="5" stroke-linecap="round"/>
<defs>
<linearGradient id="paint0_linear" x1="186" y1="0" x2="186" y2="180" gradientUnits="userSpaceOnUse">
<stop stop-color="white" stop-opacity="0.74"/>
<stop offset="1" stop-color="white" stop-opacity="0"/>
</linearGradient>
<linearGradient id="paint1_linear" x1="186" y1="0" x2="186" y2="180" gradientUnits="userSpaceOnUse">
<stop stop-color="#001897" stop-opacity="0"/>
<stop offset="1" stop-color="#051EA2" stop-opacity="0.17"/>
</linearGradient>
</defs>
</svg>
