<svg width="369" height="180" viewBox="0 0 369 180" fill="none" xmlns="http://www.w3.org/2000/svg">
<path d="M69 180H303C304.657 180 306 178.657 306 177V106.115C306 100.756 312.492 98.0851 316.263 101.893L335.184 121C342.098 127.981 354 123.085 354 113.259V63.7406C354 53.9148 342.098 49.0188 335.184 56.0005L316.263 75.1067C312.492 78.9149 306 76.2444 306 70.8848V3C306 1.34315 304.657 0 303 0H206.115C200.756 0 198.085 6.49204 201.893 10.2633L220.999 29.184C227.981 36.0979 223.085 48 213.259 48H163.741C153.915 48 149.019 36.0979 156.001 29.184L175.107 10.2633C178.915 6.49204 176.244 0 170.885 0H69C67.3431 0 66 1.34314 66 3V70.8848C66 76.2443 59.508 78.9149 55.7367 75.1067L36.816 56.0005C29.9021 49.0188 18 53.9148 18 63.7406V113.259C18 123.085 29.9021 127.981 36.816 120.999L55.7367 101.893C59.508 98.0851 66 100.756 66 106.115V177C66 178.657 67.3431 180 69 180Z" fill="#17D741"/>
<path d="M69 180H303C304.657 180 306 178.657 306 177V106.115C306 100.756 312.492 98.0851 316.263 101.893L335.184 121C342.098 127.981 354 123.085 354 113.259V63.7406C354 53.9148 342.098 49.0188 335.184 56.0005L316.263 75.1067C312.492 78.9149 306 76.2444 306 70.8848V3C306 1.34315 304.657 0 303 0H206.115C200.756 0 198.085 6.49204 201.893 10.2633L220.999 29.184C227.981 36.0979 223.085 48 213.259 48H163.741C153.915 48 149.019 36.0979 156.001 29.184L175.107 10.2633C178.915 6.49204 176.244 0 170.885 0H69C67.3431 0 66 1.34314 66 3V70.8848C66 76.2443 59.508 78.9149 55.7367 75.1067L36.816 56.0005C29.9021 49.0188 18 53.9148 18 63.7406V113.259C18 123.085 29.9021 127.981 36.816 120.999L55.7367 101.893C59.508 98.0851 66 100.756 66 106.115V177C66 178.657 67.3431 180 69 180Z" fill="url(#paint0_linear)" style="mix-blend-mode:soft-light"/>
<path d="M69 180H303C304.657 180 306 178.657 306 177V106.115C306 100.756 312.492 98.0851 316.263 101.893L335.184 121C342.098 127.981 354 123.085 354 113.259V63.7406C354 53.9148 342.098 49.0188 335.184 56.0005L316.263 75.1067C312.492 78.9149 306 76.2444 306 70.8848V3C306 1.34315 304.657 0 303 0H206.115C200.756 0 198.085 6.49204 201.893 10.2633L220.999 29.184C227.981 36.0979 223.085 48 213.259 48H163.741C153.915 48 149.019 36.0979 156.001 29.184L175.107 10.2633C178.915 6.49204 176.244 0 170.885 0H69C67.3431 0 66 1.34314 66 3V70.8848C66 76.2443 59.508 78.9149 55.7367 75.1067L36.816 56.0005C29.9021 49.0188 18 53.9148 18 63.7406V113.259C18 123.085 29.9021 127.981 36.816 120.999L55.7367 101.893C59.508 98.0851 66 100.756 66 106.115V177C66 178.657 67.3431 180 69 180Z" fill="url(#paint1_linear)" style="mix-blend-mode:hard-light"/>
<path d="M186 160C192.075 160 197 151.046 197 140H175C175 151.046 179.925 160 186 160Z" fill="url(#paint2_radial)"/>
<path d="M104 125C104 121.213 112.954 113 124 113C135.046 113 144 121.213 144 125" stroke="black" stroke-width="5" stroke-linecap="round"/>
<path d="M227 125C227 121.213 235.954 113 247 113C258.046 113 267 121.213 267 125" stroke="black" stroke-width="5" stroke-linecap="round"/>
<g style="mix-blend-mode:color-burn">
<path d="M108 85.3348C108.5 84.8348 128.5 71.3348 143.5 85.3348" stroke="#2C60AE" stroke-width="5" stroke-linecap="round" stroke-linejoin="round"/>
</g>
<g style="mix-blend-mode:color-burn">
<path d="M228 85.3348C228.5 84.8348 248.5 71.3348 263.5 85.3348" stroke="#2C60AE" stroke-width="5" stroke-linecap="round" stroke-linejoin="round"/>
</g>
<defs>
<linearGradient id="paint0_linear" x1="186" y1="0" x2="186" y2="180" gradientUnits="userSpaceOnUse">
<stop stop-color="white" stop-opacity="0.74"/>
<stop offset="1" stop-color="white" stop-opacity="0"/>
</linearGradient>
<linearGradient id="paint1_linear" x1="186" y1="0" x2="186" y2="180" gradientUnits="userSpaceOnUse">
<stop stop-color="#001897" stop-opacity="0"/>
<stop offset="1" stop-color="#051EA2" stop-opacity="0.17"/>
</linearGradient>
<radialGradient id="paint2_radial" cx="0" cy="0" r="1" gradientUnits="userSpaceOnUse" gradientTransform="translate(186 155) rotate(90) scale(14.5 25)">
<stop offset="0.4999" stop-color="#DE1313"/>
<stop offset="0.5" stop-color="#830B1A"/>
</radialGradient>
</defs>
</svg>
