<svg width="260" height="337" viewBox="0 0 260 337" fill="none" xmlns="http://www.w3.org/2000/svg">
<path fill-rule="evenodd" clip-rule="evenodd" d="M64.3329 240.269C50.295 247.286 39.9716 260.844 37.5953 277.28L28.9248 337.251H230.783L222.113 277.28C219.736 260.844 209.413 247.286 195.375 240.269C181.07 249.406 157.06 255.4 129.854 255.4C102.648 255.4 78.6382 249.406 64.3329 240.269Z" fill="black"/>
<rect x="3.07712" y="315.096" width="253.554" height="22.1552" rx="5" fill="#1B1C1A"/>
<circle cx="129.854" cy="129.854" r="121.854" stroke="#1B1C1A" stroke-width="16"/>
<circle cx="129.854" cy="129.854" r="121.854" stroke="url(#paint0_linear)" stroke-width="16"/>
<circle cx="130.162" cy="130.162" r="12.0007" fill="black"/>
<g filter="url(#filter0_i)">
<path d="M123.7 0H136.624V37.5407H123.7V0Z" fill="#DEDEDE"/>
<path d="M130.162 55.3879L116.571 37.3868H143.752L130.162 55.3879Z" fill="#DEDEDE"/>
</g>
<defs>
<filter id="filter0_i" x="116.571" y="0" width="27.1815" height="55.3879" filterUnits="userSpaceOnUse" color-interpolation-filters="sRGB">
<feFlood flood-opacity="0" result="BackgroundImageFix"/>
<feBlend mode="normal" in="SourceGraphic" in2="BackgroundImageFix" result="shape"/>
<feColorMatrix in="SourceAlpha" type="matrix" values="0 0 0 0 0 0 0 0 0 0 0 0 0 0 0 0 0 0 127 0" result="hardAlpha"/>
<feOffset dy="-3"/>
<feComposite in2="hardAlpha" operator="arithmetic" k2="-1" k3="1"/>
<feColorMatrix type="matrix" values="0 0 0 0 1 0 0 0 0 1 0 0 0 0 1 0 0 0 0.47 0"/>
<feBlend mode="normal" in2="shape" result="effect1_innerShadow"/>
</filter>
<linearGradient id="paint0_linear" x1="129.854" y1="0" x2="129.854" y2="259.708" gradientUnits="userSpaceOnUse">
<stop stop-color="#41434E"/>
<stop offset="0.416667" stop-color="#374267"/>
<stop offset="0.447917" stop-color="#233884" stop-opacity="0"/>
</linearGradient>
</defs>
</svg>
