<svg height="200" viewBox="0 0 227 310" fill="none" xmlns="http://www.w3.org/2000/svg">
<path d="M56 298.405L57.5385 293.452L72.6154 282L69.2308 303.357L56 298.405Z" fill="#540002"/>
<path d="M145.231 308V288.5L159 287.5L159.5 299.5L145.231 308Z" fill="#540002"/>
<path d="M32.6194 190.043C41.3505 190.043 41.5276 187.297 48 187L43.4579 205.87C41.4884 206.865 34.0245 213.782 32.6194 215.609C31.5573 216.989 29.9098 221.696 28.7316 222C25.0927 221.696 28.6534 214.197 28.7316 213.783C31.0606 209.074 32.375 205.344 35.6301 201C35.6301 201 37.1822 198.42 36.2323 197.652C35.295 196.894 35.5523 196.733 34.4259 196.13C32.3666 195.028 31.1536 195.217 28.7316 195.217C27.2728 195.217 25.3938 193.391 26.1892 191.734C26.9846 190.077 30.7925 190.043 32.6194 190.043Z" fill="#AF6F00"/>
<path d="M95.5714 149.653C95.5714 149.653 66.2691 186.037 59.0452 192.294C59.0452 192.294 45.3868 203.477 42.75 205.791C40.2643 206.712 29.0786 212.54 29.0786 212.54C29.0786 212.54 21 217.398 21 213.46C21 211.996 24.1071 210.393 24.1071 210.393L37.7786 200.883C37.7786 200.883 40.8857 190.146 48.6536 185.238C52.0988 183.061 58.5698 167.934 68.2286 153.334C80.3469 135.015 96.5884 116.292 108 111L95.5714 149.653Z" fill="#E8C100"/>
<path d="M95.5714 149.653C95.5714 149.653 66.2691 186.037 59.0452 192.294C59.0452 192.294 45.3868 203.477 42.75 205.791C40.2643 206.712 29.0786 212.54 29.0786 212.54C29.0786 212.54 21 217.398 21 213.46C21 211.996 24.1071 210.393 24.1071 210.393L37.7786 200.883C37.7786 200.883 40.8857 190.146 48.6536 185.238C52.0988 183.061 58.5698 167.934 68.2286 153.334C80.3469 135.015 96.5884 116.292 108 111L95.5714 149.653Z" fill="url(#paint0_linear)" style="mix-blend-mode:soft-light"/>
<path d="M95.5714 149.653C95.5714 149.653 66.2691 186.037 59.0452 192.294C59.0452 192.294 45.3868 203.477 42.75 205.791C40.2643 206.712 29.0786 212.54 29.0786 212.54C29.0786 212.54 21 217.398 21 213.46C21 211.996 24.1071 210.393 24.1071 210.393L37.7786 200.883C37.7786 200.883 40.8857 190.146 48.6536 185.238C52.0988 183.061 58.5698 167.934 68.2286 153.334C80.3469 135.015 96.5884 116.292 108 111L95.5714 149.653Z" fill="url(#paint1_linear)" style="mix-blend-mode:hard-light"/>
<path d="M172.653 143.57C156.125 127.959 138 120 138 120L146.125 148.162C147.605 148.162 147.95 149.113 148.625 150.271C150.058 152.727 154.124 154.829 156.125 156.733C154.285 159.905 151.75 169.76 150.812 172.344L156.125 201.119C158.938 201.119 169.25 204.486 171.75 198.058C171.75 196.433 173.663 190.19 172.375 189.18C170.812 188.262 170.188 189.18 170.188 189.18C168.938 190.405 168.695 194.553 168.312 195.303C167.688 196.527 168.312 196.833 166.893 196.221C167.75 193.594 168.939 189.088 168.312 185.813C167.375 180.915 165.257 179.152 163.312 176.324L171.125 166.528C171.125 166.528 178 156.733 178 151.529C178 148.162 175.5 146.26 172.653 143.57Z" fill="#E8C100"/>
<path d="M172.653 143.57C156.125 127.959 138 120 138 120L146.125 148.162C147.605 148.162 147.95 149.113 148.625 150.271C150.058 152.727 154.124 154.829 156.125 156.733C154.285 159.905 151.75 169.76 150.812 172.344L156.125 201.119C158.938 201.119 169.25 204.486 171.75 198.058C171.75 196.433 173.663 190.19 172.375 189.18C170.812 188.262 170.188 189.18 170.188 189.18C168.938 190.405 168.695 194.553 168.312 195.303C167.688 196.527 168.312 196.833 166.893 196.221C167.75 193.594 168.939 189.088 168.312 185.813C167.375 180.915 165.257 179.152 163.312 176.324L171.125 166.528C171.125 166.528 178 156.733 178 151.529C178 148.162 175.5 146.26 172.653 143.57Z" fill="url(#paint2_linear)" style="mix-blend-mode:soft-light"/>
<path d="M172.653 143.57C156.125 127.959 138 120 138 120L146.125 148.162C147.605 148.162 147.95 149.113 148.625 150.271C150.058 152.727 154.124 154.829 156.125 156.733C154.285 159.905 151.75 169.76 150.812 172.344L156.125 201.119C158.938 201.119 169.25 204.486 171.75 198.058C171.75 196.433 173.663 190.19 172.375 189.18C170.812 188.262 170.188 189.18 170.188 189.18C168.938 190.405 168.695 194.553 168.312 195.303C167.688 196.527 168.312 196.833 166.893 196.221C167.75 193.594 168.939 189.088 168.312 185.813C167.375 180.915 165.257 179.152 163.312 176.324L171.125 166.528C171.125 166.528 178 156.733 178 151.529C178 148.162 175.5 146.26 172.653 143.57Z" fill="url(#paint3_linear)" style="mix-blend-mode:hard-light"/>
<path fill-rule="evenodd" clip-rule="evenodd" d="M93.7197 123H140.907C140.907 123 152.367 157.561 155.922 193.356C159.098 225.348 159.288 283.716 159.292 295.497C157.147 295.6 154.696 295.497 150.406 297.348C152.143 297.04 156.351 296.422 159.292 296.422C159.292 296.422 165.042 296.807 169.404 301.977C172.026 305.084 174 310 174 310H136.618L127.425 219.894H109.04L74.1093 310H45C45 310 47.3169 303.65 49.9026 301.051C53.1611 297.776 56.3373 296.422 56.3373 296.422C61.8527 295.805 64.9169 297.04 68.2874 301.051C67.1427 298.377 63.3848 295.497 56.9501 295.497L93.7197 123Z" fill="#E8C100"/>
<path fill-rule="evenodd" clip-rule="evenodd" d="M93.7197 123H140.907C140.907 123 152.367 157.561 155.922 193.356C159.098 225.348 159.288 283.716 159.292 295.497C157.147 295.6 154.696 295.497 150.406 297.348C152.143 297.04 156.351 296.422 159.292 296.422C159.292 296.422 165.042 296.807 169.404 301.977C172.026 305.084 174 310 174 310H136.618L127.425 219.894H109.04L74.1093 310H45C45 310 47.3169 303.65 49.9026 301.051C53.1611 297.776 56.3373 296.422 56.3373 296.422C61.8527 295.805 64.9169 297.04 68.2874 301.051C67.1427 298.377 63.3848 295.497 56.9501 295.497L93.7197 123Z" fill="url(#paint4_linear)" style="mix-blend-mode:soft-light"/>
<path fill-rule="evenodd" clip-rule="evenodd" d="M93.7197 123H140.907C140.907 123 152.367 157.561 155.922 193.356C159.098 225.348 159.288 283.716 159.292 295.497C157.147 295.6 154.696 295.497 150.406 297.348C152.143 297.04 156.351 296.422 159.292 296.422C159.292 296.422 165.042 296.807 169.404 301.977C172.026 305.084 174 310 174 310H136.618L127.425 219.894H109.04L74.1093 310H45C45 310 47.3169 303.65 49.9026 301.051C53.1611 297.776 56.3373 296.422 56.3373 296.422C61.8527 295.805 64.9169 297.04 68.2874 301.051C67.1427 298.377 63.3848 295.497 56.9501 295.497L93.7197 123Z" fill="url(#paint5_linear)" style="mix-blend-mode:hard-light"/>
<path d="M42.6076 116.319L185.071 135.14C186.166 135.285 187.171 134.514 187.316 133.419L192.274 95.8845C192.976 90.5711 199.762 88.7739 203.002 93.0432L209.615 101.757C213.271 106.574 220.927 104.546 221.719 98.5513L225.71 68.3389C226.502 62.3439 219.635 58.3974 214.854 62.0998L206.205 68.7974C201.968 72.0788 195.882 68.581 196.583 63.2676L201.3 27.5632C201.445 26.4682 200.675 25.4632 199.58 25.3185L146.182 18.264C140.868 17.562 137.371 23.6484 140.652 27.8859L147.35 36.5348C151.052 41.3159 147.105 48.1829 141.11 47.3909L110.898 43.3995C104.903 42.6075 102.875 34.9511 107.692 31.2956L116.406 24.6827C120.675 21.4427 118.878 14.6568 113.565 13.9549L57.1164 6.49735C56.0213 6.35268 55.0163 7.12312 54.8716 8.21817L50.1546 43.9226C49.4527 49.236 42.6668 51.0332 39.4268 46.7639L32.814 38.0501C29.1584 33.2331 21.5021 35.2609 20.71 41.2558L16.7186 71.4682C15.9266 77.4632 22.7937 81.4097 27.5748 77.7073L36.2236 71.0097C40.4612 67.7283 46.5475 71.2261 45.8456 76.5395L40.8868 114.074C40.7421 115.169 41.5125 116.174 42.6076 116.319Z" fill="#E8C100"/>
<path d="M42.6076 116.319L185.071 135.14C186.166 135.285 187.171 134.514 187.316 133.419L192.274 95.8845C192.976 90.5711 199.762 88.7739 203.002 93.0432L209.615 101.757C213.271 106.574 220.927 104.546 221.719 98.5513L225.71 68.3389C226.502 62.3439 219.635 58.3974 214.854 62.0998L206.205 68.7974C201.968 72.0788 195.882 68.581 196.583 63.2676L201.3 27.5632C201.445 26.4682 200.675 25.4632 199.58 25.3185L146.182 18.264C140.868 17.562 137.371 23.6484 140.652 27.8859L147.35 36.5348C151.052 41.3159 147.105 48.1829 141.11 47.3909L110.898 43.3995C104.903 42.6075 102.875 34.9511 107.692 31.2956L116.406 24.6827C120.675 21.4427 118.878 14.6568 113.565 13.9549L57.1164 6.49735C56.0213 6.35268 55.0163 7.12312 54.8716 8.21817L50.1546 43.9226C49.4527 49.236 42.6668 51.0332 39.4268 46.7639L32.814 38.0501C29.1584 33.2331 21.5021 35.2609 20.71 41.2558L16.7186 71.4682C15.9266 77.4632 22.7937 81.4097 27.5748 77.7073L36.2236 71.0097C40.4612 67.7283 46.5475 71.2261 45.8456 76.5395L40.8868 114.074C40.7421 115.169 41.5125 116.174 42.6076 116.319Z" fill="url(#paint6_linear)" style="mix-blend-mode:soft-light"/>
<path d="M42.6076 116.319L185.071 135.14C186.166 135.285 187.171 134.514 187.316 133.419L192.274 95.8845C192.976 90.5711 199.762 88.7739 203.002 93.0432L209.615 101.757C213.271 106.574 220.927 104.546 221.719 98.5513L225.71 68.3389C226.502 62.3439 219.635 58.3974 214.854 62.0998L206.205 68.7974C201.968 72.0788 195.882 68.581 196.583 63.2676L201.3 27.5632C201.445 26.4682 200.675 25.4632 199.58 25.3185L146.182 18.264C140.868 17.562 137.371 23.6484 140.652 27.8859L147.35 36.5348C151.052 41.3159 147.105 48.1829 141.11 47.3909L110.898 43.3995C104.903 42.6075 102.875 34.9511 107.692 31.2956L116.406 24.6827C120.675 21.4427 118.878 14.6568 113.565 13.9549L57.1164 6.49735C56.0213 6.35268 55.0163 7.12312 54.8716 8.21817L50.1546 43.9226C49.4527 49.236 42.6668 51.0332 39.4268 46.7639L32.814 38.0501C29.1584 33.2331 21.5021 35.2609 20.71 41.2558L16.7186 71.4682C15.9266 77.4632 22.7937 81.4097 27.5748 77.7073L36.2236 71.0097C40.4612 67.7283 46.5475 71.2261 45.8456 76.5395L40.8868 114.074C40.7421 115.169 41.5125 116.174 42.6076 116.319Z" fill="url(#paint7_linear)" style="mix-blend-mode:hard-light"/>
<ellipse cx="82.0683" cy="84.2861" rx="12.3084" ry="12.3084" transform="rotate(7.52589 82.0683 84.2861)" fill="white"/>
<ellipse cx="155.283" cy="93.9586" rx="12.3084" ry="12.3084" transform="rotate(7.52589 155.283 93.9586)" fill="white"/>
<ellipse cx="75.9671" cy="85.9417" rx="5.5388" ry="5.53879" transform="rotate(7.52589 75.9671 85.9417)" fill="black"/>
<path d="M154.673 93.878C154.272 96.9106 151.489 99.0443 148.456 98.6436C145.423 98.243 143.29 95.4598 143.69 92.4271C144.091 89.3945 146.874 87.2608 149.907 87.6615C152.94 88.0621 155.073 90.8454 154.673 93.878Z" fill="black"/>
<path opacity="0.51" d="M73.8803 61.6852C74.2256 61.4205 87.5162 54.7959 95.5395 64.5467M147.095 71.3577C147.44 71.093 160.731 64.4685 168.754 74.2192" stroke="#A56900" stroke-width="4" stroke-linecap="round" stroke-linejoin="round"/>
<path d="M123.13 107.092C122.774 109.788 119.48 111.576 115.774 111.087C112.067 110.597 109.351 108.015 109.707 105.319" stroke="black" stroke-width="4" stroke-linecap="round"/>
<defs>
<linearGradient id="paint0_linear" x1="64.5" y1="111.343" x2="64.5" y2="215" gradientUnits="userSpaceOnUse">
<stop stop-color="white" stop-opacity="0.94"/>
<stop offset="1" stop-color="white" stop-opacity="0"/>
</linearGradient>
<linearGradient id="paint1_linear" x1="64.5" y1="111.343" x2="64.5" y2="215" gradientUnits="userSpaceOnUse">
<stop stop-color="#972400" stop-opacity="0"/>
<stop offset="1" stop-color="#744328" stop-opacity="0.69"/>
</linearGradient>
<linearGradient id="paint2_linear" x1="158" y1="120.271" x2="158" y2="202" gradientUnits="userSpaceOnUse">
<stop stop-color="white" stop-opacity="0.94"/>
<stop offset="1" stop-color="white" stop-opacity="0"/>
</linearGradient>
<linearGradient id="paint3_linear" x1="158" y1="120.271" x2="158" y2="202" gradientUnits="userSpaceOnUse">
<stop stop-color="#972400" stop-opacity="0"/>
<stop offset="1" stop-color="#744328" stop-opacity="0.69"/>
</linearGradient>
<linearGradient id="paint4_linear" x1="109.5" y1="123.617" x2="109.5" y2="310" gradientUnits="userSpaceOnUse">
<stop stop-color="white" stop-opacity="0.94"/>
<stop offset="1" stop-color="white" stop-opacity="0"/>
</linearGradient>
<linearGradient id="paint5_linear" x1="109.5" y1="123.617" x2="109.5" y2="310" gradientUnits="userSpaceOnUse">
<stop stop-color="#972400" stop-opacity="0"/>
<stop offset="1" stop-color="#744328" stop-opacity="0.69"/>
</linearGradient>
<linearGradient id="paint6_linear" x1="128.3" y1="16.2704" x2="113.839" y2="125.73" gradientUnits="userSpaceOnUse">
<stop stop-color="white" stop-opacity="0.94"/>
<stop offset="1" stop-color="white" stop-opacity="0"/>
</linearGradient>
<linearGradient id="paint7_linear" x1="128.3" y1="16.2704" x2="113.839" y2="125.73" gradientUnits="userSpaceOnUse">
<stop stop-color="#DDA67E" stop-opacity="0"/>
<stop offset="1" stop-color="#744328" stop-opacity="0.29"/>
</linearGradient>
</defs>
</svg>
