<svg width="241" height="242" viewBox="0 0 241 242" fill="none" xmlns="http://www.w3.org/2000/svg">
<path d="M241 120C241 146.859 231.989 172.942 215.41 194.073L121 120H241Z" fill="#5CB573"/>
<path d="M217.353 191.527C201.759 212.533 179.727 227.868 154.613 235.196L121 120L217.353 191.527Z" fill="#E8C100"/>
<path d="M167.323 230.699C153.267 236.58 133.235 241.248 118 241.5L121 120L167.323 230.699Z" fill="#F92D2D"/>
<path d="M121 240C94.141 240 68.0584 230.989 46.9271 214.41L121 120V240Z" fill="#5CB573"/>
<path d="M49.4733 216.353C28.4668 200.759 13.1319 178.727 5.80371 153.613L121 120L49.4733 216.353Z" fill="#E8C100"/>
<path d="M10.3013 166.323C4.4196 152.267 0.25209 132.235 0 117L121 120L10.3013 166.323Z" fill="#F92D2D"/>
<path d="M1 120C1 93.141 10.0108 67.0584 26.5902 45.9271L121 120L1 120Z" fill="#5CB573"/>
<path d="M24.6468 48.4733C40.2408 27.4668 62.2726 12.1319 87.3873 4.80371L121 120L24.6468 48.4733Z" fill="#E8C100"/>
<path d="M74.6773 9.30128C88.7329 3.4196 108.765 0.75209 124 0.5L121 120L74.6773 9.30128Z" fill="#F92D2D"/>
<path d="M121 0C147.859 0 173.942 9.01082 195.073 25.5902L121 120V0Z" fill="#5CB573"/>
<path d="M192.527 23.6468C213.533 39.2408 228.868 61.2726 236.196 86.3873L121 120L192.527 23.6468Z" fill="#E8C100"/>
<path d="M231.699 73.6773C237.58 87.7329 239.748 104.765 240 120L121 120L231.699 73.6773Z" fill="#F92D2D"/>
</svg>
