<svg width="349" height="209" viewBox="0 0 349 209" fill="none" xmlns="http://www.w3.org/2000/svg">
<g filter="url(#filter0_d)">
<path d="M173.117 -23.2898L164.572 -50.7271C161.431 -60.8149 150.672 -66.4639 140.585 -63.3225L113.147 -54.7783C108.437 -69.9054 92.2931 -78.382 77.166 -73.6713C62.0389 -68.9606 53.5622 -52.817 58.2729 -37.6899L30.8357 -29.1457C20.7479 -26.0043 15.0989 -15.2458 18.2403 -5.15809L29.6326 31.4249L38.7783 28.5769C43.6295 27.0661 48.8822 27.5445 53.3807 29.9065C57.8793 32.2686 61.2552 36.321 62.7659 41.1722C64.2767 46.0234 63.7984 51.2761 61.4363 55.7746C59.0742 60.2732 55.0218 63.6492 50.1706 65.1599L41.0248 68.0079L52.4171 104.591C55.5585 114.679 66.3169 120.328 76.4047 117.186L112.988 105.794L110.14 96.6483C108.629 91.7971 109.107 86.5445 111.469 82.0459C113.831 77.5473 117.884 74.1714 122.735 72.6607C127.586 71.15 132.839 71.6283 137.337 73.9904C141.836 76.3525 145.212 80.4048 146.723 85.256L149.571 94.4018L186.154 83.0095C196.241 79.8681 201.891 69.1097 198.749 59.0219L190.205 31.5847C205.332 26.874 213.809 10.7303 209.098 -4.39678C204.387 -19.5239 188.244 -28.0005 173.117 -23.2898Z" fill="#E8C100"/>
<path d="M173.117 -23.2898L164.572 -50.7271C161.431 -60.8149 150.672 -66.4639 140.585 -63.3225L113.147 -54.7783C108.437 -69.9054 92.2931 -78.382 77.166 -73.6713C62.0389 -68.9606 53.5622 -52.817 58.2729 -37.6899L30.8357 -29.1457C20.7479 -26.0043 15.0989 -15.2458 18.2403 -5.15809L29.6326 31.4249L38.7783 28.5769C43.6295 27.0661 48.8822 27.5445 53.3807 29.9065C57.8793 32.2686 61.2552 36.321 62.7659 41.1722C64.2767 46.0234 63.7984 51.2761 61.4363 55.7746C59.0742 60.2732 55.0218 63.6492 50.1706 65.1599L41.0248 68.0079L52.4171 104.591C55.5585 114.679 66.3169 120.328 76.4047 117.186L112.988 105.794L110.14 96.6483C108.629 91.7971 109.107 86.5445 111.469 82.0459C113.831 77.5473 117.884 74.1714 122.735 72.6607C127.586 71.15 132.839 71.6283 137.337 73.9904C141.836 76.3525 145.212 80.4048 146.723 85.256L149.571 94.4018L186.154 83.0095C196.241 79.8681 201.891 69.1097 198.749 59.0219L190.205 31.5847C205.332 26.874 213.809 10.7303 209.098 -4.39678C204.387 -19.5239 188.244 -28.0005 173.117 -23.2898Z" fill="url(#paint0_linear)" style="mix-blend-mode:soft-light"/>
<path d="M173.117 -23.2898L164.572 -50.7271C161.431 -60.8149 150.672 -66.4639 140.585 -63.3225L113.147 -54.7783C108.437 -69.9054 92.2931 -78.382 77.166 -73.6713C62.0389 -68.9606 53.5622 -52.817 58.2729 -37.6899L30.8357 -29.1457C20.7479 -26.0043 15.0989 -15.2458 18.2403 -5.15809L29.6326 31.4249L38.7783 28.5769C43.6295 27.0661 48.8822 27.5445 53.3807 29.9065C57.8793 32.2686 61.2552 36.321 62.7659 41.1722C64.2767 46.0234 63.7984 51.2761 61.4363 55.7746C59.0742 60.2732 55.0218 63.6492 50.1706 65.1599L41.0248 68.0079L52.4171 104.591C55.5585 114.679 66.3169 120.328 76.4047 117.186L112.988 105.794L110.14 96.6483C108.629 91.7971 109.107 86.5445 111.469 82.0459C113.831 77.5473 117.884 74.1714 122.735 72.6607C127.586 71.15 132.839 71.6283 137.337 73.9904C141.836 76.3525 145.212 80.4048 146.723 85.256L149.571 94.4018L186.154 83.0095C196.241 79.8681 201.891 69.1097 198.749 59.0219L190.205 31.5847C205.332 26.874 213.809 10.7303 209.098 -4.39678C204.387 -19.5239 188.244 -28.0005 173.117 -23.2898Z" fill="url(#paint1_linear)" style="mix-blend-mode:hard-light"/>
</g>
<g filter="url(#filter1_d)">
<path d="M374.452 112.362L380.776 90C383.101 81.7784 378.306 73.2012 370.085 70.8759L347.723 64.5514C351.21 52.2227 344.015 39.3523 331.686 35.8654C319.357 32.3784 306.487 39.5737 303 51.9024L280.638 45.5779C272.417 43.2526 263.84 48.0477 261.514 56.2693L253.082 86.0847L260.536 88.1928C264.489 89.3111 267.837 91.9542 269.842 95.5406C271.847 99.1271 272.345 103.363 271.227 107.317C270.109 111.271 267.466 114.618 263.879 116.623C260.293 118.628 256.057 119.126 252.103 118.008L244.649 115.9L236.216 145.715C233.891 153.937 238.686 162.514 246.908 164.84L276.723 173.272L278.831 165.818C279.95 161.865 282.593 158.517 286.179 156.512C289.766 154.507 294.002 154.009 297.955 155.127C301.909 156.245 305.257 158.888 307.262 162.475C309.267 166.061 309.765 170.297 308.647 174.251L306.539 181.705L336.354 190.138C344.576 192.463 353.153 187.668 355.478 179.446L361.803 157.085C374.131 160.572 387.002 153.376 390.489 141.048C393.975 128.719 386.78 115.848 374.452 112.362Z" fill="#5FB8E9"/>
<path d="M374.452 112.362L380.776 90C383.101 81.7784 378.306 73.2012 370.085 70.8759L347.723 64.5514C351.21 52.2227 344.015 39.3523 331.686 35.8654C319.357 32.3784 306.487 39.5737 303 51.9024L280.638 45.5779C272.417 43.2526 263.84 48.0477 261.514 56.2693L253.082 86.0847L260.536 88.1928C264.489 89.3111 267.837 91.9542 269.842 95.5406C271.847 99.1271 272.345 103.363 271.227 107.317C270.109 111.271 267.466 114.618 263.879 116.623C260.293 118.628 256.057 119.126 252.103 118.008L244.649 115.9L236.216 145.715C233.891 153.937 238.686 162.514 246.908 164.84L276.723 173.272L278.831 165.818C279.95 161.865 282.593 158.517 286.179 156.512C289.766 154.507 294.002 154.009 297.955 155.127C301.909 156.245 305.257 158.888 307.262 162.475C309.267 166.061 309.765 170.297 308.647 174.251L306.539 181.705L336.354 190.138C344.576 192.463 353.153 187.668 355.478 179.446L361.803 157.085C374.131 160.572 387.002 153.376 390.489 141.048C393.975 128.719 386.78 115.848 374.452 112.362Z" fill="url(#paint2_linear)" style="mix-blend-mode:soft-light"/>
<path d="M374.452 112.362L380.776 90C383.101 81.7784 378.306 73.2012 370.085 70.8759L347.723 64.5514C351.21 52.2227 344.015 39.3523 331.686 35.8654C319.357 32.3784 306.487 39.5737 303 51.9024L280.638 45.5779C272.417 43.2526 263.84 48.0477 261.514 56.2693L253.082 86.0847L260.536 88.1928C264.489 89.3111 267.837 91.9542 269.842 95.5406C271.847 99.1271 272.345 103.363 271.227 107.317C270.109 111.271 267.466 114.618 263.879 116.623C260.293 118.628 256.057 119.126 252.103 118.008L244.649 115.9L236.216 145.715C233.891 153.937 238.686 162.514 246.908 164.84L276.723 173.272L278.831 165.818C279.95 161.865 282.593 158.517 286.179 156.512C289.766 154.507 294.002 154.009 297.955 155.127C301.909 156.245 305.257 158.888 307.262 162.475C309.267 166.061 309.765 170.297 308.647 174.251L306.539 181.705L336.354 190.138C344.576 192.463 353.153 187.668 355.478 179.446L361.803 157.085C374.131 160.572 387.002 153.376 390.489 141.048C393.975 128.719 386.78 115.848 374.452 112.362Z" fill="url(#paint3_linear)" style="mix-blend-mode:hard-light"/>
</g>
<defs>
<filter id="filter0_d" x="0" y="-105" width="235.882" height="235.882" filterUnits="userSpaceOnUse" color-interpolation-filters="sRGB">
<feFlood flood-opacity="0" result="BackgroundImageFix"/>
<feColorMatrix in="SourceAlpha" type="matrix" values="0 0 0 0 0 0 0 0 0 0 0 0 0 0 0 0 0 0 127 0"/>
<feOffset dy="4"/>
<feGaussianBlur stdDeviation="2"/>
<feColorMatrix type="matrix" values="0 0 0 0 0 0 0 0 0 0 0 0 0 0 0 0 0 0 0.25 0"/>
<feBlend mode="normal" in2="BackgroundImageFix" result="effect1_dropShadow"/>
<feBlend mode="normal" in="SourceGraphic" in2="effect1_dropShadow" result="shape"/>
</filter>
<filter id="filter1_d" x="228" y="19" width="189.678" height="189.678" filterUnits="userSpaceOnUse" color-interpolation-filters="sRGB">
<feFlood flood-opacity="0" result="BackgroundImageFix"/>
<feColorMatrix in="SourceAlpha" type="matrix" values="0 0 0 0 0 0 0 0 0 0 0 0 0 0 0 0 0 0 127 0"/>
<feOffset dy="4"/>
<feGaussianBlur stdDeviation="2"/>
<feColorMatrix type="matrix" values="0 0 0 0 0 0 0 0 0 0 0 0 0 0 0 0 0 0 0.25 0"/>
<feBlend mode="normal" in2="BackgroundImageFix" result="effect1_dropShadow"/>
<feBlend mode="normal" in="SourceGraphic" in2="effect1_dropShadow" result="shape"/>
</filter>
<linearGradient id="paint0_linear" x1="91.0632" y1="-77.3699" x2="144.998" y2="95.8258" gradientUnits="userSpaceOnUse">
<stop stop-color="white" stop-opacity="0.94"/>
<stop offset="1" stop-color="white" stop-opacity="0"/>
</linearGradient>
<linearGradient id="paint1_linear" x1="91.0632" y1="-77.3699" x2="144.998" y2="95.8258" gradientUnits="userSpaceOnUse">
<stop stop-color="#972400" stop-opacity="0"/>
<stop offset="1" stop-color="#744328" stop-opacity="0.69"/>
</linearGradient>
<linearGradient id="paint2_linear" x1="342.867" y1="39.0276" x2="302.812" y2="180.651" gradientUnits="userSpaceOnUse">
<stop stop-color="white" stop-opacity="0.74"/>
<stop offset="1" stop-color="white" stop-opacity="0"/>
</linearGradient>
<linearGradient id="paint3_linear" x1="342.867" y1="39.0276" x2="302.812" y2="180.651" gradientUnits="userSpaceOnUse">
<stop stop-color="#001897" stop-opacity="0"/>
<stop offset="1" stop-color="#051EA2" stop-opacity="0.17"/>
</linearGradient>
</defs>
</svg>
