<svg width="445" height="276" viewBox="0 0 445 276" fill="none" xmlns="http://www.w3.org/2000/svg">
<g filter="url(#filter0_d)">
<path d="M152.184 214.855L144.435 189.972C141.586 180.823 131.829 175.7 122.68 178.549L97.7972 186.298C93.525 172.579 78.8841 164.891 65.1651 169.163C51.4462 173.436 43.7585 188.076 48.0307 201.795L23.1475 209.544C13.9988 212.393 8.87557 222.15 11.7246 231.299L22.0564 264.477L30.3508 261.894C34.7504 260.524 39.5141 260.957 43.5939 263.1C47.6737 265.242 50.7354 268.917 52.1055 273.317C53.4756 277.716 53.0418 282.48 50.8996 286.56C48.7574 290.64 45.0822 293.701 40.6826 295.071L32.3882 297.654L42.72 330.832C45.569 339.981 55.3259 345.104 64.4747 342.255L97.6523 331.923L95.0694 323.629C93.6993 319.229 94.1331 314.465 96.2753 310.386C98.4175 306.306 102.093 303.244 106.492 301.874C110.892 300.504 115.656 300.938 119.735 303.08C123.815 305.222 126.877 308.897 128.247 313.297L130.83 321.591L164.008 311.259C173.156 308.41 178.28 298.653 175.431 289.505L167.682 264.622C181.401 260.349 189.088 245.708 184.816 231.989C180.544 218.27 165.903 210.583 152.184 214.855Z" fill="#F92D2D"/>
<path d="M152.184 214.855L144.435 189.972C141.586 180.823 131.829 175.7 122.68 178.549L97.7972 186.298C93.525 172.579 78.8841 164.891 65.1651 169.163C51.4462 173.436 43.7585 188.076 48.0307 201.795L23.1475 209.544C13.9988 212.393 8.87557 222.15 11.7246 231.299L22.0564 264.477L30.3508 261.894C34.7504 260.524 39.5141 260.957 43.5939 263.1C47.6737 265.242 50.7354 268.917 52.1055 273.317C53.4756 277.716 53.0418 282.48 50.8996 286.56C48.7574 290.64 45.0822 293.701 40.6826 295.071L32.3882 297.654L42.72 330.832C45.569 339.981 55.3259 345.104 64.4747 342.255L97.6523 331.923L95.0694 323.629C93.6993 319.229 94.1331 314.465 96.2753 310.386C98.4175 306.306 102.093 303.244 106.492 301.874C110.892 300.504 115.656 300.938 119.735 303.08C123.815 305.222 126.877 308.897 128.247 313.297L130.83 321.591L164.008 311.259C173.156 308.41 178.28 298.653 175.431 289.505L167.682 264.622C181.401 260.349 189.088 245.708 184.816 231.989C180.544 218.27 165.903 210.583 152.184 214.855Z" fill="url(#paint0_linear)" style="mix-blend-mode:soft-light"/>
<path d="M152.184 214.855L144.435 189.972C141.586 180.823 131.829 175.7 122.68 178.549L97.7972 186.298C93.525 172.579 78.8841 164.891 65.1651 169.163C51.4462 173.436 43.7585 188.076 48.0307 201.795L23.1475 209.544C13.9988 212.393 8.87557 222.15 11.7246 231.299L22.0564 264.477L30.3508 261.894C34.7504 260.524 39.5141 260.957 43.5939 263.1C47.6737 265.242 50.7354 268.917 52.1055 273.317C53.4756 277.716 53.0418 282.48 50.8996 286.56C48.7574 290.64 45.0822 293.701 40.6826 295.071L32.3882 297.654L42.72 330.832C45.569 339.981 55.3259 345.104 64.4747 342.255L97.6523 331.923L95.0694 323.629C93.6993 319.229 94.1331 314.465 96.2753 310.386C98.4175 306.306 102.093 303.244 106.492 301.874C110.892 300.504 115.656 300.938 119.735 303.08C123.815 305.222 126.877 308.897 128.247 313.297L130.83 321.591L164.008 311.259C173.156 308.41 178.28 298.653 175.431 289.505L167.682 264.622C181.401 260.349 189.088 245.708 184.816 231.989C180.544 218.27 165.903 210.583 152.184 214.855Z" fill="url(#paint1_linear)" style="mix-blend-mode:hard-light"/>
</g>
<g filter="url(#filter1_d)">
<path d="M398.735 93.7274L408.838 78.7853C412.552 73.2916 411.105 65.8032 405.611 62.0887L390.669 51.9859C396.239 43.7478 394.068 32.511 385.83 26.941C377.592 21.3709 366.355 23.5421 360.785 31.7802L345.843 21.6773C340.35 17.9628 332.861 19.4097 329.147 24.9034L315.676 44.8262L320.657 48.1938C323.299 49.9801 325.123 52.7427 325.728 55.8739C326.333 59.0052 325.669 62.2485 323.883 64.8904C322.097 67.5323 319.334 69.3564 316.203 69.9614C313.072 70.5665 309.828 69.9028 307.186 68.1165L302.206 64.7489L288.735 84.6717C285.021 90.1653 286.468 97.6538 291.961 101.368L311.884 114.839L315.252 109.858C317.038 107.216 319.801 105.392 322.932 104.787C326.063 104.182 329.306 104.846 331.948 106.632C334.59 108.418 336.414 111.181 337.019 114.312C337.624 117.443 336.961 120.687 335.174 123.329L331.807 128.309L351.73 141.78C357.223 145.494 364.712 144.047 368.426 138.554L378.529 123.612C386.767 129.182 398.004 127.01 403.574 118.772C409.144 110.534 406.973 99.2974 398.735 93.7274Z" fill="#F92D2D"/>
<path d="M398.735 93.7274L408.838 78.7853C412.552 73.2916 411.105 65.8032 405.611 62.0887L390.669 51.9859C396.239 43.7478 394.068 32.511 385.83 26.941C377.592 21.3709 366.355 23.5421 360.785 31.7802L345.843 21.6773C340.35 17.9628 332.861 19.4097 329.147 24.9034L315.676 44.8262L320.657 48.1938C323.299 49.9801 325.123 52.7427 325.728 55.8739C326.333 59.0052 325.669 62.2485 323.883 64.8904C322.097 67.5323 319.334 69.3564 316.203 69.9614C313.072 70.5665 309.828 69.9028 307.186 68.1165L302.206 64.7489L288.735 84.6717C285.021 90.1653 286.468 97.6538 291.961 101.368L311.884 114.839L315.252 109.858C317.038 107.216 319.801 105.392 322.932 104.787C326.063 104.182 329.306 104.846 331.948 106.632C334.59 108.418 336.414 111.181 337.019 114.312C337.624 117.443 336.961 120.687 335.174 123.329L331.807 128.309L351.73 141.78C357.223 145.494 364.712 144.047 368.426 138.554L378.529 123.612C386.767 129.182 398.004 127.01 403.574 118.772C409.144 110.534 406.973 99.2974 398.735 93.7274Z" fill="url(#paint2_linear)" style="mix-blend-mode:soft-light"/>
<path d="M398.735 93.7274L408.838 78.7853C412.552 73.2916 411.105 65.8032 405.611 62.0887L390.669 51.9859C396.239 43.7478 394.068 32.511 385.83 26.941C377.592 21.3709 366.355 23.5421 360.785 31.7802L345.843 21.6773C340.35 17.9628 332.861 19.4097 329.147 24.9034L315.676 44.8262L320.657 48.1938C323.299 49.9801 325.123 52.7427 325.728 55.8739C326.333 59.0052 325.669 62.2485 323.883 64.8904C322.097 67.5323 319.334 69.3564 316.203 69.9614C313.072 70.5665 309.828 69.9028 307.186 68.1165L302.206 64.7489L288.735 84.6717C285.021 90.1653 286.468 97.6538 291.961 101.368L311.884 114.839L315.252 109.858C317.038 107.216 319.801 105.392 322.932 104.787C326.063 104.182 329.306 104.846 331.948 106.632C334.59 108.418 336.414 111.181 337.019 114.312C337.624 117.443 336.961 120.687 335.174 123.329L331.807 128.309L351.73 141.78C357.223 145.494 364.712 144.047 368.426 138.554L378.529 123.612C386.767 129.182 398.004 127.01 403.574 118.772C409.144 110.534 406.973 99.2974 398.735 93.7274Z" fill="url(#paint3_linear)" style="mix-blend-mode:hard-light"/>
</g>
<g filter="url(#filter2_d)">
<path d="M285.533 173.329L277.784 148.446C274.935 139.297 265.178 134.174 256.029 137.023L231.146 144.772C226.874 131.053 212.233 123.365 198.514 127.638C184.795 131.91 177.107 146.551 181.379 160.27L156.496 168.019C147.348 170.868 142.224 180.625 145.073 189.773L155.405 222.951L163.7 220.368C168.099 218.998 172.863 219.432 176.943 221.574C181.022 223.716 184.084 227.391 185.454 231.791C186.824 236.191 186.391 240.954 184.248 245.034C182.106 249.114 178.431 252.176 174.031 253.546L165.737 256.129L176.069 289.306C178.918 298.455 188.675 303.578 197.823 300.729L231.001 290.397L228.418 282.103C227.048 277.703 227.482 272.94 229.624 268.86C231.766 264.78 235.441 261.718 239.841 260.348C244.241 258.978 249.004 259.412 253.084 261.554C257.164 263.696 260.226 267.372 261.596 271.771L264.179 280.066L297.356 269.734C306.505 266.885 311.628 257.128 308.779 247.979L301.03 223.096C314.749 218.824 322.437 204.183 318.165 190.464C313.893 176.745 299.252 169.057 285.533 173.329Z" fill="#E8C100"/>
<path d="M285.533 173.329L277.784 148.446C274.935 139.297 265.178 134.174 256.029 137.023L231.146 144.772C226.874 131.053 212.233 123.365 198.514 127.638C184.795 131.91 177.107 146.551 181.379 160.27L156.496 168.019C147.348 170.868 142.224 180.625 145.073 189.773L155.405 222.951L163.7 220.368C168.099 218.998 172.863 219.432 176.943 221.574C181.022 223.716 184.084 227.391 185.454 231.791C186.824 236.191 186.391 240.954 184.248 245.034C182.106 249.114 178.431 252.176 174.031 253.546L165.737 256.129L176.069 289.306C178.918 298.455 188.675 303.578 197.823 300.729L231.001 290.397L228.418 282.103C227.048 277.703 227.482 272.94 229.624 268.86C231.766 264.78 235.441 261.718 239.841 260.348C244.241 258.978 249.004 259.412 253.084 261.554C257.164 263.696 260.226 267.372 261.596 271.771L264.179 280.066L297.356 269.734C306.505 266.885 311.628 257.128 308.779 247.979L301.03 223.096C314.749 218.824 322.437 204.183 318.165 190.464C313.893 176.745 299.252 169.057 285.533 173.329Z" fill="url(#paint4_linear)" style="mix-blend-mode:soft-light"/>
<path d="M285.533 173.329L277.784 148.446C274.935 139.297 265.178 134.174 256.029 137.023L231.146 144.772C226.874 131.053 212.233 123.365 198.514 127.638C184.795 131.91 177.107 146.551 181.379 160.27L156.496 168.019C147.348 170.868 142.224 180.625 145.073 189.773L155.405 222.951L163.7 220.368C168.099 218.998 172.863 219.432 176.943 221.574C181.022 223.716 184.084 227.391 185.454 231.791C186.824 236.191 186.391 240.954 184.248 245.034C182.106 249.114 178.431 252.176 174.031 253.546L165.737 256.129L176.069 289.306C178.918 298.455 188.675 303.578 197.823 300.729L231.001 290.397L228.418 282.103C227.048 277.703 227.482 272.94 229.624 268.86C231.766 264.78 235.441 261.718 239.841 260.348C244.241 258.978 249.004 259.412 253.084 261.554C257.164 263.696 260.226 267.372 261.596 271.771L264.179 280.066L297.356 269.734C306.505 266.885 311.628 257.128 308.779 247.979L301.03 223.096C314.749 218.824 322.437 204.183 318.165 190.464C313.893 176.745 299.252 169.057 285.533 173.329Z" fill="url(#paint5_linear)" style="mix-blend-mode:hard-light"/>
</g>
<g filter="url(#filter3_d)">
<path d="M111.467 84.1043L103.718 59.221C100.869 50.0723 91.1123 44.9491 81.9635 47.7981L57.0803 55.547C52.8081 41.828 38.1672 34.1404 24.4482 38.4126C10.7292 42.6848 3.04161 57.3257 7.31381 71.0447L-17.5694 78.7935C-26.7182 81.6425 -31.8414 91.3995 -28.9924 100.548L-18.6606 133.726L-10.3661 131.143C-5.96651 129.773 -1.20282 130.207 2.87699 132.349C6.95679 134.491 10.0185 138.166 11.3886 142.566C12.7587 146.966 12.3249 151.729 10.1827 155.809C8.04045 159.889 4.36528 162.951 -0.0343461 164.321L-8.32876 166.904L2.00304 200.081C4.85203 209.23 14.609 214.353 23.7578 211.504L56.9354 201.172L54.3525 192.878C52.9824 188.478 53.4162 183.715 55.5584 179.635C57.7006 175.555 61.3758 172.493 65.7754 171.123C70.175 169.753 74.9387 170.187 79.0185 172.329C83.0983 174.471 86.16 178.146 87.5301 182.546L90.1131 190.841L123.291 180.509C132.439 177.66 137.563 167.903 134.714 158.754L126.965 133.871C140.684 129.599 148.371 114.958 144.099 101.239C139.827 87.5197 125.186 79.8321 111.467 84.1043Z" fill="#5FB8E9"/>
<path d="M111.467 84.1043L103.718 59.221C100.869 50.0723 91.1123 44.9491 81.9635 47.7981L57.0803 55.547C52.8081 41.828 38.1672 34.1404 24.4482 38.4126C10.7292 42.6848 3.04161 57.3257 7.31381 71.0447L-17.5694 78.7935C-26.7182 81.6425 -31.8414 91.3995 -28.9924 100.548L-18.6606 133.726L-10.3661 131.143C-5.96651 129.773 -1.20282 130.207 2.87699 132.349C6.95679 134.491 10.0185 138.166 11.3886 142.566C12.7587 146.966 12.3249 151.729 10.1827 155.809C8.04045 159.889 4.36528 162.951 -0.0343461 164.321L-8.32876 166.904L2.00304 200.081C4.85203 209.23 14.609 214.353 23.7578 211.504L56.9354 201.172L54.3525 192.878C52.9824 188.478 53.4162 183.715 55.5584 179.635C57.7006 175.555 61.3758 172.493 65.7754 171.123C70.175 169.753 74.9387 170.187 79.0185 172.329C83.0983 174.471 86.16 178.146 87.5301 182.546L90.1131 190.841L123.291 180.509C132.439 177.66 137.563 167.903 134.714 158.754L126.965 133.871C140.684 129.599 148.371 114.958 144.099 101.239C139.827 87.5197 125.186 79.8321 111.467 84.1043Z" fill="url(#paint6_linear)" style="mix-blend-mode:soft-light"/>
<path d="M111.467 84.1043L103.718 59.221C100.869 50.0723 91.1123 44.9491 81.9635 47.7981L57.0803 55.547C52.8081 41.828 38.1672 34.1404 24.4482 38.4126C10.7292 42.6848 3.04161 57.3257 7.31381 71.0447L-17.5694 78.7935C-26.7182 81.6425 -31.8414 91.3995 -28.9924 100.548L-18.6606 133.726L-10.3661 131.143C-5.96651 129.773 -1.20282 130.207 2.87699 132.349C6.95679 134.491 10.0185 138.166 11.3886 142.566C12.7587 146.966 12.3249 151.729 10.1827 155.809C8.04045 159.889 4.36528 162.951 -0.0343461 164.321L-8.32876 166.904L2.00304 200.081C4.85203 209.23 14.609 214.353 23.7578 211.504L56.9354 201.172L54.3525 192.878C52.9824 188.478 53.4162 183.715 55.5584 179.635C57.7006 175.555 61.3758 172.493 65.7754 171.123C70.175 169.753 74.9387 170.187 79.0185 172.329C83.0983 174.471 86.16 178.146 87.5301 182.546L90.1131 190.841L123.291 180.509C132.439 177.66 137.563 167.903 134.714 158.754L126.965 133.871C140.684 129.599 148.371 114.958 144.099 101.239C139.827 87.5197 125.186 79.8321 111.467 84.1043Z" fill="url(#paint7_linear)" style="mix-blend-mode:hard-light"/>
</g>
<defs>
<filter id="filter0_d" x="-5.19019" y="140.751" width="214.67" height="214.67" filterUnits="userSpaceOnUse" color-interpolation-filters="sRGB">
<feFlood flood-opacity="0" result="BackgroundImageFix"/>
<feColorMatrix in="SourceAlpha" type="matrix" values="0 0 0 0 0 0 0 0 0 0 0 0 0 0 0 0 0 0 127 0"/>
<feOffset dy="4"/>
<feGaussianBlur stdDeviation="2"/>
<feColorMatrix type="matrix" values="0 0 0 0 0 0 0 0 0 0 0 0 0 0 0 0 0 0 0.25 0"/>
<feBlend mode="normal" in2="BackgroundImageFix" result="effect1_dropShadow"/>
<feBlend mode="normal" in="SourceGraphic" in2="effect1_dropShadow" result="shape"/>
</filter>
<filter id="filter1_d" x="278" y="0" width="166.618" height="166.618" filterUnits="userSpaceOnUse" color-interpolation-filters="sRGB">
<feFlood flood-opacity="0" result="BackgroundImageFix"/>
<feColorMatrix in="SourceAlpha" type="matrix" values="0 0 0 0 0 0 0 0 0 0 0 0 0 0 0 0 0 0 127 0"/>
<feOffset dy="4"/>
<feGaussianBlur stdDeviation="2"/>
<feColorMatrix type="matrix" values="0 0 0 0 0 0 0 0 0 0 0 0 0 0 0 0 0 0 0.25 0"/>
<feBlend mode="normal" in2="BackgroundImageFix" result="effect1_dropShadow"/>
<feBlend mode="normal" in="SourceGraphic" in2="effect1_dropShadow" result="shape"/>
</filter>
<filter id="filter2_d" x="128.159" y="99.2253" width="214.67" height="214.67" filterUnits="userSpaceOnUse" color-interpolation-filters="sRGB">
<feFlood flood-opacity="0" result="BackgroundImageFix"/>
<feColorMatrix in="SourceAlpha" type="matrix" values="0 0 0 0 0 0 0 0 0 0 0 0 0 0 0 0 0 0 127 0"/>
<feOffset dy="4"/>
<feGaussianBlur stdDeviation="2"/>
<feColorMatrix type="matrix" values="0 0 0 0 0 0 0 0 0 0 0 0 0 0 0 0 0 0 0.25 0"/>
<feBlend mode="normal" in2="BackgroundImageFix" result="effect1_dropShadow"/>
<feBlend mode="normal" in="SourceGraphic" in2="effect1_dropShadow" result="shape"/>
</filter>
<filter id="filter3_d" x="-45.9071" y="10.0002" width="214.67" height="214.67" filterUnits="userSpaceOnUse" color-interpolation-filters="sRGB">
<feFlood flood-opacity="0" result="BackgroundImageFix"/>
<feColorMatrix in="SourceAlpha" type="matrix" values="0 0 0 0 0 0 0 0 0 0 0 0 0 0 0 0 0 0 127 0"/>
<feOffset dy="4"/>
<feGaussianBlur stdDeviation="2"/>
<feColorMatrix type="matrix" values="0 0 0 0 0 0 0 0 0 0 0 0 0 0 0 0 0 0 0.25 0"/>
<feBlend mode="normal" in2="BackgroundImageFix" result="effect1_dropShadow"/>
<feBlend mode="normal" in="SourceGraphic" in2="effect1_dropShadow" result="shape"/>
</filter>
<linearGradient id="paint0_linear" x1="77.7687" y1="165.809" x2="126.683" y2="322.883" gradientUnits="userSpaceOnUse">
<stop stop-color="white" stop-opacity="0.94"/>
<stop offset="1" stop-color="white" stop-opacity="0"/>
</linearGradient>
<linearGradient id="paint1_linear" x1="77.7687" y1="165.809" x2="126.683" y2="322.883" gradientUnits="userSpaceOnUse">
<stop offset="0.416667" stop-color="#C10000" stop-opacity="0"/>
<stop offset="1" stop-color="#860000" stop-opacity="0.69"/>
</linearGradient>
<linearGradient id="paint2_linear" x1="393.09" y1="32.3047" x2="329.316" y2="126.625" gradientUnits="userSpaceOnUse">
<stop stop-color="white" stop-opacity="0.94"/>
<stop offset="1" stop-color="white" stop-opacity="0"/>
</linearGradient>
<linearGradient id="paint3_linear" x1="393.09" y1="32.3047" x2="329.316" y2="126.625" gradientUnits="userSpaceOnUse">
<stop offset="0.416667" stop-color="#C10000" stop-opacity="0"/>
<stop offset="1" stop-color="#860000" stop-opacity="0.69"/>
</linearGradient>
<linearGradient id="paint4_linear" x1="211.117" y1="124.283" x2="260.032" y2="281.357" gradientUnits="userSpaceOnUse">
<stop stop-color="white" stop-opacity="0.94"/>
<stop offset="1" stop-color="white" stop-opacity="0"/>
</linearGradient>
<linearGradient id="paint5_linear" x1="211.117" y1="124.283" x2="260.032" y2="281.357" gradientUnits="userSpaceOnUse">
<stop stop-color="#972400" stop-opacity="0"/>
<stop offset="1" stop-color="#744328" stop-opacity="0.69"/>
</linearGradient>
<linearGradient id="paint6_linear" x1="36.8898" y1="34.5382" x2="85.9659" y2="192.132" gradientUnits="userSpaceOnUse">
<stop stop-color="white" stop-opacity="0.74"/>
<stop offset="1" stop-color="white" stop-opacity="0"/>
</linearGradient>
<linearGradient id="paint7_linear" x1="36.8898" y1="34.5382" x2="85.9659" y2="192.132" gradientUnits="userSpaceOnUse">
<stop stop-color="#001897" stop-opacity="0"/>
<stop offset="1" stop-color="#051EA2" stop-opacity="0.17"/>
</linearGradient>
</defs>
</svg>
