<svg width="187" height="183" viewBox="0 0 187 183" fill="none" xmlns="http://www.w3.org/2000/svg">
<g filter="url(#filter0_d)">
<ellipse cx="95.4083" cy="91.4083" rx="65.3245" ry="63.9464" transform="rotate(45 95.4083 91.4083)" fill="#E18803"/>
<ellipse cx="95.4083" cy="91.4083" rx="65.3245" ry="63.9464" transform="rotate(45 95.4083 91.4083)" fill="url(#paint0_linear)" style="mix-blend-mode:soft-light"/>
<ellipse cx="95.4083" cy="91.4083" rx="65.3245" ry="63.9464" transform="rotate(45 95.4083 91.4083)" fill="url(#paint1_linear)" style="mix-blend-mode:hard-light"/>
</g>
<path d="M125.71 83.4021C131.342 86.9283 131.342 95.1325 125.71 98.6586L87.9995 122.269C82.0053 126.022 74.2235 121.713 74.2235 114.641L74.2235 67.4201C74.2235 60.3481 82.0053 56.039 87.9995 59.7919L125.71 83.4021Z" fill="white"/>
<defs>
<filter id="filter0_d" x="0" y="0" width="190.817" height="190.817" filterUnits="userSpaceOnUse" color-interpolation-filters="sRGB">
<feFlood flood-opacity="0" result="BackgroundImageFix"/>
<feColorMatrix in="SourceAlpha" type="matrix" values="0 0 0 0 0 0 0 0 0 0 0 0 0 0 0 0 0 0 127 0"/>
<feOffset dy="4"/>
<feGaussianBlur stdDeviation="2"/>
<feColorMatrix type="matrix" values="0 0 0 0 0 0 0 0 0 0 0 0 0 0 0 0 0 0 0.25 0"/>
<feBlend mode="normal" in2="BackgroundImageFix" result="effect1_dropShadow"/>
<feBlend mode="normal" in="SourceGraphic" in2="effect1_dropShadow" result="shape"/>
</filter>
<linearGradient id="paint0_linear" x1="95.4083" y1="27.884" x2="95.4083" y2="155.355" gradientUnits="userSpaceOnUse">
<stop stop-color="white" stop-opacity="0.94"/>
<stop offset="1" stop-color="white" stop-opacity="0"/>
</linearGradient>
<linearGradient id="paint1_linear" x1="95.4083" y1="27.884" x2="95.4083" y2="155.355" gradientUnits="userSpaceOnUse">
<stop offset="0.416667" stop-color="#C10000" stop-opacity="0"/>
<stop offset="1" stop-color="#860000" stop-opacity="0.31"/>
</linearGradient>
</defs>
</svg>
