<svg width="203" height="216" viewBox="0 0 203 216" fill="none" xmlns="http://www.w3.org/2000/svg">
<circle cx="107.19" cy="120.5" r="95.5" fill="#1EA62B"/>
<mask id="mask0" mask-type="alpha" maskUnits="userSpaceOnUse" x="0" y="-8" width="203" height="224">
<path d="M202.69 120.5C202.69 173.243 159.934 216 107.19 216C54.4473 216 11.6905 173.243 11.6905 120.5C11.6905 93.8879 -10.8703 48.818 6.69047 31.5C23.9338 14.4951 113.059 -8 139.19 -8C191.934 -8 202.69 67.7568 202.69 120.5Z" fill="#B3D0B3"/>
</mask>
<g mask="url(#mask0)">
</g>
<mask id="mask1" mask-type="alpha" maskUnits="userSpaceOnUse" x="0" y="-8" width="203" height="224">
<path d="M202.69 120.5C202.69 173.243 159.934 216 107.19 216C54.4473 216 11.6905 173.243 11.6905 120.5C11.6905 93.8879 -10.8703 48.818 6.69047 31.5C23.9338 14.4951 113.059 -8 139.19 -8C191.934 -8 202.69 67.7568 202.69 120.5Z" fill="#B3D0B3"/>
</mask>
<g mask="url(#mask1)">
<g filter="url(#filter0_d)">
<rect x="7.69507" y="37.8152" width="134.005" height="186.117" transform="rotate(-16.39 7.69507 37.8152)" fill="#DEDDDD"/>
<rect x="7.69507" y="37.8152" width="134.005" height="186.117" transform="rotate(-16.39 7.69507 37.8152)" fill="url(#paint0_linear)"/>
</g>
<path opacity="0.5" d="M39.4773 98.1726L64.4392 90.8307" stroke="black" stroke-width="4" stroke-linecap="round"/>
<path opacity="0.5" d="M109.905 107.165L134.867 99.8231" stroke="black" stroke-width="4" stroke-linecap="round"/>
<path opacity="0.5" d="M48.3467 124.75L73.3086 117.408" stroke="black" stroke-width="4" stroke-linecap="round"/>
<path opacity="0.5" d="M102.005 80.3027L126.966 72.9608" stroke="black" stroke-width="4" stroke-linecap="round"/>
<path opacity="0.5" d="M24.6631 47.8062L128.274 17.3314" stroke="black" stroke-width="4" stroke-linecap="round"/>
<path opacity="0.5" d="M31.9996 72.7495L53.1056 66.5417" stroke="black" stroke-width="4" stroke-linecap="round"/>
<path opacity="0.5" d="M28.3314 60.2778L131.943 29.803" stroke="black" stroke-width="4" stroke-linecap="round"/>
</g>
<path d="M91.1904 110.5L108.19 124.5C106.69 113.667 108.79 89.2 129.19 78" stroke="#1EA52B" stroke-width="6"/>
<defs>
<filter id="filter0_d" x="3.69507" y="0.00268555" width="189.076" height="224.367" filterUnits="userSpaceOnUse" color-interpolation-filters="sRGB">
<feFlood flood-opacity="0" result="BackgroundImageFix"/>
<feColorMatrix in="SourceAlpha" type="matrix" values="0 0 0 0 0 0 0 0 0 0 0 0 0 0 0 0 0 0 127 0"/>
<feOffset dy="4"/>
<feGaussianBlur stdDeviation="2"/>
<feColorMatrix type="matrix" values="0 0 0 0 0 0 0 0 0 0 0 0 0 0 0 0 0 0 0.25 0"/>
<feBlend mode="normal" in2="BackgroundImageFix" result="effect1_dropShadow"/>
<feBlend mode="normal" in="SourceGraphic" in2="effect1_dropShadow" result="shape"/>
</filter>
<linearGradient id="paint0_linear" x1="74.6973" y1="37.8152" x2="74.6973" y2="223.933" gradientUnits="userSpaceOnUse">
<stop stop-color="white"/>
<stop offset="1" stop-color="white" stop-opacity="0"/>
</linearGradient>
</defs>
</svg>
