<svg width="337" height="180" viewBox="0 0 337 180" fill="none" xmlns="http://www.w3.org/2000/svg">
<g clip-path="url(#clip0)">
<path d="M51 180H287C288.105 180 289 179.105 289 178V106.115C289 100.756 295.492 98.0851 299.263 101.893L318.184 121C325.098 127.981 337 123.085 337 113.259V63.7406C337 53.9148 325.098 49.0188 318.184 56.0005L299.263 75.1067C295.492 78.9149 289 76.2444 289 70.8848V2C289 0.89543 288.105 0 287 0H189.115C183.756 0 181.085 6.49204 184.893 10.2633L203.999 29.184C210.981 36.0979 206.085 48 196.259 48H146.741C136.915 48 132.019 36.0979 139.001 29.184L158.107 10.2633C161.915 6.49204 159.244 0 153.885 0H51C49.8954 0 49 0.895428 49 2V70.8848C49 76.2443 42.508 78.9149 38.7367 75.1067L19.816 56.0005C12.9021 49.0188 1 53.9148 1 63.7406V113.259C1 123.085 12.9021 127.981 19.816 120.999L38.7367 101.893C42.508 98.0851 49 100.756 49 106.115V178C49 179.105 49.8954 180 51 180Z" fill="#5FB8E9"/>
<path d="M51 180H287C288.105 180 289 179.105 289 178V106.115C289 100.756 295.492 98.0851 299.263 101.893L318.184 121C325.098 127.981 337 123.085 337 113.259V63.7406C337 53.9148 325.098 49.0188 318.184 56.0005L299.263 75.1067C295.492 78.9149 289 76.2444 289 70.8848V2C289 0.89543 288.105 0 287 0H189.115C183.756 0 181.085 6.49204 184.893 10.2633L203.999 29.184C210.981 36.0979 206.085 48 196.259 48H146.741C136.915 48 132.019 36.0979 139.001 29.184L158.107 10.2633C161.915 6.49204 159.244 0 153.885 0H51C49.8954 0 49 0.895428 49 2V70.8848C49 76.2443 42.508 78.9149 38.7367 75.1067L19.816 56.0005C12.9021 49.0188 1 53.9148 1 63.7406V113.259C1 123.085 12.9021 127.981 19.816 120.999L38.7367 101.893C42.508 98.0851 49 100.756 49 106.115V178C49 179.105 49.8954 180 51 180Z" fill="url(#paint0_linear)" style="mix-blend-mode:soft-light"/>
<path d="M51 180H287C288.105 180 289 179.105 289 178V106.115C289 100.756 295.492 98.0851 299.263 101.893L318.184 121C325.098 127.981 337 123.085 337 113.259V63.7406C337 53.9148 325.098 49.0188 318.184 56.0005L299.263 75.1067C295.492 78.9149 289 76.2444 289 70.8848V2C289 0.89543 288.105 0 287 0H189.115C183.756 0 181.085 6.49204 184.893 10.2633L203.999 29.184C210.981 36.0979 206.085 48 196.259 48H146.741C136.915 48 132.019 36.0979 139.001 29.184L158.107 10.2633C161.915 6.49204 159.244 0 153.885 0H51C49.8954 0 49 0.895428 49 2V70.8848C49 76.2443 42.508 78.9149 38.7367 75.1067L19.816 56.0005C12.9021 49.0188 1 53.9148 1 63.7406V113.259C1 123.085 12.9021 127.981 19.816 120.999L38.7367 101.893C42.508 98.0851 49 100.756 49 106.115V178C49 179.105 49.8954 180 51 180Z" fill="url(#paint1_linear)" style="mix-blend-mode:hard-light"/>
<circle cx="109" cy="120" r="20" fill="white"/>
<circle cx="229" cy="120" r="20" fill="white"/>
<circle cx="109" cy="120" r="9" fill="black"/>
<path d="M238 120C238 124.971 233.971 129 229 129C224.029 129 220 124.971 220 120C220 115.029 224.029 111 229 111C233.971 111 238 115.029 238 120Z" fill="black"/>
<path d="M91 85.3348C91.5 84.8348 111.5 71.3348 126.5 85.3348" stroke="#2C60AE" stroke-width="5" stroke-linecap="round" stroke-linejoin="round"/>
<path d="M211 85.3348C211.5 84.8348 231.5 71.3348 246.5 85.3348" stroke="#2C60AE" stroke-width="5" stroke-linecap="round" stroke-linejoin="round"/>
<path d="M180 148C180 152.418 175.075 156 169 156C162.925 156 158 152.418 158 148" stroke="black" stroke-width="5" stroke-linecap="round"/>
</g>
<defs>
<linearGradient id="paint0_linear" x1="169" y1="0" x2="169" y2="180" gradientUnits="userSpaceOnUse">
<stop stop-color="white" stop-opacity="0.74"/>
<stop offset="1" stop-color="white" stop-opacity="0"/>
</linearGradient>
<linearGradient id="paint1_linear" x1="169" y1="0" x2="169" y2="180" gradientUnits="userSpaceOnUse">
<stop stop-color="#001897" stop-opacity="0"/>
<stop offset="1" stop-color="#051EA2" stop-opacity="0.17"/>
</linearGradient>
<clipPath id="clip0">
<rect width="337" height="180" fill="white"/>
</clipPath>
</defs>
</svg>
