<svg height="90" viewBox="0 0 291 188" fill="none" xmlns="http://www.w3.org/2000/svg">
<ellipse cx="232" cy="173.5" rx="59" ry="8.5" fill="#7F87C8" fill-opacity="0.53"/>
<path d="M0 29.9712L72 0V153.038L0 188V29.9712Z" fill="#211E1E"/>
<path d="M0 29.9712L72 0V153.038L0 188V29.9712Z" fill="url(#paint0_linear)"/>
<rect x="72" width="92" height="154" fill="#86A7E7"/>
<path d="M278.454 104.63C271.619 96.6917 252.806 82.1031 232.237 87.2602" stroke="#6BA9CB" stroke-width="15"/>
<path style="mix-blend-mode:soft-light" d="M278.454 104.63C271.619 96.6917 252.806 82.1031 232.237 87.2602" stroke="url(#paint1_linear)" stroke-width="15"/>
<path d="M225.271 131.946C224.179 128.013 226.554 123.958 230.576 122.89C234.598 121.823 238.743 124.146 239.835 128.079L225.271 131.946ZM239.835 128.079C240.901 131.917 240.011 133.359 242.573 135.714C244.494 137.481 250.731 140.918 269.313 137.139L272.386 151.589C252.145 155.707 239.582 153.223 232.235 146.468C225.529 140.302 224.902 130.62 225.271 131.946L239.835 128.079Z" fill="#6BA9CB"/>
<path style="mix-blend-mode:soft-light" d="M225.271 131.946C224.179 128.013 226.554 123.958 230.576 122.89C234.598 121.823 238.743 124.146 239.835 128.079L225.271 131.946ZM239.835 128.079C240.901 131.917 240.011 133.359 242.573 135.714C244.494 137.481 250.731 140.918 269.313 137.139L272.386 151.589C252.145 155.707 239.582 153.223 232.235 146.468C225.529 140.302 224.902 130.62 225.271 131.946L239.835 128.079Z" fill="url(#paint2_linear)"/>
<path d="M196.202 73.3712H243.742V134.624H196.202V73.3712Z" fill="#5FB8E9"/>
<path style="mix-blend-mode:soft-light" d="M196.202 73.3712H243.742V134.624H196.202V73.3712Z" fill="url(#paint3_linear)"/>
<path d="M210 4H229V25H210V4Z" fill="#5FB8E9"/>
<path d="M185 22H255V79H185V22Z" fill="#7ED1FF"/>
<path style="mix-blend-mode:soft-light" d="M185 22H255V79H185V22Z" fill="url(#paint4_linear)"/>
<path d="M218.502 119.942C222.626 119.352 226.458 122.143 227.062 126.176C227.665 130.208 224.812 133.957 220.688 134.547L218.502 119.942ZM220.688 134.547C216.355 135.167 212.069 134.106 207.243 137.656C203.51 140.402 197.839 147.995 200.79 170.589L185.819 172.459C182.562 147.511 188.149 133.234 198.17 125.861C207.098 119.293 219.062 119.862 218.502 119.942L220.688 134.547Z" fill="#6BA9CB"/>
<path style="mix-blend-mode:soft-light" d="M218.502 119.942C222.626 119.352 226.458 122.143 227.062 126.176C227.665 130.208 224.812 133.957 220.688 134.547L218.502 119.942ZM220.688 134.547C216.355 135.167 212.069 134.106 207.243 137.656C203.51 140.402 197.839 147.995 200.79 170.589L185.819 172.459C182.562 147.511 188.149 133.234 198.17 125.861C207.098 119.293 219.062 119.862 218.502 119.942L220.688 134.547Z" fill="url(#paint5_linear)"/>
<path d="M227.576 94.0231C231.468 92.5656 233.415 88.2978 231.924 84.492C230.433 80.6854 226.07 78.7821 222.178 80.2397L227.576 94.0231ZM164.557 94.0364C177.9 98.9603 188.388 101.138 198.459 100.844C208.494 100.551 217.462 97.812 227.576 94.0231L222.178 80.2397C212.463 83.8794 205.43 85.8742 198.009 86.0905C190.623 86.3067 182.197 84.7702 169.884 80.2271L164.557 94.0364Z" fill="#6BA9CB"/>
<path style="mix-blend-mode:soft-light" d="M227.576 94.0231C231.468 92.5656 233.415 88.2978 231.924 84.492C230.433 80.6854 226.07 78.7821 222.178 80.2397L227.576 94.0231ZM164.557 94.0364C177.9 98.9603 188.388 101.138 198.459 100.844C208.494 100.551 217.462 97.812 227.576 94.0231L222.178 80.2397C212.463 83.8794 205.43 85.8742 198.009 86.0905C190.623 86.3067 182.197 84.7702 169.884 80.2271L164.557 94.0364Z" fill="url(#paint6_linear)"/>
<defs>
<linearGradient id="paint0_linear" x1="117.391" y1="142" x2="-0.0323352" y2="139.549" gradientUnits="userSpaceOnUse">
<stop stop-color="white" stop-opacity="0.49"/>
<stop offset="1" stop-color="white" stop-opacity="0"/>
</linearGradient>
<linearGradient id="paint1_linear" x1="235.964" y1="111.167" x2="284.402" y2="103.615" gradientUnits="userSpaceOnUse">
<stop/>
<stop offset="1" stop-opacity="0"/>
</linearGradient>
<linearGradient id="paint2_linear" x1="232.572" y1="130.202" x2="279.375" y2="125.593" gradientUnits="userSpaceOnUse">
<stop/>
<stop offset="1" stop-opacity="0"/>
</linearGradient>
<linearGradient id="paint3_linear" x1="219.972" y1="73.3712" x2="219.972" y2="134.624" gradientUnits="userSpaceOnUse">
<stop/>
<stop offset="1" stop-opacity="0"/>
</linearGradient>
<linearGradient id="paint4_linear" x1="220" y1="22" x2="220" y2="79" gradientUnits="userSpaceOnUse">
<stop stop-color="white"/>
<stop offset="1" stop-color="white" stop-opacity="0"/>
</linearGradient>
<linearGradient id="paint5_linear" x1="219.315" y1="127.245" x2="219.315" y2="183.978" gradientUnits="userSpaceOnUse">
<stop/>
<stop offset="1" stop-opacity="0"/>
</linearGradient>
<linearGradient id="paint6_linear" x1="235.976" y1="108.742" x2="192.877" y2="130.876" gradientUnits="userSpaceOnUse">
<stop/>
<stop offset="1" stop-opacity="0"/>
</linearGradient>
</defs>
</svg>
