<svg height="400" viewBox="0 0 240 285" fill="none" xmlns="http://www.w3.org/2000/svg">
<path d="M98.0635 249.593C132.063 262.421 148.192 259.658 174.47 249.593" stroke="#6BA9CB" stroke-width="20"/>
<path d="M98.0635 249.593C132.063 262.421 148.192 259.658 174.47 249.593" stroke="url(#paint0_linear)" stroke-width="20" style="mix-blend-mode:soft-light"/>
<path d="M216.017 228.367C249.576 214.427 259.435 201.366 271.688 176.034" stroke="#6BA9CB" stroke-width="20"/>
<path d="M216.017 228.367C249.576 214.427 259.435 201.366 271.688 176.034" stroke="url(#paint1_linear)" stroke-width="20" style="mix-blend-mode:soft-light"/>
<path d="M245.533 281.903L282.337 355.18" stroke="#6BA9CB" stroke-width="20"/>
<path d="M245.533 281.903L282.337 355.18" stroke="url(#paint2_linear)" stroke-width="20" style="mix-blend-mode:soft-light"/>
<rect width="63" height="83" transform="matrix(-0.893615 0.448835 0.448835 0.893615 219.908 208.607)" fill="#5FB8E9"/>
<rect width="63" height="83" transform="matrix(-0.893615 0.448835 0.448835 0.893615 219.908 208.607)" fill="url(#paint3_linear)" style="mix-blend-mode:soft-light"/>
<rect width="26" height="29" transform="matrix(-0.893615 0.448835 0.448835 0.893615 193.811 121)" fill="#5FB8E9"/>
<rect width="26" height="29" transform="matrix(-0.893615 0.448835 0.448835 0.893615 133.939 151.072)" fill="#5FB8E9"/>
<rect width="141" height="78" transform="matrix(-0.893615 0.448835 0.448835 0.893615 222.443 126.762)" fill="#7ED1FF"/>
<rect width="141" height="78" transform="matrix(-0.893615 0.448835 0.448835 0.893615 222.443 126.762)" fill="url(#paint4_linear)" style="mix-blend-mode:soft-light"/>
<circle r="13.5" transform="matrix(-0.893615 0.448835 0.448835 0.893615 206.205 173.525)" fill="white"/>
<circle r="4.5" transform="matrix(-0.893615 0.448835 0.448835 0.893615 199.74 171.041)" fill="black"/>
<circle r="13.5" transform="matrix(-0.893615 0.448835 0.448835 0.893615 146.333 203.597)" fill="white"/>
<circle r="4.5" transform="matrix(-0.893615 0.448835 0.448835 0.893615 138.74 200.041)" fill="black"/>
<path d="M176.77 208.452C178.51 211.304 182.381 212.349 185.7 210.681C189.02 209.014 190.493 205.285 189.244 202.187L176.77 208.452Z" stroke="black" stroke-linecap="round"/>
<path d="M203.874 157.185C201.933 156.191 197.299 155.374 194.294 160.056" stroke="#1C6D9A" stroke-linecap="round"/>
<path d="M143.136 184.86C140.957 184.93 136.506 186.457 136.143 192.008" stroke="#1C6D9A" stroke-linecap="round"/>
<rect width="150" height="91" rx="15" transform="matrix(-1 0 0 1 150 0)" fill="#C4C4C4"/>
<path d="M32.7367 26.028C32.9167 26.148 33.0067 26.298 33.0067 26.478C33.0067 26.538 32.9827 26.616 32.9347 26.712C32.8867 26.796 32.8207 26.862 32.7367 26.91C32.6527 26.958 32.5627 26.982 32.4667 26.982C32.3467 26.982 32.2447 26.958 32.1607 26.91C31.8247 26.718 31.5547 26.406 31.3507 25.974C31.1467 25.542 31.0447 24.852 31.0447 23.904C31.0447 23.064 30.8107 22.476 30.3427 22.14C29.8747 21.792 29.3167 21.618 28.6687 21.618H24.6727V26.46C24.6727 26.616 24.6247 26.748 24.5287 26.856C24.4327 26.952 24.3067 27 24.1507 27C23.9827 27 23.8387 26.952 23.7187 26.856C23.5987 26.748 23.5387 26.616 23.5387 26.46V14.94C23.5387 14.784 23.5867 14.658 23.6827 14.562C23.7907 14.454 23.9227 14.4 24.0787 14.4H28.9387C29.6227 14.4 30.2347 14.55 30.7747 14.85C31.3147 15.138 31.7347 15.54 32.0347 16.056C32.3467 16.572 32.5027 17.154 32.5027 17.802C32.5027 18.57 32.2987 19.248 31.8907 19.836C31.4947 20.412 30.9727 20.808 30.3247 21.024C30.8527 21.228 31.2847 21.576 31.6207 22.068C31.9567 22.548 32.1307 23.136 32.1427 23.832C32.1547 24.576 32.2027 25.098 32.2867 25.398C32.3827 25.698 32.5327 25.908 32.7367 26.028ZM28.9927 20.628C29.4127 20.592 29.8027 20.454 30.1627 20.214C30.5227 19.974 30.8107 19.65 31.0267 19.242C31.2427 18.834 31.3507 18.366 31.3507 17.838C31.3507 17.154 31.1167 16.59 30.6487 16.146C30.1927 15.69 29.5927 15.462 28.8487 15.462H24.6727V20.628H28.9927ZM43.7354 22.392C43.7354 23.292 43.5374 24.108 43.1414 24.84C42.7454 25.572 42.1994 26.148 41.5034 26.568C40.8074 26.976 40.0334 27.18 39.1814 27.18C38.3294 27.18 37.5554 26.976 36.8594 26.568C36.1634 26.148 35.6174 25.572 35.2214 24.84C34.8254 24.108 34.6274 23.292 34.6274 22.392C34.6274 21.492 34.8254 20.676 35.2214 19.944C35.6174 19.212 36.1634 18.636 36.8594 18.216C37.5554 17.796 38.3294 17.586 39.1814 17.586C40.0334 17.586 40.8074 17.796 41.5034 18.216C42.1994 18.636 42.7454 19.212 43.1414 19.944C43.5374 20.676 43.7354 21.492 43.7354 22.392ZM42.6554 22.392C42.6554 21.672 42.5054 21.024 42.2054 20.448C41.9054 19.872 41.4854 19.422 40.9454 19.098C40.4174 18.762 39.8294 18.594 39.1814 18.594C38.5334 18.594 37.9454 18.762 37.4174 19.098C36.8894 19.422 36.4694 19.872 36.1574 20.448C35.8574 21.024 35.7074 21.672 35.7074 22.392C35.7074 23.1 35.8574 23.742 36.1574 24.318C36.4694 24.894 36.8894 25.35 37.4174 25.686C37.9454 26.01 38.5334 26.172 39.1814 26.172C39.8294 26.172 40.4174 26.01 40.9454 25.686C41.4854 25.362 41.9054 24.912 42.2054 24.336C42.5054 23.76 42.6554 23.112 42.6554 22.392ZM53.4145 13.68C53.5705 13.68 53.6965 13.734 53.7925 13.842C53.9005 13.938 53.9545 14.064 53.9545 14.22V26.46C53.9545 26.616 53.9005 26.748 53.7925 26.856C53.6965 26.952 53.5705 27 53.4145 27C53.2585 27 53.1265 26.952 53.0185 26.856C52.9225 26.748 52.8745 26.616 52.8745 26.46V25.2C52.5745 25.752 52.1245 26.22 51.5245 26.604C50.9365 26.988 50.2825 27.18 49.5625 27.18C48.7705 27.18 48.0505 26.976 47.4025 26.568C46.7665 26.148 46.2625 25.572 45.8905 24.84C45.5185 24.108 45.3325 23.286 45.3325 22.374C45.3325 21.474 45.5185 20.658 45.8905 19.926C46.2625 19.194 46.7665 18.624 47.4025 18.216C48.0505 17.796 48.7645 17.586 49.5445 17.586C50.2525 17.586 50.9065 17.766 51.5065 18.126C52.1065 18.474 52.5625 18.93 52.8745 19.494V14.22C52.8745 14.064 52.9225 13.938 53.0185 13.842C53.1265 13.734 53.2585 13.68 53.4145 13.68ZM49.6705 26.172C50.2945 26.172 50.8525 26.01 51.3445 25.686C51.8485 25.362 52.2385 24.912 52.5145 24.336C52.8025 23.748 52.9465 23.094 52.9465 22.374C52.9465 21.666 52.8025 21.024 52.5145 20.448C52.2385 19.872 51.8485 19.422 51.3445 19.098C50.8525 18.762 50.2945 18.594 49.6705 18.594C49.0465 18.594 48.4825 18.762 47.9785 19.098C47.4865 19.422 47.0965 19.872 46.8085 20.448C46.5325 21.024 46.3945 21.666 46.3945 22.374C46.3945 23.094 46.5325 23.742 46.8085 24.318C47.0965 24.894 47.4865 25.35 47.9785 25.686C48.4825 26.01 49.0465 26.172 49.6705 26.172ZM64.5486 21.87C64.5486 22.014 64.4946 22.14 64.3866 22.248C64.2786 22.344 64.1526 22.392 64.0086 22.392H57.2046C57.2046 23.112 57.3486 23.76 57.6366 24.336C57.9366 24.9 58.3566 25.35 58.8966 25.686C59.4486 26.01 60.0966 26.172 60.8406 26.172C61.4166 26.172 61.9326 26.052 62.3886 25.812C62.8446 25.572 63.2106 25.266 63.4866 24.894C63.6186 24.786 63.7446 24.732 63.8646 24.732C63.9846 24.732 64.0926 24.78 64.1886 24.876C64.2846 24.972 64.3326 25.08 64.3326 25.2C64.3326 25.332 64.2726 25.458 64.1526 25.578C63.7686 26.046 63.2826 26.43 62.6946 26.73C62.1186 27.03 61.5066 27.18 60.8586 27.18C59.9346 27.18 59.1186 26.982 58.4106 26.586C57.7026 26.19 57.1506 25.638 56.7546 24.93C56.3586 24.21 56.1606 23.382 56.1606 22.446C56.1606 21.462 56.3526 20.604 56.7366 19.872C57.1326 19.128 57.6546 18.564 58.3026 18.18C58.9506 17.784 59.6406 17.586 60.3726 17.586C61.0926 17.586 61.7646 17.754 62.3886 18.09C63.0246 18.426 63.5406 18.918 63.9366 19.566C64.3326 20.214 64.5366 20.982 64.5486 21.87ZM60.3726 18.63C59.6766 18.63 59.0286 18.87 58.4286 19.35C57.8406 19.83 57.4626 20.52 57.2946 21.42H63.4326V21.276C63.3726 20.736 63.1926 20.268 62.8926 19.872C62.5926 19.464 62.2146 19.158 61.7586 18.954C61.3146 18.738 60.8526 18.63 60.3726 18.63ZM79.1664 17.802C79.3224 17.802 79.4484 17.856 79.5444 17.964C79.6524 18.072 79.7064 18.204 79.7064 18.36V26.46C79.7064 26.616 79.6524 26.748 79.5444 26.856C79.4484 26.952 79.3224 27 79.1664 27C79.0104 27 78.8784 26.952 78.7704 26.856C78.6744 26.748 78.6264 26.616 78.6264 26.46V25.254C78.3264 25.794 77.8764 26.25 77.2764 26.622C76.6764 26.994 76.0224 27.18 75.3144 27.18C74.5104 27.18 73.7844 26.97 73.1364 26.55C72.5004 26.13 71.9964 25.554 71.6244 24.822C71.2644 24.09 71.0844 23.268 71.0844 22.356C71.0844 21.444 71.2704 20.628 71.6424 19.908C72.0144 19.176 72.5184 18.606 73.1544 18.198C73.8024 17.79 74.5164 17.586 75.2964 17.586C76.0164 17.586 76.6764 17.76 77.2764 18.108C77.8764 18.456 78.3264 18.912 78.6264 19.476V18.36C78.6264 18.204 78.6744 18.072 78.7704 17.964C78.8784 17.856 79.0104 17.802 79.1664 17.802ZM75.4224 26.172C76.0464 26.172 76.6044 26.01 77.0964 25.686C77.6004 25.35 77.9904 24.894 78.2664 24.318C78.5544 23.73 78.6984 23.076 78.6984 22.356C78.6984 21.66 78.5544 21.024 78.2664 20.448C77.9904 19.872 77.6004 19.422 77.0964 19.098C76.6044 18.762 76.0464 18.594 75.4224 18.594C74.7984 18.594 74.2344 18.756 73.7304 19.08C73.2384 19.404 72.8484 19.854 72.5604 20.43C72.2844 20.994 72.1464 21.636 72.1464 22.356C72.1464 23.076 72.2844 23.73 72.5604 24.318C72.8364 24.894 73.2204 25.35 73.7124 25.686C74.2164 26.01 74.7864 26.172 75.4224 26.172ZM91.7484 17.586C91.9884 17.586 92.2044 17.634 92.3964 17.73C92.5884 17.826 92.6844 17.97 92.6844 18.162C92.6844 18.33 92.6364 18.468 92.5404 18.576C92.4444 18.672 92.3304 18.72 92.1984 18.72C92.1384 18.72 92.0184 18.69 91.8384 18.63C91.6704 18.57 91.5084 18.54 91.3524 18.54C90.9084 18.54 90.4644 18.714 90.0204 19.062C89.5884 19.398 89.2284 19.836 88.9404 20.376C88.6644 20.916 88.5264 21.462 88.5264 22.014V26.46C88.5264 26.616 88.4724 26.748 88.3644 26.856C88.2684 26.952 88.1424 27 87.9864 27C87.8304 27 87.6984 26.952 87.5904 26.856C87.4944 26.748 87.4464 26.616 87.4464 26.46V18.396C87.4464 18.24 87.4944 18.114 87.5904 18.018C87.6984 17.91 87.8304 17.856 87.9864 17.856C88.1424 17.856 88.2684 17.91 88.3644 18.018C88.4724 18.114 88.5264 18.24 88.5264 18.396V19.98C88.8024 19.296 89.2164 18.732 89.7684 18.288C90.3324 17.832 90.9924 17.598 91.7484 17.586ZM102.464 22.392C102.464 23.292 102.266 24.108 101.87 24.84C101.474 25.572 100.928 26.148 100.232 26.568C99.5359 26.976 98.7619 27.18 97.9099 27.18C97.0579 27.18 96.2839 26.976 95.5879 26.568C94.8919 26.148 94.3459 25.572 93.9499 24.84C93.5539 24.108 93.3559 23.292 93.3559 22.392C93.3559 21.492 93.5539 20.676 93.9499 19.944C94.3459 19.212 94.8919 18.636 95.5879 18.216C96.2839 17.796 97.0579 17.586 97.9099 17.586C98.7619 17.586 99.5359 17.796 100.232 18.216C100.928 18.636 101.474 19.212 101.87 19.944C102.266 20.676 102.464 21.492 102.464 22.392ZM101.384 22.392C101.384 21.672 101.234 21.024 100.934 20.448C100.634 19.872 100.214 19.422 99.6739 19.098C99.1459 18.762 98.5579 18.594 97.9099 18.594C97.2619 18.594 96.6739 18.762 96.1459 19.098C95.6179 19.422 95.1979 19.872 94.8859 20.448C94.5859 21.024 94.4359 21.672 94.4359 22.392C94.4359 23.1 94.5859 23.742 94.8859 24.318C95.1979 24.894 95.6179 25.35 96.1459 25.686C96.6739 26.01 97.2619 26.172 97.9099 26.172C98.5579 26.172 99.1459 26.01 99.6739 25.686C100.214 25.362 100.634 24.912 100.934 24.336C101.234 23.76 101.384 23.112 101.384 22.392ZM105.861 26.46C105.861 26.616 105.807 26.748 105.699 26.856C105.603 26.952 105.477 27 105.321 27C105.165 27 105.033 26.952 104.925 26.856C104.829 26.748 104.781 26.616 104.781 26.46V14.22C104.781 14.064 104.829 13.938 104.925 13.842C105.033 13.734 105.165 13.68 105.321 13.68C105.477 13.68 105.603 13.734 105.699 13.842C105.807 13.938 105.861 14.064 105.861 14.22V26.46ZM116.422 21.87C116.422 22.014 116.368 22.14 116.26 22.248C116.152 22.344 116.026 22.392 115.882 22.392H109.078C109.078 23.112 109.222 23.76 109.51 24.336C109.81 24.9 110.23 25.35 110.77 25.686C111.322 26.01 111.97 26.172 112.714 26.172C113.29 26.172 113.806 26.052 114.262 25.812C114.718 25.572 115.084 25.266 115.36 24.894C115.492 24.786 115.618 24.732 115.738 24.732C115.858 24.732 115.966 24.78 116.062 24.876C116.158 24.972 116.206 25.08 116.206 25.2C116.206 25.332 116.146 25.458 116.026 25.578C115.642 26.046 115.156 26.43 114.568 26.73C113.992 27.03 113.38 27.18 112.732 27.18C111.808 27.18 110.992 26.982 110.284 26.586C109.576 26.19 109.024 25.638 108.628 24.93C108.232 24.21 108.034 23.382 108.034 22.446C108.034 21.462 108.226 20.604 108.61 19.872C109.006 19.128 109.528 18.564 110.176 18.18C110.824 17.784 111.514 17.586 112.246 17.586C112.966 17.586 113.638 17.754 114.262 18.09C114.898 18.426 115.414 18.918 115.81 19.566C116.206 20.214 116.41 20.982 116.422 21.87ZM112.246 18.63C111.55 18.63 110.902 18.87 110.302 19.35C109.714 19.83 109.336 20.52 109.168 21.42H115.306V21.276C115.246 20.736 115.066 20.268 114.766 19.872C114.466 19.464 114.088 19.158 113.632 18.954C113.188 18.738 112.726 18.63 112.246 18.63ZM120.448 18.846V24.876C120.448 25.332 120.532 25.644 120.7 25.812C120.868 25.968 121.09 26.046 121.366 26.046C121.438 26.046 121.528 26.034 121.636 26.01C121.744 25.974 121.828 25.956 121.888 25.956C121.996 25.956 122.086 26.004 122.158 26.1C122.242 26.184 122.284 26.286 122.284 26.406C122.284 26.574 122.188 26.718 121.996 26.838C121.804 26.946 121.576 27 121.312 27C120.988 27 120.7 26.97 120.448 26.91C120.196 26.85 119.95 26.67 119.71 26.37C119.482 26.07 119.368 25.59 119.368 24.93V18.846H118.054C117.91 18.846 117.784 18.798 117.676 18.702C117.58 18.606 117.532 18.486 117.532 18.342C117.532 18.198 117.58 18.078 117.676 17.982C117.784 17.886 117.91 17.838 118.054 17.838H119.368V15.84C119.368 15.684 119.416 15.558 119.512 15.462C119.62 15.354 119.752 15.3 119.908 15.3C120.064 15.3 120.19 15.354 120.286 15.462C120.394 15.558 120.448 15.684 120.448 15.84V17.838H122.248C122.38 17.838 122.494 17.892 122.59 18C122.698 18.108 122.752 18.228 122.752 18.36C122.752 18.504 122.704 18.624 122.608 18.72C122.512 18.804 122.392 18.846 122.248 18.846H120.448ZM132.217 17.802C132.373 17.802 132.499 17.856 132.595 17.964C132.703 18.072 132.757 18.204 132.757 18.36V26.46C132.757 26.616 132.703 26.748 132.595 26.856C132.499 26.952 132.373 27 132.217 27C132.061 27 131.929 26.952 131.821 26.856C131.725 26.748 131.677 26.616 131.677 26.46V25.254C131.377 25.794 130.927 26.25 130.327 26.622C129.727 26.994 129.073 27.18 128.365 27.18C127.561 27.18 126.835 26.97 126.187 26.55C125.551 26.13 125.047 25.554 124.675 24.822C124.315 24.09 124.135 23.268 124.135 22.356C124.135 21.444 124.321 20.628 124.693 19.908C125.065 19.176 125.569 18.606 126.205 18.198C126.853 17.79 127.567 17.586 128.347 17.586C129.067 17.586 129.727 17.76 130.327 18.108C130.927 18.456 131.377 18.912 131.677 19.476V18.36C131.677 18.204 131.725 18.072 131.821 17.964C131.929 17.856 132.061 17.802 132.217 17.802ZM128.473 26.172C129.097 26.172 129.655 26.01 130.147 25.686C130.651 25.35 131.041 24.894 131.317 24.318C131.605 23.73 131.749 23.076 131.749 22.356C131.749 21.66 131.605 21.024 131.317 20.448C131.041 19.872 130.651 19.422 130.147 19.098C129.655 18.762 129.097 18.594 128.473 18.594C127.849 18.594 127.285 18.756 126.781 19.08C126.289 19.404 125.899 19.854 125.611 20.43C125.335 20.994 125.197 21.636 125.197 22.356C125.197 23.076 125.335 23.73 125.611 24.318C125.887 24.894 126.271 25.35 126.763 25.686C127.267 26.01 127.837 26.172 128.473 26.172ZM31.7823 40.73C32.5743 40.73 33.2943 40.934 33.9423 41.342C34.5903 41.738 35.0943 42.296 35.4543 43.016C35.8263 43.724 36.0123 44.522 36.0123 45.41C36.0123 46.31 35.8263 47.12 35.4543 47.84C35.0943 48.548 34.5903 49.106 33.9423 49.514C33.3063 49.922 32.5923 50.126 31.8003 50.126C31.1043 50.126 30.4623 49.964 29.8743 49.64C29.2983 49.304 28.8363 48.86 28.4883 48.308V53.06C28.4883 53.216 28.4343 53.342 28.3263 53.438C28.2303 53.546 28.1043 53.6 27.9483 53.6C27.7923 53.6 27.6603 53.546 27.5523 53.438C27.4563 53.342 27.4083 53.216 27.4083 53.06V41.324C27.4083 41.168 27.4563 41.036 27.5523 40.928C27.6603 40.82 27.7923 40.766 27.9483 40.766C28.1043 40.766 28.2303 40.82 28.3263 40.928C28.4343 41.036 28.4883 41.168 28.4883 41.324V42.548C28.8003 41.984 29.2503 41.54 29.8383 41.216C30.4263 40.892 31.0743 40.73 31.7823 40.73ZM31.6923 49.118C32.3163 49.118 32.8743 48.962 33.3663 48.65C33.8703 48.326 34.2603 47.882 34.5363 47.318C34.8243 46.754 34.9683 46.118 34.9683 45.41C34.9683 44.714 34.8243 44.09 34.5363 43.538C34.2603 42.974 33.8703 42.536 33.3663 42.224C32.8743 41.9 32.3163 41.738 31.6923 41.738C31.0563 41.738 30.4863 41.894 29.9823 42.206C29.4783 42.518 29.0883 42.956 28.8123 43.52C28.5363 44.072 28.3983 44.702 28.3983 45.41C28.3983 46.118 28.5363 46.754 28.8123 47.318C29.0883 47.882 29.4783 48.326 29.9823 48.65C30.4863 48.962 31.0563 49.118 31.6923 49.118ZM45.7065 40.802C45.8625 40.802 45.9885 40.856 46.0845 40.964C46.1925 41.072 46.2465 41.204 46.2465 41.36V49.46C46.2465 49.616 46.1925 49.748 46.0845 49.856C45.9885 49.952 45.8625 50 45.7065 50C45.5505 50 45.4185 49.952 45.3105 49.856C45.2145 49.748 45.1665 49.616 45.1665 49.46V48.254C44.8665 48.794 44.4165 49.25 43.8165 49.622C43.2165 49.994 42.5625 50.18 41.8545 50.18C41.0505 50.18 40.3245 49.97 39.6765 49.55C39.0405 49.13 38.5365 48.554 38.1645 47.822C37.8045 47.09 37.6245 46.268 37.6245 45.356C37.6245 44.444 37.8105 43.628 38.1825 42.908C38.5545 42.176 39.0585 41.606 39.6945 41.198C40.3425 40.79 41.0565 40.586 41.8365 40.586C42.5565 40.586 43.2165 40.76 43.8165 41.108C44.4165 41.456 44.8665 41.912 45.1665 42.476V41.36C45.1665 41.204 45.2145 41.072 45.3105 40.964C45.4185 40.856 45.5505 40.802 45.7065 40.802ZM41.9625 49.172C42.5865 49.172 43.1445 49.01 43.6365 48.686C44.1405 48.35 44.5305 47.894 44.8065 47.318C45.0945 46.73 45.2385 46.076 45.2385 45.356C45.2385 44.66 45.0945 44.024 44.8065 43.448C44.5305 42.872 44.1405 42.422 43.6365 42.098C43.1445 41.762 42.5865 41.594 41.9625 41.594C41.3385 41.594 40.7745 41.756 40.2705 42.08C39.7785 42.404 39.3885 42.854 39.1005 43.43C38.8245 43.994 38.6865 44.636 38.6865 45.356C38.6865 46.076 38.8245 46.73 39.1005 47.318C39.3765 47.894 39.7605 48.35 40.2525 48.686C40.7565 49.01 41.3265 49.172 41.9625 49.172ZM53.3666 40.586C53.6066 40.586 53.8226 40.634 54.0146 40.73C54.2066 40.826 54.3026 40.97 54.3026 41.162C54.3026 41.33 54.2546 41.468 54.1586 41.576C54.0626 41.672 53.9486 41.72 53.8166 41.72C53.7566 41.72 53.6366 41.69 53.4566 41.63C53.2886 41.57 53.1266 41.54 52.9706 41.54C52.5266 41.54 52.0826 41.714 51.6386 42.062C51.2066 42.398 50.8466 42.836 50.5586 43.376C50.2826 43.916 50.1446 44.462 50.1446 45.014V49.46C50.1446 49.616 50.0906 49.748 49.9826 49.856C49.8866 49.952 49.7606 50 49.6046 50C49.4486 50 49.3166 49.952 49.2086 49.856C49.1126 49.748 49.0646 49.616 49.0646 49.46V41.396C49.0646 41.24 49.1126 41.114 49.2086 41.018C49.3166 40.91 49.4486 40.856 49.6046 40.856C49.7606 40.856 49.8866 40.91 49.9826 41.018C50.0906 41.114 50.1446 41.24 50.1446 41.396V42.98C50.4206 42.296 50.8346 41.732 51.3866 41.288C51.9506 40.832 52.6106 40.598 53.3666 40.586ZM63.2494 40.802C63.4054 40.802 63.5314 40.856 63.6274 40.964C63.7354 41.072 63.7894 41.204 63.7894 41.36V49.46C63.7894 49.616 63.7354 49.748 63.6274 49.856C63.5314 49.952 63.4054 50 63.2494 50C63.0934 50 62.9614 49.952 62.8534 49.856C62.7574 49.748 62.7094 49.616 62.7094 49.46V48.254C62.4094 48.794 61.9594 49.25 61.3594 49.622C60.7594 49.994 60.1054 50.18 59.3974 50.18C58.5934 50.18 57.8674 49.97 57.2194 49.55C56.5834 49.13 56.0794 48.554 55.7074 47.822C55.3474 47.09 55.1674 46.268 55.1674 45.356C55.1674 44.444 55.3534 43.628 55.7254 42.908C56.0974 42.176 56.6014 41.606 57.2374 41.198C57.8854 40.79 58.5994 40.586 59.3794 40.586C60.0994 40.586 60.7594 40.76 61.3594 41.108C61.9594 41.456 62.4094 41.912 62.7094 42.476V41.36C62.7094 41.204 62.7574 41.072 62.8534 40.964C62.9614 40.856 63.0934 40.802 63.2494 40.802ZM59.5054 49.172C60.1294 49.172 60.6874 49.01 61.1794 48.686C61.6834 48.35 62.0734 47.894 62.3494 47.318C62.6374 46.73 62.7814 46.076 62.7814 45.356C62.7814 44.66 62.6374 44.024 62.3494 43.448C62.0734 42.872 61.6834 42.422 61.1794 42.098C60.6874 41.762 60.1294 41.594 59.5054 41.594C58.8814 41.594 58.3174 41.756 57.8134 42.08C57.3214 42.404 56.9314 42.854 56.6434 43.43C56.3674 43.994 56.2294 44.636 56.2294 45.356C56.2294 46.076 56.3674 46.73 56.6434 47.318C56.9194 47.894 57.3034 48.35 57.7954 48.686C58.2994 49.01 58.8694 49.172 59.5054 49.172ZM71.0074 48.542C70.9114 48.386 70.8634 48.254 70.8634 48.146C70.8634 47.99 70.9414 47.87 71.0974 47.786C71.1694 47.714 71.2654 47.678 71.3854 47.678C71.5294 47.678 71.6614 47.738 71.7814 47.858C72.4894 48.794 73.4314 49.262 74.6074 49.262C75.1834 49.262 75.6814 49.13 76.1014 48.866C76.5334 48.59 76.7494 48.194 76.7494 47.678C76.7494 47.174 76.5514 46.796 76.1554 46.544C75.7594 46.292 75.2074 46.076 74.4994 45.896C73.5034 45.644 72.7234 45.32 72.1594 44.924C71.5954 44.516 71.3134 43.922 71.3134 43.142C71.3134 42.65 71.4514 42.212 71.7274 41.828C72.0034 41.432 72.3754 41.126 72.8434 40.91C73.3234 40.694 73.8634 40.586 74.4634 40.586C74.9794 40.586 75.4954 40.688 76.0114 40.892C76.5394 41.084 76.9894 41.396 77.3614 41.828C77.4694 41.912 77.5234 42.032 77.5234 42.188C77.5234 42.332 77.4634 42.458 77.3434 42.566C77.2594 42.638 77.1514 42.674 77.0194 42.674C76.8994 42.674 76.7914 42.626 76.6954 42.53C76.4074 42.206 76.0654 41.96 75.6694 41.792C75.2734 41.624 74.8474 41.54 74.3914 41.54C73.8274 41.54 73.3414 41.672 72.9334 41.936C72.5374 42.2 72.3394 42.596 72.3394 43.124C72.3634 43.604 72.5794 43.97 72.9874 44.222C73.4074 44.474 74.0194 44.702 74.8234 44.906C75.4474 45.062 75.9634 45.236 76.3714 45.428C76.7794 45.62 77.1094 45.89 77.3614 46.238C77.6254 46.586 77.7574 47.048 77.7574 47.624C77.7574 48.404 77.4454 49.028 76.8214 49.496C76.1974 49.952 75.4234 50.18 74.4994 50.18C73.0354 50.18 71.8714 49.634 71.0074 48.542ZM88.4629 45.392C88.4629 46.292 88.2649 47.108 87.8689 47.84C87.4729 48.572 86.9269 49.148 86.2309 49.568C85.5349 49.976 84.7609 50.18 83.9089 50.18C83.0569 50.18 82.2829 49.976 81.5869 49.568C80.8909 49.148 80.3449 48.572 79.9489 47.84C79.5529 47.108 79.3549 46.292 79.3549 45.392C79.3549 44.492 79.5529 43.676 79.9489 42.944C80.3449 42.212 80.8909 41.636 81.5869 41.216C82.2829 40.796 83.0569 40.586 83.9089 40.586C84.7609 40.586 85.5349 40.796 86.2309 41.216C86.9269 41.636 87.4729 42.212 87.8689 42.944C88.2649 43.676 88.4629 44.492 88.4629 45.392ZM87.3829 45.392C87.3829 44.672 87.2329 44.024 86.9329 43.448C86.6329 42.872 86.2129 42.422 85.6729 42.098C85.1449 41.762 84.5569 41.594 83.9089 41.594C83.2609 41.594 82.6729 41.762 82.1449 42.098C81.6169 42.422 81.1969 42.872 80.8849 43.448C80.5849 44.024 80.4349 44.672 80.4349 45.392C80.4349 46.1 80.5849 46.742 80.8849 47.318C81.1969 47.894 81.6169 48.35 82.1449 48.686C82.6729 49.01 83.2609 49.172 83.9089 49.172C84.5569 49.172 85.1449 49.01 85.6729 48.686C86.2129 48.362 86.6329 47.912 86.9329 47.336C87.2329 46.76 87.3829 46.112 87.3829 45.392ZM94.974 40.586C95.214 40.586 95.43 40.634 95.622 40.73C95.814 40.826 95.91 40.97 95.91 41.162C95.91 41.33 95.862 41.468 95.766 41.576C95.67 41.672 95.556 41.72 95.424 41.72C95.364 41.72 95.244 41.69 95.064 41.63C94.896 41.57 94.734 41.54 94.578 41.54C94.134 41.54 93.69 41.714 93.246 42.062C92.814 42.398 92.454 42.836 92.166 43.376C91.89 43.916 91.752 44.462 91.752 45.014V49.46C91.752 49.616 91.698 49.748 91.59 49.856C91.494 49.952 91.368 50 91.212 50C91.056 50 90.924 49.952 90.816 49.856C90.72 49.748 90.672 49.616 90.672 49.46V41.396C90.672 41.24 90.72 41.114 90.816 41.018C90.924 40.91 91.056 40.856 91.212 40.856C91.368 40.856 91.494 40.91 91.59 41.018C91.698 41.114 91.752 41.24 91.752 41.396V42.98C92.028 42.296 92.442 41.732 92.994 41.288C93.558 40.832 94.218 40.598 94.974 40.586ZM99.3978 41.846V47.876C99.3978 48.332 99.4818 48.644 99.6498 48.812C99.8178 48.968 100.04 49.046 100.316 49.046C100.388 49.046 100.478 49.034 100.586 49.01C100.694 48.974 100.778 48.956 100.838 48.956C100.946 48.956 101.036 49.004 101.108 49.1C101.192 49.184 101.234 49.286 101.234 49.406C101.234 49.574 101.138 49.718 100.946 49.838C100.754 49.946 100.526 50 100.262 50C99.9378 50 99.6498 49.97 99.3978 49.91C99.1458 49.85 98.8998 49.67 98.6598 49.37C98.4318 49.07 98.3178 48.59 98.3178 47.93V41.846H97.0038C96.8598 41.846 96.7338 41.798 96.6258 41.702C96.5298 41.606 96.4818 41.486 96.4818 41.342C96.4818 41.198 96.5298 41.078 96.6258 40.982C96.7338 40.886 96.8598 40.838 97.0038 40.838H98.3178V38.84C98.3178 38.684 98.3658 38.558 98.4618 38.462C98.5698 38.354 98.7018 38.3 98.8578 38.3C99.0138 38.3 99.1398 38.354 99.2358 38.462C99.3438 38.558 99.3978 38.684 99.3978 38.84V40.838H101.198C101.33 40.838 101.444 40.892 101.54 41C101.648 41.108 101.702 41.228 101.702 41.36C101.702 41.504 101.654 41.624 101.558 41.72C101.462 41.804 101.342 41.846 101.198 41.846H99.3978ZM111.386 44.87C111.386 45.014 111.332 45.14 111.224 45.248C111.116 45.344 110.99 45.392 110.846 45.392H104.042C104.042 46.112 104.186 46.76 104.474 47.336C104.774 47.9 105.194 48.35 105.734 48.686C106.286 49.01 106.934 49.172 107.678 49.172C108.254 49.172 108.77 49.052 109.226 48.812C109.682 48.572 110.048 48.266 110.324 47.894C110.456 47.786 110.582 47.732 110.702 47.732C110.822 47.732 110.93 47.78 111.026 47.876C111.122 47.972 111.17 48.08 111.17 48.2C111.17 48.332 111.11 48.458 110.99 48.578C110.606 49.046 110.12 49.43 109.532 49.73C108.956 50.03 108.344 50.18 107.696 50.18C106.772 50.18 105.956 49.982 105.248 49.586C104.54 49.19 103.988 48.638 103.592 47.93C103.196 47.21 102.998 46.382 102.998 45.446C102.998 44.462 103.19 43.604 103.574 42.872C103.97 42.128 104.492 41.564 105.14 41.18C105.788 40.784 106.478 40.586 107.21 40.586C107.93 40.586 108.602 40.754 109.226 41.09C109.862 41.426 110.378 41.918 110.774 42.566C111.17 43.214 111.374 43.982 111.386 44.87ZM107.21 41.63C106.514 41.63 105.866 41.87 105.266 42.35C104.678 42.83 104.3 43.52 104.132 44.42H110.27V44.276C110.21 43.736 110.03 43.268 109.73 42.872C109.43 42.464 109.052 42.158 108.596 41.954C108.152 41.738 107.69 41.63 107.21 41.63ZM121.152 40.802C121.308 40.802 121.434 40.856 121.53 40.964C121.638 41.072 121.692 41.204 121.692 41.36V49.46C121.692 49.616 121.638 49.748 121.53 49.856C121.434 49.952 121.308 50 121.152 50C120.996 50 120.864 49.952 120.756 49.856C120.66 49.748 120.612 49.616 120.612 49.46V48.254C120.312 48.794 119.862 49.25 119.262 49.622C118.662 49.994 118.008 50.18 117.3 50.18C116.496 50.18 115.77 49.97 115.122 49.55C114.486 49.13 113.982 48.554 113.61 47.822C113.25 47.09 113.07 46.268 113.07 45.356C113.07 44.444 113.256 43.628 113.628 42.908C114 42.176 114.504 41.606 115.14 41.198C115.788 40.79 116.502 40.586 117.282 40.586C118.002 40.586 118.662 40.76 119.262 41.108C119.862 41.456 120.312 41.912 120.612 42.476V41.36C120.612 41.204 120.66 41.072 120.756 40.964C120.864 40.856 120.996 40.802 121.152 40.802ZM117.408 49.172C118.032 49.172 118.59 49.01 119.082 48.686C119.586 48.35 119.976 47.894 120.252 47.318C120.54 46.73 120.684 46.076 120.684 45.356C120.684 44.66 120.54 44.024 120.252 43.448C119.976 42.872 119.586 42.422 119.082 42.098C118.59 41.762 118.032 41.594 117.408 41.594C116.784 41.594 116.22 41.756 115.716 42.08C115.224 42.404 114.834 42.854 114.546 43.43C114.27 43.994 114.132 44.636 114.132 45.356C114.132 46.076 114.27 46.73 114.546 47.318C114.822 47.894 115.206 48.35 115.698 48.686C116.202 49.01 116.772 49.172 117.408 49.172ZM128.812 40.586C129.052 40.586 129.268 40.634 129.46 40.73C129.652 40.826 129.748 40.97 129.748 41.162C129.748 41.33 129.7 41.468 129.604 41.576C129.508 41.672 129.394 41.72 129.262 41.72C129.202 41.72 129.082 41.69 128.902 41.63C128.734 41.57 128.572 41.54 128.416 41.54C127.972 41.54 127.528 41.714 127.084 42.062C126.652 42.398 126.292 42.836 126.004 43.376C125.728 43.916 125.59 44.462 125.59 45.014V49.46C125.59 49.616 125.536 49.748 125.428 49.856C125.332 49.952 125.206 50 125.05 50C124.894 50 124.762 49.952 124.654 49.856C124.558 49.748 124.51 49.616 124.51 49.46V41.396C124.51 41.24 124.558 41.114 124.654 41.018C124.762 40.91 124.894 40.856 125.05 40.856C125.206 40.856 125.332 40.91 125.428 41.018C125.536 41.114 125.59 41.24 125.59 41.396V42.98C125.866 42.296 126.28 41.732 126.832 41.288C127.396 40.832 128.056 40.598 128.812 40.586ZM29.8546 63.856C30.0106 63.856 30.1366 63.91 30.2326 64.018C30.3406 64.114 30.3946 64.24 30.3946 64.396V69.472C30.3946 70.648 30.0646 71.554 29.4046 72.19C28.7446 72.814 27.8326 73.126 26.6686 73.126C25.5166 73.126 24.6106 72.814 23.9506 72.19C23.3026 71.554 22.9786 70.648 22.9786 69.472V64.396C22.9786 64.24 23.0266 64.114 23.1226 64.018C23.2306 63.91 23.3626 63.856 23.5186 63.856C23.6746 63.856 23.8006 63.91 23.8966 64.018C24.0046 64.114 24.0586 64.24 24.0586 64.396V69.472C24.0586 70.336 24.2866 70.996 24.7426 71.452C25.1986 71.896 25.8406 72.118 26.6686 72.118C27.5086 72.118 28.1566 71.896 28.6126 71.452C29.0806 70.996 29.3146 70.336 29.3146 69.472V64.396C29.3146 64.24 29.3626 64.114 29.4586 64.018C29.5666 63.91 29.6986 63.856 29.8546 63.856ZM43.6667 63.73C44.7467 63.73 45.5387 64.066 46.0427 64.738C46.5587 65.398 46.8167 66.274 46.8167 67.366V72.46C46.8167 72.616 46.7627 72.748 46.6547 72.856C46.5587 72.952 46.4327 73 46.2767 73C46.1207 73 45.9887 72.952 45.8807 72.856C45.7847 72.748 45.7367 72.616 45.7367 72.46V67.42C45.7367 66.628 45.5447 65.986 45.1607 65.494C44.7887 64.99 44.2067 64.738 43.4147 64.738C42.9107 64.738 42.4307 64.858 41.9747 65.098C41.5307 65.338 41.1707 65.668 40.8947 66.088C40.6187 66.496 40.4807 66.94 40.4807 67.42V72.46C40.4807 72.616 40.4267 72.748 40.3187 72.856C40.2227 72.952 40.0967 73 39.9407 73C39.7847 73 39.6527 72.952 39.5447 72.856C39.4487 72.748 39.4007 72.616 39.4007 72.46V67.366C39.4007 66.586 39.2207 65.956 38.8607 65.476C38.5007 64.984 37.9367 64.738 37.1687 64.738C36.6767 64.738 36.2087 64.858 35.7647 65.098C35.3327 65.338 34.9787 65.662 34.7027 66.07C34.4387 66.466 34.3067 66.898 34.3067 67.366V72.46C34.3067 72.616 34.2527 72.748 34.1447 72.856C34.0487 72.952 33.9227 73 33.7667 73C33.6107 73 33.4787 72.952 33.3707 72.856C33.2747 72.748 33.2267 72.616 33.2267 72.46V64.396C33.2267 64.24 33.2747 64.114 33.3707 64.018C33.4787 63.91 33.6107 63.856 33.7667 63.856C33.9227 63.856 34.0487 63.91 34.1447 64.018C34.2527 64.114 34.3067 64.24 34.3067 64.396V65.44C34.6307 64.948 35.0687 64.54 35.6207 64.216C36.1727 63.892 36.7547 63.73 37.3667 63.73C38.0627 63.73 38.6627 63.898 39.1667 64.234C39.6707 64.57 40.0307 65.062 40.2467 65.71C40.4987 65.182 40.9607 64.72 41.6327 64.324C42.3047 63.928 42.9827 63.73 43.6667 63.73ZM57.1147 63.802C57.2707 63.802 57.3967 63.856 57.4927 63.964C57.6007 64.072 57.6547 64.204 57.6547 64.36V72.46C57.6547 72.616 57.6007 72.748 57.4927 72.856C57.3967 72.952 57.2707 73 57.1147 73C56.9587 73 56.8267 72.952 56.7187 72.856C56.6227 72.748 56.5747 72.616 56.5747 72.46V71.254C56.2747 71.794 55.8247 72.25 55.2247 72.622C54.6247 72.994 53.9707 73.18 53.2627 73.18C52.4587 73.18 51.7327 72.97 51.0847 72.55C50.4487 72.13 49.9447 71.554 49.5727 70.822C49.2127 70.09 49.0327 69.268 49.0327 68.356C49.0327 67.444 49.2187 66.628 49.5907 65.908C49.9627 65.176 50.4667 64.606 51.1027 64.198C51.7507 63.79 52.4647 63.586 53.2447 63.586C53.9647 63.586 54.6247 63.76 55.2247 64.108C55.8247 64.456 56.2747 64.912 56.5747 65.476V64.36C56.5747 64.204 56.6227 64.072 56.7187 63.964C56.8267 63.856 56.9587 63.802 57.1147 63.802ZM53.3707 72.172C53.9947 72.172 54.5527 72.01 55.0447 71.686C55.5487 71.35 55.9387 70.894 56.2147 70.318C56.5027 69.73 56.6467 69.076 56.6467 68.356C56.6467 67.66 56.5027 67.024 56.2147 66.448C55.9387 65.872 55.5487 65.422 55.0447 65.098C54.5527 64.762 53.9947 64.594 53.3707 64.594C52.7467 64.594 52.1827 64.756 51.6787 65.08C51.1867 65.404 50.7967 65.854 50.5087 66.43C50.2327 66.994 50.0947 67.636 50.0947 68.356C50.0947 69.076 50.2327 69.73 50.5087 70.318C50.7847 70.894 51.1687 71.35 51.6607 71.686C52.1647 72.01 52.7347 72.172 53.3707 72.172ZM72.8647 63.766C73.0207 63.766 73.1467 63.82 73.2427 63.928C73.3507 64.036 73.4047 64.168 73.4047 64.324V76.06C73.4047 76.216 73.3507 76.342 73.2427 76.438C73.1467 76.546 73.0207 76.6 72.8647 76.6C72.7087 76.6 72.5767 76.546 72.4687 76.438C72.3727 76.342 72.3247 76.216 72.3247 76.06V71.2C72.0247 71.752 71.5747 72.22 70.9747 72.604C70.3867 72.988 69.7327 73.18 69.0127 73.18C68.2207 73.18 67.5007 72.976 66.8527 72.568C66.2167 72.148 65.7127 71.572 65.3407 70.84C64.9687 70.108 64.7827 69.286 64.7827 68.374C64.7827 67.474 64.9687 66.658 65.3407 65.926C65.7127 65.194 66.2167 64.624 66.8527 64.216C67.5007 63.796 68.2147 63.586 68.9947 63.586C69.7027 63.586 70.3567 63.766 70.9567 64.126C71.5567 64.474 72.0127 64.93 72.3247 65.494V64.324C72.3247 64.168 72.3727 64.036 72.4687 63.928C72.5767 63.82 72.7087 63.766 72.8647 63.766ZM69.1207 72.172C69.7447 72.172 70.3027 72.01 70.7947 71.686C71.2987 71.362 71.6887 70.912 71.9647 70.336C72.2527 69.748 72.3967 69.094 72.3967 68.374C72.3967 67.666 72.2527 67.024 71.9647 66.448C71.6887 65.872 71.2987 65.422 70.7947 65.098C70.3027 64.762 69.7447 64.594 69.1207 64.594C68.4967 64.594 67.9327 64.762 67.4287 65.098C66.9367 65.422 66.5467 65.872 66.2587 66.448C65.9827 67.024 65.8447 67.666 65.8447 68.374C65.8447 69.094 65.9827 69.742 66.2587 70.318C66.5467 70.894 66.9367 71.35 67.4287 71.686C67.9327 72.01 68.4967 72.172 69.1207 72.172ZM83.0988 63.856C83.2548 63.856 83.3808 63.91 83.4768 64.018C83.5848 64.114 83.6388 64.24 83.6388 64.396V69.472C83.6388 70.648 83.3088 71.554 82.6488 72.19C81.9888 72.814 81.0768 73.126 79.9128 73.126C78.7608 73.126 77.8548 72.814 77.1948 72.19C76.5468 71.554 76.2228 70.648 76.2228 69.472V64.396C76.2228 64.24 76.2708 64.114 76.3668 64.018C76.4748 63.91 76.6068 63.856 76.7628 63.856C76.9188 63.856 77.0448 63.91 77.1408 64.018C77.2488 64.114 77.3028 64.24 77.3028 64.396V69.472C77.3028 70.336 77.5308 70.996 77.9868 71.452C78.4428 71.896 79.0848 72.118 79.9128 72.118C80.7528 72.118 81.4008 71.896 81.8568 71.452C82.3248 70.996 82.5588 70.336 82.5588 69.472V64.396C82.5588 64.24 82.6068 64.114 82.7028 64.018C82.8108 63.91 82.9428 63.856 83.0988 63.856ZM94.2468 67.87C94.2468 68.014 94.1928 68.14 94.0848 68.248C93.9768 68.344 93.8508 68.392 93.7068 68.392H86.9028C86.9028 69.112 87.0468 69.76 87.3348 70.336C87.6348 70.9 88.0548 71.35 88.5948 71.686C89.1468 72.01 89.7948 72.172 90.5388 72.172C91.1148 72.172 91.6308 72.052 92.0868 71.812C92.5428 71.572 92.9088 71.266 93.1848 70.894C93.3168 70.786 93.4428 70.732 93.5628 70.732C93.6828 70.732 93.7908 70.78 93.8868 70.876C93.9828 70.972 94.0308 71.08 94.0308 71.2C94.0308 71.332 93.9708 71.458 93.8508 71.578C93.4668 72.046 92.9808 72.43 92.3928 72.73C91.8168 73.03 91.2048 73.18 90.5568 73.18C89.6328 73.18 88.8168 72.982 88.1088 72.586C87.4008 72.19 86.8488 71.638 86.4528 70.93C86.0568 70.21 85.8588 69.382 85.8588 68.446C85.8588 67.462 86.0508 66.604 86.4348 65.872C86.8308 65.128 87.3528 64.564 88.0008 64.18C88.6488 63.784 89.3388 63.586 90.0708 63.586C90.7908 63.586 91.4628 63.754 92.0868 64.09C92.7228 64.426 93.2388 64.918 93.6348 65.566C94.0308 66.214 94.2348 66.982 94.2468 67.87ZM90.0708 64.63C89.3748 64.63 88.7268 64.87 88.1268 65.35C87.5388 65.83 87.1608 66.52 86.9928 67.42H93.1308V67.276C93.0708 66.736 92.8908 66.268 92.5908 65.872C92.2908 65.464 91.9128 65.158 91.4568 64.954C91.0128 64.738 90.5508 64.63 90.0708 64.63ZM95.9508 71.542C95.8548 71.386 95.8068 71.254 95.8068 71.146C95.8068 70.99 95.8848 70.87 96.0408 70.786C96.1128 70.714 96.2088 70.678 96.3288 70.678C96.4728 70.678 96.6048 70.738 96.7248 70.858C97.4328 71.794 98.3748 72.262 99.5508 72.262C100.127 72.262 100.625 72.13 101.045 71.866C101.477 71.59 101.693 71.194 101.693 70.678C101.693 70.174 101.495 69.796 101.099 69.544C100.703 69.292 100.151 69.076 99.4428 68.896C98.4468 68.644 97.6668 68.32 97.1028 67.924C96.5388 67.516 96.2568 66.922 96.2568 66.142C96.2568 65.65 96.3948 65.212 96.6708 64.828C96.9468 64.432 97.3188 64.126 97.7868 63.91C98.2668 63.694 98.8068 63.586 99.4068 63.586C99.9228 63.586 100.439 63.688 100.955 63.892C101.483 64.084 101.933 64.396 102.305 64.828C102.413 64.912 102.467 65.032 102.467 65.188C102.467 65.332 102.407 65.458 102.287 65.566C102.203 65.638 102.095 65.674 101.963 65.674C101.843 65.674 101.735 65.626 101.639 65.53C101.351 65.206 101.009 64.96 100.613 64.792C100.217 64.624 99.7908 64.54 99.3348 64.54C98.7708 64.54 98.2848 64.672 97.8768 64.936C97.4808 65.2 97.2828 65.596 97.2828 66.124C97.3068 66.604 97.5228 66.97 97.9308 67.222C98.3508 67.474 98.9628 67.702 99.7668 67.906C100.391 68.062 100.907 68.236 101.315 68.428C101.723 68.62 102.053 68.89 102.305 69.238C102.569 69.586 102.701 70.048 102.701 70.624C102.701 71.404 102.389 72.028 101.765 72.496C101.141 72.952 100.367 73.18 99.4428 73.18C97.9788 73.18 96.8148 72.634 95.9508 71.542ZM106.71 64.846V70.876C106.71 71.332 106.794 71.644 106.962 71.812C107.13 71.968 107.352 72.046 107.628 72.046C107.7 72.046 107.79 72.034 107.898 72.01C108.006 71.974 108.09 71.956 108.15 71.956C108.258 71.956 108.348 72.004 108.42 72.1C108.504 72.184 108.546 72.286 108.546 72.406C108.546 72.574 108.45 72.718 108.258 72.838C108.066 72.946 107.838 73 107.574 73C107.25 73 106.962 72.97 106.71 72.91C106.458 72.85 106.212 72.67 105.972 72.37C105.744 72.07 105.63 71.59 105.63 70.93V64.846H104.316C104.172 64.846 104.046 64.798 103.938 64.702C103.842 64.606 103.794 64.486 103.794 64.342C103.794 64.198 103.842 64.078 103.938 63.982C104.046 63.886 104.172 63.838 104.316 63.838H105.63V61.84C105.63 61.684 105.678 61.558 105.774 61.462C105.882 61.354 106.014 61.3 106.17 61.3C106.326 61.3 106.452 61.354 106.548 61.462C106.656 61.558 106.71 61.684 106.71 61.84V63.838H108.51C108.642 63.838 108.756 63.892 108.852 64C108.96 64.108 109.014 64.228 109.014 64.36C109.014 64.504 108.966 64.624 108.87 64.72C108.774 64.804 108.654 64.846 108.51 64.846H106.71ZM118.48 63.802C118.636 63.802 118.762 63.856 118.858 63.964C118.966 64.072 119.02 64.204 119.02 64.36V72.46C119.02 72.616 118.966 72.748 118.858 72.856C118.762 72.952 118.636 73 118.48 73C118.324 73 118.192 72.952 118.084 72.856C117.988 72.748 117.94 72.616 117.94 72.46V71.254C117.64 71.794 117.19 72.25 116.59 72.622C115.99 72.994 115.336 73.18 114.628 73.18C113.824 73.18 113.098 72.97 112.45 72.55C111.814 72.13 111.31 71.554 110.938 70.822C110.578 70.09 110.398 69.268 110.398 68.356C110.398 67.444 110.584 66.628 110.956 65.908C111.328 65.176 111.832 64.606 112.468 64.198C113.116 63.79 113.83 63.586 114.61 63.586C115.33 63.586 115.99 63.76 116.59 64.108C117.19 64.456 117.64 64.912 117.94 65.476V64.36C117.94 64.204 117.988 64.072 118.084 63.964C118.192 63.856 118.324 63.802 118.48 63.802ZM114.736 72.172C115.36 72.172 115.918 72.01 116.41 71.686C116.914 71.35 117.304 70.894 117.58 70.318C117.868 69.73 118.012 69.076 118.012 68.356C118.012 67.66 117.868 67.024 117.58 66.448C117.304 65.872 116.914 65.422 116.41 65.098C115.918 64.762 115.36 64.594 114.736 64.594C114.112 64.594 113.548 64.756 113.044 65.08C112.552 65.404 112.162 65.854 111.874 66.43C111.598 66.994 111.46 67.636 111.46 68.356C111.46 69.076 111.598 69.73 111.874 70.318C112.15 70.894 112.534 71.35 113.026 71.686C113.53 72.01 114.1 72.172 114.736 72.172ZM112.504 62.542C112.216 62.542 112.072 62.38 112.072 62.056L112.108 61.768C112.192 61.384 112.378 61.084 112.666 60.868C112.966 60.652 113.32 60.544 113.728 60.544C113.932 60.544 114.148 60.598 114.376 60.706C114.604 60.802 114.862 60.946 115.15 61.138C115.402 61.294 115.6 61.408 115.744 61.48C115.888 61.552 116.026 61.588 116.158 61.588C116.506 61.588 116.698 61.36 116.734 60.904C116.722 60.772 116.752 60.664 116.824 60.58C116.908 60.496 117.016 60.454 117.148 60.454C117.46 60.454 117.616 60.634 117.616 60.994C117.616 61.09 117.61 61.162 117.598 61.21C117.526 61.606 117.352 61.918 117.076 62.146C116.812 62.374 116.464 62.488 116.032 62.488C115.852 62.488 115.66 62.446 115.456 62.362C115.252 62.266 115.006 62.128 114.718 61.948C114.43 61.78 114.202 61.66 114.034 61.588C113.878 61.516 113.734 61.48 113.602 61.48C113.242 61.48 113.014 61.702 112.918 62.146C112.918 62.278 112.876 62.38 112.792 62.452C112.72 62.512 112.624 62.542 112.504 62.542ZM130.334 68.392C130.334 69.292 130.136 70.108 129.74 70.84C129.344 71.572 128.798 72.148 128.102 72.568C127.406 72.976 126.632 73.18 125.78 73.18C124.928 73.18 124.154 72.976 123.458 72.568C122.762 72.148 122.216 71.572 121.82 70.84C121.424 70.108 121.226 69.292 121.226 68.392C121.226 67.492 121.424 66.676 121.82 65.944C122.216 65.212 122.762 64.636 123.458 64.216C124.154 63.796 124.928 63.586 125.78 63.586C126.632 63.586 127.406 63.796 128.102 64.216C128.798 64.636 129.344 65.212 129.74 65.944C130.136 66.676 130.334 67.492 130.334 68.392ZM129.254 68.392C129.254 67.672 129.104 67.024 128.804 66.448C128.504 65.872 128.084 65.422 127.544 65.098C127.016 64.762 126.428 64.594 125.78 64.594C125.132 64.594 124.544 64.762 124.016 65.098C123.488 65.422 123.068 65.872 122.756 66.448C122.456 67.024 122.306 67.672 122.306 68.392C122.306 69.1 122.456 69.742 122.756 70.318C123.068 70.894 123.488 71.35 124.016 71.686C124.544 72.01 125.132 72.172 125.78 72.172C126.428 72.172 127.016 72.01 127.544 71.686C128.084 71.362 128.504 70.912 128.804 70.336C129.104 69.76 129.254 69.112 129.254 68.392ZM132.795 69.472C132.579 69.472 132.453 69.346 132.417 69.094L132.219 61.138C132.219 60.91 132.267 60.73 132.363 60.598C132.459 60.466 132.603 60.4 132.795 60.4C132.987 60.4 133.131 60.472 133.227 60.616C133.323 60.748 133.365 60.922 133.353 61.138L133.155 69.094C133.143 69.346 133.023 69.472 132.795 69.472ZM132.741 73C132.525 73 132.363 72.94 132.255 72.82C132.147 72.7 132.093 72.532 132.093 72.316V71.92C132.093 71.704 132.147 71.536 132.255 71.416C132.363 71.296 132.525 71.236 132.741 71.236H132.849C133.053 71.236 133.209 71.296 133.317 71.416C133.425 71.536 133.479 71.704 133.479 71.92V72.316C133.479 72.532 133.425 72.7 133.317 72.82C133.209 72.94 133.053 73 132.849 73H132.741Z" fill="black"/>
<path d="M125 87C126.2 94.6 132.5 98.8333 135.5 100C121.9 100 111.5 91.3333 108 87C113.167 83.8333 123.8 79.4 125 87Z" fill="#C4C4C4"/>
<defs>
<linearGradient id="paint0_linear" x1="189.178" y1="278.875" x2="131.54" y2="307.825" gradientUnits="userSpaceOnUse">
<stop/>
<stop offset="1" stop-opacity="0"/>
</linearGradient>
<linearGradient id="paint1_linear" x1="302.46" y1="187.296" x2="280.293" y2="247.867" gradientUnits="userSpaceOnUse">
<stop/>
<stop offset="1" stop-opacity="0"/>
</linearGradient>
<linearGradient id="paint2_linear" x1="245.086" y1="282.128" x2="281.89" y2="355.404" gradientUnits="userSpaceOnUse">
<stop/>
<stop offset="1" stop-opacity="0"/>
</linearGradient>
<linearGradient id="paint3_linear" x1="31.5" y1="0" x2="31.5" y2="83" gradientUnits="userSpaceOnUse">
<stop/>
<stop offset="1" stop-opacity="0"/>
</linearGradient>
<linearGradient id="paint4_linear" x1="70.5" y1="0" x2="70.5" y2="78" gradientUnits="userSpaceOnUse">
<stop stop-color="white"/>
<stop offset="1" stop-color="white" stop-opacity="0"/>
</linearGradient>
</defs>
</svg>
