<svg width="350" viewBox="0 0 501 515" fill="none" xmlns="http://www.w3.org/2000/svg">
<path d="M250 39C292.457 39 333.823 52.4105 368.168 77.3087C402.512 102.207 428.071 137.314 441.18 177.596L250 239.5V39Z" fill="#0E6EC7"/>
<path d="M441.353 177.382C454.457 217.712 454.454 261.156 441.344 301.485C428.235 341.813 402.691 376.955 368.377 401.87L250.42 239.42L441.353 177.382Z" fill="#FD139F"/>
<path d="M368.423 401.837C334.116 426.763 292.797 440.185 250.392 440.179C207.986 440.173 166.671 426.739 132.371 401.804L250.42 239.42L368.423 401.837Z" fill="#F5F17E"/>
<path d="M59.4875 177.382C46.3834 217.712 46.3864 261.156 59.4962 301.485C72.606 341.813 98.1491 376.955 132.463 401.87L250.42 239.42L59.4875 177.382Z" fill="#39F963"/>
<path d="M250 39C207.541 39 166.172 52.4123 131.826 77.3134C97.4798 102.215 71.9212 137.326 58.8151 177.611L250 239.5V39Z" fill="#F92D2D"/>
<ellipse cx="250" cy="237" rx="209" ry="198" fill="black" style="mix-blend-mode:soft-light"/>
<g filter="url(#filter0_d)">
<path d="M250 454.5C368.983 454.5 465.5 358.275 465.5 239.5C465.5 120.725 368.983 24.5 250 24.5C131.017 24.5 34.5 120.725 34.5 239.5C34.5 358.275 131.017 454.5 250 454.5Z" stroke="#322F46" stroke-width="29"/>
</g>
<g filter="url(#filter1_d)">
<path d="M278.181 177.757C278.455 177.38 278.797 177.164 279.206 177.111C279.602 177.049 279.995 177.159 280.386 177.444L292.36 186.143C292.737 186.417 292.956 186.74 293.015 187.113C293.074 187.485 292.976 187.847 292.721 188.197C292.466 188.548 292.158 188.746 291.795 188.792C291.432 188.837 291.062 188.723 290.685 188.448L282.352 182.394L286.366 190.564C286.545 190.942 286.641 191.278 286.652 191.575C286.649 191.862 286.555 192.133 286.369 192.389C286.183 192.646 285.954 192.819 285.682 192.91C285.41 193.001 285.06 193.014 284.632 192.951L275.708 191.751L283.94 197.732C284.304 197.996 284.522 198.32 284.595 198.702C284.664 199.061 284.571 199.416 284.316 199.766C284.061 200.117 283.752 200.315 283.39 200.361C283.027 200.406 282.657 200.292 282.279 200.017L270.306 191.318C269.915 191.034 269.683 190.701 269.611 190.319C269.535 189.913 269.634 189.521 269.908 189.144C270.29 188.618 270.879 188.417 271.674 188.542L283.492 190.268L278.184 179.582C277.819 178.864 277.819 178.256 278.181 177.757ZM288.518 172.418C289.518 171.043 290.601 170.275 291.769 170.113C292.933 169.929 294.209 170.341 295.598 171.35L300.533 174.936C300.897 175.2 301.109 175.519 301.168 175.891C301.213 176.254 301.099 176.624 300.824 177.002C300.57 177.352 300.251 177.564 299.869 177.636C299.496 177.695 299.135 177.597 298.784 177.343L298.339 177.02C298.699 177.631 298.846 178.294 298.78 179.008C298.724 179.709 298.461 180.383 297.99 181.03C297.51 181.691 296.939 182.193 296.278 182.536C295.616 182.88 294.937 183.035 294.24 183.002C293.543 182.97 292.904 182.743 292.324 182.321C291.596 181.792 291.155 181.194 291.002 180.526C290.858 179.845 290.996 179.018 291.414 178.045C291.833 177.072 292.576 175.85 293.644 174.38L294.011 173.875L293.546 173.537C292.885 173.057 292.304 172.851 291.801 172.918C291.286 172.976 290.797 173.322 290.337 173.956C290.053 174.347 289.825 174.789 289.652 175.281C289.466 175.764 289.28 176.36 289.094 177.07C289.015 177.548 288.916 177.868 288.799 178.029C288.622 178.272 288.388 178.411 288.095 178.445C287.812 178.466 287.529 178.374 287.246 178.168C287.016 178.002 286.86 177.806 286.777 177.58C286.689 177.331 286.67 177.018 286.717 176.641C286.804 175.983 287.008 175.276 287.33 174.521C287.662 173.753 288.058 173.052 288.518 172.418ZM296.537 179.202C297.027 178.528 297.201 177.82 297.06 177.079C296.915 176.314 296.485 175.672 295.771 175.153L295.346 174.845L295.082 175.209C294.425 176.112 293.956 176.843 293.675 177.4C293.393 177.958 293.275 178.418 293.321 178.781C293.366 179.144 293.564 179.452 293.915 179.707C294.346 180.02 294.811 180.132 295.31 180.041C295.805 179.927 296.214 179.647 296.537 179.202ZM305.445 166.73C305.975 166.085 306.523 165.968 307.089 166.38C307.413 166.615 307.565 166.931 307.544 167.328C307.52 167.702 307.318 168.121 306.938 168.587L306.501 169.104C304.693 171.252 302.657 171.503 300.392 169.857L295.982 166.653L295.248 167.665C294.983 168.029 294.697 168.253 294.388 168.338C294.089 168.409 293.784 168.332 293.474 168.107C293.164 167.881 292.997 167.615 292.972 167.309C292.957 166.989 293.082 166.647 293.346 166.283L294.081 165.272L292.22 163.92C291.856 163.656 291.65 163.33 291.601 162.944C291.551 162.558 291.669 162.17 291.953 161.779C292.227 161.401 292.555 161.176 292.938 161.104C293.32 161.031 293.693 161.127 294.057 161.392L295.918 162.744L297.167 161.025C297.432 160.661 297.713 160.443 298.012 160.372C298.321 160.287 298.63 160.357 298.941 160.583C299.251 160.808 299.413 161.081 299.428 161.4C299.453 161.707 299.333 162.042 299.068 162.406L297.819 164.125L302.41 167.461C303.408 168.186 304.274 168.114 305.007 167.246L305.445 166.73ZM311.873 155.883C312.039 155.654 312.259 155.535 312.532 155.528C312.816 155.507 313.105 155.604 313.402 155.82C313.82 156.123 313.989 156.628 313.91 157.332C313.833 157.977 313.665 158.648 313.406 159.345C313.133 160.033 312.805 160.639 312.423 161.165C311.267 162.756 309.893 163.684 308.3 163.948C306.707 164.212 305.115 163.767 303.524 162.611C302.513 161.876 301.763 161.022 301.275 160.049C300.787 159.077 300.591 158.07 300.689 157.028C300.796 155.973 301.188 154.98 301.864 154.05C302.51 153.16 303.269 152.527 304.14 152.15C305.011 151.773 305.936 151.663 306.916 151.818C307.895 151.973 308.87 152.403 309.84 153.109C310.42 153.53 310.524 153.997 310.152 154.509L305.817 160.475C306.806 161.071 307.685 161.307 308.453 161.186C309.208 161.054 309.894 160.564 310.511 159.714C310.824 159.283 311.045 158.866 311.172 158.464C311.309 158.048 311.435 157.563 311.55 157.008C311.628 156.447 311.736 156.072 311.873 155.883ZM303.688 155.282C303.188 155.97 303.002 156.679 303.13 157.411C303.268 158.129 303.711 158.822 304.462 159.491L307.783 154.92C306.941 154.349 306.173 154.101 305.481 154.175C304.775 154.239 304.178 154.608 303.688 155.282ZM315.107 135.822C315.891 134.743 316.812 134.156 317.871 134.059C318.926 133.94 320.168 134.4 321.597 135.438L326.573 139.053C326.964 139.337 327.179 139.679 327.218 140.078C327.254 140.454 327.135 140.831 326.86 141.209C326.596 141.573 326.274 141.803 325.896 141.899C325.514 141.971 325.127 141.865 324.736 141.581L319.76 137.966C319.019 137.427 318.395 137.18 317.889 137.225C317.379 137.246 316.928 137.526 316.537 138.065C316.057 138.726 315.904 139.418 316.078 140.142C316.239 140.857 316.71 141.498 317.492 142.066L322.003 145.343C322.394 145.627 322.609 145.969 322.648 146.368C322.684 146.744 322.57 147.115 322.305 147.479C322.041 147.843 321.719 148.073 321.341 148.168C320.948 148.254 320.557 148.155 320.166 147.871L315.19 144.256C314.449 143.718 313.825 143.47 313.319 143.515C312.809 143.536 312.358 143.816 311.967 144.355C311.487 145.016 311.334 145.708 311.508 146.432C311.679 147.133 312.155 147.768 312.937 148.336L317.447 151.613C317.838 151.897 318.054 152.239 318.093 152.638C318.119 153.028 318 153.405 317.735 153.769C317.471 154.133 317.149 154.363 316.77 154.458C316.388 154.531 316.002 154.425 315.611 154.141L307.783 148.454C307.406 148.18 307.204 147.848 307.178 147.458C307.152 147.069 307.271 146.692 307.536 146.328C307.791 145.977 308.098 145.767 308.457 145.699C308.812 145.607 309.172 145.693 309.536 145.957L310.021 146.31C309.707 145.608 309.595 144.898 309.684 144.18C309.783 143.448 310.077 142.745 310.567 142.071C311.644 140.588 312.985 140.048 314.588 140.45C314.237 139.742 314.103 138.976 314.188 138.151C314.272 137.326 314.578 136.55 315.107 135.822ZM322.514 125.627C323.513 124.252 324.597 123.483 325.765 123.322C326.929 123.138 328.205 123.55 329.594 124.559L334.529 128.145C334.893 128.409 335.104 128.728 335.163 129.1C335.209 129.463 335.094 129.833 334.82 130.211C334.565 130.561 334.247 130.773 333.865 130.845C333.492 130.904 333.131 130.806 332.78 130.552L332.335 130.228C332.694 130.84 332.841 131.503 332.775 132.217C332.719 132.918 332.456 133.592 331.986 134.239C331.506 134.9 330.935 135.402 330.274 135.745C329.612 136.089 328.933 136.244 328.235 136.211C327.538 136.179 326.9 135.952 326.32 135.53C325.592 135.001 325.151 134.403 324.998 133.735C324.854 133.054 324.991 132.227 325.41 131.254C325.828 130.281 326.572 129.059 327.64 127.589L328.007 127.084L327.542 126.746C326.881 126.266 326.299 126.06 325.797 126.127C325.281 126.185 324.793 126.531 324.333 127.165C324.049 127.556 323.82 127.997 323.648 128.49C323.462 128.973 323.276 129.569 323.09 130.279C323.01 130.757 322.912 131.077 322.794 131.238C322.618 131.481 322.383 131.62 322.091 131.654C321.808 131.675 321.524 131.583 321.241 131.377C321.012 131.21 320.856 131.014 320.772 130.789C320.685 130.54 320.665 130.227 320.713 129.85C320.8 129.192 321.004 128.485 321.326 127.73C321.658 126.962 322.054 126.261 322.514 125.627ZM330.533 132.411C331.023 131.737 331.197 131.029 331.056 130.288C330.911 129.523 330.481 128.881 329.766 128.362L329.342 128.054L329.077 128.418C328.421 129.321 327.952 130.052 327.67 130.609C327.389 131.167 327.271 131.627 327.316 131.99C327.362 132.353 327.56 132.661 327.91 132.916C328.342 133.229 328.807 133.341 329.306 133.25C329.801 133.136 330.21 132.856 330.533 132.411ZM321.769 124.313C321.769 124.54 321.715 124.727 321.608 124.876C321.47 125.064 321.292 125.182 321.073 125.229C320.85 125.252 320.651 125.2 320.475 125.073C320.327 124.965 320.218 124.803 320.148 124.588L318.964 120.73C318.785 120.126 318.843 119.622 319.136 119.218C319.352 118.921 319.641 118.75 320.004 118.704C320.363 118.636 320.684 118.704 320.967 118.91C321.345 119.184 321.536 119.601 321.541 120.161L321.769 124.313ZM339.44 119.939C339.971 119.294 340.519 119.177 341.085 119.589C341.409 119.824 341.56 120.14 341.54 120.537C341.515 120.911 341.313 121.33 340.934 121.796L340.496 122.313C338.689 124.461 336.652 124.711 334.387 123.066L329.978 119.862L329.243 120.874C328.979 121.238 328.692 121.462 328.383 121.547C328.084 121.618 327.78 121.541 327.47 121.316C327.16 121.09 326.992 120.824 326.968 120.518C326.953 120.198 327.078 119.856 327.342 119.492L328.077 118.481L326.216 117.129C325.852 116.865 325.645 116.539 325.596 116.153C325.547 115.767 325.664 115.379 325.949 114.988C326.223 114.61 326.551 114.385 326.933 114.313C327.316 114.24 327.689 114.336 328.053 114.601L329.914 115.953L331.163 114.234C331.427 113.87 331.709 113.652 332.008 113.581C332.317 113.496 332.626 113.566 332.936 113.792C333.246 114.017 333.409 114.29 333.424 114.609C333.448 114.916 333.328 115.251 333.064 115.615L331.815 117.334L336.406 120.67C337.404 121.395 338.27 121.323 339.003 120.455L339.44 119.939ZM343.924 117.722C343.66 118.087 343.338 118.316 342.96 118.412C342.577 118.485 342.191 118.379 341.8 118.095L333.993 112.423C333.602 112.139 333.388 111.808 333.353 111.432C333.327 111.043 333.446 110.666 333.71 110.302C333.975 109.938 334.296 109.708 334.675 109.612C335.054 109.516 335.438 109.61 335.83 109.894L343.637 115.567C344.028 115.851 344.243 116.192 344.282 116.592C344.308 116.982 344.189 117.358 343.924 117.722ZM331.91 108.994C331.577 109.452 331.191 109.728 330.753 109.822C330.301 109.905 329.872 109.8 329.468 109.506C329.063 109.212 328.838 108.842 328.791 108.396C328.744 107.95 328.887 107.498 329.22 107.039C329.544 106.595 329.925 106.325 330.363 106.232C330.812 106.125 331.238 106.219 331.643 106.513C332.047 106.807 332.28 107.181 332.34 107.637C332.387 108.083 332.243 108.535 331.91 108.994ZM349.973 109.482C349.258 110.466 348.417 111.184 347.451 111.635C346.494 112.073 345.484 112.215 344.422 112.061C343.36 111.907 342.316 111.458 341.291 110.714C340.266 109.969 339.515 109.104 339.036 108.117C338.554 107.108 338.377 106.062 338.504 104.98C338.631 103.898 339.057 102.858 339.782 101.86C340.164 101.335 340.62 100.863 341.15 100.444C341.69 100.013 342.236 99.6879 342.786 99.4695C343.382 99.2438 343.896 99.2877 344.328 99.6011C344.624 99.8167 344.813 100.067 344.894 100.353C344.972 100.615 344.927 100.861 344.76 101.09C344.653 101.238 344.506 101.369 344.321 101.481C344.136 101.594 343.938 101.697 343.726 101.791C343.335 101.96 342.995 102.145 342.704 102.346C342.4 102.537 342.121 102.808 341.867 103.159C341.259 103.995 341.065 104.843 341.285 105.703C341.501 106.54 342.122 107.331 343.146 108.075C344.158 108.81 345.101 109.155 345.977 109.112C346.85 109.046 347.59 108.594 348.197 107.758C348.442 107.421 348.61 107.09 348.702 106.766C348.79 106.418 348.864 106.018 348.924 105.567C348.95 105.277 348.989 105.038 349.043 104.85C349.083 104.653 349.157 104.48 349.265 104.332C349.422 104.116 349.649 104.003 349.945 103.991C350.242 103.98 350.531 104.077 350.815 104.283C351.044 104.45 351.207 104.651 351.304 104.886C351.397 105.098 351.428 105.367 351.396 105.695C351.362 106.308 351.225 106.951 350.985 107.621C350.732 108.282 350.395 108.902 349.973 109.482ZM346.78 92.2274C347.78 90.8521 348.863 90.0839 350.031 89.9228C351.195 89.7385 352.471 90.1508 353.86 91.1598L358.795 94.7453C359.159 95.0098 359.371 95.3283 359.43 95.7008C359.475 96.0635 359.361 96.4336 359.086 96.8111C358.832 97.1617 358.513 97.3732 358.131 97.4457C357.758 97.5047 357.397 97.4068 357.046 97.1521L356.601 96.8289C356.961 97.4401 357.107 98.103 357.042 98.8174C356.986 99.5183 356.722 100.192 356.252 100.84C355.772 101.5 355.201 102.002 354.54 102.346C353.878 102.689 353.199 102.845 352.502 102.812C351.804 102.779 351.166 102.552 350.586 102.131C349.858 101.602 349.417 101.003 349.264 100.336C349.12 99.6544 349.258 98.8272 349.676 97.8541C350.095 96.881 350.838 95.6596 351.906 94.1898L352.273 93.6842L351.808 93.3462C351.147 92.8662 350.566 92.66 350.063 92.7276C349.547 92.7855 349.059 93.1313 348.599 93.765C348.315 94.156 348.086 94.5979 347.914 95.0905C347.728 95.5734 347.542 96.1697 347.356 96.8792C347.277 97.3572 347.178 97.677 347.061 97.8388C346.884 98.0815 346.65 98.2201 346.357 98.2546C346.074 98.2755 345.791 98.1831 345.508 97.9774C345.278 97.8109 345.122 97.6149 345.039 97.3895C344.951 97.1408 344.932 96.8277 344.979 96.4503C345.066 95.7922 345.27 95.0857 345.592 94.3307C345.924 93.5623 346.32 92.8612 346.78 92.2274ZM354.799 99.0115C355.289 98.3373 355.463 97.6296 355.322 96.8883C355.177 96.1237 354.747 95.4818 354.033 94.9626L353.608 94.654L353.343 95.0181C352.687 95.9215 352.218 96.652 351.937 97.2097C351.655 97.7674 351.537 98.2276 351.583 98.5903C351.628 98.9529 351.826 99.2616 352.177 99.5163C352.608 99.8298 353.073 99.9411 353.572 99.8502C354.067 99.736 354.476 99.4564 354.799 99.0115Z" fill="white"/>
</g>
<g filter="url(#filter2_d)">
<path d="M105.904 304.607C104.722 305.106 103.537 305.427 102.348 305.567C101.168 305.686 100.134 305.616 99.2466 305.358C98.7833 305.246 98.451 304.952 98.2499 304.476C98.1136 304.154 98.0889 303.839 98.1758 303.531C98.2716 303.201 98.45 302.98 98.711 302.87C98.9873 302.753 99.3474 302.728 99.7914 302.794C100.653 302.99 101.489 303.044 102.302 302.954C103.114 302.864 103.958 302.634 104.833 302.264C105.954 301.791 106.732 301.235 107.169 300.598C107.599 299.946 107.655 299.244 107.337 298.492C107.09 297.908 106.618 297.583 105.92 297.516C105.232 297.427 104.173 297.513 102.745 297.773C101.271 298.052 100.03 298.178 99.0236 298.151C98.0171 298.124 97.1723 297.902 96.4894 297.485C95.8065 297.068 95.2705 296.399 94.8812 295.478C94.4789 294.526 94.3875 293.561 94.6069 292.581C94.8263 291.602 95.3243 290.704 96.101 289.887C96.8865 289.048 97.8779 288.376 99.0754 287.87C101.271 286.942 103.306 286.77 105.181 287.353C105.451 287.437 105.661 287.548 105.809 287.684C105.966 287.799 106.097 287.979 106.2 288.224C106.337 288.547 106.357 288.873 106.261 289.203C106.174 289.511 106 289.72 105.739 289.831C105.586 289.895 105.43 289.934 105.273 289.946C105.13 289.952 104.926 289.939 104.659 289.907C103.835 289.713 103.078 289.634 102.388 289.673C101.708 289.689 100.938 289.879 100.078 290.242C99.0339 290.683 98.2957 291.248 97.8633 291.938C97.4397 292.605 97.3869 293.315 97.7048 294.067C97.9709 294.697 98.4439 295.067 99.1239 295.178C99.804 295.288 100.85 295.217 102.263 294.964C103.759 294.693 105.011 294.572 106.017 294.598C107.033 294.604 107.886 294.804 108.578 295.199C109.285 295.588 109.824 296.22 110.193 297.095C110.596 298.046 110.684 299.004 110.458 299.968C110.241 300.911 109.736 301.793 108.944 302.616C108.161 303.418 107.148 304.081 105.904 304.607ZM122.237 293.823C122.498 293.713 122.748 293.725 122.986 293.86C123.239 293.988 123.437 294.221 123.579 294.559C123.781 295.035 123.665 295.554 123.234 296.116C122.835 296.628 122.344 297.116 121.762 297.579C121.173 298.027 120.58 298.378 119.981 298.631C118.169 299.396 116.513 299.481 115.013 298.885C113.512 298.289 112.379 297.085 111.614 295.273C111.127 294.122 110.926 293.003 111.01 291.918C111.094 290.833 111.447 289.87 112.069 289.028C112.705 288.18 113.553 287.532 114.613 287.085C115.626 286.656 116.603 286.506 117.543 286.633C118.484 286.761 119.333 287.144 120.091 287.782C120.85 288.42 121.462 289.292 121.93 290.398C122.209 291.058 122.056 291.511 121.473 291.758L114.68 294.629C115.22 295.649 115.85 296.305 116.57 296.598C117.285 296.875 118.125 296.809 119.093 296.401C119.584 296.193 119.988 295.95 120.304 295.671C120.636 295.386 120.995 295.036 121.38 294.62C121.737 294.179 122.022 293.914 122.237 293.823ZM115.538 289.082C114.755 289.413 114.23 289.925 113.961 290.617C113.708 291.303 113.73 292.126 114.028 293.086L119.232 290.886C118.805 289.963 118.277 289.354 117.646 289.06C117.008 288.75 116.306 288.758 115.538 289.082ZM131.448 280.024C131.878 279.842 132.275 279.819 132.64 279.954C133.005 280.09 133.275 280.365 133.45 280.779L138.968 293.836C139.137 294.235 139.135 294.616 138.963 294.978C138.79 295.341 138.489 295.613 138.059 295.794C137.629 295.976 137.232 295.999 136.867 295.864C136.524 295.737 136.271 295.482 136.109 295.099L134.104 290.355C134.026 291.112 133.739 291.803 133.244 292.428C132.757 293.032 132.115 293.503 131.316 293.84C130.334 294.255 129.366 294.384 128.412 294.226C127.459 294.068 126.583 293.642 125.783 292.949C124.999 292.249 124.36 291.316 123.867 290.149C123.374 288.982 123.146 287.866 123.184 286.8C123.231 285.713 123.527 284.765 124.072 283.956C124.632 283.14 125.395 282.528 126.363 282.119C127.176 281.775 127.972 281.647 128.751 281.734C129.539 281.799 130.234 282.075 130.838 282.562L130.595 281.986C130.42 281.571 130.411 281.186 130.568 280.83C130.725 280.474 131.018 280.206 131.448 280.024ZM131.155 291.276C132.061 290.893 132.627 290.283 132.852 289.446C133.092 288.602 132.969 287.605 132.483 286.453C131.99 285.287 131.357 284.496 130.584 284.08C129.827 283.658 128.988 283.642 128.067 284.031C127.161 284.414 126.591 285.035 126.357 285.894C126.123 286.753 126.252 287.766 126.745 288.932C127.225 290.068 127.852 290.844 128.624 291.259C129.391 291.659 130.234 291.665 131.155 291.276ZM144.726 274.412C145.171 274.224 145.576 274.198 145.941 274.333C146.306 274.469 146.576 274.744 146.751 275.158L150.527 284.093C150.696 284.492 150.694 284.873 150.521 285.235C150.364 285.591 150.07 285.86 149.641 286.042C149.226 286.217 148.847 286.241 148.504 286.115C148.161 285.988 147.906 285.725 147.737 285.326L147.494 284.751C147.4 285.514 147.125 286.191 146.669 286.782C146.207 287.357 145.599 287.804 144.847 288.122C142.084 289.29 140.047 288.323 138.736 285.222L136.342 279.557C136.167 279.142 136.158 278.757 136.315 278.401C136.472 278.045 136.766 277.777 137.196 277.595C137.641 277.407 138.046 277.38 138.411 277.516C138.776 277.651 139.046 277.926 139.221 278.34L141.625 284.028C141.962 284.827 142.373 285.35 142.857 285.597C143.342 285.845 143.93 285.822 144.621 285.53C145.419 285.193 145.946 284.663 146.201 283.94C146.465 283.195 146.412 282.385 146.043 281.51L143.872 276.375C143.697 275.96 143.688 275.575 143.845 275.219C144.002 274.863 144.296 274.594 144.726 274.412ZM161.637 277.172C161.898 277.062 162.147 277.074 162.385 277.209C162.638 277.337 162.836 277.57 162.979 277.908C163.18 278.383 163.065 278.903 162.633 279.465C162.234 279.977 161.744 280.465 161.161 280.928C160.573 281.376 159.979 281.727 159.38 281.98C157.569 282.745 155.913 282.83 154.412 282.234C152.912 281.637 151.779 280.434 151.013 278.622C150.526 277.471 150.325 276.352 150.41 275.267C150.494 274.182 150.847 273.219 151.468 272.377C152.105 271.529 152.953 270.881 154.012 270.434C155.025 270.005 156.002 269.855 156.942 269.982C157.883 270.11 158.732 270.492 159.491 271.131C160.249 271.769 160.862 272.641 161.329 273.747C161.608 274.407 161.456 274.86 160.872 275.107L154.079 277.978C154.619 278.998 155.249 279.654 155.97 279.947C156.684 280.224 157.525 280.158 158.492 279.75C158.983 279.542 159.387 279.299 159.704 279.02C160.036 278.735 160.394 278.385 160.779 277.969C161.136 277.528 161.422 277.263 161.637 277.172ZM154.938 272.431C154.155 272.762 153.629 273.273 153.361 273.966C153.108 274.652 153.13 275.475 153.427 276.435L158.631 274.235C158.205 273.312 157.676 272.703 157.045 272.409C156.408 272.099 155.705 272.107 154.938 272.431ZM151.715 269.559C151.637 269.972 151.436 270.247 151.114 270.383C150.868 270.487 150.606 270.489 150.329 270.389C150.067 270.282 149.884 270.106 149.78 269.861C149.696 269.661 149.681 269.433 149.734 269.175L150.603 265.578C150.69 265.27 150.795 265.026 150.918 264.847C151.042 264.669 151.226 264.527 151.472 264.423C151.733 264.313 151.971 264.276 152.185 264.312C152.399 264.348 152.643 264.453 152.915 264.628L156.09 266.488C156.306 266.614 156.46 266.785 156.55 267C156.654 267.245 156.645 267.502 156.524 267.771C156.417 268.033 156.241 268.216 155.996 268.32C155.673 268.456 155.336 268.408 154.985 268.177L152.28 266.335L151.715 269.559ZM167.927 264.553C169.278 263.982 170.445 263.941 171.43 264.43C172.414 264.918 173.234 265.938 173.89 267.488L176.284 273.153C176.465 273.583 176.478 273.976 176.321 274.332C176.179 274.681 175.885 274.95 175.44 275.138C174.995 275.326 174.59 275.353 174.225 275.217C173.86 275.082 173.587 274.8 173.405 274.37L171.079 268.866C170.709 267.991 170.271 267.425 169.765 267.169C169.274 266.906 168.675 266.924 167.969 267.222C167.14 267.572 166.583 268.116 166.296 268.852C166.026 269.581 166.075 270.384 166.445 271.259L168.615 276.394C168.797 276.824 168.809 277.217 168.652 277.573C168.495 277.929 168.194 278.201 167.749 278.389C167.303 278.577 166.898 278.603 166.534 278.468C166.184 278.326 165.919 278.04 165.737 277.61L161.971 268.699C161.802 268.299 161.796 267.922 161.953 267.566C162.111 267.21 162.412 266.938 162.857 266.75C163.256 266.581 163.63 266.568 163.98 266.71C164.338 266.83 164.598 267.081 164.761 267.465L165.023 268.087C165.141 267.295 165.451 266.594 165.953 265.984C166.455 265.374 167.113 264.897 167.927 264.553ZM184.808 271.233C183.687 271.707 182.596 271.888 181.536 271.775C180.49 271.656 179.552 271.256 178.722 270.576C177.891 269.895 177.23 268.972 176.737 267.805C176.243 266.638 176.047 265.509 176.146 264.418C176.255 263.304 176.643 262.317 177.31 261.456C177.978 260.595 178.879 259.924 180.015 259.444C180.614 259.191 181.249 259.022 181.919 258.938C182.604 258.848 183.239 258.851 183.823 258.948C184.45 259.063 184.868 259.366 185.075 259.857C185.218 260.195 185.25 260.507 185.172 260.793C185.103 261.057 184.938 261.245 184.677 261.355C184.508 261.426 184.315 261.463 184.099 261.464C183.882 261.465 183.659 261.451 183.429 261.421C183.007 261.364 182.62 261.347 182.268 261.369C181.909 261.376 181.53 261.464 181.13 261.633C180.179 262.035 179.575 262.661 179.319 263.511C179.072 264.339 179.195 265.337 179.688 266.503C180.174 267.655 180.804 268.438 181.577 268.854C182.358 269.247 183.225 269.243 184.177 268.84C184.56 268.678 184.875 268.482 185.122 268.251C185.377 267.998 185.646 267.694 185.93 267.339C186.102 267.104 186.26 266.92 186.403 266.787C186.539 266.639 186.692 266.529 186.861 266.458C187.106 266.354 187.359 266.374 187.619 266.517C187.878 266.661 188.076 266.894 188.213 267.216C188.323 267.477 188.359 267.733 188.32 267.985C188.291 268.214 188.178 268.461 187.982 268.725C187.636 269.233 187.187 269.712 186.635 270.163C186.077 270.597 185.468 270.954 184.808 271.233ZM192.463 267.944C192.049 268.119 191.655 268.15 191.281 268.036C190.916 267.901 190.64 267.611 190.452 267.166L186.695 258.277C186.507 257.832 186.495 257.439 186.658 257.098C186.837 256.751 187.134 256.49 187.548 256.315C187.963 256.14 188.357 256.109 188.731 256.222C189.104 256.336 189.385 256.615 189.573 257.06L193.33 265.949C193.518 266.394 193.526 266.798 193.353 267.16C193.174 267.508 192.878 267.769 192.463 267.944ZM186.682 254.265C186.16 254.486 185.687 254.523 185.264 254.376C184.833 254.214 184.521 253.903 184.326 253.443C184.132 252.982 184.129 252.549 184.32 252.143C184.51 251.736 184.866 251.423 185.388 251.202C185.895 250.988 186.36 250.955 186.784 251.101C187.223 251.241 187.54 251.542 187.734 252.002C187.929 252.463 187.934 252.904 187.751 253.325C187.56 253.731 187.204 254.045 186.682 254.265ZM196.83 252.338C198.396 251.676 199.721 251.578 200.804 252.043C201.896 252.486 202.776 253.498 203.444 255.079L205.819 260.698C205.994 261.113 206.011 261.495 205.869 261.844C205.72 262.178 205.431 262.436 205.002 262.618C204.602 262.786 204.22 262.803 203.856 262.668C203.506 262.526 203.247 262.255 203.078 261.856L202.864 261.35C202.856 262.059 202.64 262.702 202.214 263.28C201.805 263.851 201.231 264.293 200.494 264.604C199.742 264.922 198.994 265.057 198.25 265.01C197.506 264.962 196.844 264.744 196.264 264.356C195.684 263.968 195.254 263.444 194.975 262.784C194.625 261.955 194.556 261.215 194.77 260.564C194.999 259.906 195.543 259.269 196.404 258.652C197.265 258.034 198.533 257.372 200.206 256.665L200.782 256.422L200.558 255.892C200.24 255.14 199.848 254.663 199.383 254.461C198.912 254.245 198.315 254.289 197.593 254.594C197.148 254.782 196.725 255.042 196.322 255.375C195.914 255.692 195.447 256.107 194.921 256.619C194.606 256.987 194.357 257.21 194.172 257.288C193.896 257.405 193.624 257.402 193.355 257.28C193.102 257.152 192.907 256.927 192.771 256.605C192.661 256.344 192.628 256.095 192.673 255.859C192.727 255.601 192.871 255.323 193.107 255.024C193.521 254.505 194.061 254.006 194.727 253.525C195.407 253.039 196.109 252.643 196.83 252.338ZM200.194 262.288C200.962 261.964 201.476 261.448 201.738 260.74C202.009 260.01 201.972 259.239 201.628 258.425L201.424 257.942L201.009 258.117C199.981 258.551 199.202 258.935 198.673 259.267C198.144 259.599 197.805 259.932 197.657 260.266C197.509 260.6 197.519 260.967 197.687 261.366C197.895 261.858 198.236 262.193 198.71 262.373C199.193 262.53 199.687 262.502 200.194 262.288Z" fill="white"/>
</g>
<g filter="url(#filter3_d)">
<path d="M303.615 266.349C302.433 265.85 301.377 265.223 300.447 264.468C299.54 263.704 298.869 262.914 298.436 262.098C298.193 261.688 298.172 261.245 298.374 260.769C298.51 260.447 298.719 260.209 299 260.057C299.304 259.896 299.586 259.87 299.847 259.98C300.123 260.097 300.393 260.338 300.655 260.702C301.114 261.457 301.659 262.094 302.289 262.614C302.92 263.134 303.673 263.579 304.548 263.948C305.669 264.422 306.609 264.593 307.37 264.463C308.138 264.317 308.681 263.867 308.998 263.115C309.245 262.532 309.149 261.967 308.711 261.419C308.294 260.863 307.495 260.164 306.314 259.321C305.086 258.458 304.131 257.656 303.449 256.916C302.767 256.175 302.337 255.415 302.161 254.634C301.984 253.854 302.09 253.003 302.479 252.082C302.881 251.13 303.51 250.392 304.365 249.867C305.221 249.341 306.212 249.073 307.339 249.06C308.488 249.039 309.661 249.282 310.858 249.788C313.054 250.716 314.596 252.055 315.484 253.806C315.612 254.059 315.679 254.286 315.685 254.487C315.712 254.68 315.673 254.899 315.57 255.144C315.433 255.467 315.214 255.709 314.91 255.87C314.629 256.022 314.357 256.043 314.096 255.933C313.943 255.868 313.807 255.784 313.688 255.679C313.585 255.581 313.452 255.425 313.288 255.212C312.854 254.485 312.382 253.888 311.874 253.42C311.388 252.943 310.716 252.523 309.856 252.16C308.812 251.719 307.892 251.583 307.096 251.753C306.322 251.915 305.776 252.372 305.459 253.124C305.193 253.753 305.257 254.351 305.651 254.915C306.046 255.48 306.826 256.181 307.993 257.018C309.229 257.902 310.189 258.715 310.871 259.455C311.575 260.187 312.026 260.939 312.225 261.71C312.439 262.488 312.361 263.315 311.991 264.19C311.589 265.142 310.963 265.873 310.115 266.382C309.288 266.883 308.303 267.137 307.161 267.142C306.04 267.139 304.858 266.875 303.615 266.349ZM322.731 270.547C322.992 270.658 323.157 270.845 323.226 271.109C323.311 271.38 323.282 271.685 323.139 272.022C322.938 272.498 322.485 272.777 321.781 272.86C321.135 272.931 320.444 272.919 319.706 272.824C318.974 272.714 318.309 272.533 317.71 272.28C315.899 271.514 314.684 270.385 314.066 268.894C313.448 267.402 313.522 265.751 314.287 263.939C314.774 262.788 315.436 261.864 316.272 261.168C317.109 260.472 318.046 260.054 319.083 259.913C320.135 259.779 321.19 259.935 322.25 260.383C323.263 260.811 324.052 261.407 324.616 262.17C325.18 262.933 325.497 263.809 325.568 264.798C325.638 265.787 325.44 266.834 324.973 267.939C324.694 268.599 324.263 268.806 323.679 268.56L316.886 265.689C316.531 266.787 316.499 267.696 316.792 268.417C317.091 269.123 317.724 269.68 318.691 270.088C319.182 270.296 319.638 270.416 320.058 270.449C320.494 270.488 320.995 270.501 321.562 270.487C322.126 270.436 322.516 270.456 322.731 270.547ZM321.462 262.439C320.679 262.108 319.946 262.088 319.263 262.378C318.594 262.674 318.02 263.264 317.538 264.146L322.743 266.345C323.108 265.396 323.176 264.592 322.947 263.935C322.725 263.262 322.23 262.763 321.462 262.439ZM326.118 275.778C325.703 275.603 325.407 275.342 325.228 274.995C325.07 274.639 325.086 274.239 325.274 273.793L331.084 260.046C331.272 259.6 331.546 259.318 331.904 259.198C332.277 259.084 332.672 259.115 333.086 259.29C333.501 259.466 333.797 259.727 333.976 260.074C334.155 260.421 334.151 260.817 333.963 261.262L328.153 275.01C327.964 275.455 327.68 275.742 327.3 275.871C326.926 275.984 326.532 275.954 326.118 275.778ZM340.811 278.188C341.072 278.299 341.237 278.486 341.307 278.751C341.391 279.022 341.362 279.326 341.219 279.664C341.018 280.14 340.565 280.419 339.861 280.501C339.216 280.572 338.524 280.56 337.786 280.465C337.055 280.355 336.39 280.174 335.791 279.921C333.979 279.155 332.765 278.027 332.147 276.535C331.528 275.043 331.602 273.392 332.368 271.58C332.854 270.429 333.516 269.505 334.353 268.809C335.19 268.114 336.127 267.695 337.163 267.554C338.215 267.42 339.271 267.577 340.33 268.024C341.343 268.453 342.132 269.048 342.696 269.811C343.26 270.574 343.578 271.45 343.648 272.439C343.719 273.428 343.521 274.475 343.053 275.581C342.774 276.241 342.343 276.447 341.76 276.201L334.967 273.33C334.611 274.428 334.58 275.338 334.872 276.058C335.171 276.764 335.804 277.321 336.771 277.73C337.263 277.937 337.718 278.057 338.139 278.09C338.574 278.13 339.076 278.143 339.642 278.129C340.207 278.078 340.596 278.098 340.811 278.188ZM339.543 270.08C338.76 269.749 338.027 269.729 337.343 270.019C336.675 270.316 336.1 270.905 335.619 271.787L340.823 273.987C341.188 273.037 341.256 272.234 341.028 271.576C340.805 270.903 340.31 270.404 339.543 270.08ZM352.604 283.118C352.85 283.222 353.011 283.417 353.089 283.703C353.167 283.989 353.138 284.294 353.002 284.616C352.892 284.877 352.733 285.081 352.526 285.229C352.341 285.368 352.085 285.459 351.759 285.502C350.697 285.704 349.555 285.602 348.334 285.194L347.901 285.961C348.16 286.035 348.343 286.094 348.45 286.139C348.926 286.34 349.267 286.647 349.472 287.06C349.687 287.494 349.69 287.957 349.483 288.448C349.236 289.032 348.774 289.397 348.096 289.545C347.434 289.7 346.635 289.579 345.698 289.183C345.053 288.911 344.548 288.607 344.183 288.272C344.071 288.152 343.999 288.022 343.968 287.882C343.937 287.742 343.95 287.603 344.009 287.465C344.1 287.25 344.236 287.099 344.417 287.013C344.607 286.949 344.796 286.993 344.985 287.145C345.455 287.488 345.859 287.731 346.197 287.874C346.965 288.198 347.446 288.13 347.64 287.67C347.705 287.516 347.703 287.371 347.635 287.233C347.566 287.096 347.432 286.985 347.233 286.9C347.079 286.836 346.87 286.774 346.605 286.716C346.333 286.674 346.167 286.64 346.105 286.614C345.967 286.556 345.871 286.461 345.818 286.33C345.774 286.221 345.789 286.1 345.862 285.968L346.718 284.457C345.397 283.646 344.543 282.561 344.158 281.204C343.779 279.832 343.92 278.362 344.582 276.796C345.075 275.63 345.748 274.702 346.6 274.012C347.474 273.314 348.452 272.904 349.535 272.783C350.618 272.662 351.727 272.841 352.863 273.321C353.462 273.574 354.025 273.912 354.552 274.333C355.095 274.762 355.535 275.219 355.872 275.706C356.227 276.236 356.301 276.746 356.093 277.237C355.951 277.575 355.749 277.816 355.49 277.959C355.252 278.094 355.002 278.106 354.741 277.996C354.573 277.925 354.412 277.812 354.26 277.657C354.109 277.502 353.963 277.332 353.825 277.147C353.571 276.805 353.314 276.515 353.052 276.278C352.797 276.025 352.47 275.815 352.071 275.646C351.119 275.244 350.249 275.247 349.461 275.656C348.695 276.056 348.065 276.839 347.572 278.006C347.085 279.157 346.962 280.155 347.203 280.998C347.465 281.833 348.073 282.451 349.024 282.854C349.408 283.016 349.769 283.105 350.106 283.121C350.465 283.128 350.871 283.109 351.323 283.065C351.612 283.024 351.854 283.009 352.049 283.019C352.25 283.014 352.435 283.047 352.604 283.118ZM363.831 277.956C365.397 278.618 366.39 279.499 366.812 280.6C367.255 281.692 367.142 283.029 366.474 284.61L364.1 290.229C363.924 290.643 363.662 290.922 363.313 291.063C362.97 291.19 362.583 291.162 362.153 290.981C361.754 290.812 361.476 290.55 361.319 290.194C361.177 289.844 361.19 289.47 361.359 289.071L361.573 288.564C361.059 289.053 360.447 289.346 359.736 289.443C359.041 289.548 358.325 289.444 357.588 289.133C356.835 288.815 356.217 288.372 355.733 287.806C355.249 287.239 354.943 286.613 354.817 285.926C354.691 285.24 354.768 284.566 355.047 283.906C355.397 283.077 355.88 282.512 356.496 282.212C357.127 281.917 357.964 281.864 359.006 282.051C360.049 282.238 361.407 282.686 363.08 283.393L363.656 283.636L363.88 283.107C364.198 282.354 364.267 281.741 364.087 281.267C363.914 280.778 363.467 280.381 362.745 280.076C362.3 279.888 361.818 279.765 361.299 279.709C360.786 279.637 360.164 279.591 359.43 279.571C358.947 279.601 358.613 279.578 358.429 279.5C358.152 279.383 357.964 279.186 357.864 278.909C357.78 278.638 357.806 278.341 357.942 278.019C358.052 277.758 358.208 277.561 358.408 277.429C358.631 277.288 358.931 277.198 359.31 277.158C359.97 277.094 360.705 277.133 361.513 277.275C362.337 277.424 363.109 277.651 363.831 277.956ZM359.039 287.303C359.807 287.628 360.536 287.637 361.226 287.332C361.938 287.017 362.465 286.453 362.809 285.64L363.014 285.156L362.599 284.981C361.571 284.546 360.753 284.255 360.146 284.107C359.539 283.959 359.064 283.948 358.721 284.075C358.378 284.201 358.122 284.464 357.954 284.863C357.746 285.354 357.743 285.833 357.944 286.298C358.168 286.754 358.533 287.089 359.039 287.303ZM366.32 276.755C366.043 276.639 365.793 276.46 365.569 276.221C365.359 275.988 365.1 275.661 364.789 275.24C364.535 274.898 364.328 274.638 364.168 274.462C364.007 274.285 363.842 274.161 363.674 274.09C363.428 273.986 363.202 273.963 362.997 274.021C362.807 274.086 362.586 274.201 362.336 274.366C362.135 274.498 361.969 274.591 361.838 274.644C361.713 274.682 361.582 274.672 361.444 274.613C361.275 274.542 361.158 274.411 361.094 274.221C361.051 274.022 361.079 273.808 361.176 273.577C361.306 273.27 361.541 272.972 361.881 272.681C362.227 272.375 362.617 272.16 363.049 272.035C363.504 271.901 363.931 271.919 364.33 272.088C364.606 272.204 364.849 272.379 365.058 272.612C365.282 272.852 365.55 273.182 365.861 273.603C366.114 273.945 366.321 274.205 366.482 274.381C366.642 274.558 366.807 274.682 366.976 274.753C367.222 274.857 367.439 274.876 367.63 274.812C367.835 274.754 368.063 274.642 368.314 274.477C368.515 274.345 368.677 274.26 368.802 274.222C368.933 274.169 369.067 274.171 369.206 274.23C369.39 274.307 369.503 274.446 369.546 274.645C369.595 274.828 369.571 275.035 369.473 275.266C369.344 275.573 369.106 275.879 368.759 276.185C368.419 276.476 368.022 276.688 367.567 276.821C367.135 276.946 366.719 276.924 366.32 276.755ZM371.567 295.04C370.415 294.554 369.502 293.888 368.829 293.042C368.17 292.203 367.791 291.237 367.691 290.146C367.592 289.054 367.792 287.917 368.291 286.735C368.791 285.553 369.463 284.625 370.309 283.951C371.161 283.262 372.118 282.861 373.179 282.748C374.255 282.642 375.369 282.832 376.52 283.319C377.672 283.806 378.577 284.469 379.235 285.308C379.909 286.154 380.288 287.119 380.372 288.204C380.478 289.28 380.282 290.409 379.782 291.591C379.283 292.774 378.607 293.709 377.754 294.399C376.918 295.094 375.961 295.495 374.885 295.601C373.824 295.714 372.718 295.527 371.567 295.04ZM372.488 292.797C373.424 293.193 374.268 293.187 375.018 292.781C375.769 292.374 376.398 291.572 376.904 290.375C377.403 289.193 377.537 288.191 377.305 287.369C377.08 286.532 376.507 285.919 375.586 285.53C374.665 285.14 373.818 285.153 373.045 285.569C372.294 285.975 371.669 286.77 371.17 287.952C370.664 289.149 370.526 290.159 370.758 290.98C370.99 291.802 371.566 292.408 372.488 292.797Z" fill="white"/>
</g>
<g filter="url(#filter4_d)">
<path d="M246.025 300C245.725 300.2 245.433 300.3 245.15 300.3C244.767 300.3 244.45 300.142 244.2 299.825C243.95 299.525 243.825 299.167 243.825 298.75C243.825 298.483 243.883 298.225 244 297.975C244.133 297.742 244.325 297.542 244.575 297.375L249.625 294.05C250.158 293.717 250.533 293.358 250.75 292.975C250.967 292.608 251.075 292.125 251.075 291.525V289.075H245.475C244.975 289.075 244.575 288.933 244.275 288.65C243.992 288.367 243.85 287.983 243.85 287.5C243.85 287.017 243.992 286.625 244.275 286.325C244.575 286.042 244.975 285.9 245.475 285.9H260.1C260.583 285.9 260.958 286.033 261.225 286.3C261.492 286.583 261.625 286.967 261.625 287.45V293.7C261.625 295.7 261.175 297.217 260.275 298.25C259.392 299.3 258.108 299.825 256.425 299.825C255.058 299.825 253.933 299.433 253.05 298.65C252.183 297.883 251.625 296.792 251.375 295.375C251.258 295.858 251.05 296.283 250.75 296.65C250.45 297.017 250.033 297.375 249.5 297.725L246.025 300ZM253.55 293.25C253.55 294.467 253.775 295.358 254.225 295.925C254.692 296.492 255.4 296.775 256.35 296.775C257.317 296.775 258.017 296.492 258.45 295.925C258.9 295.358 259.125 294.467 259.125 293.25V289.05H253.55V293.25ZM247.35 312.683C247.35 312.966 247.242 313.191 247.025 313.358C246.808 313.541 246.517 313.633 246.15 313.633C245.633 313.633 245.2 313.324 244.85 312.708C244.533 312.141 244.275 311.499 244.075 310.783C243.892 310.066 243.8 309.383 243.8 308.733C243.8 306.766 244.367 305.208 245.5 304.058C246.633 302.908 248.183 302.333 250.15 302.333C251.4 302.333 252.508 302.583 253.475 303.083C254.442 303.583 255.192 304.283 255.725 305.183C256.258 306.099 256.525 307.133 256.525 308.283C256.525 309.383 256.283 310.341 255.8 311.158C255.317 311.974 254.633 312.608 253.75 313.058C252.867 313.508 251.825 313.733 250.625 313.733C249.908 313.733 249.55 313.416 249.55 312.783V305.408C248.4 305.508 247.55 305.833 247 306.383C246.467 306.933 246.2 307.733 246.2 308.783C246.2 309.316 246.267 309.783 246.4 310.183C246.533 310.599 246.717 311.066 246.95 311.583C247.217 312.083 247.35 312.449 247.35 312.683ZM254.325 308.358C254.325 307.508 254.058 306.824 253.525 306.308C252.992 305.808 252.225 305.508 251.225 305.408V311.058C252.242 311.024 253.008 310.774 253.525 310.308C254.058 309.841 254.325 309.191 254.325 308.358ZM256.525 323.314C256.525 324.364 256.258 325.297 255.725 326.114C255.192 326.947 254.433 327.589 253.45 328.039C252.483 328.506 251.367 328.739 250.1 328.739C248.833 328.739 247.725 328.506 246.775 328.039C245.825 327.589 245.092 326.956 244.575 326.139C244.058 325.322 243.8 324.381 243.8 323.314C243.8 322.447 243.983 321.672 244.35 320.989C244.717 320.306 245.225 319.781 245.875 319.414H240.775C240.342 319.414 240 319.272 239.75 318.989C239.5 318.706 239.375 318.331 239.375 317.864C239.375 317.397 239.508 317.014 239.775 316.714C240.042 316.431 240.392 316.289 240.825 316.289H255C255.45 316.289 255.808 316.422 256.075 316.689C256.342 316.972 256.475 317.347 256.475 317.814C256.475 318.281 256.342 318.656 256.075 318.939C255.808 319.222 255.45 319.364 255 319.364H254.375C255.058 319.731 255.583 320.256 255.95 320.939C256.333 321.639 256.525 322.431 256.525 323.314ZM246.225 322.489C246.225 323.472 246.558 324.239 247.225 324.789C247.908 325.339 248.867 325.614 250.1 325.614C251.367 325.614 252.35 325.339 253.05 324.789C253.75 324.239 254.1 323.472 254.1 322.489C254.1 321.489 253.758 320.714 253.075 320.164C252.392 319.631 251.417 319.364 250.15 319.364C248.9 319.364 247.933 319.631 247.25 320.164C246.567 320.714 246.225 321.489 246.225 322.489ZM247.35 340.979C247.35 341.262 247.242 341.487 247.025 341.654C246.808 341.837 246.517 341.929 246.15 341.929C245.633 341.929 245.2 341.62 244.85 341.004C244.533 340.437 244.275 339.795 244.075 339.079C243.892 338.362 243.8 337.679 243.8 337.029C243.8 335.062 244.367 333.504 245.5 332.354C246.633 331.204 248.183 330.629 250.15 330.629C251.4 330.629 252.508 330.879 253.475 331.379C254.442 331.879 255.192 332.579 255.725 333.479C256.258 334.395 256.525 335.429 256.525 336.579C256.525 337.679 256.283 338.637 255.8 339.454C255.317 340.27 254.633 340.904 253.75 341.354C252.867 341.804 251.825 342.029 250.625 342.029C249.908 342.029 249.55 341.712 249.55 341.079V333.704C248.4 333.804 247.55 334.129 247 334.679C246.467 335.229 246.2 336.029 246.2 337.079C246.2 337.612 246.267 338.079 246.4 338.479C246.533 338.895 246.717 339.362 246.95 339.879C247.217 340.379 247.35 340.745 247.35 340.979ZM254.325 336.654C254.325 335.804 254.058 335.12 253.525 334.604C252.992 334.104 252.225 333.804 251.225 333.704V339.354C252.242 339.32 253.008 339.07 253.525 338.604C254.058 338.137 254.325 337.487 254.325 336.654ZM246.175 350.764C246.125 351.597 245.75 352.014 245.05 352.014C244.65 352.014 244.342 351.847 244.125 351.514C243.925 351.197 243.842 350.739 243.875 350.139L243.925 349.464C244.125 346.664 245.625 345.264 248.425 345.264H253.875V344.014C253.875 343.564 253.975 343.214 254.175 342.964C254.375 342.731 254.667 342.614 255.05 342.614C255.433 342.614 255.725 342.731 255.925 342.964C256.125 343.214 256.225 343.564 256.225 344.014V345.264H258.525C258.975 345.264 259.333 345.406 259.6 345.689C259.867 345.972 260 346.356 260 346.839C260 347.306 259.867 347.681 259.6 347.964C259.333 348.247 258.975 348.389 258.525 348.389H256.225V350.514C256.225 350.964 256.125 351.306 255.925 351.539C255.725 351.789 255.433 351.914 255.05 351.914C254.667 351.914 254.375 351.789 254.175 351.539C253.975 351.306 253.875 350.964 253.875 350.514V348.389H248.2C246.967 348.389 246.308 348.956 246.225 350.089L246.175 350.764ZM243.85 355.193C243.85 354.743 243.975 354.368 244.225 354.068C244.492 353.784 244.867 353.643 245.35 353.643H255C255.483 353.643 255.85 353.784 256.1 354.068C256.35 354.368 256.475 354.743 256.475 355.193C256.475 355.643 256.35 356.018 256.1 356.318C255.85 356.618 255.483 356.768 255 356.768H245.35C244.867 356.768 244.492 356.618 244.225 356.318C243.975 356.018 243.85 355.643 243.85 355.193ZM258.7 355.193C258.7 354.626 258.85 354.176 259.15 353.843C259.467 353.509 259.875 353.343 260.375 353.343C260.875 353.343 261.275 353.509 261.575 353.843C261.875 354.176 262.025 354.626 262.025 355.193C262.025 355.743 261.875 356.184 261.575 356.518C261.275 356.868 260.875 357.043 260.375 357.043C259.875 357.043 259.467 356.876 259.15 356.543C258.85 356.209 258.7 355.759 258.7 355.193ZM247.4 369.165C247.4 369.432 247.283 369.657 247.05 369.84C246.817 370.024 246.525 370.115 246.175 370.115C245.892 370.115 245.642 370.049 245.425 369.915C245.225 369.799 245.042 369.599 244.875 369.315C244.275 368.415 243.925 367.324 243.825 366.04L242.95 365.94C242.983 366.207 243 366.399 243 366.515C243 367.032 242.85 367.465 242.55 367.815C242.233 368.182 241.808 368.365 241.275 368.365C240.642 368.365 240.125 368.082 239.725 367.515C239.325 366.965 239.125 366.182 239.125 365.165C239.125 364.465 239.208 363.882 239.375 363.415C239.442 363.265 239.533 363.149 239.65 363.065C239.767 362.982 239.9 362.94 240.05 362.94C240.283 362.94 240.475 363.007 240.625 363.14C240.758 363.29 240.792 363.482 240.725 363.715C240.592 364.282 240.525 364.749 240.525 365.115C240.525 365.949 240.775 366.365 241.275 366.365C241.442 366.365 241.575 366.307 241.675 366.19C241.775 366.074 241.825 365.907 241.825 365.69C241.825 365.524 241.8 365.307 241.75 365.04C241.683 364.774 241.65 364.607 241.65 364.54C241.65 364.39 241.7 364.265 241.8 364.165C241.883 364.082 242 364.049 242.15 364.065L243.875 364.265C244.108 362.732 244.775 361.524 245.875 360.64C246.992 359.757 248.4 359.315 250.1 359.315C251.367 359.315 252.483 359.574 253.45 360.09C254.433 360.624 255.192 361.365 255.725 362.315C256.258 363.265 256.525 364.357 256.525 365.59C256.525 366.24 256.433 366.89 256.25 367.54C256.067 368.207 255.817 368.79 255.5 369.29C255.15 369.824 254.708 370.09 254.175 370.09C253.808 370.09 253.508 369.999 253.275 369.815C253.058 369.649 252.95 369.424 252.95 369.14C252.95 368.957 252.992 368.765 253.075 368.565C253.158 368.365 253.258 368.165 253.375 367.965C253.592 367.599 253.758 367.249 253.875 366.915C254.008 366.582 254.075 366.199 254.075 365.765C254.075 364.732 253.733 363.932 253.05 363.365C252.383 362.815 251.417 362.54 250.15 362.54C248.9 362.54 247.933 362.815 247.25 363.365C246.583 363.932 246.25 364.732 246.25 365.765C246.25 366.182 246.308 366.549 246.425 366.865C246.558 367.199 246.733 367.565 246.95 367.965C247.1 368.215 247.208 368.432 247.275 368.615C247.358 368.799 247.4 368.982 247.4 369.165ZM256.525 377.497C256.525 379.197 256.1 380.456 255.25 381.272C254.417 382.106 253.142 382.522 251.425 382.522H245.325C244.875 382.522 244.517 382.389 244.25 382.122C244 381.856 243.875 381.489 243.875 381.022C243.875 380.589 244.008 380.231 244.275 379.947C244.542 379.681 244.892 379.547 245.325 379.547H245.875C245.225 379.264 244.717 378.814 244.35 378.197C243.983 377.597 243.8 376.897 243.8 376.097C243.8 375.281 243.967 374.539 244.3 373.872C244.633 373.206 245.092 372.681 245.675 372.297C246.258 371.914 246.908 371.722 247.625 371.722C248.525 371.722 249.233 371.947 249.75 372.397C250.267 372.864 250.642 373.614 250.875 374.647C251.108 375.681 251.225 377.106 251.225 378.922V379.547H251.8C252.617 379.547 253.208 379.372 253.575 379.022C253.958 378.672 254.15 378.106 254.15 377.322C254.15 376.839 254.075 376.347 253.925 375.847C253.792 375.347 253.592 374.756 253.325 374.072C253.108 373.639 253 373.322 253 373.122C253 372.822 253.108 372.572 253.325 372.372C253.542 372.189 253.825 372.097 254.175 372.097C254.458 372.097 254.7 372.164 254.9 372.297C255.117 372.447 255.317 372.689 255.5 373.022C255.817 373.606 256.067 374.297 256.25 375.097C256.433 375.914 256.525 376.714 256.525 377.497ZM246.05 376.722C246.05 377.556 246.325 378.231 246.875 378.747C247.442 379.281 248.167 379.547 249.05 379.547H249.575V379.097C249.575 377.981 249.525 377.114 249.425 376.497C249.325 375.881 249.15 375.439 248.9 375.172C248.65 374.906 248.308 374.772 247.875 374.772C247.342 374.772 246.9 374.956 246.55 375.322C246.217 375.706 246.05 376.172 246.05 376.722ZM258.6 379.322C258.6 379.022 258.667 378.722 258.8 378.422C258.933 378.139 259.133 377.772 259.4 377.322C259.617 376.956 259.775 376.664 259.875 376.447C259.975 376.231 260.025 376.031 260.025 375.847C260.025 375.581 259.958 375.364 259.825 375.197C259.692 375.047 259.5 374.889 259.25 374.722C259.05 374.589 258.9 374.472 258.8 374.372C258.717 374.272 258.675 374.147 258.675 373.997C258.675 373.814 258.75 373.656 258.9 373.522C259.067 373.406 259.275 373.347 259.525 373.347C259.858 373.347 260.225 373.447 260.625 373.647C261.042 373.847 261.392 374.122 261.675 374.472C261.975 374.839 262.125 375.239 262.125 375.672C262.125 375.972 262.058 376.264 261.925 376.547C261.792 376.847 261.592 377.222 261.325 377.672C261.108 378.039 260.95 378.331 260.85 378.547C260.75 378.764 260.7 378.964 260.7 379.147C260.7 379.414 260.767 379.622 260.9 379.772C261.033 379.939 261.225 380.106 261.475 380.272C261.675 380.406 261.817 380.522 261.9 380.622C262 380.722 262.05 380.847 262.05 380.997C262.05 381.197 261.967 381.356 261.8 381.472C261.65 381.589 261.45 381.647 261.2 381.647C260.867 381.647 260.492 381.547 260.075 381.347C259.675 381.147 259.325 380.864 259.025 380.497C258.742 380.147 258.6 379.756 258.6 379.322ZM243.8 391.273C243.8 390.023 244.058 388.923 244.575 387.973C245.092 387.04 245.833 386.315 246.8 385.798C247.767 385.282 248.892 385.023 250.175 385.023C251.458 385.023 252.575 385.282 253.525 385.798C254.492 386.315 255.233 387.04 255.75 387.973C256.267 388.923 256.525 390.023 256.525 391.273C256.525 392.523 256.267 393.615 255.75 394.548C255.233 395.498 254.492 396.223 253.525 396.723C252.575 397.24 251.458 397.498 250.175 397.498C248.892 397.498 247.767 397.24 246.8 396.723C245.833 396.223 245.092 395.498 244.575 394.548C244.058 393.615 243.8 392.523 243.8 391.273ZM246.225 391.248C246.225 392.265 246.558 393.04 247.225 393.573C247.892 394.107 248.875 394.373 250.175 394.373C251.458 394.373 252.433 394.107 253.1 393.573C253.783 393.04 254.125 392.273 254.125 391.273C254.125 390.273 253.783 389.498 253.1 388.948C252.433 388.415 251.458 388.148 250.175 388.148C248.875 388.148 247.892 388.415 247.225 388.948C246.558 389.482 246.225 390.248 246.225 391.248Z" fill="white"/>
</g>
<g filter="url(#filter5_d)">
<path d="M222.354 191.671C222.648 192.076 222.769 192.483 222.716 192.892C222.64 193.298 222.406 193.642 222.015 193.926L211.093 201.862L213.768 205.543C214.356 206.352 214.292 207.016 213.578 207.535C212.863 208.054 212.212 207.909 211.624 207.1L204.379 197.129C203.792 196.32 203.855 195.656 204.57 195.137C205.284 194.618 205.936 194.762 206.523 195.571L209.198 199.253L220.119 191.317C220.511 191.033 220.916 190.924 221.335 190.991C221.73 191.053 222.07 191.28 222.354 191.671ZM209.548 179.957C209.382 179.728 209.337 179.483 209.415 179.22C209.482 178.945 209.664 178.699 209.961 178.484C210.379 178.18 210.911 178.175 211.556 178.468C212.145 178.74 212.732 179.107 213.315 179.57C213.884 180.042 214.36 180.541 214.742 181.066C215.898 182.658 216.356 184.251 216.115 185.848C215.874 187.444 214.958 188.821 213.367 189.977C212.355 190.711 211.312 191.161 210.236 191.324C209.16 191.488 208.142 191.362 207.181 190.948C206.211 190.52 205.388 189.84 204.712 188.91C204.065 188.02 203.698 187.103 203.609 186.158C203.52 185.213 203.7 184.299 204.15 183.416C204.6 182.533 205.311 181.738 206.282 181.033C206.861 180.612 207.338 180.657 207.71 181.17L212.045 187.136C212.916 186.379 213.413 185.617 213.535 184.849C213.643 184.09 213.388 183.286 212.771 182.437C212.458 182.005 212.129 181.667 211.786 181.422C211.434 181.163 211.011 180.893 210.519 180.612C210.009 180.365 209.686 180.146 209.548 179.957ZM206.448 187.556C206.947 188.244 207.565 188.64 208.3 188.745C209.025 188.836 209.822 188.628 210.69 188.121L207.369 183.55C206.566 184.174 206.092 184.827 205.949 185.508C205.792 186.199 205.958 186.882 206.448 187.556ZM202.091 167.906C202.157 167.487 202.345 167.165 202.655 166.94C202.952 166.724 203.305 166.643 203.714 166.696C204.11 166.759 204.421 166.945 204.646 167.255C204.891 167.592 204.96 167.985 204.853 168.433L203.77 173.578L208.997 174.137C209.453 174.197 209.798 174.389 210.033 174.713C210.249 175.009 210.325 175.356 210.263 175.751C210.2 176.147 210.02 176.453 209.724 176.668C209.413 176.894 209.049 176.973 208.63 176.907L203.269 176.29L202.263 181.286C202.196 181.705 202.008 182.027 201.698 182.252C201.388 182.477 201.042 182.554 200.659 182.481C200.263 182.419 199.958 182.239 199.742 181.942C199.507 181.619 199.431 181.231 199.515 180.779L200.513 175.943L195.606 175.399C195.15 175.339 194.805 175.147 194.57 174.823C194.344 174.513 194.268 174.167 194.341 173.784C194.39 173.399 194.569 173.093 194.88 172.868C195.19 172.642 195.554 172.563 195.973 172.629L201.035 173.216L202.091 167.906ZM196.869 160.507C196.42 159.803 196.478 159.246 197.044 158.834C197.368 158.599 197.715 158.553 198.087 158.695C198.435 158.834 198.771 159.156 199.097 159.661L199.453 160.236C200.937 162.619 200.547 164.633 198.282 166.279L193.872 169.482L194.607 170.494C194.872 170.858 194.996 171.2 194.982 171.519C194.957 171.826 194.79 172.092 194.479 172.317C194.169 172.542 193.865 172.619 193.566 172.548C193.257 172.463 192.97 172.239 192.706 171.875L191.971 170.864L190.11 172.216C189.746 172.48 189.373 172.576 188.991 172.504C188.609 172.431 188.276 172.199 187.991 171.808C187.717 171.431 187.605 171.049 187.654 170.663C187.703 170.277 187.91 169.952 188.274 169.687L190.134 168.335L188.885 166.616C188.621 166.252 188.501 165.917 188.526 165.611C188.54 165.291 188.703 165.018 189.013 164.793C189.323 164.568 189.633 164.497 189.941 164.582C190.24 164.653 190.522 164.871 190.787 165.235L192.036 166.954L196.627 163.618C197.625 162.894 197.824 162.048 197.225 161.082L196.869 160.507ZM193.822 152.272C194.556 153.283 194.994 154.325 195.134 155.397C195.265 156.456 195.091 157.478 194.613 158.464C194.134 159.451 193.376 160.321 192.338 161.075C191.3 161.83 190.244 162.277 189.172 162.417C188.086 162.568 187.06 162.417 186.094 161.966C185.117 161.501 184.262 160.763 183.527 159.751C182.792 158.74 182.359 157.705 182.229 156.646C182.088 155.574 182.262 154.552 182.75 153.579C183.215 152.602 183.967 151.737 185.005 150.983C186.043 150.228 187.105 149.776 188.191 149.626C189.267 149.462 190.293 149.613 191.27 150.078C192.236 150.529 193.087 151.26 193.822 152.272ZM191.874 153.717C191.277 152.895 190.552 152.464 189.699 152.424C188.846 152.385 187.894 152.747 186.842 153.511C185.804 154.265 185.172 155.054 184.946 155.877C184.706 156.711 184.881 157.532 185.468 158.341C186.056 159.15 186.788 159.576 187.664 159.619C188.517 159.659 189.463 159.301 190.501 158.547C191.553 157.783 192.191 156.989 192.417 156.166C192.643 155.343 192.462 154.526 191.874 153.717ZM186.045 141.569C187.113 143.038 187.685 144.435 187.762 145.76C187.819 146.378 187.612 146.858 187.14 147.201C186.87 147.397 186.601 147.479 186.331 147.449C186.048 147.428 185.828 147.309 185.671 147.094C185.505 146.864 185.382 146.469 185.304 145.908C185.193 145.329 185.064 144.826 184.917 144.397C184.761 143.954 184.481 143.457 184.08 142.904C183.668 142.338 183.256 141.968 182.841 141.795C182.418 141.608 182.037 141.638 181.7 141.883C181.471 142.049 181.338 142.249 181.301 142.482C181.254 142.701 181.299 143.018 181.436 143.434C181.55 143.846 181.778 144.442 182.119 145.224C182.748 146.601 183.032 147.714 182.969 148.563C182.896 149.398 182.469 150.1 181.687 150.668C181.093 151.099 180.433 151.311 179.707 151.303C178.967 151.306 178.248 151.096 177.551 150.676C176.831 150.251 176.186 149.648 175.618 148.866C175.207 148.3 174.884 147.7 174.65 147.066C174.403 146.442 174.263 145.824 174.229 145.21C174.185 144.582 174.385 144.107 174.83 143.784C175.1 143.588 175.383 143.495 175.68 143.506C175.963 143.527 176.183 143.646 176.339 143.861C176.447 144.01 176.528 144.178 176.582 144.365C176.612 144.549 176.645 144.793 176.681 145.097C176.762 145.635 176.859 146.08 176.97 146.431C177.068 146.793 177.269 147.183 177.573 147.601C177.935 148.1 178.325 148.424 178.743 148.574C179.151 148.71 179.53 148.65 179.881 148.396C180.218 148.151 180.366 147.816 180.326 147.392C180.286 146.968 180.045 146.268 179.603 145.291C179.135 144.251 178.837 143.386 178.707 142.697C178.578 142.009 178.617 141.424 178.824 140.944C179.021 140.45 179.403 139.998 179.97 139.586C180.887 138.92 181.901 138.77 183.012 139.137C184.113 139.491 185.124 140.301 186.045 141.569Z" fill="white"/>
</g>
<defs>
<filter id="filter0_d" x="10" y="0" width="480" height="479" filterUnits="userSpaceOnUse" color-interpolation-filters="sRGB">
<feFlood flood-opacity="0" result="BackgroundImageFix"/>
<feColorMatrix in="SourceAlpha" type="matrix" values="0 0 0 0 0 0 0 0 0 0 0 0 0 0 0 0 0 0 127 0"/>
<feOffset/>
<feGaussianBlur stdDeviation="5"/>
<feColorMatrix type="matrix" values="0 0 0 0 0.196078 0 0 0 0 0.184314 0 0 0 0 0.27451 0 0 0 1 0"/>
<feBlend mode="hard-light" in2="BackgroundImageFix" result="effect1_dropShadow"/>
<feBlend mode="normal" in="SourceGraphic" in2="effect1_dropShadow" result="shape"/>
</filter>
<filter id="filter1_d" x="265.586" y="85.8801" width="97.8534" height="118.49" filterUnits="userSpaceOnUse" color-interpolation-filters="sRGB">
<feFlood flood-opacity="0" result="BackgroundImageFix"/>
<feColorMatrix in="SourceAlpha" type="matrix" values="0 0 0 0 0 0 0 0 0 0 0 0 0 0 0 0 0 0 127 0"/>
<feOffset/>
<feGaussianBlur stdDeviation="2"/>
<feColorMatrix type="matrix" values="0 0 0 0 1 0 0 0 0 1 0 0 0 0 1 0 0 0 0.57 0"/>
<feBlend mode="normal" in2="BackgroundImageFix" result="effect1_dropShadow"/>
<feBlend mode="normal" in="SourceGraphic" in2="effect1_dropShadow" result="shape"/>
</filter>
<filter id="filter2_d" x="90.4907" y="247.012" width="119.473" height="62.6115" filterUnits="userSpaceOnUse" color-interpolation-filters="sRGB">
<feFlood flood-opacity="0" result="BackgroundImageFix"/>
<feColorMatrix in="SourceAlpha" type="matrix" values="0 0 0 0 0 0 0 0 0 0 0 0 0 0 0 0 0 0 127 0"/>
<feOffset/>
<feGaussianBlur stdDeviation="2"/>
<feColorMatrix type="matrix" values="0 0 0 0 1 0 0 0 0 1 0 0 0 0 1 0 0 0 0.57 0"/>
<feBlend mode="normal" in2="BackgroundImageFix" result="effect1_dropShadow"/>
<feBlend mode="normal" in="SourceGraphic" in2="effect1_dropShadow" result="shape"/>
</filter>
<filter id="filter3_d" x="294.237" y="245.059" width="90.1634" height="54.5739" filterUnits="userSpaceOnUse" color-interpolation-filters="sRGB">
<feFlood flood-opacity="0" result="BackgroundImageFix"/>
<feColorMatrix in="SourceAlpha" type="matrix" values="0 0 0 0 0 0 0 0 0 0 0 0 0 0 0 0 0 0 127 0"/>
<feOffset/>
<feGaussianBlur stdDeviation="2"/>
<feColorMatrix type="matrix" values="0 0 0 0 1 0 0 0 0 1 0 0 0 0 1 0 0 0 0.57 0"/>
<feBlend mode="normal" in2="BackgroundImageFix" result="effect1_dropShadow"/>
<feBlend mode="normal" in="SourceGraphic" in2="effect1_dropShadow" result="shape"/>
</filter>
<filter id="filter4_d" x="235.125" y="281.9" width="31" height="119.598" filterUnits="userSpaceOnUse" color-interpolation-filters="sRGB">
<feFlood flood-opacity="0" result="BackgroundImageFix"/>
<feColorMatrix in="SourceAlpha" type="matrix" values="0 0 0 0 0 0 0 0 0 0 0 0 0 0 0 0 0 0 127 0"/>
<feOffset/>
<feGaussianBlur stdDeviation="2"/>
<feColorMatrix type="matrix" values="0 0 0 0 1 0 0 0 0 1 0 0 0 0 1 0 0 0 0.57 0"/>
<feBlend mode="normal" in2="BackgroundImageFix" result="effect1_dropShadow"/>
<feBlend mode="normal" in="SourceGraphic" in2="effect1_dropShadow" result="shape"/>
</filter>
<filter id="filter5_d" x="170.223" y="134.942" width="56.5052" height="76.8976" filterUnits="userSpaceOnUse" color-interpolation-filters="sRGB">
<feFlood flood-opacity="0" result="BackgroundImageFix"/>
<feColorMatrix in="SourceAlpha" type="matrix" values="0 0 0 0 0 0 0 0 0 0 0 0 0 0 0 0 0 0 127 0"/>
<feOffset/>
<feGaussianBlur stdDeviation="2"/>
<feColorMatrix type="matrix" values="0 0 0 0 1 0 0 0 0 1 0 0 0 0 1 0 0 0 0.57 0"/>
<feBlend mode="normal" in2="BackgroundImageFix" result="effect1_dropShadow"/>
<feBlend mode="normal" in="SourceGraphic" in2="effect1_dropShadow" result="shape"/>
</filter>
</defs>
</svg>
