<svg width="350" viewBox="0 0 500 500" fill="none" xmlns="http://www.w3.org/2000/svg">
<g clip-path="url(#clip0)">
<rect width="500" height="500" fill="white"/>
<path d="M250 50C292.457 50 333.823 63.4105 368.168 88.3087C402.512 113.207 428.071 148.314 441.18 188.596L250 250.5L250 50Z" fill="#0E6EC7"/>
<path d="M441.353 188.382C454.457 228.712 454.454 272.156 441.344 312.485C428.235 352.813 402.691 387.955 368.377 412.87L250.42 250.42L441.353 188.382Z" fill="#FD139F"/>
<path d="M368.423 412.837C334.116 437.763 292.797 451.185 250.392 451.179C207.986 451.173 166.671 437.739 132.371 412.804L250.42 250.42L368.423 412.837Z" fill="#F5F17E"/>
<path d="M59.4875 188.382C46.3834 228.712 46.3865 272.156 59.4963 312.485C72.606 352.813 98.1492 387.955 132.463 412.87L250.42 250.42L59.4875 188.382Z" fill="#39F963"/>
<path d="M250 50C207.541 50 166.172 63.4123 131.826 88.3135C97.4798 113.215 71.9212 148.326 58.8151 188.611L250 250.5L250 50Z" fill="#F92D2D"/>
<ellipse cx="250" cy="248" rx="209" ry="198" fill="black" style="mix-blend-mode:soft-light"/>
<g filter="url(#filter0_d)">
<path d="M250 465.5C368.983 465.5 465.5 369.275 465.5 250.5C465.5 131.725 368.983 35.5 250 35.5C131.017 35.5 34.5 131.725 34.5 250.5C34.5 369.275 131.017 465.5 250 465.5Z" stroke="#322F46" stroke-width="29"/>
</g>
<g filter="url(#filter1_d)">
<path d="M278.181 188.757C278.455 188.38 278.797 188.164 279.206 188.111C279.602 188.049 279.995 188.159 280.386 188.444L292.36 197.143C292.737 197.417 292.956 197.74 293.015 198.113C293.074 198.485 292.976 198.847 292.721 199.197C292.466 199.548 292.158 199.746 291.795 199.792C291.432 199.837 291.062 199.723 290.685 199.448L282.352 193.394L286.366 201.564C286.545 201.942 286.641 202.278 286.652 202.575C286.649 202.862 286.555 203.133 286.369 203.389C286.183 203.646 285.954 203.819 285.682 203.91C285.41 204.001 285.06 204.014 284.632 203.951L275.708 202.751L283.94 208.732C284.304 208.996 284.522 209.32 284.595 209.702C284.664 210.061 284.571 210.416 284.316 210.766C284.061 211.117 283.752 211.315 283.39 211.361C283.027 211.406 282.657 211.292 282.279 211.017L270.306 202.318C269.915 202.034 269.683 201.701 269.611 201.319C269.535 200.913 269.634 200.521 269.908 200.144C270.29 199.618 270.879 199.417 271.674 199.542L283.492 201.268L278.184 190.582C277.819 189.864 277.819 189.256 278.181 188.757ZM288.518 183.418C289.518 182.043 290.601 181.275 291.769 181.113C292.933 180.929 294.209 181.341 295.598 182.35L300.533 185.936C300.897 186.2 301.109 186.519 301.168 186.891C301.213 187.254 301.099 187.624 300.824 188.002C300.57 188.352 300.251 188.564 299.869 188.636C299.496 188.695 299.135 188.597 298.784 188.343L298.339 188.02C298.699 188.631 298.846 189.294 298.78 190.008C298.724 190.709 298.461 191.383 297.99 192.03C297.51 192.691 296.939 193.193 296.278 193.536C295.616 193.88 294.937 194.035 294.24 194.002C293.543 193.97 292.904 193.743 292.324 193.321C291.596 192.792 291.155 192.194 291.002 191.526C290.858 190.845 290.996 190.018 291.414 189.045C291.833 188.072 292.576 186.85 293.644 185.38L294.011 184.875L293.546 184.537C292.885 184.057 292.304 183.851 291.801 183.918C291.286 183.976 290.797 184.322 290.337 184.956C290.053 185.347 289.825 185.789 289.652 186.281C289.466 186.764 289.28 187.36 289.094 188.07C289.015 188.548 288.916 188.868 288.799 189.029C288.622 189.272 288.388 189.411 288.095 189.445C287.812 189.466 287.529 189.374 287.246 189.168C287.016 189.002 286.86 188.806 286.777 188.58C286.689 188.331 286.67 188.018 286.717 187.641C286.804 186.983 287.008 186.276 287.33 185.521C287.662 184.753 288.058 184.052 288.518 183.418ZM296.537 190.202C297.027 189.528 297.201 188.82 297.06 188.079C296.915 187.314 296.485 186.672 295.771 186.153L295.346 185.845L295.082 186.209C294.425 187.112 293.956 187.843 293.675 188.4C293.393 188.958 293.275 189.418 293.321 189.781C293.366 190.144 293.564 190.452 293.915 190.707C294.346 191.02 294.811 191.132 295.31 191.041C295.805 190.927 296.214 190.647 296.537 190.202ZM305.445 177.73C305.975 177.085 306.523 176.968 307.089 177.38C307.413 177.615 307.565 177.931 307.544 178.328C307.52 178.702 307.318 179.121 306.938 179.587L306.501 180.104C304.693 182.252 302.657 182.503 300.392 180.857L295.982 177.653L295.248 178.665C294.983 179.029 294.697 179.253 294.388 179.338C294.089 179.409 293.784 179.332 293.474 179.107C293.164 178.881 292.997 178.615 292.972 178.309C292.957 177.989 293.082 177.647 293.346 177.283L294.081 176.272L292.22 174.92C291.856 174.656 291.65 174.33 291.601 173.944C291.551 173.558 291.669 173.17 291.953 172.779C292.227 172.401 292.555 172.176 292.938 172.104C293.32 172.031 293.693 172.127 294.057 172.392L295.918 173.744L297.167 172.025C297.432 171.661 297.713 171.443 298.012 171.372C298.321 171.287 298.63 171.357 298.941 171.583C299.251 171.808 299.413 172.081 299.428 172.4C299.453 172.707 299.333 173.042 299.068 173.406L297.819 175.125L302.41 178.461C303.408 179.186 304.274 179.114 305.007 178.246L305.445 177.73ZM311.873 166.883C312.039 166.654 312.259 166.535 312.532 166.528C312.816 166.507 313.105 166.604 313.402 166.82C313.82 167.123 313.989 167.628 313.91 168.332C313.833 168.977 313.665 169.648 313.406 170.345C313.133 171.033 312.805 171.639 312.423 172.165C311.267 173.756 309.893 174.684 308.3 174.948C306.707 175.212 305.115 174.767 303.524 173.611C302.513 172.876 301.763 172.022 301.275 171.049C300.787 170.077 300.591 169.07 300.689 168.028C300.796 166.973 301.188 165.98 301.864 165.05C302.51 164.16 303.269 163.527 304.14 163.15C305.011 162.773 305.936 162.663 306.916 162.818C307.895 162.973 308.87 163.403 309.84 164.109C310.42 164.53 310.524 164.997 310.152 165.509L305.817 171.475C306.806 172.071 307.685 172.307 308.453 172.186C309.208 172.054 309.894 171.564 310.511 170.714C310.824 170.283 311.045 169.866 311.172 169.464C311.309 169.048 311.435 168.563 311.55 168.008C311.628 167.447 311.736 167.072 311.873 166.883ZM303.688 166.282C303.188 166.97 303.002 167.679 303.13 168.411C303.268 169.129 303.711 169.822 304.462 170.491L307.783 165.92C306.941 165.349 306.173 165.101 305.481 165.175C304.775 165.239 304.178 165.608 303.688 166.282ZM315.107 146.822C315.891 145.743 316.812 145.156 317.871 145.059C318.926 144.94 320.168 145.4 321.597 146.438L326.573 150.053C326.964 150.337 327.179 150.679 327.218 151.078C327.254 151.454 327.135 151.831 326.86 152.209C326.596 152.573 326.274 152.803 325.896 152.899C325.514 152.971 325.127 152.865 324.736 152.581L319.76 148.966C319.019 148.427 318.395 148.18 317.889 148.225C317.379 148.246 316.928 148.526 316.537 149.065C316.057 149.726 315.904 150.418 316.078 151.142C316.239 151.857 316.71 152.498 317.492 153.066L322.003 156.343C322.394 156.627 322.609 156.969 322.648 157.368C322.684 157.744 322.57 158.115 322.305 158.479C322.041 158.843 321.719 159.073 321.341 159.168C320.948 159.254 320.557 159.155 320.166 158.871L315.19 155.256C314.449 154.718 313.825 154.47 313.319 154.515C312.809 154.536 312.358 154.816 311.967 155.355C311.487 156.016 311.334 156.708 311.508 157.432C311.679 158.133 312.155 158.768 312.937 159.336L317.447 162.613C317.838 162.897 318.054 163.239 318.093 163.638C318.119 164.028 318 164.405 317.735 164.769C317.471 165.133 317.149 165.363 316.77 165.458C316.388 165.531 316.002 165.425 315.611 165.141L307.783 159.454C307.406 159.18 307.204 158.848 307.178 158.458C307.152 158.069 307.271 157.692 307.536 157.328C307.791 156.977 308.098 156.767 308.457 156.699C308.812 156.607 309.172 156.693 309.536 156.957L310.021 157.31C309.707 156.608 309.595 155.898 309.684 155.18C309.783 154.448 310.077 153.745 310.567 153.071C311.644 151.588 312.985 151.048 314.588 151.45C314.237 150.742 314.103 149.976 314.188 149.151C314.272 148.326 314.578 147.55 315.107 146.822ZM322.514 136.627C323.513 135.252 324.597 134.483 325.765 134.322C326.929 134.138 328.205 134.55 329.594 135.559L334.529 139.145C334.893 139.409 335.104 139.728 335.163 140.1C335.209 140.463 335.094 140.833 334.82 141.211C334.565 141.561 334.247 141.773 333.865 141.845C333.492 141.904 333.131 141.806 332.78 141.552L332.335 141.228C332.694 141.84 332.841 142.503 332.775 143.217C332.719 143.918 332.456 144.592 331.986 145.239C331.506 145.9 330.935 146.402 330.274 146.745C329.612 147.089 328.933 147.244 328.235 147.211C327.538 147.179 326.9 146.952 326.32 146.53C325.592 146.001 325.151 145.403 324.998 144.735C324.854 144.054 324.991 143.227 325.41 142.254C325.828 141.281 326.572 140.059 327.64 138.589L328.007 138.084L327.542 137.746C326.881 137.266 326.299 137.06 325.797 137.127C325.281 137.185 324.793 137.531 324.333 138.165C324.049 138.556 323.82 138.997 323.648 139.49C323.462 139.973 323.276 140.569 323.09 141.279C323.01 141.757 322.912 142.077 322.794 142.238C322.618 142.481 322.383 142.62 322.091 142.654C321.808 142.675 321.524 142.583 321.241 142.377C321.012 142.21 320.856 142.014 320.772 141.789C320.685 141.54 320.665 141.227 320.713 140.85C320.8 140.192 321.004 139.485 321.326 138.73C321.658 137.962 322.054 137.261 322.514 136.627ZM330.533 143.411C331.023 142.737 331.197 142.029 331.056 141.288C330.911 140.523 330.481 139.881 329.766 139.362L329.342 139.054L329.077 139.418C328.421 140.321 327.952 141.052 327.67 141.609C327.389 142.167 327.271 142.627 327.316 142.99C327.362 143.353 327.56 143.661 327.91 143.916C328.342 144.229 328.807 144.341 329.306 144.25C329.801 144.136 330.21 143.856 330.533 143.411ZM321.769 135.313C321.769 135.54 321.715 135.727 321.608 135.876C321.47 136.064 321.292 136.182 321.073 136.229C320.85 136.252 320.651 136.2 320.475 136.073C320.327 135.965 320.218 135.803 320.148 135.588L318.964 131.73C318.785 131.126 318.843 130.622 319.136 130.218C319.352 129.921 319.641 129.75 320.004 129.704C320.363 129.636 320.684 129.704 320.967 129.91C321.345 130.184 321.536 130.601 321.541 131.161L321.769 135.313ZM339.44 130.939C339.971 130.294 340.519 130.177 341.085 130.589C341.409 130.824 341.56 131.14 341.54 131.537C341.515 131.911 341.313 132.33 340.934 132.796L340.496 133.313C338.689 135.461 336.652 135.711 334.387 134.066L329.978 130.862L329.243 131.874C328.979 132.238 328.692 132.462 328.383 132.547C328.084 132.618 327.78 132.541 327.47 132.316C327.16 132.09 326.992 131.824 326.968 131.518C326.953 131.198 327.078 130.856 327.342 130.492L328.077 129.481L326.216 128.129C325.852 127.865 325.645 127.539 325.596 127.153C325.547 126.767 325.664 126.379 325.949 125.988C326.223 125.61 326.551 125.385 326.933 125.313C327.316 125.24 327.689 125.336 328.053 125.601L329.914 126.953L331.163 125.234C331.427 124.87 331.709 124.652 332.008 124.581C332.317 124.496 332.626 124.566 332.936 124.792C333.246 125.017 333.409 125.29 333.424 125.609C333.448 125.916 333.328 126.251 333.064 126.615L331.815 128.334L336.406 131.67C337.404 132.395 338.27 132.323 339.003 131.455L339.44 130.939ZM343.924 128.722C343.66 129.087 343.338 129.316 342.96 129.412C342.577 129.485 342.191 129.379 341.8 129.095L333.993 123.423C333.602 123.139 333.388 122.808 333.353 122.432C333.327 122.043 333.446 121.666 333.71 121.302C333.975 120.938 334.296 120.708 334.675 120.612C335.054 120.516 335.438 120.61 335.83 120.894L343.637 126.567C344.028 126.851 344.243 127.192 344.282 127.592C344.308 127.982 344.189 128.358 343.924 128.722ZM331.91 119.994C331.577 120.452 331.191 120.728 330.753 120.822C330.301 120.905 329.872 120.8 329.468 120.506C329.063 120.212 328.838 119.842 328.791 119.396C328.744 118.95 328.887 118.498 329.22 118.039C329.544 117.595 329.925 117.325 330.363 117.232C330.812 117.125 331.238 117.219 331.643 117.513C332.047 117.807 332.28 118.181 332.34 118.637C332.387 119.083 332.243 119.535 331.91 119.994ZM349.973 120.482C349.258 121.466 348.417 122.184 347.451 122.635C346.494 123.073 345.484 123.215 344.422 123.061C343.36 122.907 342.316 122.458 341.291 121.714C340.266 120.969 339.515 120.104 339.036 119.117C338.554 118.108 338.377 117.062 338.504 115.98C338.631 114.898 339.057 113.858 339.782 112.86C340.164 112.335 340.62 111.863 341.15 111.444C341.69 111.013 342.236 110.688 342.786 110.47C343.382 110.244 343.896 110.288 344.328 110.601C344.624 110.817 344.813 111.067 344.894 111.353C344.972 111.615 344.927 111.861 344.76 112.09C344.653 112.238 344.506 112.369 344.321 112.481C344.136 112.594 343.938 112.697 343.726 112.791C343.335 112.96 342.995 113.145 342.704 113.346C342.4 113.537 342.121 113.808 341.867 114.159C341.259 114.995 341.065 115.843 341.285 116.703C341.501 117.54 342.122 118.331 343.146 119.075C344.158 119.81 345.101 120.155 345.977 120.112C346.85 120.046 347.59 119.594 348.197 118.758C348.442 118.421 348.61 118.09 348.702 117.766C348.79 117.418 348.864 117.018 348.924 116.567C348.95 116.277 348.989 116.038 349.043 115.85C349.083 115.653 349.157 115.48 349.265 115.332C349.422 115.116 349.649 115.003 349.945 114.991C350.242 114.98 350.531 115.077 350.815 115.283C351.044 115.45 351.207 115.651 351.304 115.886C351.397 116.098 351.428 116.367 351.396 116.695C351.362 117.308 351.225 117.951 350.985 118.621C350.732 119.282 350.395 119.902 349.973 120.482ZM346.78 103.227C347.78 101.852 348.863 101.084 350.031 100.923C351.195 100.738 352.471 101.151 353.86 102.16L358.795 105.745C359.159 106.01 359.371 106.328 359.43 106.701C359.475 107.063 359.361 107.434 359.086 107.811C358.832 108.162 358.513 108.373 358.131 108.446C357.758 108.505 357.397 108.407 357.046 108.152L356.601 107.829C356.961 108.44 357.107 109.103 357.042 109.817C356.986 110.518 356.722 111.192 356.252 111.84C355.772 112.5 355.201 113.002 354.54 113.346C353.878 113.689 353.199 113.845 352.502 113.812C351.804 113.779 351.166 113.552 350.586 113.131C349.858 112.602 349.417 112.003 349.264 111.336C349.12 110.654 349.258 109.827 349.676 108.854C350.095 107.881 350.838 106.66 351.906 105.19L352.273 104.684L351.808 104.346C351.147 103.866 350.566 103.66 350.063 103.728C349.547 103.785 349.059 104.131 348.599 104.765C348.315 105.156 348.086 105.598 347.914 106.091C347.728 106.573 347.542 107.17 347.356 107.879C347.277 108.357 347.178 108.677 347.061 108.839C346.884 109.082 346.65 109.22 346.357 109.255C346.074 109.276 345.791 109.183 345.508 108.977C345.278 108.811 345.122 108.615 345.039 108.389C344.951 108.141 344.932 107.828 344.979 107.45C345.066 106.792 345.27 106.086 345.592 105.331C345.924 104.562 346.32 103.861 346.78 103.227ZM354.799 110.011C355.289 109.337 355.463 108.63 355.322 107.888C355.177 107.124 354.747 106.482 354.033 105.963L353.608 105.654L353.343 106.018C352.687 106.922 352.218 107.652 351.937 108.21C351.655 108.767 351.537 109.228 351.583 109.59C351.628 109.953 351.826 110.262 352.177 110.516C352.608 110.83 353.073 110.941 353.572 110.85C354.067 110.736 354.476 110.456 354.799 110.011Z" fill="white"/>
</g>
<g filter="url(#filter2_d)">
<path d="M105.904 315.607C104.722 316.106 103.537 316.426 102.348 316.567C101.168 316.686 100.134 316.616 99.2466 316.358C98.7833 316.246 98.451 315.952 98.2499 315.476C98.1136 315.154 98.0889 314.839 98.1758 314.53C98.2716 314.201 98.45 313.98 98.711 313.87C98.9873 313.753 99.3474 313.728 99.7914 313.793C100.653 313.99 101.489 314.044 102.302 313.954C103.114 313.864 103.958 313.634 104.833 313.264C105.954 312.79 106.732 312.235 107.169 311.598C107.599 310.946 107.655 310.244 107.337 309.492C107.09 308.908 106.618 308.583 105.92 308.516C105.232 308.427 104.173 308.513 102.745 308.773C101.271 309.052 100.03 309.178 99.0236 309.151C98.0171 309.124 97.1723 308.902 96.4894 308.485C95.8065 308.068 95.2705 307.399 94.8812 306.478C94.4789 305.526 94.3875 304.56 94.6069 303.581C94.8263 302.602 95.3243 301.704 96.101 300.887C96.8865 300.048 97.8779 299.376 99.0754 298.87C101.271 297.942 103.306 297.77 105.181 298.353C105.451 298.437 105.661 298.548 105.809 298.684C105.966 298.799 106.097 298.979 106.2 299.224C106.337 299.547 106.357 299.873 106.261 300.203C106.174 300.511 106 300.72 105.739 300.83C105.586 300.895 105.43 300.934 105.273 300.946C105.13 300.952 104.926 300.939 104.659 300.907C103.835 300.713 103.078 300.634 102.388 300.672C101.708 300.689 100.938 300.879 100.078 301.242C99.0339 301.683 98.2957 302.248 97.8633 302.938C97.4397 303.605 97.3869 304.315 97.7048 305.067C97.9709 305.697 98.4439 306.067 99.1239 306.178C99.804 306.288 100.85 306.217 102.263 305.964C103.759 305.693 105.011 305.571 106.017 305.598C107.033 305.603 107.886 305.804 108.578 306.199C109.285 306.588 109.824 307.219 110.193 308.095C110.596 309.046 110.684 310.004 110.458 310.968C110.241 311.91 109.736 312.793 108.944 313.616C108.161 314.418 107.148 315.081 105.904 315.607ZM122.237 304.823C122.498 304.713 122.748 304.725 122.986 304.86C123.239 304.988 123.437 305.221 123.579 305.559C123.781 306.034 123.665 306.554 123.234 307.116C122.835 307.628 122.344 308.116 121.762 308.579C121.173 309.027 120.58 309.378 119.981 309.631C118.169 310.396 116.513 310.481 115.013 309.885C113.512 309.288 112.379 308.084 111.614 306.273C111.127 305.122 110.926 304.003 111.01 302.918C111.094 301.833 111.447 300.87 112.069 300.028C112.705 299.18 113.553 298.532 114.613 298.085C115.626 297.656 116.603 297.506 117.543 297.633C118.484 297.76 119.333 298.143 120.091 298.782C120.85 299.42 121.462 300.292 121.93 301.398C122.209 302.058 122.056 302.511 121.473 302.758L114.68 305.629C115.22 306.649 115.85 307.305 116.57 307.598C117.285 307.875 118.125 307.809 119.093 307.4C119.584 307.193 119.988 306.95 120.304 306.671C120.636 306.386 120.995 306.036 121.38 305.62C121.737 305.179 122.022 304.914 122.237 304.823ZM115.538 300.082C114.755 300.413 114.23 300.924 113.961 301.617C113.708 302.303 113.73 303.126 114.028 304.086L119.232 301.886C118.805 300.963 118.277 300.354 117.646 300.06C117.008 299.75 116.306 299.757 115.538 300.082ZM131.448 291.024C131.878 290.842 132.275 290.819 132.64 290.954C133.005 291.09 133.275 291.365 133.45 291.779L138.968 304.836C139.137 305.235 139.135 305.616 138.963 305.978C138.79 306.341 138.489 306.613 138.059 306.794C137.629 306.976 137.232 306.999 136.867 306.864C136.524 306.737 136.271 306.482 136.109 306.098L134.104 301.355C134.026 302.111 133.739 302.803 133.244 303.428C132.757 304.032 132.115 304.503 131.316 304.84C130.334 305.255 129.366 305.384 128.412 305.226C127.459 305.068 126.583 304.642 125.783 303.949C124.999 303.249 124.36 302.316 123.867 301.149C123.374 299.982 123.146 298.866 123.184 297.8C123.231 296.713 123.527 295.765 124.072 294.955C124.632 294.14 125.395 293.528 126.363 293.119C127.176 292.775 127.972 292.647 128.751 292.734C129.539 292.799 130.234 293.075 130.838 293.562L130.595 292.986C130.42 292.571 130.411 292.186 130.568 291.83C130.725 291.474 131.018 291.205 131.448 291.024ZM131.155 302.275C132.061 301.893 132.627 301.283 132.852 300.446C133.092 299.602 132.969 298.605 132.483 297.453C131.99 296.286 131.357 295.495 130.584 295.08C129.827 294.658 128.988 294.642 128.067 295.031C127.161 295.414 126.591 296.035 126.357 296.894C126.123 297.753 126.252 298.766 126.745 299.932C127.225 301.068 127.852 301.844 128.624 302.259C129.391 302.659 130.234 302.665 131.155 302.275ZM144.726 285.412C145.171 285.224 145.576 285.198 145.941 285.333C146.306 285.468 146.576 285.743 146.751 286.158L150.527 295.093C150.696 295.492 150.694 295.873 150.521 296.235C150.364 296.591 150.07 296.86 149.641 297.041C149.226 297.217 148.847 297.241 148.504 297.115C148.161 296.988 147.906 296.725 147.737 296.326L147.494 295.75C147.4 296.514 147.125 297.191 146.669 297.782C146.207 298.357 145.599 298.804 144.847 299.122C142.084 300.289 140.047 299.323 138.736 296.222L136.342 290.557C136.167 290.142 136.158 289.757 136.315 289.401C136.472 289.045 136.766 288.776 137.196 288.595C137.641 288.407 138.046 288.38 138.411 288.516C138.776 288.651 139.046 288.926 139.221 289.34L141.625 295.028C141.962 295.826 142.373 296.349 142.857 296.597C143.342 296.845 143.93 296.822 144.621 296.53C145.419 296.193 145.946 295.663 146.201 294.94C146.465 294.195 146.412 293.385 146.043 292.51L143.872 287.374C143.697 286.96 143.688 286.575 143.845 286.219C144.002 285.863 144.296 285.594 144.726 285.412ZM161.637 288.172C161.898 288.062 162.147 288.074 162.385 288.209C162.638 288.337 162.836 288.57 162.979 288.907C163.18 289.383 163.065 289.903 162.633 290.465C162.234 290.977 161.744 291.465 161.161 291.928C160.573 292.376 159.979 292.727 159.38 292.98C157.569 293.745 155.913 293.83 154.412 293.234C152.912 292.637 151.779 291.433 151.013 289.622C150.526 288.471 150.325 287.352 150.41 286.267C150.494 285.182 150.847 284.219 151.468 283.377C152.105 282.529 152.953 281.881 154.012 281.434C155.025 281.005 156.002 280.855 156.942 280.982C157.883 281.109 158.732 281.492 159.491 282.131C160.249 282.769 160.862 283.641 161.329 284.747C161.608 285.407 161.456 285.86 160.872 286.107L154.079 288.978C154.619 289.998 155.249 290.654 155.97 290.947C156.684 291.224 157.525 291.158 158.492 290.749C158.983 290.542 159.387 290.299 159.704 290.02C160.036 289.735 160.394 289.385 160.779 288.969C161.136 288.528 161.422 288.263 161.637 288.172ZM154.938 283.431C154.155 283.762 153.629 284.273 153.361 284.966C153.108 285.652 153.13 286.475 153.427 287.435L158.631 285.235C158.205 284.312 157.676 283.703 157.045 283.409C156.408 283.099 155.705 283.106 154.938 283.431ZM151.715 280.559C151.637 280.972 151.436 281.247 151.114 281.383C150.868 281.487 150.606 281.489 150.329 281.389C150.067 281.282 149.884 281.106 149.78 280.861C149.696 280.661 149.681 280.432 149.734 280.174L150.603 276.578C150.69 276.27 150.795 276.026 150.918 275.847C151.042 275.668 151.226 275.527 151.472 275.423C151.733 275.313 151.971 275.276 152.185 275.312C152.399 275.348 152.643 275.453 152.915 275.627L156.09 277.488C156.306 277.614 156.46 277.785 156.55 277.999C156.654 278.245 156.645 278.502 156.524 278.771C156.417 279.033 156.241 279.216 155.996 279.32C155.673 279.456 155.336 279.408 154.985 279.177L152.28 277.335L151.715 280.559ZM167.927 275.553C169.278 274.982 170.445 274.941 171.43 275.429C172.414 275.918 173.234 276.938 173.89 278.488L176.284 284.153C176.465 284.583 176.478 284.976 176.321 285.332C176.179 285.681 175.885 285.95 175.44 286.138C174.995 286.326 174.59 286.353 174.225 286.217C173.86 286.082 173.587 285.799 173.405 285.37L171.079 279.866C170.709 278.991 170.271 278.425 169.765 278.169C169.274 277.906 168.675 277.924 167.969 278.222C167.14 278.572 166.583 279.116 166.296 279.852C166.026 280.581 166.075 281.384 166.445 282.259L168.615 287.394C168.797 287.824 168.809 288.217 168.652 288.572C168.495 288.928 168.194 289.2 167.749 289.389C167.303 289.577 166.898 289.603 166.534 289.468C166.184 289.326 165.919 289.04 165.737 288.61L161.971 279.699C161.802 279.299 161.796 278.922 161.953 278.566C162.111 278.21 162.412 277.938 162.857 277.75C163.256 277.581 163.63 277.568 163.98 277.709C164.338 277.829 164.598 278.081 164.761 278.465L165.023 279.087C165.141 278.295 165.451 277.594 165.953 276.984C166.455 276.374 167.113 275.897 167.927 275.553ZM184.808 282.233C183.687 282.707 182.596 282.887 181.536 282.775C180.49 282.656 179.552 282.256 178.722 281.576C177.891 280.895 177.23 279.972 176.737 278.805C176.243 277.638 176.047 276.509 176.146 275.417C176.255 274.304 176.643 273.317 177.31 272.456C177.978 271.595 178.879 270.924 180.015 270.444C180.614 270.191 181.249 270.022 181.919 269.938C182.604 269.847 183.239 269.851 183.823 269.948C184.45 270.062 184.868 270.366 185.075 270.857C185.218 271.195 185.25 271.507 185.172 271.793C185.103 272.057 184.938 272.245 184.677 272.355C184.508 272.426 184.315 272.463 184.099 272.464C183.882 272.465 183.659 272.451 183.429 272.421C183.007 272.364 182.62 272.347 182.268 272.369C181.909 272.376 181.53 272.464 181.13 272.633C180.179 273.035 179.575 273.661 179.319 274.511C179.072 275.339 179.195 276.337 179.688 277.503C180.174 278.655 180.804 279.438 181.577 279.853C182.358 280.247 183.225 280.243 184.177 279.84C184.56 279.678 184.875 279.482 185.122 279.251C185.377 278.998 185.646 278.694 185.93 278.339C186.102 278.104 186.26 277.919 186.403 277.787C186.539 277.639 186.692 277.529 186.861 277.457C187.106 277.354 187.359 277.373 187.619 277.517C187.878 277.661 188.076 277.894 188.213 278.216C188.323 278.477 188.359 278.733 188.32 278.985C188.291 279.214 188.178 279.461 187.982 279.725C187.636 280.233 187.187 280.712 186.635 281.162C186.077 281.597 185.468 281.954 184.808 282.233ZM192.463 278.944C192.049 279.119 191.655 279.15 191.281 279.036C190.916 278.901 190.64 278.611 190.452 278.165L186.695 269.277C186.507 268.831 186.495 268.439 186.658 268.098C186.837 267.751 187.134 267.49 187.548 267.315C187.963 267.139 188.357 267.109 188.731 267.222C189.104 267.336 189.385 267.615 189.573 268.06L193.33 276.949C193.518 277.394 193.526 277.798 193.353 278.16C193.174 278.507 192.878 278.769 192.463 278.944ZM186.682 265.265C186.16 265.486 185.687 265.523 185.264 265.376C184.833 265.214 184.521 264.903 184.326 264.442C184.132 263.982 184.129 263.549 184.32 263.142C184.51 262.736 184.866 262.423 185.388 262.202C185.895 261.988 186.36 261.955 186.784 262.101C187.223 262.241 187.54 262.541 187.734 263.002C187.929 263.463 187.934 263.904 187.751 264.325C187.56 264.731 187.204 265.044 186.682 265.265ZM196.83 263.338C198.396 262.676 199.721 262.577 200.804 263.043C201.896 263.486 202.776 264.498 203.444 266.079L205.819 271.698C205.994 272.113 206.011 272.494 205.869 272.844C205.72 273.178 205.431 273.436 205.002 273.618C204.602 273.786 204.22 273.803 203.856 273.668C203.506 273.526 203.247 273.255 203.078 272.856L202.864 272.35C202.856 273.059 202.64 273.702 202.214 274.28C201.805 274.851 201.231 275.292 200.494 275.604C199.742 275.922 198.994 276.057 198.25 276.009C197.506 275.962 196.844 275.744 196.264 275.356C195.684 274.968 195.254 274.444 194.975 273.784C194.625 272.955 194.556 272.215 194.77 271.564C194.999 270.906 195.543 270.269 196.404 269.651C197.265 269.034 198.533 268.372 200.206 267.665L200.782 267.422L200.558 266.892C200.24 266.14 199.848 265.663 199.383 265.461C198.912 265.244 198.315 265.288 197.593 265.593C197.148 265.782 196.725 266.042 196.322 266.375C195.914 266.692 195.447 267.107 194.921 267.619C194.606 267.987 194.357 268.21 194.172 268.288C193.896 268.405 193.624 268.402 193.355 268.28C193.102 268.152 192.907 267.927 192.771 267.604C192.661 267.343 192.628 267.095 192.673 266.859C192.727 266.601 192.871 266.322 193.107 266.024C193.521 265.505 194.061 265.006 194.727 264.525C195.407 264.038 196.109 263.643 196.83 263.338ZM200.194 273.288C200.962 272.964 201.476 272.448 201.738 271.74C202.009 271.01 201.972 270.239 201.628 269.425L201.424 268.941L201.009 269.117C199.981 269.551 199.202 269.935 198.673 270.267C198.144 270.599 197.805 270.932 197.657 271.266C197.509 271.6 197.519 271.967 197.687 272.366C197.895 272.857 198.236 273.193 198.71 273.372C199.193 273.53 199.687 273.502 200.194 273.288Z" fill="white"/>
</g>
<g filter="url(#filter3_d)">
<path d="M303.615 277.349C302.433 276.85 301.377 276.223 300.447 275.468C299.54 274.704 298.869 273.914 298.436 273.098C298.193 272.688 298.172 272.245 298.374 271.769C298.51 271.447 298.719 271.209 299 271.057C299.304 270.896 299.586 270.87 299.847 270.98C300.123 271.097 300.393 271.338 300.655 271.702C301.114 272.457 301.659 273.094 302.289 273.614C302.92 274.134 303.673 274.579 304.548 274.948C305.669 275.422 306.609 275.593 307.37 275.463C308.138 275.317 308.681 274.867 308.998 274.115C309.245 273.532 309.149 272.967 308.711 272.419C308.294 271.863 307.495 271.164 306.314 270.321C305.086 269.458 304.131 268.656 303.449 267.916C302.767 267.175 302.337 266.415 302.161 265.634C301.984 264.854 302.09 264.003 302.479 263.082C302.881 262.13 303.51 261.392 304.365 260.867C305.221 260.341 306.212 260.073 307.339 260.06C308.488 260.039 309.661 260.282 310.858 260.788C313.054 261.716 314.596 263.055 315.484 264.806C315.612 265.059 315.679 265.286 315.685 265.487C315.712 265.68 315.673 265.899 315.57 266.144C315.433 266.467 315.214 266.709 314.91 266.87C314.629 267.022 314.357 267.043 314.096 266.933C313.943 266.868 313.807 266.784 313.688 266.679C313.585 266.581 313.452 266.425 313.288 266.212C312.854 265.485 312.382 264.888 311.874 264.42C311.388 263.943 310.716 263.523 309.856 263.16C308.812 262.719 307.892 262.583 307.096 262.753C306.322 262.915 305.776 263.372 305.459 264.124C305.193 264.753 305.257 265.351 305.651 265.915C306.046 266.48 306.826 267.181 307.993 268.018C309.229 268.902 310.189 269.715 310.871 270.455C311.575 271.187 312.026 271.939 312.225 272.71C312.439 273.488 312.361 274.315 311.991 275.19C311.589 276.142 310.963 276.873 310.115 277.382C309.288 277.883 308.303 278.137 307.161 278.142C306.04 278.139 304.858 277.875 303.615 277.349ZM322.731 281.547C322.992 281.658 323.157 281.845 323.226 282.109C323.311 282.38 323.282 282.685 323.139 283.022C322.938 283.498 322.485 283.777 321.781 283.86C321.135 283.931 320.444 283.919 319.706 283.824C318.974 283.714 318.309 283.533 317.71 283.28C315.899 282.514 314.684 281.385 314.066 279.894C313.448 278.402 313.522 276.751 314.287 274.939C314.774 273.788 315.436 272.864 316.272 272.168C317.109 271.472 318.046 271.054 319.083 270.913C320.135 270.779 321.19 270.935 322.25 271.383C323.263 271.811 324.052 272.407 324.616 273.17C325.18 273.933 325.497 274.809 325.568 275.798C325.638 276.787 325.44 277.834 324.973 278.939C324.694 279.599 324.263 279.806 323.679 279.56L316.886 276.689C316.531 277.787 316.499 278.696 316.792 279.417C317.091 280.123 317.724 280.68 318.691 281.088C319.182 281.296 319.638 281.416 320.058 281.449C320.494 281.488 320.995 281.501 321.562 281.487C322.126 281.436 322.516 281.456 322.731 281.547ZM321.462 273.439C320.679 273.108 319.946 273.088 319.263 273.378C318.594 273.674 318.02 274.264 317.538 275.146L322.743 277.345C323.108 276.396 323.176 275.592 322.947 274.935C322.725 274.262 322.23 273.763 321.462 273.439ZM326.118 286.778C325.703 286.603 325.407 286.342 325.228 285.995C325.07 285.639 325.086 285.239 325.274 284.793L331.084 271.046C331.272 270.6 331.546 270.318 331.904 270.198C332.277 270.084 332.672 270.115 333.086 270.29C333.501 270.466 333.797 270.727 333.976 271.074C334.155 271.421 334.151 271.817 333.963 272.262L328.153 286.01C327.964 286.455 327.68 286.742 327.3 286.871C326.926 286.984 326.532 286.954 326.118 286.778ZM340.811 289.188C341.072 289.299 341.237 289.486 341.307 289.751C341.391 290.022 341.362 290.326 341.219 290.664C341.018 291.14 340.565 291.419 339.861 291.501C339.216 291.572 338.524 291.56 337.786 291.465C337.055 291.355 336.39 291.174 335.791 290.921C333.979 290.155 332.765 289.027 332.147 287.535C331.528 286.043 331.602 284.392 332.368 282.58C332.854 281.429 333.516 280.505 334.353 279.809C335.19 279.114 336.127 278.695 337.163 278.554C338.215 278.42 339.271 278.577 340.33 279.024C341.343 279.453 342.132 280.048 342.696 280.811C343.26 281.574 343.578 282.45 343.648 283.439C343.719 284.428 343.521 285.475 343.053 286.581C342.774 287.241 342.343 287.447 341.76 287.201L334.967 284.33C334.611 285.428 334.58 286.338 334.872 287.058C335.171 287.764 335.804 288.321 336.771 288.73C337.263 288.937 337.718 289.057 338.139 289.09C338.574 289.13 339.076 289.143 339.642 289.129C340.207 289.078 340.596 289.098 340.811 289.188ZM339.543 281.08C338.76 280.749 338.027 280.729 337.343 281.019C336.675 281.316 336.1 281.905 335.619 282.787L340.823 284.987C341.188 284.037 341.256 283.234 341.028 282.576C340.805 281.903 340.31 281.404 339.543 281.08ZM352.604 294.118C352.85 294.222 353.011 294.417 353.089 294.703C353.167 294.989 353.138 295.294 353.002 295.616C352.892 295.877 352.733 296.081 352.526 296.229C352.341 296.368 352.085 296.459 351.759 296.502C350.697 296.704 349.555 296.602 348.334 296.194L347.901 296.961C348.16 297.035 348.343 297.094 348.45 297.139C348.926 297.34 349.267 297.647 349.472 298.06C349.687 298.494 349.69 298.957 349.483 299.448C349.236 300.032 348.774 300.397 348.096 300.545C347.434 300.7 346.635 300.579 345.698 300.183C345.053 299.911 344.548 299.607 344.183 299.272C344.071 299.152 343.999 299.022 343.968 298.882C343.937 298.742 343.95 298.603 344.009 298.465C344.1 298.25 344.236 298.099 344.417 298.013C344.607 297.949 344.796 297.993 344.985 298.145C345.455 298.488 345.859 298.731 346.197 298.874C346.965 299.198 347.446 299.13 347.64 298.67C347.705 298.516 347.703 298.371 347.635 298.233C347.566 298.096 347.432 297.985 347.233 297.9C347.079 297.836 346.87 297.774 346.605 297.716C346.333 297.674 346.167 297.64 346.105 297.614C345.967 297.556 345.871 297.461 345.818 297.33C345.774 297.221 345.789 297.1 345.862 296.968L346.718 295.457C345.397 294.646 344.543 293.561 344.158 292.204C343.779 290.832 343.92 289.362 344.582 287.796C345.075 286.63 345.748 285.702 346.6 285.012C347.474 284.314 348.452 283.904 349.535 283.783C350.618 283.662 351.727 283.841 352.863 284.321C353.462 284.574 354.025 284.912 354.552 285.333C355.095 285.762 355.535 286.219 355.872 286.706C356.227 287.236 356.301 287.746 356.093 288.237C355.951 288.575 355.749 288.816 355.49 288.959C355.252 289.094 355.002 289.106 354.741 288.996C354.573 288.925 354.412 288.812 354.26 288.657C354.109 288.502 353.963 288.332 353.825 288.147C353.571 287.805 353.314 287.515 353.052 287.278C352.797 287.025 352.47 286.815 352.071 286.646C351.119 286.244 350.249 286.247 349.461 286.656C348.695 287.056 348.065 287.839 347.572 289.006C347.085 290.157 346.962 291.155 347.203 291.998C347.465 292.833 348.073 293.451 349.024 293.854C349.408 294.016 349.769 294.105 350.106 294.121C350.465 294.128 350.871 294.109 351.323 294.065C351.612 294.024 351.854 294.009 352.049 294.019C352.25 294.014 352.435 294.047 352.604 294.118ZM363.831 288.956C365.397 289.618 366.39 290.499 366.812 291.6C367.255 292.692 367.142 294.029 366.474 295.61L364.1 301.229C363.924 301.643 363.662 301.922 363.313 302.063C362.97 302.19 362.583 302.162 362.153 301.981C361.754 301.812 361.476 301.55 361.319 301.194C361.177 300.844 361.19 300.47 361.359 300.071L361.573 299.564C361.059 300.053 360.447 300.346 359.736 300.443C359.041 300.548 358.325 300.444 357.588 300.133C356.835 299.815 356.217 299.372 355.733 298.806C355.249 298.239 354.943 297.613 354.817 296.926C354.691 296.24 354.768 295.566 355.047 294.906C355.397 294.077 355.88 293.512 356.496 293.212C357.127 292.917 357.964 292.864 359.006 293.051C360.049 293.238 361.407 293.686 363.08 294.393L363.656 294.636L363.88 294.107C364.198 293.354 364.267 292.741 364.087 292.267C363.914 291.778 363.467 291.381 362.745 291.076C362.3 290.888 361.818 290.765 361.299 290.709C360.786 290.637 360.164 290.591 359.43 290.571C358.947 290.601 358.613 290.578 358.429 290.5C358.152 290.383 357.964 290.186 357.864 289.909C357.78 289.638 357.806 289.341 357.942 289.019C358.052 288.758 358.208 288.561 358.408 288.429C358.631 288.288 358.931 288.198 359.31 288.158C359.97 288.094 360.705 288.133 361.513 288.275C362.337 288.424 363.109 288.651 363.831 288.956ZM359.039 298.303C359.807 298.628 360.536 298.637 361.226 298.332C361.938 298.017 362.465 297.453 362.809 296.64L363.014 296.156L362.599 295.981C361.571 295.546 360.753 295.255 360.146 295.107C359.539 294.959 359.064 294.948 358.721 295.075C358.378 295.201 358.122 295.464 357.954 295.863C357.746 296.354 357.743 296.833 357.944 297.298C358.168 297.754 358.533 298.089 359.039 298.303ZM366.32 287.755C366.043 287.639 365.793 287.46 365.569 287.221C365.359 286.988 365.1 286.661 364.789 286.24C364.535 285.898 364.328 285.638 364.168 285.462C364.007 285.285 363.842 285.161 363.674 285.09C363.428 284.986 363.202 284.963 362.997 285.021C362.807 285.086 362.586 285.201 362.336 285.366C362.135 285.498 361.969 285.591 361.838 285.644C361.713 285.682 361.582 285.672 361.444 285.613C361.275 285.542 361.158 285.411 361.094 285.221C361.051 285.022 361.079 284.808 361.176 284.577C361.306 284.27 361.541 283.972 361.881 283.681C362.227 283.375 362.617 283.16 363.049 283.035C363.504 282.901 363.931 282.919 364.33 283.088C364.606 283.204 364.849 283.379 365.058 283.612C365.282 283.852 365.55 284.182 365.861 284.603C366.114 284.945 366.321 285.205 366.482 285.381C366.642 285.558 366.807 285.682 366.976 285.753C367.222 285.857 367.439 285.876 367.63 285.812C367.835 285.754 368.063 285.642 368.314 285.477C368.515 285.345 368.677 285.26 368.802 285.222C368.933 285.169 369.067 285.171 369.206 285.23C369.39 285.307 369.503 285.446 369.546 285.645C369.595 285.828 369.571 286.035 369.473 286.266C369.344 286.573 369.106 286.879 368.759 287.185C368.419 287.476 368.022 287.688 367.567 287.821C367.135 287.946 366.719 287.924 366.32 287.755ZM371.567 306.04C370.415 305.554 369.502 304.888 368.829 304.042C368.17 303.203 367.791 302.237 367.691 301.146C367.592 300.054 367.792 298.917 368.291 297.735C368.791 296.553 369.463 295.625 370.309 294.951C371.161 294.262 372.118 293.861 373.179 293.748C374.255 293.642 375.369 293.832 376.52 294.319C377.672 294.806 378.577 295.469 379.235 296.308C379.909 297.154 380.288 298.119 380.372 299.204C380.478 300.28 380.282 301.409 379.782 302.591C379.283 303.774 378.607 304.709 377.754 305.399C376.918 306.094 375.961 306.495 374.885 306.601C373.824 306.714 372.718 306.527 371.567 306.04ZM372.488 303.797C373.424 304.193 374.268 304.187 375.018 303.781C375.769 303.374 376.398 302.572 376.904 301.375C377.403 300.193 377.537 299.191 377.305 298.369C377.08 297.532 376.507 296.919 375.586 296.53C374.665 296.14 373.818 296.153 373.045 296.569C372.294 296.975 371.669 297.77 371.17 298.952C370.664 300.149 370.526 301.159 370.758 301.98C370.99 302.802 371.566 303.408 372.488 303.797Z" fill="white"/>
</g>
<g filter="url(#filter4_d)">
<path d="M246.025 311C245.725 311.2 245.433 311.3 245.15 311.3C244.767 311.3 244.45 311.142 244.2 310.825C243.95 310.525 243.825 310.167 243.825 309.75C243.825 309.483 243.883 309.225 244 308.975C244.133 308.742 244.325 308.542 244.575 308.375L249.625 305.05C250.158 304.717 250.533 304.358 250.75 303.975C250.967 303.608 251.075 303.125 251.075 302.525V300.075H245.475C244.975 300.075 244.575 299.933 244.275 299.65C243.992 299.367 243.85 298.983 243.85 298.5C243.85 298.017 243.992 297.625 244.275 297.325C244.575 297.042 244.975 296.9 245.475 296.9H260.1C260.583 296.9 260.958 297.033 261.225 297.3C261.492 297.583 261.625 297.967 261.625 298.45V304.7C261.625 306.7 261.175 308.217 260.275 309.25C259.392 310.3 258.108 310.825 256.425 310.825C255.058 310.825 253.933 310.433 253.05 309.65C252.183 308.883 251.625 307.792 251.375 306.375C251.258 306.858 251.05 307.283 250.75 307.65C250.45 308.017 250.033 308.375 249.5 308.725L246.025 311ZM253.55 304.25C253.55 305.467 253.775 306.358 254.225 306.925C254.692 307.492 255.4 307.775 256.35 307.775C257.317 307.775 258.017 307.492 258.45 306.925C258.9 306.358 259.125 305.467 259.125 304.25V300.05H253.55V304.25ZM247.35 323.683C247.35 323.966 247.242 324.191 247.025 324.358C246.808 324.541 246.517 324.633 246.15 324.633C245.633 324.633 245.2 324.324 244.85 323.708C244.533 323.141 244.275 322.499 244.075 321.783C243.892 321.066 243.8 320.383 243.8 319.733C243.8 317.766 244.367 316.208 245.5 315.058C246.633 313.908 248.183 313.333 250.15 313.333C251.4 313.333 252.508 313.583 253.475 314.083C254.442 314.583 255.192 315.283 255.725 316.183C256.258 317.099 256.525 318.133 256.525 319.283C256.525 320.383 256.283 321.341 255.8 322.158C255.317 322.974 254.633 323.608 253.75 324.058C252.867 324.508 251.825 324.733 250.625 324.733C249.908 324.733 249.55 324.416 249.55 323.783V316.408C248.4 316.508 247.55 316.833 247 317.383C246.467 317.933 246.2 318.733 246.2 319.783C246.2 320.316 246.267 320.783 246.4 321.183C246.533 321.599 246.717 322.066 246.95 322.583C247.217 323.083 247.35 323.449 247.35 323.683ZM254.325 319.358C254.325 318.508 254.058 317.824 253.525 317.308C252.992 316.808 252.225 316.508 251.225 316.408V322.058C252.242 322.024 253.008 321.774 253.525 321.308C254.058 320.841 254.325 320.191 254.325 319.358ZM256.525 334.314C256.525 335.364 256.258 336.297 255.725 337.114C255.192 337.947 254.433 338.589 253.45 339.039C252.483 339.506 251.367 339.739 250.1 339.739C248.833 339.739 247.725 339.506 246.775 339.039C245.825 338.589 245.092 337.956 244.575 337.139C244.058 336.322 243.8 335.381 243.8 334.314C243.8 333.447 243.983 332.672 244.35 331.989C244.717 331.306 245.225 330.781 245.875 330.414H240.775C240.342 330.414 240 330.272 239.75 329.989C239.5 329.706 239.375 329.331 239.375 328.864C239.375 328.397 239.508 328.014 239.775 327.714C240.042 327.431 240.392 327.289 240.825 327.289H255C255.45 327.289 255.808 327.422 256.075 327.689C256.342 327.972 256.475 328.347 256.475 328.814C256.475 329.281 256.342 329.656 256.075 329.939C255.808 330.222 255.45 330.364 255 330.364H254.375C255.058 330.731 255.583 331.256 255.95 331.939C256.333 332.639 256.525 333.431 256.525 334.314ZM246.225 333.489C246.225 334.472 246.558 335.239 247.225 335.789C247.908 336.339 248.867 336.614 250.1 336.614C251.367 336.614 252.35 336.339 253.05 335.789C253.75 335.239 254.1 334.472 254.1 333.489C254.1 332.489 253.758 331.714 253.075 331.164C252.392 330.631 251.417 330.364 250.15 330.364C248.9 330.364 247.933 330.631 247.25 331.164C246.567 331.714 246.225 332.489 246.225 333.489ZM247.35 351.979C247.35 352.262 247.242 352.487 247.025 352.654C246.808 352.837 246.517 352.929 246.15 352.929C245.633 352.929 245.2 352.62 244.85 352.004C244.533 351.437 244.275 350.795 244.075 350.079C243.892 349.362 243.8 348.679 243.8 348.029C243.8 346.062 244.367 344.504 245.5 343.354C246.633 342.204 248.183 341.629 250.15 341.629C251.4 341.629 252.508 341.879 253.475 342.379C254.442 342.879 255.192 343.579 255.725 344.479C256.258 345.395 256.525 346.429 256.525 347.579C256.525 348.679 256.283 349.637 255.8 350.454C255.317 351.27 254.633 351.904 253.75 352.354C252.867 352.804 251.825 353.029 250.625 353.029C249.908 353.029 249.55 352.712 249.55 352.079V344.704C248.4 344.804 247.55 345.129 247 345.679C246.467 346.229 246.2 347.029 246.2 348.079C246.2 348.612 246.267 349.079 246.4 349.479C246.533 349.895 246.717 350.362 246.95 350.879C247.217 351.379 247.35 351.745 247.35 351.979ZM254.325 347.654C254.325 346.804 254.058 346.12 253.525 345.604C252.992 345.104 252.225 344.804 251.225 344.704V350.354C252.242 350.32 253.008 350.07 253.525 349.604C254.058 349.137 254.325 348.487 254.325 347.654ZM246.175 361.764C246.125 362.597 245.75 363.014 245.05 363.014C244.65 363.014 244.342 362.847 244.125 362.514C243.925 362.197 243.842 361.739 243.875 361.139L243.925 360.464C244.125 357.664 245.625 356.264 248.425 356.264H253.875V355.014C253.875 354.564 253.975 354.214 254.175 353.964C254.375 353.731 254.667 353.614 255.05 353.614C255.433 353.614 255.725 353.731 255.925 353.964C256.125 354.214 256.225 354.564 256.225 355.014V356.264H258.525C258.975 356.264 259.333 356.406 259.6 356.689C259.867 356.972 260 357.356 260 357.839C260 358.306 259.867 358.681 259.6 358.964C259.333 359.247 258.975 359.389 258.525 359.389H256.225V361.514C256.225 361.964 256.125 362.306 255.925 362.539C255.725 362.789 255.433 362.914 255.05 362.914C254.667 362.914 254.375 362.789 254.175 362.539C253.975 362.306 253.875 361.964 253.875 361.514V359.389H248.2C246.967 359.389 246.308 359.956 246.225 361.089L246.175 361.764ZM243.85 366.193C243.85 365.743 243.975 365.368 244.225 365.068C244.492 364.784 244.867 364.643 245.35 364.643H255C255.483 364.643 255.85 364.784 256.1 365.068C256.35 365.368 256.475 365.743 256.475 366.193C256.475 366.643 256.35 367.018 256.1 367.318C255.85 367.618 255.483 367.768 255 367.768H245.35C244.867 367.768 244.492 367.618 244.225 367.318C243.975 367.018 243.85 366.643 243.85 366.193ZM258.7 366.193C258.7 365.626 258.85 365.176 259.15 364.843C259.467 364.509 259.875 364.343 260.375 364.343C260.875 364.343 261.275 364.509 261.575 364.843C261.875 365.176 262.025 365.626 262.025 366.193C262.025 366.743 261.875 367.184 261.575 367.518C261.275 367.868 260.875 368.043 260.375 368.043C259.875 368.043 259.467 367.876 259.15 367.543C258.85 367.209 258.7 366.759 258.7 366.193ZM247.4 380.165C247.4 380.432 247.283 380.657 247.05 380.84C246.817 381.024 246.525 381.115 246.175 381.115C245.892 381.115 245.642 381.049 245.425 380.915C245.225 380.799 245.042 380.599 244.875 380.315C244.275 379.415 243.925 378.324 243.825 377.04L242.95 376.94C242.983 377.207 243 377.399 243 377.515C243 378.032 242.85 378.465 242.55 378.815C242.233 379.182 241.808 379.365 241.275 379.365C240.642 379.365 240.125 379.082 239.725 378.515C239.325 377.965 239.125 377.182 239.125 376.165C239.125 375.465 239.208 374.882 239.375 374.415C239.442 374.265 239.533 374.149 239.65 374.065C239.767 373.982 239.9 373.94 240.05 373.94C240.283 373.94 240.475 374.007 240.625 374.14C240.758 374.29 240.792 374.482 240.725 374.715C240.592 375.282 240.525 375.749 240.525 376.115C240.525 376.949 240.775 377.365 241.275 377.365C241.442 377.365 241.575 377.307 241.675 377.19C241.775 377.074 241.825 376.907 241.825 376.69C241.825 376.524 241.8 376.307 241.75 376.04C241.683 375.774 241.65 375.607 241.65 375.54C241.65 375.39 241.7 375.265 241.8 375.165C241.883 375.082 242 375.049 242.15 375.065L243.875 375.265C244.108 373.732 244.775 372.524 245.875 371.64C246.992 370.757 248.4 370.315 250.1 370.315C251.367 370.315 252.483 370.574 253.45 371.09C254.433 371.624 255.192 372.365 255.725 373.315C256.258 374.265 256.525 375.357 256.525 376.59C256.525 377.24 256.433 377.89 256.25 378.54C256.067 379.207 255.817 379.79 255.5 380.29C255.15 380.824 254.708 381.09 254.175 381.09C253.808 381.09 253.508 380.999 253.275 380.815C253.058 380.649 252.95 380.424 252.95 380.14C252.95 379.957 252.992 379.765 253.075 379.565C253.158 379.365 253.258 379.165 253.375 378.965C253.592 378.599 253.758 378.249 253.875 377.915C254.008 377.582 254.075 377.199 254.075 376.765C254.075 375.732 253.733 374.932 253.05 374.365C252.383 373.815 251.417 373.54 250.15 373.54C248.9 373.54 247.933 373.815 247.25 374.365C246.583 374.932 246.25 375.732 246.25 376.765C246.25 377.182 246.308 377.549 246.425 377.865C246.558 378.199 246.733 378.565 246.95 378.965C247.1 379.215 247.208 379.432 247.275 379.615C247.358 379.799 247.4 379.982 247.4 380.165ZM256.525 388.497C256.525 390.197 256.1 391.456 255.25 392.272C254.417 393.106 253.142 393.522 251.425 393.522H245.325C244.875 393.522 244.517 393.389 244.25 393.122C244 392.856 243.875 392.489 243.875 392.022C243.875 391.589 244.008 391.231 244.275 390.947C244.542 390.681 244.892 390.547 245.325 390.547H245.875C245.225 390.264 244.717 389.814 244.35 389.197C243.983 388.597 243.8 387.897 243.8 387.097C243.8 386.281 243.967 385.539 244.3 384.872C244.633 384.206 245.092 383.681 245.675 383.297C246.258 382.914 246.908 382.722 247.625 382.722C248.525 382.722 249.233 382.947 249.75 383.397C250.267 383.864 250.642 384.614 250.875 385.647C251.108 386.681 251.225 388.106 251.225 389.922V390.547H251.8C252.617 390.547 253.208 390.372 253.575 390.022C253.958 389.672 254.15 389.106 254.15 388.322C254.15 387.839 254.075 387.347 253.925 386.847C253.792 386.347 253.592 385.756 253.325 385.072C253.108 384.639 253 384.322 253 384.122C253 383.822 253.108 383.572 253.325 383.372C253.542 383.189 253.825 383.097 254.175 383.097C254.458 383.097 254.7 383.164 254.9 383.297C255.117 383.447 255.317 383.689 255.5 384.022C255.817 384.606 256.067 385.297 256.25 386.097C256.433 386.914 256.525 387.714 256.525 388.497ZM246.05 387.722C246.05 388.556 246.325 389.231 246.875 389.747C247.442 390.281 248.167 390.547 249.05 390.547H249.575V390.097C249.575 388.981 249.525 388.114 249.425 387.497C249.325 386.881 249.15 386.439 248.9 386.172C248.65 385.906 248.308 385.772 247.875 385.772C247.342 385.772 246.9 385.956 246.55 386.322C246.217 386.706 246.05 387.172 246.05 387.722ZM258.6 390.322C258.6 390.022 258.667 389.722 258.8 389.422C258.933 389.139 259.133 388.772 259.4 388.322C259.617 387.956 259.775 387.664 259.875 387.447C259.975 387.231 260.025 387.031 260.025 386.847C260.025 386.581 259.958 386.364 259.825 386.197C259.692 386.047 259.5 385.889 259.25 385.722C259.05 385.589 258.9 385.472 258.8 385.372C258.717 385.272 258.675 385.147 258.675 384.997C258.675 384.814 258.75 384.656 258.9 384.522C259.067 384.406 259.275 384.347 259.525 384.347C259.858 384.347 260.225 384.447 260.625 384.647C261.042 384.847 261.392 385.122 261.675 385.472C261.975 385.839 262.125 386.239 262.125 386.672C262.125 386.972 262.058 387.264 261.925 387.547C261.792 387.847 261.592 388.222 261.325 388.672C261.108 389.039 260.95 389.331 260.85 389.547C260.75 389.764 260.7 389.964 260.7 390.147C260.7 390.414 260.767 390.622 260.9 390.772C261.033 390.939 261.225 391.106 261.475 391.272C261.675 391.406 261.817 391.522 261.9 391.622C262 391.722 262.05 391.847 262.05 391.997C262.05 392.197 261.967 392.356 261.8 392.472C261.65 392.589 261.45 392.647 261.2 392.647C260.867 392.647 260.492 392.547 260.075 392.347C259.675 392.147 259.325 391.864 259.025 391.497C258.742 391.147 258.6 390.756 258.6 390.322ZM243.8 402.273C243.8 401.023 244.058 399.923 244.575 398.973C245.092 398.04 245.833 397.315 246.8 396.798C247.767 396.282 248.892 396.023 250.175 396.023C251.458 396.023 252.575 396.282 253.525 396.798C254.492 397.315 255.233 398.04 255.75 398.973C256.267 399.923 256.525 401.023 256.525 402.273C256.525 403.523 256.267 404.615 255.75 405.548C255.233 406.498 254.492 407.223 253.525 407.723C252.575 408.24 251.458 408.498 250.175 408.498C248.892 408.498 247.767 408.24 246.8 407.723C245.833 407.223 245.092 406.498 244.575 405.548C244.058 404.615 243.8 403.523 243.8 402.273ZM246.225 402.248C246.225 403.265 246.558 404.04 247.225 404.573C247.892 405.107 248.875 405.373 250.175 405.373C251.458 405.373 252.433 405.107 253.1 404.573C253.783 404.04 254.125 403.273 254.125 402.273C254.125 401.273 253.783 400.498 253.1 399.948C252.433 399.415 251.458 399.148 250.175 399.148C248.875 399.148 247.892 399.415 247.225 399.948C246.558 400.482 246.225 401.248 246.225 402.248Z" fill="white"/>
</g>
<g filter="url(#filter5_d)">
<path d="M222.354 202.671C222.648 203.076 222.769 203.483 222.716 203.892C222.64 204.298 222.406 204.642 222.015 204.926L211.093 212.862L213.768 216.543C214.356 217.352 214.292 218.016 213.578 218.535C212.863 219.054 212.212 218.909 211.624 218.1L204.379 208.129C203.792 207.32 203.855 206.656 204.57 206.137C205.284 205.618 205.936 205.762 206.523 206.571L209.198 210.253L220.119 202.317C220.511 202.033 220.916 201.924 221.335 201.991C221.73 202.053 222.07 202.28 222.354 202.671ZM209.548 190.957C209.382 190.728 209.337 190.483 209.415 190.22C209.482 189.945 209.664 189.699 209.961 189.484C210.379 189.18 210.911 189.175 211.556 189.468C212.145 189.74 212.732 190.107 213.315 190.57C213.884 191.042 214.36 191.541 214.742 192.066C215.898 193.658 216.356 195.251 216.115 196.848C215.874 198.444 214.958 199.821 213.367 200.977C212.355 201.711 211.312 202.161 210.236 202.324C209.16 202.488 208.142 202.362 207.181 201.948C206.211 201.52 205.388 200.84 204.712 199.91C204.065 199.02 203.698 198.103 203.609 197.158C203.52 196.213 203.7 195.299 204.15 194.416C204.6 193.533 205.311 192.738 206.282 192.033C206.861 191.612 207.338 191.657 207.71 192.17L212.045 198.136C212.916 197.379 213.413 196.617 213.535 195.849C213.643 195.09 213.388 194.286 212.771 193.437C212.458 193.005 212.129 192.667 211.786 192.422C211.434 192.163 211.011 191.893 210.519 191.612C210.009 191.365 209.686 191.146 209.548 190.957ZM206.448 198.556C206.947 199.244 207.565 199.64 208.3 199.745C209.025 199.836 209.822 199.628 210.69 199.121L207.369 194.55C206.566 195.174 206.092 195.827 205.949 196.508C205.792 197.199 205.958 197.882 206.448 198.556ZM202.091 178.906C202.157 178.487 202.345 178.165 202.655 177.94C202.952 177.724 203.305 177.643 203.714 177.696C204.11 177.759 204.421 177.945 204.646 178.255C204.891 178.592 204.96 178.985 204.853 179.433L203.77 184.578L208.997 185.137C209.453 185.197 209.798 185.389 210.033 185.713C210.249 186.009 210.325 186.356 210.263 186.751C210.2 187.147 210.02 187.453 209.724 187.668C209.413 187.894 209.049 187.973 208.63 187.907L203.269 187.29L202.263 192.286C202.196 192.705 202.008 193.027 201.698 193.252C201.388 193.477 201.042 193.554 200.659 193.481C200.263 193.419 199.958 193.239 199.742 192.942C199.507 192.619 199.431 192.231 199.515 191.779L200.513 186.943L195.606 186.399C195.15 186.339 194.805 186.147 194.57 185.823C194.344 185.513 194.268 185.167 194.341 184.784C194.39 184.399 194.569 184.093 194.88 183.868C195.19 183.642 195.554 183.563 195.973 183.629L201.035 184.216L202.091 178.906ZM196.869 171.507C196.42 170.803 196.478 170.246 197.044 169.834C197.368 169.599 197.715 169.553 198.087 169.695C198.435 169.834 198.771 170.156 199.097 170.661L199.453 171.236C200.937 173.619 200.547 175.633 198.282 177.279L193.872 180.482L194.607 181.494C194.872 181.858 194.996 182.2 194.982 182.519C194.957 182.826 194.79 183.092 194.479 183.317C194.169 183.542 193.865 183.619 193.566 183.548C193.257 183.463 192.97 183.239 192.706 182.875L191.971 181.864L190.11 183.216C189.746 183.48 189.373 183.576 188.991 183.504C188.609 183.431 188.276 183.199 187.991 182.808C187.717 182.431 187.605 182.049 187.654 181.663C187.703 181.277 187.91 180.952 188.274 180.687L190.134 179.335L188.885 177.616C188.621 177.252 188.501 176.917 188.526 176.611C188.54 176.291 188.703 176.018 189.013 175.793C189.323 175.568 189.633 175.497 189.941 175.582C190.24 175.653 190.522 175.871 190.787 176.235L192.036 177.954L196.627 174.618C197.625 173.894 197.824 173.048 197.225 172.082L196.869 171.507ZM193.822 163.272C194.556 164.283 194.994 165.325 195.134 166.397C195.265 167.456 195.091 168.478 194.613 169.464C194.134 170.451 193.376 171.321 192.338 172.075C191.3 172.83 190.244 173.277 189.172 173.417C188.086 173.568 187.06 173.417 186.094 172.966C185.117 172.501 184.262 171.763 183.527 170.751C182.792 169.74 182.359 168.705 182.229 167.646C182.088 166.574 182.262 165.552 182.75 164.579C183.215 163.602 183.967 162.737 185.005 161.983C186.043 161.228 187.105 160.776 188.191 160.626C189.267 160.462 190.293 160.613 191.27 161.078C192.236 161.529 193.087 162.26 193.822 163.272ZM191.874 164.717C191.277 163.895 190.552 163.464 189.699 163.424C188.846 163.385 187.894 163.747 186.842 164.511C185.804 165.265 185.172 166.054 184.946 166.877C184.706 167.711 184.881 168.532 185.468 169.341C186.056 170.15 186.788 170.576 187.664 170.619C188.517 170.659 189.463 170.301 190.501 169.547C191.553 168.783 192.191 167.989 192.417 167.166C192.643 166.343 192.462 165.526 191.874 164.717ZM186.045 152.569C187.113 154.038 187.685 155.435 187.762 156.76C187.819 157.378 187.612 157.858 187.14 158.201C186.87 158.397 186.601 158.479 186.331 158.449C186.048 158.428 185.828 158.309 185.671 158.094C185.505 157.864 185.382 157.469 185.304 156.908C185.193 156.329 185.064 155.826 184.917 155.397C184.761 154.954 184.481 154.457 184.08 153.904C183.668 153.338 183.256 152.968 182.841 152.795C182.418 152.608 182.037 152.638 181.7 152.883C181.471 153.049 181.338 153.249 181.301 153.482C181.254 153.701 181.299 154.018 181.436 154.434C181.55 154.846 181.778 155.442 182.119 156.224C182.748 157.601 183.032 158.714 182.969 159.563C182.896 160.398 182.469 161.1 181.687 161.668C181.093 162.099 180.433 162.311 179.707 162.303C178.967 162.306 178.248 162.096 177.551 161.676C176.831 161.251 176.186 160.648 175.618 159.866C175.207 159.3 174.884 158.7 174.65 158.066C174.403 157.442 174.263 156.824 174.229 156.21C174.185 155.582 174.385 155.107 174.83 154.784C175.1 154.588 175.383 154.495 175.68 154.506C175.963 154.527 176.183 154.646 176.339 154.861C176.447 155.01 176.528 155.178 176.582 155.365C176.612 155.549 176.645 155.793 176.681 156.097C176.762 156.635 176.859 157.08 176.97 157.431C177.068 157.793 177.269 158.183 177.573 158.601C177.935 159.1 178.325 159.424 178.743 159.574C179.151 159.71 179.53 159.65 179.881 159.396C180.218 159.151 180.366 158.816 180.326 158.392C180.286 157.968 180.045 157.268 179.603 156.291C179.135 155.251 178.837 154.386 178.707 153.697C178.578 153.009 178.617 152.424 178.824 151.944C179.021 151.45 179.403 150.998 179.97 150.586C180.887 149.92 181.901 149.77 183.012 150.137C184.113 150.491 185.124 151.301 186.045 152.569Z" fill="white"/>
</g>
</g>
<defs>
<filter id="filter0_d" x="10" y="11" width="480" height="479" filterUnits="userSpaceOnUse" color-interpolation-filters="sRGB">
<feFlood flood-opacity="0" result="BackgroundImageFix"/>
<feColorMatrix in="SourceAlpha" type="matrix" values="0 0 0 0 0 0 0 0 0 0 0 0 0 0 0 0 0 0 127 0"/>
<feOffset/>
<feGaussianBlur stdDeviation="5"/>
<feColorMatrix type="matrix" values="0 0 0 0 0.196078 0 0 0 0 0.184314 0 0 0 0 0.27451 0 0 0 1 0"/>
<feBlend mode="hard-light" in2="BackgroundImageFix" result="effect1_dropShadow"/>
<feBlend mode="normal" in="SourceGraphic" in2="effect1_dropShadow" result="shape"/>
</filter>
<filter id="filter1_d" x="265.586" y="96.8801" width="97.8534" height="118.49" filterUnits="userSpaceOnUse" color-interpolation-filters="sRGB">
<feFlood flood-opacity="0" result="BackgroundImageFix"/>
<feColorMatrix in="SourceAlpha" type="matrix" values="0 0 0 0 0 0 0 0 0 0 0 0 0 0 0 0 0 0 127 0"/>
<feOffset/>
<feGaussianBlur stdDeviation="2"/>
<feColorMatrix type="matrix" values="0 0 0 0 1 0 0 0 0 1 0 0 0 0 1 0 0 0 0.57 0"/>
<feBlend mode="normal" in2="BackgroundImageFix" result="effect1_dropShadow"/>
<feBlend mode="normal" in="SourceGraphic" in2="effect1_dropShadow" result="shape"/>
</filter>
<filter id="filter2_d" x="90.4907" y="258.012" width="119.473" height="62.6115" filterUnits="userSpaceOnUse" color-interpolation-filters="sRGB">
<feFlood flood-opacity="0" result="BackgroundImageFix"/>
<feColorMatrix in="SourceAlpha" type="matrix" values="0 0 0 0 0 0 0 0 0 0 0 0 0 0 0 0 0 0 127 0"/>
<feOffset/>
<feGaussianBlur stdDeviation="2"/>
<feColorMatrix type="matrix" values="0 0 0 0 1 0 0 0 0 1 0 0 0 0 1 0 0 0 0.57 0"/>
<feBlend mode="normal" in2="BackgroundImageFix" result="effect1_dropShadow"/>
<feBlend mode="normal" in="SourceGraphic" in2="effect1_dropShadow" result="shape"/>
</filter>
<filter id="filter3_d" x="294.237" y="256.059" width="90.1634" height="54.5739" filterUnits="userSpaceOnUse" color-interpolation-filters="sRGB">
<feFlood flood-opacity="0" result="BackgroundImageFix"/>
<feColorMatrix in="SourceAlpha" type="matrix" values="0 0 0 0 0 0 0 0 0 0 0 0 0 0 0 0 0 0 127 0"/>
<feOffset/>
<feGaussianBlur stdDeviation="2"/>
<feColorMatrix type="matrix" values="0 0 0 0 1 0 0 0 0 1 0 0 0 0 1 0 0 0 0.57 0"/>
<feBlend mode="normal" in2="BackgroundImageFix" result="effect1_dropShadow"/>
<feBlend mode="normal" in="SourceGraphic" in2="effect1_dropShadow" result="shape"/>
</filter>
<filter id="filter4_d" x="235.125" y="292.9" width="31" height="119.598" filterUnits="userSpaceOnUse" color-interpolation-filters="sRGB">
<feFlood flood-opacity="0" result="BackgroundImageFix"/>
<feColorMatrix in="SourceAlpha" type="matrix" values="0 0 0 0 0 0 0 0 0 0 0 0 0 0 0 0 0 0 127 0"/>
<feOffset/>
<feGaussianBlur stdDeviation="2"/>
<feColorMatrix type="matrix" values="0 0 0 0 1 0 0 0 0 1 0 0 0 0 1 0 0 0 0.57 0"/>
<feBlend mode="normal" in2="BackgroundImageFix" result="effect1_dropShadow"/>
<feBlend mode="normal" in="SourceGraphic" in2="effect1_dropShadow" result="shape"/>
</filter>
<filter id="filter5_d" x="170.223" y="145.942" width="56.5052" height="76.8976" filterUnits="userSpaceOnUse" color-interpolation-filters="sRGB">
<feFlood flood-opacity="0" result="BackgroundImageFix"/>
<feColorMatrix in="SourceAlpha" type="matrix" values="0 0 0 0 0 0 0 0 0 0 0 0 0 0 0 0 0 0 127 0"/>
<feOffset/>
<feGaussianBlur stdDeviation="2"/>
<feColorMatrix type="matrix" values="0 0 0 0 1 0 0 0 0 1 0 0 0 0 1 0 0 0 0.57 0"/>
<feBlend mode="normal" in2="BackgroundImageFix" result="effect1_dropShadow"/>
<feBlend mode="normal" in="SourceGraphic" in2="effect1_dropShadow" result="shape"/>
</filter>
<clipPath id="clip0">
<rect width="500" height="500" fill="white"/>
</clipPath>
</defs>
</svg>
