<svg width="532" height="493" viewBox="0 0 532 493" fill="none" xmlns="http://www.w3.org/2000/svg">
<rect x="115.099" y="314.195" width="19.9758" height="20.9746" fill="#5FB8E9"/>
<rect x="164.04" y="314.195" width="19.9758" height="20.9746" fill="#5FB8E9"/>
<rect x="98.12" y="327.179" width="104.873" height="57.9298" fill="#7ED1FF"/>
<rect x="98.12" y="327.179" width="104.873" height="57.9298" fill="url(#paint0_linear)" style="mix-blend-mode:soft-light"/>
<circle cx="125.087" cy="353.147" r="9.98789" fill="white"/>
<ellipse cx="125.087" cy="352.648" rx="2.99637" ry="3.49576" fill="black"/>
<circle cx="174.028" cy="353.147" r="9.98789" fill="white"/>
<circle cx="174.527" cy="352.648" r="3.49576" fill="black"/>
<path d="M155.519 366.632C155.244 368.844 153.166 370.626 150.556 370.626C147.947 370.626 145.869 368.844 145.594 366.632H155.519Z" stroke="black" stroke-linecap="round"/>
<path d="M120.093 341.162C121.351 339.655 124.71 337.544 128.084 341.162" stroke="#1C6D9A" stroke-linecap="round"/>
<path d="M170.033 341.162C171.29 339.655 174.649 337.544 178.023 341.162" stroke="#1C6D9A" stroke-linecap="round"/>
<rect x="115.099" y="314.195" width="19.9758" height="20.9746" fill="#5FB8E9"/>
<rect x="164.04" y="314.195" width="19.9758" height="20.9746" fill="#5FB8E9"/>
<rect x="98.12" y="327.179" width="104.873" height="57.9298" fill="#7ED1FF"/>
<rect x="98.12" y="327.179" width="104.873" height="57.9298" fill="url(#paint1_linear)" style="mix-blend-mode:soft-light"/>
<circle cx="125.087" cy="353.147" r="9.98789" fill="white"/>
<ellipse cx="125.087" cy="352.648" rx="2.99637" ry="3.49576" fill="black"/>
<circle cx="174.028" cy="353.147" r="9.98789" fill="white"/>
<circle cx="174.527" cy="352.648" r="3.49576" fill="black"/>
<path d="M155.519 366.632C155.244 368.844 153.166 370.626 150.556 370.626C147.947 370.626 145.869 368.844 145.594 366.632H155.519Z" stroke="black" stroke-linecap="round"/>
<path d="M120.093 341.162C121.351 339.655 124.71 337.544 128.084 341.162" stroke="#1C6D9A" stroke-linecap="round"/>
<path d="M170.033 341.162C171.29 339.655 174.649 337.544 178.023 341.162" stroke="#1C6D9A" stroke-linecap="round"/>
<rect x="115.099" y="314.195" width="19.9758" height="20.9746" fill="#5FB8E9"/>
<rect x="164.04" y="314.195" width="19.9758" height="20.9746" fill="#5FB8E9"/>
<rect x="98.12" y="327.179" width="104.873" height="57.9298" fill="#7ED1FF"/>
<rect x="98.12" y="327.179" width="104.873" height="57.9298" fill="url(#paint2_linear)" style="mix-blend-mode:soft-light"/>
<circle cx="125.087" cy="353.147" r="9.98789" fill="white"/>
<ellipse cx="125.087" cy="352.648" rx="2.99637" ry="3.49576" fill="black"/>
<circle cx="174.028" cy="353.147" r="9.98789" fill="white"/>
<circle cx="174.527" cy="352.648" r="3.49576" fill="black"/>
<path d="M155.519 366.632C155.244 368.844 153.166 370.626 150.556 370.626C147.947 370.626 145.869 368.844 145.594 366.632H155.519Z" stroke="black" stroke-linecap="round"/>
<path d="M120.093 341.162C121.351 339.655 124.71 337.544 128.084 341.162" stroke="#1C6D9A" stroke-linecap="round"/>
<path d="M170.033 341.162C171.29 339.655 174.649 337.544 178.023 341.162" stroke="#1C6D9A" stroke-linecap="round"/>
<rect x="57.9793" y="248.383" width="19.9758" height="20.9746" fill="#5FB8E9"/>
<rect x="106.92" y="248.383" width="19.9758" height="20.9746" fill="#5FB8E9"/>
<rect x="41" y="261.367" width="104.873" height="57.9298" fill="#7ED1FF"/>
<rect x="41" y="261.367" width="104.873" height="57.9298" fill="url(#paint3_linear)" style="mix-blend-mode:soft-light"/>
<circle cx="67.9672" cy="287.335" r="9.98789" fill="white"/>
<ellipse cx="67.9673" cy="286.836" rx="2.99637" ry="3.49576" fill="black"/>
<circle cx="116.908" cy="287.335" r="9.98789" fill="white"/>
<circle cx="117.407" cy="286.836" r="3.49576" fill="black"/>
<path d="M98.3988 300.82C98.1238 303.032 96.0461 304.813 93.4364 304.813C90.8267 304.813 88.749 303.032 88.474 300.82H98.3988Z" stroke="black" stroke-linecap="round"/>
<path d="M62.9734 275.35C64.2311 273.842 67.59 271.732 70.9637 275.35" stroke="#1C6D9A" stroke-linecap="round"/>
<path d="M112.913 275.35C114.17 273.842 117.529 271.732 120.903 275.35" stroke="#1C6D9A" stroke-linecap="round"/>
<rect x="57.9793" y="248.383" width="19.9758" height="20.9746" fill="#5FB8E9"/>
<rect x="106.92" y="248.383" width="19.9758" height="20.9746" fill="#5FB8E9"/>
<rect x="41" y="261.367" width="104.873" height="57.9298" fill="#7ED1FF"/>
<rect x="41" y="261.367" width="104.873" height="57.9298" fill="url(#paint4_linear)" style="mix-blend-mode:soft-light"/>
<circle cx="67.9672" cy="287.335" r="9.98789" fill="white"/>
<ellipse cx="67.9673" cy="286.836" rx="2.99637" ry="3.49576" fill="black"/>
<circle cx="116.908" cy="287.335" r="9.98789" fill="white"/>
<circle cx="117.407" cy="286.836" r="3.49576" fill="black"/>
<path d="M98.3988 300.82C98.1238 303.032 96.0461 304.813 93.4364 304.813C90.8267 304.813 88.749 303.032 88.474 300.82H98.3988Z" stroke="black" stroke-linecap="round"/>
<path d="M62.9734 275.35C64.2311 273.842 67.59 271.732 70.9637 275.35" stroke="#1C6D9A" stroke-linecap="round"/>
<path d="M112.913 275.35C114.17 273.842 117.529 271.732 120.903 275.35" stroke="#1C6D9A" stroke-linecap="round"/>
<rect x="323.711" y="314.195" width="19.9758" height="20.9746" fill="#17D741"/>
<rect x="419.73" y="314.195" width="19.9758" height="20.9746" fill="#17D741"/>
<rect x="372.544" y="314.195" width="19.8678" height="21.1096" fill="#17D741"/>
<rect x="367.685" y="339.029" width="19.9758" height="20.9746" fill="#17D741"/>
<rect x="306.732" y="326.612" width="141.558" height="58.3617" fill="#39F963"/>
<rect x="306.732" y="326.612" width="141.558" height="58.3617" fill="url(#paint5_linear)" style="mix-blend-mode:soft-light"/>
<circle cx="352.73" cy="354.254" r="9.98789" fill="white"/>
<ellipse cx="352.73" cy="353.755" rx="2.99637" ry="3.49576" fill="black"/>
<circle cx="401.671" cy="354.254" r="9.98789" fill="white"/>
<circle cx="402.17" cy="353.755" r="3.49576" fill="black"/>
<path d="M383.162 367.738C382.887 369.951 380.809 371.732 378.199 371.732C375.59 371.732 373.512 369.951 373.237 367.738H383.162Z" stroke="black" stroke-linecap="round"/>
<path d="M347.736 342.269C348.994 340.761 352.353 338.651 355.727 342.269" stroke="#1B9918" stroke-linecap="round"/>
<path d="M397.676 342.269C398.934 340.761 402.292 338.651 405.666 342.269" stroke="#1B9918" stroke-linecap="round"/>
<rect x="16.9793" y="405" width="19.9758" height="20.9746" fill="#17D741"/>
<rect x="112.998" y="405" width="19.9758" height="20.9746" fill="#17D741"/>
<rect x="65.8121" y="405" width="19.8678" height="21.1096" fill="#17D741"/>
<rect x="60.9531" y="429.835" width="19.9758" height="20.9746" fill="#17D741"/>
<rect y="417.417" width="141.558" height="58.3617" fill="#39F963"/>
<rect y="417.417" width="141.558" height="58.3617" fill="url(#paint6_linear)" style="mix-blend-mode:soft-light"/>
<circle cx="45.9983" cy="445.06" r="9.98789" fill="white"/>
<ellipse cx="45.9984" cy="444.56" rx="2.99637" ry="3.49576" fill="black"/>
<circle cx="94.9391" cy="445.06" r="9.98789" fill="white"/>
<circle cx="95.4385" cy="444.56" r="3.49576" fill="black"/>
<path d="M76.4299 458.544C76.1549 460.757 74.0772 462.538 71.4675 462.538C68.8578 462.538 66.7801 460.757 66.5051 458.544H76.4299Z" stroke="black" stroke-linecap="round"/>
<path d="M41.0045 433.074C42.2623 431.567 45.6211 429.456 48.9948 433.074" stroke="#1B9918" stroke-linecap="round"/>
<path d="M90.9438 433.074C92.2016 431.567 95.5605 429.456 98.9342 433.074" stroke="#1B9918" stroke-linecap="round"/>
<rect x="312.536" y="248.383" width="19.9758" height="20.9746" fill="#5FB8E9"/>
<rect x="361.476" y="248.383" width="19.9758" height="20.9746" fill="#5FB8E9"/>
<rect x="295.556" y="261.367" width="104.873" height="57.9298" fill="#7ED1FF"/>
<rect x="295.556" y="261.367" width="104.873" height="57.9298" fill="url(#paint7_linear)" style="mix-blend-mode:soft-light"/>
<circle cx="322.524" cy="287.335" r="9.98789" fill="white"/>
<ellipse cx="322.524" cy="286.836" rx="2.99637" ry="3.49576" fill="black"/>
<circle cx="371.464" cy="287.335" r="9.98789" fill="white"/>
<circle cx="371.964" cy="286.836" r="3.49576" fill="black"/>
<path d="M352.955 300.82C352.68 303.032 350.603 304.813 347.993 304.813C345.383 304.813 343.305 303.032 343.03 300.82H352.955Z" stroke="black" stroke-linecap="round"/>
<path d="M317.53 275.35C318.788 273.842 322.146 271.732 325.52 275.35" stroke="#1C6D9A" stroke-linecap="round"/>
<path d="M367.469 275.35C368.727 273.842 372.086 271.732 375.459 275.35" stroke="#1C6D9A" stroke-linecap="round"/>
<rect x="244.645" y="314.195" width="19.9758" height="20.9746" fill="#F92D2D"/>
<rect x="214.843" y="326.612" width="79.4713" height="58.3617" fill="#FF8855"/>
<rect x="214.843" y="326.612" width="79.4713" height="58.3617" fill="url(#paint8_linear)" style="mix-blend-mode:soft-light"/>
<circle cx="229.393" cy="353.147" r="9.98789" fill="white"/>
<ellipse cx="229.393" cy="352.648" rx="2.99637" ry="3.49576" fill="black"/>
<circle cx="278.334" cy="353.147" r="9.98789" fill="white"/>
<circle cx="278.833" cy="352.648" r="3.49576" fill="black"/>
<path d="M259.825 366.632C259.55 368.844 257.472 370.626 254.862 370.626C252.253 370.626 250.175 368.844 249.9 366.632H259.825Z" stroke="black" stroke-linecap="round"/>
<path d="M224.399 341.162C225.657 339.655 229.016 337.544 232.39 341.162" stroke="#E05926" stroke-linecap="round"/>
<path d="M274.339 341.162C275.596 339.655 278.955 337.544 282.329 341.162" stroke="#E05926" stroke-linecap="round"/>
<rect x="434.631" y="249.624" width="19.9758" height="20.9746" fill="#F92D2D"/>
<rect x="404.829" y="262.042" width="79.4713" height="58.3617" fill="#FF8855"/>
<rect x="404.829" y="262.042" width="79.4713" height="58.3617" fill="url(#paint9_linear)" style="mix-blend-mode:soft-light"/>
<circle cx="419.379" cy="288.577" r="9.98789" fill="white"/>
<ellipse cx="419.379" cy="288.078" rx="2.99637" ry="3.49576" fill="black"/>
<circle cx="468.32" cy="288.577" r="9.98789" fill="white"/>
<circle cx="468.819" cy="288.078" r="3.49576" fill="black"/>
<path d="M449.811 302.061C449.536 304.274 447.458 306.055 444.848 306.055C442.239 306.055 440.161 304.274 439.886 302.061H449.811Z" stroke="black" stroke-linecap="round"/>
<path d="M414.385 276.592C415.643 275.084 419.002 272.974 422.376 276.592" stroke="#E05926" stroke-linecap="round"/>
<path d="M464.325 276.592C465.582 275.084 468.941 272.974 472.315 276.592" stroke="#E05926" stroke-linecap="round"/>
<rect x="167.252" y="248.383" width="19.9758" height="20.9746" fill="#17D741"/>
<rect x="263.271" y="248.383" width="19.9758" height="20.9746" fill="#17D741"/>
<rect x="216.085" y="248.383" width="19.8678" height="21.1096" fill="#17D741"/>
<rect x="211.226" y="273.217" width="19.9758" height="20.9746" fill="#17D741"/>
<rect x="150.273" y="260.8" width="141.558" height="58.3617" fill="#39F963"/>
<rect x="150.273" y="260.8" width="141.558" height="58.3617" fill="url(#paint10_linear)" style="mix-blend-mode:soft-light"/>
<circle cx="196.271" cy="288.442" r="9.98789" fill="white"/>
<ellipse cx="196.271" cy="287.943" rx="2.99637" ry="3.49576" fill="black"/>
<circle cx="245.212" cy="288.442" r="9.98789" fill="white"/>
<circle cx="245.711" cy="287.943" r="3.49576" fill="black"/>
<path d="M226.703 301.926C226.428 304.139 224.35 305.92 221.74 305.92C219.131 305.92 217.053 304.139 216.778 301.926H226.703Z" stroke="black" stroke-linecap="round"/>
<path d="M191.277 276.457C192.535 274.949 195.894 272.839 199.268 276.457" stroke="#1B9918" stroke-linecap="round"/>
<path d="M241.217 276.457C242.475 274.949 245.833 272.839 249.207 276.457" stroke="#1B9918" stroke-linecap="round"/>
<rect x="383.72" y="183.812" width="19.9758" height="20.9746" fill="#F92D2D"/>
<rect x="353.918" y="196.23" width="79.4713" height="58.3617" fill="#FF8855"/>
<rect x="353.918" y="196.23" width="79.4713" height="58.3617" fill="url(#paint11_linear)" style="mix-blend-mode:soft-light"/>
<circle cx="368.468" cy="222.765" r="9.98789" fill="white"/>
<ellipse cx="368.468" cy="222.266" rx="2.99637" ry="3.49576" fill="black"/>
<circle cx="417.409" cy="222.765" r="9.98789" fill="white"/>
<circle cx="417.908" cy="222.266" r="3.49576" fill="black"/>
<path d="M398.899 236.249C398.624 238.462 396.547 240.243 393.937 240.243C391.327 240.243 389.25 238.462 388.975 236.249H398.899Z" stroke="black" stroke-linecap="round"/>
<path d="M363.474 210.779C364.732 209.272 368.091 207.162 371.464 210.779" stroke="#E05926" stroke-linecap="round"/>
<path d="M413.413 210.779C414.671 209.272 418.03 207.162 421.404 210.779" stroke="#E05926" stroke-linecap="round"/>
<rect x="454.802" y="68" width="19.9758" height="20.9746" fill="#F92D2D"/>
<rect x="425" y="80.4174" width="79.4713" height="58.3617" fill="#FF8855"/>
<rect x="425" y="80.4174" width="79.4713" height="58.3617" fill="url(#paint12_linear)" style="mix-blend-mode:soft-light"/>
<circle cx="439.55" cy="106.953" r="9.98789" fill="white"/>
<ellipse cx="439.55" cy="106.453" rx="2.99637" ry="3.49576" fill="black"/>
<circle cx="488.491" cy="106.953" r="9.98789" fill="white"/>
<circle cx="488.99" cy="106.453" r="3.49576" fill="black"/>
<path d="M469.981 120.437C469.706 122.65 467.629 124.431 465.019 124.431C462.409 124.431 460.332 122.65 460.057 120.437H469.981Z" stroke="black" stroke-linecap="round"/>
<path d="M434.556 94.9673C435.814 93.4599 439.173 91.3495 442.546 94.9673" stroke="#E05926" stroke-linecap="round"/>
<path d="M484.495 94.9673C485.753 93.4599 489.112 91.3495 492.486 94.9673" stroke="#E05926" stroke-linecap="round"/>
<rect x="235.979" width="19.9758" height="20.9746" fill="#17D741"/>
<rect x="331.998" width="19.9758" height="20.9746" fill="#17D741"/>
<rect x="284.812" width="19.8678" height="21.1096" fill="#17D741"/>
<rect x="279.953" y="24.8348" width="19.9758" height="20.9746" fill="#17D741"/>
<rect x="219" y="12.4174" width="141.558" height="58.3617" fill="#39F963"/>
<rect x="219" y="12.4174" width="141.558" height="58.3617" fill="url(#paint13_linear)" style="mix-blend-mode:soft-light"/>
<circle cx="264.998" cy="40.0595" r="9.98789" fill="white"/>
<ellipse cx="264.998" cy="39.5601" rx="2.99637" ry="3.49576" fill="black"/>
<circle cx="313.939" cy="40.0595" r="9.98789" fill="white"/>
<circle cx="314.439" cy="39.5601" r="3.49576" fill="black"/>
<path d="M295.43 53.5438C295.155 55.7566 293.077 57.5377 290.467 57.5377C287.858 57.5377 285.78 55.7566 285.505 53.5438H295.43Z" stroke="black" stroke-linecap="round"/>
<path d="M260.005 28.0741C261.262 26.5667 264.621 24.4563 267.995 28.0741" stroke="#1B9918" stroke-linecap="round"/>
<path d="M309.944 28.0741C311.202 26.5667 314.56 24.4563 317.934 28.0741" stroke="#1B9918" stroke-linecap="round"/>
<rect x="65.9793" y="98" width="19.9758" height="20.9746" fill="#5FB8E9"/>
<rect x="114.92" y="98" width="19.9758" height="20.9746" fill="#5FB8E9"/>
<rect x="49" y="110.984" width="104.873" height="57.9298" fill="#7ED1FF"/>
<rect x="49" y="110.984" width="104.873" height="57.9298" fill="url(#paint14_linear)" style="mix-blend-mode:soft-light"/>
<circle cx="75.9672" cy="136.953" r="9.98789" fill="white"/>
<ellipse cx="75.9673" cy="136.453" rx="2.99637" ry="3.49576" fill="black"/>
<circle cx="124.908" cy="136.953" r="9.98789" fill="white"/>
<circle cx="125.407" cy="136.453" r="3.49576" fill="black"/>
<path d="M106.399 150.437C106.124 152.65 104.046 154.431 101.436 154.431C98.8267 154.431 96.749 152.65 96.474 150.437H106.399Z" stroke="black" stroke-linecap="round"/>
<path d="M70.9734 124.967C72.2311 123.46 75.59 121.35 78.9637 124.967" stroke="#1C6D9A" stroke-linecap="round"/>
<path d="M120.913 124.967C122.17 123.46 125.529 121.35 128.903 124.967" stroke="#1C6D9A" stroke-linecap="round"/>
<rect x="443.979" y="422" width="19.9758" height="20.9746" fill="#5FB8E9"/>
<rect x="492.92" y="422" width="19.9758" height="20.9746" fill="#5FB8E9"/>
<rect x="427" y="434.984" width="104.873" height="57.9298" fill="#7ED1FF"/>
<rect x="427" y="434.984" width="104.873" height="57.9298" fill="url(#paint15_linear)" style="mix-blend-mode:soft-light"/>
<circle cx="453.967" cy="460.953" r="9.98789" fill="white"/>
<ellipse cx="453.967" cy="460.453" rx="2.99637" ry="3.49576" fill="black"/>
<circle cx="502.908" cy="460.953" r="9.98789" fill="white"/>
<circle cx="503.407" cy="460.453" r="3.49576" fill="black"/>
<path d="M484.399 474.437C484.124 476.65 482.046 478.431 479.436 478.431C476.827 478.431 474.749 476.65 474.474 474.437H484.399Z" stroke="black" stroke-linecap="round"/>
<path d="M448.973 448.967C450.231 447.46 453.59 445.35 456.964 448.967" stroke="#1C6D9A" stroke-linecap="round"/>
<path d="M498.913 448.967C500.17 447.46 503.529 445.35 506.903 448.967" stroke="#1C6D9A" stroke-linecap="round"/>
<rect x="110.132" y="183.812" width="19.9758" height="20.9746" fill="#5FB8E9"/>
<rect x="159.073" y="183.812" width="19.9758" height="20.9746" fill="#5FB8E9"/>
<rect x="93.153" y="196.796" width="104.873" height="57.9298" fill="#7ED1FF"/>
<rect x="93.153" y="196.796" width="104.873" height="57.9298" fill="url(#paint16_linear)" style="mix-blend-mode:soft-light"/>
<circle cx="120.12" cy="222.765" r="9.98789" fill="white"/>
<ellipse cx="120.12" cy="222.266" rx="2.99637" ry="3.49576" fill="black"/>
<circle cx="169.061" cy="222.765" r="9.98789" fill="white"/>
<circle cx="169.56" cy="222.266" r="3.49576" fill="black"/>
<path d="M150.552 236.249C150.277 238.462 148.199 240.243 145.589 240.243C142.98 240.243 140.902 238.462 140.627 236.249H150.552Z" stroke="black" stroke-linecap="round"/>
<path d="M115.126 210.779C116.384 209.272 119.743 207.162 123.117 210.779" stroke="#1C6D9A" stroke-linecap="round"/>
<path d="M165.066 210.779C166.324 209.272 169.682 207.162 173.056 210.779" stroke="#1C6D9A" stroke-linecap="round"/>
<defs>
<linearGradient id="paint0_linear" x1="150.556" y1="327.179" x2="150.556" y2="385.109" gradientUnits="userSpaceOnUse">
<stop stop-color="white"/>
<stop offset="1" stop-color="white" stop-opacity="0"/>
</linearGradient>
<linearGradient id="paint1_linear" x1="150.556" y1="327.179" x2="150.556" y2="385.109" gradientUnits="userSpaceOnUse">
<stop stop-color="white"/>
<stop offset="1" stop-color="white" stop-opacity="0"/>
</linearGradient>
<linearGradient id="paint2_linear" x1="150.556" y1="327.179" x2="150.556" y2="385.109" gradientUnits="userSpaceOnUse">
<stop stop-color="white"/>
<stop offset="1" stop-color="white" stop-opacity="0"/>
</linearGradient>
<linearGradient id="paint3_linear" x1="93.4364" y1="261.367" x2="93.4364" y2="319.297" gradientUnits="userSpaceOnUse">
<stop stop-color="white"/>
<stop offset="1" stop-color="white" stop-opacity="0"/>
</linearGradient>
<linearGradient id="paint4_linear" x1="93.4364" y1="261.367" x2="93.4364" y2="319.297" gradientUnits="userSpaceOnUse">
<stop stop-color="white"/>
<stop offset="1" stop-color="white" stop-opacity="0"/>
</linearGradient>
<linearGradient id="paint5_linear" x1="377.511" y1="326.612" x2="377.511" y2="384.974" gradientUnits="userSpaceOnUse">
<stop stop-color="white"/>
<stop offset="1" stop-color="white" stop-opacity="0"/>
</linearGradient>
<linearGradient id="paint6_linear" x1="70.7791" y1="417.417" x2="70.7791" y2="475.779" gradientUnits="userSpaceOnUse">
<stop stop-color="white"/>
<stop offset="1" stop-color="white" stop-opacity="0"/>
</linearGradient>
<linearGradient id="paint7_linear" x1="347.993" y1="261.367" x2="347.993" y2="319.297" gradientUnits="userSpaceOnUse">
<stop stop-color="white"/>
<stop offset="1" stop-color="white" stop-opacity="0"/>
</linearGradient>
<linearGradient id="paint8_linear" x1="254.579" y1="326.612" x2="254.579" y2="384.974" gradientUnits="userSpaceOnUse">
<stop stop-color="white"/>
<stop offset="1" stop-color="white" stop-opacity="0"/>
</linearGradient>
<linearGradient id="paint9_linear" x1="444.565" y1="262.042" x2="444.565" y2="320.403" gradientUnits="userSpaceOnUse">
<stop stop-color="white"/>
<stop offset="1" stop-color="white" stop-opacity="0"/>
</linearGradient>
<linearGradient id="paint10_linear" x1="221.052" y1="260.8" x2="221.052" y2="319.162" gradientUnits="userSpaceOnUse">
<stop stop-color="white"/>
<stop offset="1" stop-color="white" stop-opacity="0"/>
</linearGradient>
<linearGradient id="paint11_linear" x1="393.654" y1="196.23" x2="393.654" y2="254.591" gradientUnits="userSpaceOnUse">
<stop stop-color="white"/>
<stop offset="1" stop-color="white" stop-opacity="0"/>
</linearGradient>
<linearGradient id="paint12_linear" x1="464.736" y1="80.4174" x2="464.736" y2="138.779" gradientUnits="userSpaceOnUse">
<stop stop-color="white"/>
<stop offset="1" stop-color="white" stop-opacity="0"/>
</linearGradient>
<linearGradient id="paint13_linear" x1="289.779" y1="12.4174" x2="289.779" y2="70.7791" gradientUnits="userSpaceOnUse">
<stop stop-color="white"/>
<stop offset="1" stop-color="white" stop-opacity="0"/>
</linearGradient>
<linearGradient id="paint14_linear" x1="101.436" y1="110.984" x2="101.436" y2="168.914" gradientUnits="userSpaceOnUse">
<stop stop-color="white"/>
<stop offset="1" stop-color="white" stop-opacity="0"/>
</linearGradient>
<linearGradient id="paint15_linear" x1="479.436" y1="434.984" x2="479.436" y2="492.914" gradientUnits="userSpaceOnUse">
<stop stop-color="white"/>
<stop offset="1" stop-color="white" stop-opacity="0"/>
</linearGradient>
<linearGradient id="paint16_linear" x1="145.589" y1="196.796" x2="145.589" y2="254.726" gradientUnits="userSpaceOnUse">
<stop stop-color="white"/>
<stop offset="1" stop-color="white" stop-opacity="0"/>
</linearGradient>
</defs>
</svg>
