<svg width="530" height="463" viewBox="0 0 530 463" fill="none" xmlns="http://www.w3.org/2000/svg">
<g clip-path="url(#clip0)">
<g filter="url(#filter0_ddd)">
<path d="M467 19.5669L523 7V463L467 452.228V19.5669Z" fill="white"/>
<path d="M467 19.5669L523 7V463L467 452.228V19.5669Z" stroke="#6F4416"/>
</g>
<path d="M273 251.939L191 181V218.265L260.522 269L273 251.939Z" fill="#5CADED"/>
<path d="M273 251.939L191 181V218.265L260.522 269L273 251.939Z" fill="url(#paint0_linear)" style="mix-blend-mode:soft-light"/>
<rect x="243" y="19" width="224" height="433" fill="#9B7A54"/>
<g style="mix-blend-mode:soft-light">
<rect x="258.5" y="37.5" width="193" height="396" stroke="black" stroke-width="3"/>
</g>
<g style="mix-blend-mode:soft-light">
<rect x="281.5" y="56.5" width="148" height="122" fill="black" fill-opacity="0.4" style="mix-blend-mode:soft-light"/>
<rect x="281.5" y="56.5" width="148" height="122" stroke="black" stroke-width="3"/>
</g>
<g style="mix-blend-mode:soft-light">
<rect x="281.5" y="292.5" width="148" height="122" fill="black" fill-opacity="0.4" style="mix-blend-mode:soft-light"/>
<rect x="281.5" y="292.5" width="148" height="122" stroke="black" stroke-width="3"/>
</g>
<g style="mix-blend-mode:soft-light">
<rect x="281.5" y="191.5" width="148" height="87" fill="black" fill-opacity="0.4" style="mix-blend-mode:soft-light"/>
<rect x="281.5" y="191.5" width="148" height="87" stroke="black" stroke-width="3"/>
</g>
<g filter="url(#filter1_f)">
<path d="M467 19.5669L523 7V463L467 452.228V19.5669Z" fill="white"/>
</g>
<path d="M68.151 438.304L70.3961 431.12L92.3981 414.506L87.4588 445.488L68.151 438.304Z" fill="#004DE3"/>
<path d="M198.367 452.224V423.935L219.92 431.12V436.059L198.367 452.224Z" fill="#004DE3"/>
<g filter="url(#filter2_i)">
<path fill-rule="evenodd" clip-rule="evenodd" d="M123.829 181.914H192.978C192.978 181.914 209.772 232.204 214.98 284.29C219.636 330.842 219.913 415.774 219.92 432.916C216.776 433.065 213.184 432.916 206.898 435.61C209.442 435.161 215.609 434.263 219.92 434.263C219.92 434.263 228.346 434.822 234.737 442.345C238.579 446.867 241.473 454.02 241.473 454.02H186.692L173.222 322.906H146.28L95.0922 454.02H52.4353C52.4353 454.02 55.8304 444.78 59.6196 440.998C64.3946 436.233 69.049 434.263 69.049 434.263C77.1314 433.365 81.6216 435.161 86.5608 440.998C84.8834 437.107 79.3765 432.916 69.9471 432.916L123.829 181.914Z" fill="#5FB8E9"/>
<path fill-rule="evenodd" clip-rule="evenodd" d="M123.829 181.914H192.978C192.978 181.914 209.772 232.204 214.98 284.29C219.636 330.842 219.913 415.774 219.92 432.916C216.776 433.065 213.184 432.916 206.898 435.61C209.442 435.161 215.609 434.263 219.92 434.263C219.92 434.263 228.346 434.822 234.737 442.345C238.579 446.867 241.473 454.02 241.473 454.02H186.692L173.222 322.906H146.28L95.0922 454.02H52.4353C52.4353 454.02 55.8304 444.78 59.6196 440.998C64.3946 436.233 69.049 434.263 69.049 434.263C77.1314 433.365 81.6216 435.161 86.5608 440.998C84.8834 437.107 79.3765 432.916 69.9471 432.916L123.829 181.914Z" fill="url(#paint1_linear)" style="mix-blend-mode:soft-light"/>
<path fill-rule="evenodd" clip-rule="evenodd" d="M123.829 181.914H192.978C192.978 181.914 209.772 232.204 214.98 284.29C219.636 330.842 219.913 415.774 219.92 432.916C216.776 433.065 213.184 432.916 206.898 435.61C209.442 435.161 215.609 434.263 219.92 434.263C219.92 434.263 228.346 434.822 234.737 442.345C238.579 446.867 241.473 454.02 241.473 454.02H186.692L173.222 322.906H146.28L95.0922 454.02H52.4353C52.4353 454.02 55.8304 444.78 59.6196 440.998C64.3946 436.233 69.049 434.263 69.049 434.263C77.1314 433.365 81.6216 435.161 86.5608 440.998C84.8834 437.107 79.3765 432.916 69.9471 432.916L123.829 181.914Z" fill="url(#paint2_linear)" style="mix-blend-mode:hard-light"/>
</g>
<g style="mix-blend-mode:soft-light" opacity="0.7" filter="url(#filter3_f)">
<path d="M167.384 265.431L131.463 185.506H161.996L202.408 292.373L167.384 265.431Z" fill="black"/>
</g>
<g filter="url(#filter4_i)">
<path d="M123.38 224.571C123.38 224.571 174.805 285.778 185.515 294.962C185.515 294.962 205.765 311.379 209.675 314.776C213.36 316.127 229.944 324.683 229.944 324.683C229.944 324.683 241.922 331.814 241.922 326.034C241.922 323.884 237.315 321.531 237.315 321.531L217.046 307.571C217.046 307.571 212.439 291.81 200.922 284.605C195.814 281.409 187.661 258.127 173.34 236.694C154.797 198.797 144.841 195.968 127.922 188.2L123.38 224.571Z" fill="url(#paint3_linear)"/>
<path d="M123.38 224.571C123.38 224.571 174.805 285.778 185.515 294.962C185.515 294.962 205.765 311.379 209.675 314.776C213.36 316.127 229.944 324.683 229.944 324.683C229.944 324.683 241.922 331.814 241.922 326.034C241.922 323.884 237.315 321.531 237.315 321.531L217.046 307.571C217.046 307.571 212.439 291.81 200.922 284.605C195.814 281.409 187.661 258.127 173.34 236.694C154.797 198.797 144.841 195.968 127.922 188.2L123.38 224.571Z" fill="url(#paint4_linear)" style="mix-blend-mode:soft-light"/>
<path d="M123.38 224.571C123.38 224.571 174.805 285.778 185.515 294.962C185.515 294.962 205.765 311.379 209.675 314.776C213.36 316.127 229.944 324.683 229.944 324.683C229.944 324.683 241.922 331.814 241.922 326.034C241.922 323.884 237.315 321.531 237.315 321.531L217.046 307.571C217.046 307.571 212.439 291.81 200.922 284.605C195.814 281.409 187.661 258.127 173.34 236.694C154.797 198.797 144.841 195.968 127.922 188.2L123.38 224.571Z" fill="url(#paint5_linear)"/>
</g>
<g filter="url(#filter5_i)">
<path d="M227.434 291.514C214.247 291.514 213.979 287.427 204.204 286.984L211.064 315.066C214.039 316.547 225.312 326.842 227.434 329.559C229.038 331.614 231.526 338.618 233.306 339.071C238.802 338.618 233.424 327.459 233.306 326.842C229.788 319.834 227.803 314.283 222.887 307.819C222.887 307.819 220.542 303.98 221.977 302.837C223.393 301.709 223.004 301.469 224.706 300.572C227.816 298.932 229.648 299.213 233.306 299.213C235.509 299.213 238.347 296.496 237.146 294.03C235.944 291.564 230.193 291.514 227.434 291.514Z" fill="#80D2F4"/>
</g>
<g filter="url(#filter6_i)">
<path d="M58.781 200.415L268.512 172.894C269.608 172.751 270.379 171.746 270.235 170.651L262.056 108.321C261.359 103.007 267.448 99.5146 271.683 102.8L289.587 116.69C296.559 122.099 306.585 116.348 305.437 107.599L299.651 63.5077C298.503 54.7587 287.333 51.7899 281.993 58.8143L268.278 76.8533C265.035 81.1199 258.25 79.3166 257.553 74.0026L249.724 14.344C249.581 13.2488 248.576 12.4774 247.481 12.6212L162.001 23.838C156.687 24.5353 154.884 31.3196 159.15 34.5633L177.189 48.278C184.214 53.6185 181.245 64.7882 172.496 65.9362L128.404 71.722C119.655 72.8701 113.905 62.8444 119.314 55.8725L133.204 37.9681C136.489 33.7334 132.996 27.644 127.682 28.3413L37.7498 40.1423C36.6547 40.286 35.8833 41.2904 36.027 42.3855L43.8555 102.044C44.5528 107.358 38.4634 110.851 34.2288 107.566L16.3243 93.6756C9.35238 88.2668 -0.673253 94.0169 0.474799 102.766L6.26057 146.858C7.40862 155.607 18.5784 158.575 23.9188 151.551L37.6335 133.512C40.8772 129.246 47.6615 131.049 48.3588 136.363L56.5378 198.693C56.6815 199.788 57.6858 200.559 58.781 200.415Z" fill="#5FB8E9"/>
<path d="M58.781 200.415L268.512 172.894C269.608 172.751 270.379 171.746 270.235 170.651L262.056 108.321C261.359 103.007 267.448 99.5146 271.683 102.8L289.587 116.69C296.559 122.099 306.585 116.348 305.437 107.599L299.651 63.5077C298.503 54.7587 287.333 51.7899 281.993 58.8143L268.278 76.8533C265.035 81.1199 258.25 79.3166 257.553 74.0026L249.724 14.344C249.581 13.2488 248.576 12.4774 247.481 12.6212L162.001 23.838C156.687 24.5353 154.884 31.3196 159.15 34.5633L177.189 48.278C184.214 53.6185 181.245 64.7882 172.496 65.9362L128.404 71.722C119.655 72.8701 113.905 62.8444 119.314 55.8725L133.204 37.9681C136.489 33.7334 132.996 27.644 127.682 28.3413L37.7498 40.1423C36.6547 40.286 35.8833 41.2904 36.027 42.3855L43.8555 102.044C44.5528 107.358 38.4634 110.851 34.2288 107.566L16.3243 93.6756C9.35238 88.2668 -0.673253 94.0169 0.474799 102.766L6.26057 146.858C7.40862 155.607 18.5784 158.575 23.9188 151.551L37.6335 133.512C40.8772 129.246 47.6615 131.049 48.3588 136.363L56.5378 198.693C56.6815 199.788 57.6858 200.559 58.781 200.415Z" fill="url(#paint6_linear)" style="mix-blend-mode:soft-light"/>
<path d="M58.781 200.415L268.512 172.894C269.608 172.751 270.379 171.746 270.235 170.651L262.056 108.321C261.359 103.007 267.448 99.5146 271.683 102.8L289.587 116.69C296.559 122.099 306.585 116.348 305.437 107.599L299.651 63.5077C298.503 54.7587 287.333 51.7899 281.993 58.8143L268.278 76.8533C265.035 81.1199 258.25 79.3166 257.553 74.0026L249.724 14.344C249.581 13.2488 248.576 12.4774 247.481 12.6212L162.001 23.838C156.687 24.5353 154.884 31.3196 159.15 34.5633L177.189 48.278C184.214 53.6185 181.245 64.7882 172.496 65.9362L128.404 71.722C119.655 72.8701 113.905 62.8444 119.314 55.8725L133.204 37.9681C136.489 33.7334 132.996 27.644 127.682 28.3413L37.7498 40.1423C36.6547 40.286 35.8833 41.2904 36.027 42.3855L43.8555 102.044C44.5528 107.358 38.4634 110.851 34.2288 107.566L16.3243 93.6756C9.35238 88.2668 -0.673253 94.0169 0.474799 102.766L6.26057 146.858C7.40862 155.607 18.5784 158.575 23.9188 151.551L37.6335 133.512C40.8772 129.246 47.6615 131.049 48.3588 136.363L56.5378 198.693C56.6815 199.788 57.6858 200.559 58.781 200.415Z" fill="url(#paint7_linear)" style="mix-blend-mode:hard-light"/>
</g>
<ellipse cx="103.212" cy="140.241" rx="17.9608" ry="17.9608" transform="rotate(-7.4757 103.212 140.241)" fill="white"/>
<ellipse cx="210.061" cy="126.22" rx="17.9608" ry="17.9608" transform="rotate(-7.4757 210.061 126.22)" fill="white"/>
<ellipse cx="113.006" cy="138.956" rx="8.08236" ry="8.08235" transform="rotate(-7.4757 113.006 138.956)" fill="black"/>
<path d="M227.869 123.883C228.45 128.309 225.333 132.368 220.907 132.948C216.481 133.529 212.422 130.412 211.841 125.986C211.261 121.561 214.378 117.502 218.804 116.921C223.229 116.34 227.288 119.457 227.869 123.883Z" fill="black"/>
<path d="M83.1343 111.478C83.5211 110.974 99.7519 96.6169 114.744 107.33" stroke="#2C60AE" stroke-width="5" stroke-linecap="round" stroke-linejoin="round"/>
<path d="M189.983 97.4571C190.37 96.9535 206.601 82.5962 221.592 93.3093" stroke="#2C60AE" stroke-width="5" stroke-linecap="round" stroke-linejoin="round"/>
<path d="M169.702 156.877C170.219 160.811 166.252 164.575 160.843 165.285C155.433 165.995 150.63 163.381 150.113 159.447" stroke="black" stroke-width="5" stroke-linecap="round"/>
<rect x="262" y="230" width="16" height="43" fill="#CCA20F"/>
<rect x="262.5" y="230.5" width="15" height="42" stroke="white" stroke-opacity="0.64" style="mix-blend-mode:soft-light"/>
<g filter="url(#filter7_i)">
<rect x="269" y="244" width="30" height="7" rx="3" fill="#F2D01F"/>
</g>
</g>
<defs>
<filter id="filter0_ddd" x="462.5" y="0.375366" width="66" height="464.23" filterUnits="userSpaceOnUse" color-interpolation-filters="sRGB">
<feFlood flood-opacity="0" result="BackgroundImageFix"/>
<feColorMatrix in="SourceAlpha" type="matrix" values="0 0 0 0 0 0 0 0 0 0 0 0 0 0 0 0 0 0 127 0"/>
<feOffset dx="-4" dy="-4"/>
<feColorMatrix type="matrix" values="0 0 0 0 0.607843 0 0 0 0 0.478431 0 0 0 0 0.329412 0 0 0 1 0"/>
<feBlend mode="normal" in2="BackgroundImageFix" result="effect1_dropShadow"/>
<feColorMatrix in="SourceAlpha" type="matrix" values="0 0 0 0 0 0 0 0 0 0 0 0 0 0 0 0 0 0 127 0"/>
<feOffset dx="5" dy="1"/>
<feColorMatrix type="matrix" values="0 0 0 0 0.607843 0 0 0 0 0.478431 0 0 0 0 0.329412 0 0 0 1 0"/>
<feBlend mode="normal" in2="effect1_dropShadow" result="effect2_dropShadow"/>
<feColorMatrix in="SourceAlpha" type="matrix" values="0 0 0 0 0 0 0 0 0 0 0 0 0 0 0 0 0 0 127 0"/>
<feOffset dx="5" dy="-6"/>
<feColorMatrix type="matrix" values="0 0 0 0 0.607843 0 0 0 0 0.478431 0 0 0 0 0.329412 0 0 0 1 0"/>
<feBlend mode="normal" in2="effect2_dropShadow" result="effect3_dropShadow"/>
<feBlend mode="normal" in="SourceGraphic" in2="effect3_dropShadow" result="shape"/>
</filter>
<filter id="filter1_f" x="447" y="-13" width="96" height="496" filterUnits="userSpaceOnUse" color-interpolation-filters="sRGB">
<feFlood flood-opacity="0" result="BackgroundImageFix"/>
<feBlend mode="normal" in="SourceGraphic" in2="BackgroundImageFix" result="shape"/>
<feGaussianBlur stdDeviation="10" result="effect1_foregroundBlur"/>
</filter>
<filter id="filter2_i" x="52.4353" y="181.914" width="189.037" height="272.106" filterUnits="userSpaceOnUse" color-interpolation-filters="sRGB">
<feFlood flood-opacity="0" result="BackgroundImageFix"/>
<feBlend mode="normal" in="SourceGraphic" in2="BackgroundImageFix" result="shape"/>
<feColorMatrix in="SourceAlpha" type="matrix" values="0 0 0 0 0 0 0 0 0 0 0 0 0 0 0 0 0 0 127 0" result="hardAlpha"/>
<feOffset dx="-3"/>
<feComposite in2="hardAlpha" operator="arithmetic" k2="-1" k3="1"/>
<feColorMatrix type="matrix" values="0 0 0 0 1 0 0 0 0 1 0 0 0 0 1 0 0 0 0.47 0"/>
<feBlend mode="normal" in2="shape" result="effect1_innerShadow"/>
</filter>
<filter id="filter3_f" x="111.463" y="165.506" width="110.945" height="146.867" filterUnits="userSpaceOnUse" color-interpolation-filters="sRGB">
<feFlood flood-opacity="0" result="BackgroundImageFix"/>
<feBlend mode="normal" in="SourceGraphic" in2="BackgroundImageFix" result="shape"/>
<feGaussianBlur stdDeviation="10" result="effect1_foregroundBlur"/>
</filter>
<filter id="filter4_i" x="123.38" y="188.2" width="118.541" height="140.094" filterUnits="userSpaceOnUse" color-interpolation-filters="sRGB">
<feFlood flood-opacity="0" result="BackgroundImageFix"/>
<feBlend mode="normal" in="SourceGraphic" in2="BackgroundImageFix" result="shape"/>
<feColorMatrix in="SourceAlpha" type="matrix" values="0 0 0 0 0 0 0 0 0 0 0 0 0 0 0 0 0 0 127 0" result="hardAlpha"/>
<feOffset dx="-3" dy="-2"/>
<feComposite in2="hardAlpha" operator="arithmetic" k2="-1" k3="1"/>
<feColorMatrix type="matrix" values="0 0 0 0 1 0 0 0 0 1 0 0 0 0 1 0 0 0 0.47 0"/>
<feBlend mode="normal" in2="shape" result="effect1_innerShadow"/>
</filter>
<filter id="filter5_i" x="204.204" y="286.984" width="33.2275" height="52.0863" filterUnits="userSpaceOnUse" color-interpolation-filters="sRGB">
<feFlood flood-opacity="0" result="BackgroundImageFix"/>
<feBlend mode="normal" in="SourceGraphic" in2="BackgroundImageFix" result="shape"/>
<feColorMatrix in="SourceAlpha" type="matrix" values="0 0 0 0 0 0 0 0 0 0 0 0 0 0 0 0 0 0 127 0" result="hardAlpha"/>
<feOffset dx="-3" dy="-2"/>
<feComposite in2="hardAlpha" operator="arithmetic" k2="-1" k3="1"/>
<feColorMatrix type="matrix" values="0 0 0 0 1 0 0 0 0 1 0 0 0 0 1 0 0 0 0.47 0"/>
<feBlend mode="normal" in2="shape" result="effect1_innerShadow"/>
</filter>
<filter id="filter6_i" x="0.384277" y="12.6039" width="305.143" height="187.829" filterUnits="userSpaceOnUse" color-interpolation-filters="sRGB">
<feFlood flood-opacity="0" result="BackgroundImageFix"/>
<feBlend mode="normal" in="SourceGraphic" in2="BackgroundImageFix" result="shape"/>
<feColorMatrix in="SourceAlpha" type="matrix" values="0 0 0 0 0 0 0 0 0 0 0 0 0 0 0 0 0 0 127 0" result="hardAlpha"/>
<feOffset dx="-3" dy="-2"/>
<feComposite in2="hardAlpha" operator="arithmetic" k2="-1" k3="1"/>
<feColorMatrix type="matrix" values="0 0 0 0 1 0 0 0 0 1 0 0 0 0 1 0 0 0 0.47 0"/>
<feBlend mode="normal" in2="shape" result="effect1_innerShadow"/>
</filter>
<filter id="filter7_i" x="269" y="244" width="30" height="7" filterUnits="userSpaceOnUse" color-interpolation-filters="sRGB">
<feFlood flood-opacity="0" result="BackgroundImageFix"/>
<feBlend mode="normal" in="SourceGraphic" in2="BackgroundImageFix" result="shape"/>
<feColorMatrix in="SourceAlpha" type="matrix" values="0 0 0 0 0 0 0 0 0 0 0 0 0 0 0 0 0 0 127 0" result="hardAlpha"/>
<feOffset dx="-3"/>
<feComposite in2="hardAlpha" operator="arithmetic" k2="-1" k3="1"/>
<feColorMatrix type="matrix" values="0 0 0 0 1 0 0 0 0 1 0 0 0 0 1 0 0 0 0.47 0"/>
<feBlend mode="normal" in2="shape" result="effect1_innerShadow"/>
</filter>
<linearGradient id="paint0_linear" x1="191" y1="202.551" x2="225.496" y2="227.897" gradientUnits="userSpaceOnUse">
<stop/>
<stop offset="1" stop-opacity="0"/>
</linearGradient>
<linearGradient id="paint1_linear" x1="146.954" y1="182.812" x2="146.954" y2="454.02" gradientUnits="userSpaceOnUse">
<stop stop-color="white" stop-opacity="0"/>
<stop offset="1" stop-color="white" stop-opacity="0.74"/>
</linearGradient>
<linearGradient id="paint2_linear" x1="146.954" y1="182.812" x2="146.954" y2="454.02" gradientUnits="userSpaceOnUse">
<stop stop-color="#051EA2" stop-opacity="0.17"/>
<stop offset="1" stop-color="#001897" stop-opacity="0"/>
</linearGradient>
<linearGradient id="paint3_linear" x1="141.341" y1="220.979" x2="233.839" y2="319.314" gradientUnits="userSpaceOnUse">
<stop stop-color="#5FB8E9" stop-opacity="0"/>
<stop offset="1" stop-color="#5FB8E9"/>
</linearGradient>
<linearGradient id="paint4_linear" x1="197.469" y1="293.271" x2="127.871" y2="200.773" gradientUnits="userSpaceOnUse">
<stop stop-color="white" stop-opacity="0.51"/>
<stop offset="1" stop-color="white" stop-opacity="0"/>
</linearGradient>
<linearGradient id="paint5_linear" x1="203.77" y1="315.273" x2="214.667" y2="313.895" gradientUnits="userSpaceOnUse">
<stop offset="0.645833" stop-color="#004DE3" stop-opacity="0"/>
<stop offset="0.739583" stop-color="#3897E8"/>
</linearGradient>
<linearGradient id="paint6_linear" x1="142.616" y1="26.3817" x2="163.647" y2="186.655" gradientUnits="userSpaceOnUse">
<stop stop-color="white" stop-opacity="0.74"/>
<stop offset="1" stop-color="white" stop-opacity="0"/>
</linearGradient>
<linearGradient id="paint7_linear" x1="142.616" y1="26.3817" x2="163.647" y2="186.655" gradientUnits="userSpaceOnUse">
<stop stop-color="#001897" stop-opacity="0"/>
<stop offset="1" stop-color="#051EA2" stop-opacity="0.17"/>
</linearGradient>
<clipPath id="clip0">
<rect width="530" height="463" fill="white"/>
</clipPath>
</defs>
</svg>
