<svg height="90" viewBox="0 0 263 184" fill="none" xmlns="http://www.w3.org/2000/svg">
<path d="M137 55C142.404 63.7989 158.368 80.8834 179 78.8303" stroke="#6BA9CB" stroke-width="14"/>
<path d="M137 55C142.404 63.7989 158.368 80.8834 179 78.8303" stroke="url(#paint0_linear)" stroke-width="14" style="mix-blend-mode:soft-light"/>
<path d="M257 55C251.596 63.7989 235.632 80.8834 215 78.8303" stroke="#6BA9CB" stroke-width="14"/>
<path d="M257 55C251.596 63.7989 235.632 80.8834 215 78.8303" stroke="url(#paint1_linear)" stroke-width="14" style="mix-blend-mode:soft-light"/>
<path d="M181 123V184" stroke="#6BA9CB" stroke-width="14"/>
<path d="M181 123V184" stroke="url(#paint2_linear)" stroke-width="14" style="mix-blend-mode:soft-light"/>
<path d="M213 123V184" stroke="#6BA9CB" stroke-width="14"/>
<path d="M213 123V184" stroke="url(#paint3_linear)" stroke-width="14" style="mix-blend-mode:soft-light"/>
<rect x="174" y="66" width="46" height="62" fill="#5FB8E9"/>
<rect x="174" y="66" width="46" height="62" fill="url(#paint4_linear)" style="mix-blend-mode:soft-light"/>
<rect x="162" width="20" height="21" fill="#5FB8E9"/>
<rect x="211" width="20" height="21" fill="#5FB8E9"/>
<rect x="145" y="13" width="105" height="58" fill="#7ED1FF"/>
<rect x="145" y="13" width="105" height="58" fill="url(#paint5_linear)" style="mix-blend-mode:soft-light"/>
<circle cx="172" cy="39" r="10" fill="white"/>
<ellipse cx="172" cy="38.5" rx="3" ry="3.5" fill="black"/>
<circle cx="221" cy="39" r="10" fill="white"/>
<circle cx="221.5" cy="38.5" r="3.5" fill="black"/>
<path d="M202.469 52.5C202.194 54.7161 200.113 56.5 197.5 56.5C194.887 56.5 192.806 54.7161 192.531 52.5H202.469Z" stroke="black" stroke-linecap="round"/>
<path d="M167 27C168.259 25.4908 171.622 23.3778 175 27" stroke="#1C6D9A" stroke-linecap="round"/>
<path d="M217 27C218.259 25.4908 221.622 23.3778 225 27" stroke="#1C6D9A" stroke-linecap="round"/>
<path d="M6 55C11.4035 63.7989 27.3684 80.8834 48 78.8303" stroke="#FF8855" stroke-width="14"/>
<path d="M6 55C11.4035 63.7989 27.3684 80.8834 48 78.8303" stroke="url(#paint6_linear)" stroke-width="14" style="mix-blend-mode:soft-light"/>
<path d="M126 55C120.596 63.7989 104.632 80.8834 84 78.8303" stroke="#FF8855" stroke-width="14"/>
<path d="M126 55C120.596 63.7989 104.632 80.8834 84 78.8303" stroke="url(#paint7_linear)" stroke-width="14" style="mix-blend-mode:soft-light"/>
<path d="M50 123V184" stroke="#FF8855" stroke-width="14"/>
<path d="M50 123V184" stroke="url(#paint8_linear)" stroke-width="14" style="mix-blend-mode:soft-light"/>
<path d="M82 123V184" stroke="#FF8855" stroke-width="14"/>
<path d="M82 123V184" stroke="url(#paint9_linear)" stroke-width="14" style="mix-blend-mode:soft-light"/>
<rect x="43" y="66" width="46" height="62" fill="#FFA73F"/>
<rect x="43" y="66" width="46" height="62" fill="url(#paint10_linear)" style="mix-blend-mode:soft-light"/>
<rect x="31" width="20" height="21" fill="#FF8855"/>
<rect x="80" width="20" height="21" fill="#FF8855"/>
<rect x="14" y="13" width="105" height="58" fill="#FFA73F"/>
<rect x="14" y="13" width="105" height="58" fill="url(#paint11_linear)" style="mix-blend-mode:soft-light"/>
<circle cx="41" cy="39" r="10" fill="white"/>
<ellipse cx="41" cy="38.5" rx="3" ry="3.5" fill="black"/>
<circle cx="90" cy="39" r="10" fill="white"/>
<circle cx="90.5" cy="38.5" r="3.5" fill="black"/>
<path d="M71.4691 52.5C71.1941 54.7161 69.1134 56.5 66.5 56.5C63.8866 56.5 61.8059 54.7161 61.5309 52.5H71.4691Z" stroke="black" stroke-linecap="round"/>
<path d="M36 27C37.2593 25.4908 40.6222 23.3778 44 27" stroke="#E05926" stroke-linecap="round"/>
<path d="M86 27C87.2593 25.4908 90.6222 23.3778 94 27" stroke="#E05926" stroke-linecap="round"/>
<defs>
<linearGradient id="paint0_linear" x1="179" y1="54.8031" x2="131.105" y2="54.8031" gradientUnits="userSpaceOnUse">
<stop/>
<stop offset="1" stop-opacity="0"/>
</linearGradient>
<linearGradient id="paint1_linear" x1="215" y1="54.8031" x2="262.526" y2="54.8031" gradientUnits="userSpaceOnUse">
<stop/>
<stop offset="1" stop-opacity="0"/>
</linearGradient>
<linearGradient id="paint2_linear" x1="181.5" y1="123" x2="181.5" y2="184" gradientUnits="userSpaceOnUse">
<stop/>
<stop offset="1" stop-opacity="0"/>
</linearGradient>
<linearGradient id="paint3_linear" x1="213.5" y1="123" x2="213.5" y2="184" gradientUnits="userSpaceOnUse">
<stop/>
<stop offset="1" stop-opacity="0"/>
</linearGradient>
<linearGradient id="paint4_linear" x1="197" y1="66" x2="197" y2="128" gradientUnits="userSpaceOnUse">
<stop/>
<stop offset="1" stop-opacity="0"/>
</linearGradient>
<linearGradient id="paint5_linear" x1="197.5" y1="13" x2="197.5" y2="71" gradientUnits="userSpaceOnUse">
<stop stop-color="white"/>
<stop offset="1" stop-color="white" stop-opacity="0"/>
</linearGradient>
<linearGradient id="paint6_linear" x1="48" y1="54.8031" x2="0.105263" y2="54.8031" gradientUnits="userSpaceOnUse">
<stop/>
<stop offset="1" stop-opacity="0"/>
</linearGradient>
<linearGradient id="paint7_linear" x1="84" y1="54.8031" x2="131.526" y2="54.8031" gradientUnits="userSpaceOnUse">
<stop/>
<stop offset="1" stop-opacity="0"/>
</linearGradient>
<linearGradient id="paint8_linear" x1="50.5" y1="123" x2="50.5" y2="184" gradientUnits="userSpaceOnUse">
<stop/>
<stop offset="1" stop-opacity="0"/>
</linearGradient>
<linearGradient id="paint9_linear" x1="82.5" y1="123" x2="82.5" y2="184" gradientUnits="userSpaceOnUse">
<stop/>
<stop offset="1" stop-opacity="0"/>
</linearGradient>
<linearGradient id="paint10_linear" x1="66" y1="66" x2="66" y2="128" gradientUnits="userSpaceOnUse">
<stop/>
<stop offset="1" stop-opacity="0"/>
</linearGradient>
<linearGradient id="paint11_linear" x1="66.5" y1="13" x2="66.5" y2="71" gradientUnits="userSpaceOnUse">
<stop stop-color="white"/>
<stop offset="1" stop-color="white" stop-opacity="0"/>
</linearGradient>
</defs>
</svg>
