<svg width="510" height="308" viewBox="0 0 510 308" fill="none" xmlns="http://www.w3.org/2000/svg">
<path d="M55 297.036L56.5976 291.893L72.2544 280L68.7396 302.179L55 297.036Z" fill="#004DE3"/>
<path d="M147.663 307V286.75L163 291.893V295.429L147.663 307Z" fill="#004DE3"/>
<path d="M169.017 183.075L166.461 189.784L169.017 192.021C170.295 191.914 172.914 190.423 173.17 185.311C173.426 180.199 170.508 181.69 169.017 183.075Z" fill="#127DDB"/>
<path d="M174.732 135.788C157.834 119.494 139.303 111.187 139.303 111.187L147.61 140.581C149.123 140.581 149.475 141.573 150.166 142.782C151.631 145.346 155.788 147.539 157.834 149.527C155.953 152.838 153.361 163.124 152.402 165.822L159.431 196.174C164.544 194.896 171.253 199.369 173.809 192.66C173.809 190.964 175.765 184.448 174.448 183.394C172.851 182.436 172.212 183.394 172.212 183.394C170.934 184.672 170.686 189.002 170.295 189.784C169.656 191.062 170.295 191.382 168.843 190.743C169.72 188.001 170.935 183.297 170.295 179.88C169.336 174.768 167.171 172.927 165.183 169.975L173.17 159.751C173.17 159.751 180.199 149.527 180.199 144.095C180.199 140.581 177.643 138.595 174.732 135.788Z" fill="#5FB8E9"/>
<path d="M174.732 135.788C157.834 119.494 139.303 111.187 139.303 111.187L147.61 140.581C149.123 140.581 149.475 141.573 150.166 142.782C151.631 145.346 155.788 147.539 157.834 149.527C155.953 152.838 153.361 163.124 152.402 165.822L159.431 196.174C164.544 194.896 171.253 199.369 173.809 192.66C173.809 190.964 175.765 184.448 174.448 183.394C172.851 182.436 172.212 183.394 172.212 183.394C170.934 184.672 170.686 189.002 170.295 189.784C169.656 191.062 170.295 191.382 168.843 190.743C169.72 188.001 170.935 183.297 170.295 179.88C169.336 174.768 167.171 172.927 165.183 169.975L173.17 159.751C173.17 159.751 180.199 149.527 180.199 144.095C180.199 140.581 177.643 138.595 174.732 135.788Z" fill="url(#paint0_linear)" style="mix-blend-mode:soft-light"/>
<path d="M174.732 135.788C157.834 119.494 139.303 111.187 139.303 111.187L147.61 140.581C149.123 140.581 149.475 141.573 150.166 142.782C151.631 145.346 155.788 147.539 157.834 149.527C155.953 152.838 153.361 163.124 152.402 165.822L159.431 196.174C164.544 194.896 171.253 199.369 173.809 192.66C173.809 190.964 175.765 184.448 174.448 183.394C172.851 182.436 172.212 183.394 172.212 183.394C170.934 184.672 170.686 189.002 170.295 189.784C169.656 191.062 170.295 191.382 168.843 190.743C169.72 188.001 170.935 183.297 170.295 179.88C169.336 174.768 167.171 172.927 165.183 169.975L173.17 159.751C173.17 159.751 180.199 149.527 180.199 144.095C180.199 140.581 177.643 138.595 174.732 135.788Z" fill="url(#paint1_linear)" style="mix-blend-mode:hard-light"/>
<path d="M141.539 122.05C145.179 125.402 151.4 134.83 154 146.651L150.805 144.095L149.775 144.714C146.2 134.829 137.899 118.697 141.539 122.05Z" fill="#002ABE"/>
<path d="M167.419 193.618L168.825 190.743C168.825 190.743 169.366 190.906 169.336 190.966C169.08 191.478 168.058 192.66 167.419 193.618Z" fill="#002ABE"/>
<path fill-rule="evenodd" clip-rule="evenodd" d="M94.6081 114H143.625C143.625 114 155.529 149.855 159.221 186.99C162.521 220.18 162.717 280.732 162.722 292.954C160.494 293.061 157.948 292.954 153.492 294.875C155.295 294.554 159.667 293.914 162.722 293.914C162.722 293.914 168.695 294.313 173.226 299.677C175.949 302.9 178 308 178 308H139.169L129.62 214.521H110.523L74.2375 308H44C44 308 46.4067 301.412 49.0926 298.716C52.4774 295.319 55.7767 293.914 55.7767 293.914C61.5059 293.274 64.6888 294.554 68.19 298.716C67.001 295.942 63.0974 292.954 56.4133 292.954L94.6081 114Z" fill="#5FB8E9"/>
<path fill-rule="evenodd" clip-rule="evenodd" d="M94.6081 114H143.625C143.625 114 155.529 149.855 159.221 186.99C162.521 220.18 162.717 280.732 162.722 292.954C160.494 293.061 157.948 292.954 153.492 294.875C155.295 294.554 159.667 293.914 162.722 293.914C162.722 293.914 168.695 294.313 173.226 299.677C175.949 302.9 178 308 178 308H139.169L129.62 214.521H110.523L74.2375 308H44C44 308 46.4067 301.412 49.0926 298.716C52.4774 295.319 55.7767 293.914 55.7767 293.914C61.5059 293.274 64.6888 294.554 68.19 298.716C67.001 295.942 63.0974 292.954 56.4133 292.954L94.6081 114Z" fill="url(#paint2_linear)" style="mix-blend-mode:soft-light"/>
<path fill-rule="evenodd" clip-rule="evenodd" d="M94.6081 114H143.625C143.625 114 155.529 149.855 159.221 186.99C162.521 220.18 162.717 280.732 162.722 292.954C160.494 293.061 157.948 292.954 153.492 294.875C155.295 294.554 159.667 293.914 162.722 293.914C162.722 293.914 168.695 294.313 173.226 299.677C175.949 302.9 178 308 178 308H139.169L129.62 214.521H110.523L74.2375 308H44C44 308 46.4067 301.412 49.0926 298.716C52.4774 295.319 55.7767 293.914 55.7767 293.914C61.5059 293.274 64.6888 294.554 68.19 298.716C67.001 295.942 63.0974 292.954 56.4133 292.954L94.6081 114Z" fill="url(#paint3_linear)" style="mix-blend-mode:hard-light"/>
<path d="M44.2114 115H193.707C194.812 115 195.707 114.105 195.707 113V73.0519C195.707 67.6939 202.196 65.0227 205.968 68.8278L214.372 77.3052C218.794 81.7658 226.406 78.6378 226.406 72.3601V40.7232C226.406 34.4456 218.794 31.3175 214.372 35.7781L205.968 44.2555C202.196 48.0607 195.707 45.3894 195.707 40.0314V2C195.707 0.895431 194.812 0 193.707 0H137.093C131.731 0 129.062 6.49522 132.873 10.2655L141.344 18.6453C145.809 23.0626 142.678 30.6667 136.394 30.6667H104.723C98.4387 30.6667 95.3074 23.0626 99.7727 18.6453L108.244 10.2655C112.055 6.49522 109.385 0 104.024 0H44.2114C43.1068 0 42.2114 0.89543 42.2114 2V40.0314C42.2114 45.3894 35.7225 48.0607 31.9503 44.2555L23.5463 35.7781C19.1244 31.3175 11.5122 34.4456 11.5122 40.7232V72.3602C11.5122 78.6378 19.1244 81.7658 23.5463 77.3052L31.9503 68.8278C35.7225 65.0227 42.2114 67.6939 42.2114 73.052V113C42.2114 114.105 43.1068 115 44.2114 115Z" fill="#5FB8E9"/>
<path d="M44.2114 115H193.707C194.812 115 195.707 114.105 195.707 113V73.0519C195.707 67.6939 202.196 65.0227 205.968 68.8278L214.372 77.3052C218.794 81.7658 226.406 78.6378 226.406 72.3601V40.7232C226.406 34.4456 218.794 31.3175 214.372 35.7781L205.968 44.2555C202.196 48.0607 195.707 45.3894 195.707 40.0314V2C195.707 0.895431 194.812 0 193.707 0H137.093C131.731 0 129.062 6.49522 132.873 10.2655L141.344 18.6453C145.809 23.0626 142.678 30.6667 136.394 30.6667H104.723C98.4387 30.6667 95.3074 23.0626 99.7727 18.6453L108.244 10.2655C112.055 6.49522 109.385 0 104.024 0H44.2114C43.1068 0 42.2114 0.89543 42.2114 2V40.0314C42.2114 45.3894 35.7225 48.0607 31.9503 44.2555L23.5463 35.7781C19.1244 31.3175 11.5122 34.4456 11.5122 40.7232V72.3602C11.5122 78.6378 19.1244 81.7658 23.5463 77.3052L31.9503 68.8278C35.7225 65.0227 42.2114 67.6939 42.2114 73.052V113C42.2114 114.105 43.1068 115 44.2114 115Z" fill="url(#paint4_linear)" style="mix-blend-mode:soft-light"/>
<path d="M44.2114 115H193.707C194.812 115 195.707 114.105 195.707 113V73.0519C195.707 67.6939 202.196 65.0227 205.968 68.8278L214.372 77.3052C218.794 81.7658 226.406 78.6378 226.406 72.3601V40.7232C226.406 34.4456 218.794 31.3175 214.372 35.7781L205.968 44.2555C202.196 48.0607 195.707 45.3894 195.707 40.0314V2C195.707 0.895431 194.812 0 193.707 0H137.093C131.731 0 129.062 6.49522 132.873 10.2655L141.344 18.6453C145.809 23.0626 142.678 30.6667 136.394 30.6667H104.723C98.4387 30.6667 95.3074 23.0626 99.7727 18.6453L108.244 10.2655C112.055 6.49522 109.385 0 104.024 0H44.2114C43.1068 0 42.2114 0.89543 42.2114 2V40.0314C42.2114 45.3894 35.7225 48.0607 31.9503 44.2555L23.5463 35.7781C19.1244 31.3175 11.5122 34.4456 11.5122 40.7232V72.3602C11.5122 78.6378 19.1244 81.7658 23.5463 77.3052L31.9503 68.8278C35.7225 65.0227 42.2114 67.6939 42.2114 73.052V113C42.2114 114.105 43.1068 115 44.2114 115Z" fill="url(#paint5_linear)" style="mix-blend-mode:hard-light"/>
<ellipse cx="80.5854" cy="76.6667" rx="12.7913" ry="12.7778" fill="white"/>
<ellipse cx="157.333" cy="76.6667" rx="12.7913" ry="12.7778" fill="white"/>
<ellipse cx="80.5854" cy="76.6667" rx="5.7561" ry="5.75" fill="black"/>
<path d="M163.089 76.6667C163.089 79.8423 160.512 82.4167 157.333 82.4167C154.154 82.4167 151.577 79.8423 151.577 76.6667C151.577 73.491 154.154 70.9167 157.333 70.9167C160.512 70.9167 163.089 73.491 163.089 76.6667Z" fill="black"/>
<path d="M69.0732 54.5195C69.393 54.2 82.1843 45.575 91.7778 54.5195" stroke="#2C60AE" stroke-width="3" stroke-linecap="round" stroke-linejoin="round"/>
<path d="M145.821 54.5195C146.141 54.2 158.932 45.575 168.526 54.5195" stroke="#2C60AE" stroke-width="3" stroke-linecap="round" stroke-linejoin="round"/>
<path d="M125.995 94.5555C125.995 97.3783 122.845 99.6666 118.959 99.6666C115.074 99.6666 111.924 97.3783 111.924 94.5555" stroke="black" stroke-width="3" stroke-linecap="round"/>
<path d="M455 297.036L453.388 291.893L437.586 280L441.133 302.179L455 297.036Z" fill="#600000"/>
<path d="M361.479 307V286.75L347.2 291.893V295.429L361.479 307Z" fill="#600000"/>
<path d="M340.983 183.075L343.539 189.784L340.983 192.021C339.705 191.914 337.086 190.423 336.83 185.311C336.574 180.199 339.492 181.69 340.983 183.075Z" fill="#127DDB"/>
<path d="M335.268 135.788C352.166 119.494 370.697 111.187 370.697 111.187L362.39 140.581C360.877 140.581 360.525 141.573 359.834 142.782C358.369 145.346 354.212 147.539 352.166 149.527C354.047 152.838 356.639 163.124 357.598 165.822L350.569 196.174C345.456 194.896 338.747 199.369 336.191 192.66C336.191 190.964 334.235 184.448 335.552 183.394C337.149 182.436 337.788 183.394 337.788 183.394C339.066 184.672 339.314 189.002 339.705 189.784C340.344 191.062 339.705 191.382 341.157 190.743C340.28 188.001 339.065 183.297 339.705 179.88C340.664 174.768 342.829 172.927 344.817 169.975L336.83 159.751C336.83 159.751 329.801 149.527 329.801 144.095C329.801 140.581 332.357 138.595 335.268 135.788Z" fill="#5FB8E9"/>
<path d="M335.268 135.788C352.166 119.494 370.697 111.187 370.697 111.187L362.39 140.581C360.877 140.581 360.525 141.573 359.834 142.782C358.369 145.346 354.212 147.539 352.166 149.527C354.047 152.838 356.639 163.124 357.598 165.822L350.569 196.174C345.456 194.896 338.747 199.369 336.191 192.66C336.191 190.964 334.235 184.448 335.552 183.394C337.149 182.436 337.788 183.394 337.788 183.394C339.066 184.672 339.314 189.002 339.705 189.784C340.344 191.062 339.705 191.382 341.157 190.743C340.28 188.001 339.065 183.297 339.705 179.88C340.664 174.768 342.829 172.927 344.817 169.975L336.83 159.751C336.83 159.751 329.801 149.527 329.801 144.095C329.801 140.581 332.357 138.595 335.268 135.788Z" fill="url(#paint6_linear)" style="mix-blend-mode:soft-light"/>
<path d="M335.268 135.788C352.166 119.494 370.697 111.187 370.697 111.187L362.39 140.581C360.877 140.581 360.525 141.573 359.834 142.782C358.369 145.346 354.212 147.539 352.166 149.527C354.047 152.838 356.639 163.124 357.598 165.822L350.569 196.174C345.456 194.896 338.747 199.369 336.191 192.66C336.191 190.964 334.235 184.448 335.552 183.394C337.149 182.436 337.788 183.394 337.788 183.394C339.066 184.672 339.314 189.002 339.705 189.784C340.344 191.062 339.705 191.382 341.157 190.743C340.28 188.001 339.065 183.297 339.705 179.88C340.664 174.768 342.829 172.927 344.817 169.975L336.83 159.751C336.83 159.751 329.801 149.527 329.801 144.095C329.801 140.581 332.357 138.595 335.268 135.788Z" fill="url(#paint7_linear)" style="mix-blend-mode:hard-light"/>
<path d="M368.461 122.05C364.821 125.402 358.6 134.83 356 146.651L359.195 144.095L360.225 144.714C363.8 134.829 372.1 118.697 368.461 122.05Z" fill="#002ABE"/>
<path d="M342.581 193.618L341.175 190.743C341.175 190.743 340.634 190.906 340.664 190.966C340.92 191.478 341.942 192.66 342.581 193.618Z" fill="#002ABE"/>
<path fill-rule="evenodd" clip-rule="evenodd" d="M415.392 114H366.375C366.375 114 354.471 149.855 350.779 186.99C347.479 220.18 347.283 280.732 347.278 292.954C349.506 293.061 352.052 292.954 356.508 294.875C354.705 294.554 350.333 293.914 347.278 293.914C347.278 293.914 341.305 294.313 336.774 299.677C334.051 302.9 332 308 332 308H370.831L380.38 214.521H399.477L435.762 308H466C466 308 463.593 301.412 460.907 298.716C457.523 295.319 454.223 293.914 454.223 293.914C448.494 293.274 445.311 294.554 441.81 298.716C442.999 295.942 446.903 292.954 453.587 292.954L415.392 114Z" fill="#F92D2D"/>
<path fill-rule="evenodd" clip-rule="evenodd" d="M415.392 114H366.375C366.375 114 354.471 149.855 350.779 186.99C347.479 220.18 347.283 280.732 347.278 292.954C349.506 293.061 352.052 292.954 356.508 294.875C354.705 294.554 350.333 293.914 347.278 293.914C347.278 293.914 341.305 294.313 336.774 299.677C334.051 302.9 332 308 332 308H370.831L380.38 214.521H399.477L435.762 308H466C466 308 463.593 301.412 460.907 298.716C457.523 295.319 454.223 293.914 454.223 293.914C448.494 293.274 445.311 294.554 441.81 298.716C442.999 295.942 446.903 292.954 453.587 292.954L415.392 114Z" fill="url(#paint8_linear)" style="mix-blend-mode:soft-light"/>
<path fill-rule="evenodd" clip-rule="evenodd" d="M415.392 114H366.375C366.375 114 354.471 149.855 350.779 186.99C347.479 220.18 347.283 280.732 347.278 292.954C349.506 293.061 352.052 292.954 356.508 294.875C354.705 294.554 350.333 293.914 347.278 293.914C347.278 293.914 341.305 294.313 336.774 299.677C334.051 302.9 332 308 332 308H370.831L380.38 214.521H399.477L435.762 308H466C466 308 463.593 301.412 460.907 298.716C457.523 295.319 454.223 293.914 454.223 293.914C448.494 293.274 445.311 294.554 441.81 298.716C442.999 295.942 446.903 292.954 453.587 292.954L415.392 114Z" fill="url(#paint9_linear)" style="mix-blend-mode:hard-light"/>
<path d="M465.789 115H316.293C315.188 115 314.293 114.105 314.293 113V73.0519C314.293 67.6939 307.804 65.0227 304.032 68.8278L295.628 77.3052C291.206 81.7658 283.593 78.6378 283.593 72.3601V40.7232C283.593 34.4456 291.206 31.3175 295.628 35.7781L304.032 44.2555C307.804 48.0607 314.293 45.3894 314.293 40.0314V2C314.293 0.895431 315.188 0 316.293 0H372.907C378.269 0 380.938 6.49522 377.127 10.2655L368.656 18.6453C364.191 23.0626 367.322 30.6667 373.606 30.6667H405.277C411.561 30.6667 414.693 23.0626 410.227 18.6453L401.756 10.2655C397.945 6.49522 400.615 0 405.976 0H465.789C466.893 0 467.789 0.89543 467.789 2V40.0314C467.789 45.3894 474.277 48.0607 478.05 44.2555L486.454 35.7781C490.876 31.3175 498.488 34.4456 498.488 40.7232V72.3602C498.488 78.6378 490.876 81.7658 486.454 77.3052L478.05 68.8278C474.277 65.0227 467.789 67.6939 467.789 73.052V113C467.789 114.105 466.893 115 465.789 115Z" fill="#F92D2D"/>
<path d="M465.789 115H316.293C315.188 115 314.293 114.105 314.293 113V73.0519C314.293 67.6939 307.804 65.0227 304.032 68.8278L295.628 77.3052C291.206 81.7658 283.593 78.6378 283.593 72.3601V40.7232C283.593 34.4456 291.206 31.3175 295.628 35.7781L304.032 44.2555C307.804 48.0607 314.293 45.3894 314.293 40.0314V2C314.293 0.895431 315.188 0 316.293 0H372.907C378.269 0 380.938 6.49522 377.127 10.2655L368.656 18.6453C364.191 23.0626 367.322 30.6667 373.606 30.6667H405.277C411.561 30.6667 414.693 23.0626 410.227 18.6453L401.756 10.2655C397.945 6.49522 400.615 0 405.976 0H465.789C466.893 0 467.789 0.89543 467.789 2V40.0314C467.789 45.3894 474.277 48.0607 478.05 44.2555L486.454 35.7781C490.876 31.3175 498.488 34.4456 498.488 40.7232V72.3602C498.488 78.6378 490.876 81.7658 486.454 77.3052L478.05 68.8278C474.277 65.0227 467.789 67.6939 467.789 73.052V113C467.789 114.105 466.893 115 465.789 115Z" fill="url(#paint10_linear)" style="mix-blend-mode:soft-light"/>
<path d="M465.789 115H316.293C315.188 115 314.293 114.105 314.293 113V73.0519C314.293 67.6939 307.804 65.0227 304.032 68.8278L295.628 77.3052C291.206 81.7658 283.593 78.6378 283.593 72.3601V40.7232C283.593 34.4456 291.206 31.3175 295.628 35.7781L304.032 44.2555C307.804 48.0607 314.293 45.3894 314.293 40.0314V2C314.293 0.895431 315.188 0 316.293 0H372.907C378.269 0 380.938 6.49522 377.127 10.2655L368.656 18.6453C364.191 23.0626 367.322 30.6667 373.606 30.6667H405.277C411.561 30.6667 414.693 23.0626 410.227 18.6453L401.756 10.2655C397.945 6.49522 400.615 0 405.976 0H465.789C466.893 0 467.789 0.89543 467.789 2V40.0314C467.789 45.3894 474.277 48.0607 478.05 44.2555L486.454 35.7781C490.876 31.3175 498.488 34.4456 498.488 40.7232V72.3602C498.488 78.6378 490.876 81.7658 486.454 77.3052L478.05 68.8278C474.277 65.0227 467.789 67.6939 467.789 73.052V113C467.789 114.105 466.893 115 465.789 115Z" fill="url(#paint11_linear)" style="mix-blend-mode:hard-light"/>
<ellipse rx="12.7913" ry="12.7778" transform="matrix(-1 0 0 1 429.415 76.6667)" fill="white"/>
<ellipse rx="12.7913" ry="12.7778" transform="matrix(-1 0 0 1 352.667 76.6667)" fill="white"/>
<ellipse rx="5.7561" ry="5.75" transform="matrix(-1 0 0 1 429.415 76.6667)" fill="black"/>
<path d="M346.911 76.6667C346.911 79.8423 349.488 82.4167 352.667 82.4167C355.846 82.4167 358.423 79.8423 358.423 76.6667C358.423 73.491 355.846 70.9167 352.667 70.9167C349.488 70.9167 346.911 73.491 346.911 76.6667Z" fill="black"/>
<path d="M440.927 54.5195C440.607 54.2 427.816 45.575 418.222 54.5195" stroke="#BA0000" stroke-width="3" stroke-linecap="round" stroke-linejoin="round"/>
<path d="M364.179 54.5195C363.859 54.2 351.068 45.575 341.474 54.5195" stroke="#BA0000" stroke-width="3" stroke-linecap="round" stroke-linejoin="round"/>
<path d="M384.005 94.5555C384.005 97.3783 387.155 99.6666 391.041 99.6666C394.926 99.6666 398.076 97.3783 398.076 94.5555" stroke="black" stroke-width="3" stroke-linecap="round"/>
<rect x="100" y="116" width="310" height="132" fill="#EFF1F4"/>
<rect x="100" y="116" width="310" height="132" fill="url(#paint12_radial)"/>
<path d="M150.218 195V167.273H159.283C162.292 167.273 164.551 167.896 166.062 169.14C167.585 170.384 168.347 172.225 168.347 174.662C168.347 175.957 167.979 177.106 167.243 178.109C166.506 179.099 165.503 179.867 164.234 180.413C165.732 180.832 166.913 181.632 167.776 182.812C168.652 183.98 169.09 185.377 169.09 187.002C169.09 189.49 168.284 191.445 166.671 192.867C165.059 194.289 162.78 195 159.835 195H150.218ZM153.875 182.032V192.01H159.911C161.612 192.01 162.952 191.572 163.929 190.696C164.919 189.808 165.415 188.589 165.415 187.04C165.415 183.701 163.599 182.032 159.968 182.032H153.875ZM153.875 179.099H159.397C160.997 179.099 162.272 178.699 163.225 177.899C164.189 177.1 164.672 176.014 164.672 174.643C164.672 173.12 164.228 172.015 163.339 171.33C162.45 170.631 161.098 170.282 159.283 170.282H153.875V179.099ZM190.189 182.184H178.173V192.01H192.132V195H174.517V167.273H191.941V170.282H178.173V179.194H190.189V182.184ZM201.406 167.273L210.47 189.896L219.535 167.273H224.276V195H220.62V184.203L220.963 172.548L211.86 195H209.061L199.978 172.605L200.339 184.203V195H196.683V167.273H201.406ZM249.584 190.144L257.506 167.273H261.505L251.222 195H247.985L237.721 167.273H241.701L249.584 190.144ZM269.161 195H265.504V167.273H269.161V195ZM297.173 195H293.498L279.539 173.634V195H275.864V167.273H279.539L293.536 188.735V167.273H297.173V195ZM303.667 195V167.273H311.493C313.905 167.273 316.038 167.807 317.892 168.873C319.745 169.939 321.173 171.457 322.176 173.424C323.192 175.392 323.706 177.652 323.719 180.204V181.975C323.719 184.59 323.211 186.881 322.195 188.849C321.192 190.817 319.751 192.328 317.873 193.381C316.006 194.435 313.829 194.975 311.341 195H303.667ZM307.323 170.282V192.01H311.169C313.988 192.01 316.178 191.134 317.739 189.382C319.313 187.63 320.101 185.136 320.101 181.898V180.28C320.101 177.131 319.358 174.688 317.873 172.948C316.4 171.196 314.305 170.308 311.588 170.282H307.323ZM350.588 182.032C350.588 184.749 350.131 187.123 349.217 189.154C348.303 191.172 347.008 192.715 345.333 193.781C343.657 194.848 341.702 195.381 339.467 195.381C337.284 195.381 335.348 194.848 333.659 193.781C331.971 192.702 330.657 191.172 329.717 189.192C328.791 187.199 328.314 184.895 328.289 182.279V180.28C328.289 177.614 328.752 175.259 329.679 173.215C330.606 171.171 331.914 169.609 333.602 168.53C335.303 167.438 337.246 166.893 339.429 166.893C341.651 166.893 343.606 167.432 345.294 168.511C346.996 169.578 348.303 171.133 349.217 173.177C350.131 175.208 350.588 177.576 350.588 180.28V182.032ZM346.951 180.242C346.951 176.954 346.291 174.434 344.971 172.682C343.65 170.917 341.803 170.035 339.429 170.035C337.119 170.035 335.297 170.917 333.964 172.682C332.644 174.434 331.964 176.871 331.926 179.994V182.032C331.926 185.218 332.593 187.726 333.926 189.554C335.271 191.369 337.119 192.277 339.467 192.277C341.829 192.277 343.657 191.42 344.952 189.706C346.247 187.979 346.913 185.51 346.951 182.298V180.242ZM359.462 187.173H356.282L356.035 167.273H359.729L359.462 187.173ZM355.901 193.229C355.901 192.658 356.073 192.182 356.416 191.801C356.771 191.407 357.292 191.21 357.977 191.21C358.663 191.21 359.183 191.407 359.539 191.801C359.894 192.182 360.072 192.658 360.072 193.229C360.072 193.8 359.894 194.276 359.539 194.657C359.183 195.025 358.663 195.209 357.977 195.209C357.292 195.209 356.771 195.025 356.416 194.657C356.073 194.276 355.901 193.8 355.901 193.229Z" fill="black"/>
<path d="M408 187L402 191" stroke="#F92D2D" stroke-width="4" stroke-linecap="round"/>
<path d="M408 187L402 191" stroke="url(#paint13_linear)" stroke-width="4" stroke-linecap="round" style="mix-blend-mode:soft-light"/>
<path d="M408 187L402 191" stroke="url(#paint14_linear)" stroke-width="4" stroke-linecap="round" style="mix-blend-mode:hard-light"/>
<path d="M404 184L396 187" stroke="#F92D2D" stroke-width="4" stroke-linecap="round"/>
<path d="M404 184L396 187" stroke="url(#paint15_linear)" stroke-width="4" stroke-linecap="round" style="mix-blend-mode:soft-light"/>
<path d="M404 184L396 187" stroke="url(#paint16_linear)" stroke-width="4" stroke-linecap="round" style="mix-blend-mode:hard-light"/>
<path d="M405 179L394 184" stroke="#F92D2D" stroke-width="4" stroke-linecap="round"/>
<path d="M405 179L394 184" stroke="url(#paint17_linear)" stroke-width="4" stroke-linecap="round" style="mix-blend-mode:soft-light"/>
<path d="M405 179L394 184" stroke="url(#paint18_linear)" stroke-width="4" stroke-linecap="round" style="mix-blend-mode:hard-light"/>
<path d="M403.867 176.741L400.21 177.589L396.172 178.306" stroke="#F92D2D" stroke-width="4" stroke-linecap="round"/>
<path d="M403.867 176.741L400.21 177.589L396.172 178.306" stroke="url(#paint19_linear)" stroke-width="4" stroke-linecap="round" style="mix-blend-mode:soft-light"/>
<path d="M403.867 176.741L400.21 177.589L396.172 178.306" stroke="url(#paint20_linear)" stroke-width="4" stroke-linecap="round" style="mix-blend-mode:hard-light"/>
<path d="M444.339 159.106C451.664 150.686 433.094 126.194 421.207 115H415.424L421.207 146.576L428.436 153.593C426.347 155.263 422.653 153.593 410.605 173.14C407.392 172.973 401.449 174.142 403.376 180.157C405.786 187.675 405.786 195.193 413.497 185.169C420.725 179.989 437.014 167.526 444.339 159.106Z" fill="#F92D2D"/>
<path d="M444.339 159.106C451.664 150.686 433.094 126.194 421.207 115H415.424L421.207 146.576L428.436 153.593C426.347 155.263 422.653 153.593 410.605 173.14C407.392 172.973 401.449 174.142 403.376 180.157C405.786 187.675 405.786 195.193 413.497 185.169C420.725 179.989 437.014 167.526 444.339 159.106Z" fill="url(#paint21_linear)" style="mix-blend-mode:soft-light"/>
<path d="M444.339 159.106C451.664 150.686 433.094 126.194 421.207 115H415.424L421.207 146.576L428.436 153.593C426.347 155.263 422.653 153.593 410.605 173.14C407.392 172.973 401.449 174.142 403.376 180.157C405.786 187.675 405.786 195.193 413.497 185.169C420.725 179.989 437.014 167.526 444.339 159.106Z" fill="url(#paint22_linear)" style="mix-blend-mode:hard-light"/>
<path d="M444.339 159.106C451.664 150.686 433.094 126.194 421.207 115H415.424L421.207 146.576L428.436 153.593C426.347 155.263 422.653 153.593 410.605 173.14C407.392 172.973 401.449 174.142 403.376 180.157C405.786 187.675 405.786 195.193 413.497 185.169C420.725 179.989 437.014 167.526 444.339 159.106Z" stroke="#F92D2D"/>
<path d="M444.339 159.106C451.664 150.686 433.094 126.194 421.207 115H415.424L421.207 146.576L428.436 153.593C426.347 155.263 422.653 153.593 410.605 173.14C407.392 172.973 401.449 174.142 403.376 180.157C405.786 187.675 405.786 195.193 413.497 185.169C420.725 179.989 437.014 167.526 444.339 159.106Z" stroke="url(#paint23_linear)" style="mix-blend-mode:soft-light"/>
<path d="M444.339 159.106C451.664 150.686 433.094 126.194 421.207 115H415.424L421.207 146.576L428.436 153.593C426.347 155.263 422.653 153.593 410.605 173.14C407.392 172.973 401.449 174.142 403.376 180.157C405.786 187.675 405.786 195.193 413.497 185.169C420.725 179.989 437.014 167.526 444.339 159.106Z" stroke="url(#paint24_linear)" style="mix-blend-mode:hard-light"/>
<path d="M102 187L108 191.5" stroke="#5FB8E9" stroke-width="4" stroke-linecap="round"/>
<path d="M102 187L108 191.5" stroke="url(#paint25_linear)" stroke-width="4" stroke-linecap="round" style="mix-blend-mode:soft-light"/>
<path d="M102 187L108 191.5" stroke="url(#paint26_linear)" stroke-width="4" stroke-linecap="round" style="mix-blend-mode:hard-light"/>
<path d="M106 184L114.5 187.5" stroke="#5FB8E9" stroke-width="4" stroke-linecap="round"/>
<path d="M106 184L114.5 187.5" stroke="url(#paint27_linear)" stroke-width="4" stroke-linecap="round" style="mix-blend-mode:soft-light"/>
<path d="M106 184L114.5 187.5" stroke="url(#paint28_linear)" stroke-width="4" stroke-linecap="round" style="mix-blend-mode:hard-light"/>
<path d="M104.5 179.5L116.5 184" stroke="#5FB8E9" stroke-width="4" stroke-linecap="round"/>
<path d="M104.5 179.5L116.5 184" stroke="url(#paint29_linear)" stroke-width="4" stroke-linecap="round" style="mix-blend-mode:soft-light"/>
<path d="M104.5 179.5L116.5 184" stroke="url(#paint30_linear)" stroke-width="4" stroke-linecap="round" style="mix-blend-mode:hard-light"/>
<path d="M106.075 176.741L109.835 177.589L113.984 178.306" stroke="#5FB8E9" stroke-width="4" stroke-linecap="round"/>
<path d="M106.075 176.741L109.835 177.589L113.984 178.306" stroke="url(#paint31_linear)" stroke-width="4" stroke-linecap="round" style="mix-blend-mode:soft-light"/>
<path d="M106.075 176.741L109.835 177.589L113.984 178.306" stroke="url(#paint32_linear)" stroke-width="4" stroke-linecap="round" style="mix-blend-mode:hard-light"/>
<path d="M64.5 159C56.9 150.6 76.1667 126.167 88.5 115H94.5L88.5 146.5L81 153.5C83.1667 155.167 87 153.5 99.5 173C102.833 172.833 109 174 107 180C104.5 187.5 104.5 195 96.5 185C89 179.833 72.1 167.4 64.5 159Z" fill="#5FB8E9"/>
<path d="M64.5 159C56.9 150.6 76.1667 126.167 88.5 115H94.5L88.5 146.5L81 153.5C83.1667 155.167 87 153.5 99.5 173C102.833 172.833 109 174 107 180C104.5 187.5 104.5 195 96.5 185C89 179.833 72.1 167.4 64.5 159Z" fill="url(#paint33_linear)" style="mix-blend-mode:soft-light"/>
<path d="M64.5 159C56.9 150.6 76.1667 126.167 88.5 115H94.5L88.5 146.5L81 153.5C83.1667 155.167 87 153.5 99.5 173C102.833 172.833 109 174 107 180C104.5 187.5 104.5 195 96.5 185C89 179.833 72.1 167.4 64.5 159Z" fill="url(#paint34_linear)" style="mix-blend-mode:hard-light"/>
<defs>
<linearGradient id="paint0_linear" x1="159.751" y1="111.187" x2="159.751" y2="196.468" gradientUnits="userSpaceOnUse">
<stop stop-color="white" stop-opacity="0.74"/>
<stop offset="1" stop-color="white" stop-opacity="0"/>
</linearGradient>
<linearGradient id="paint1_linear" x1="159.751" y1="111.187" x2="159.751" y2="196.468" gradientUnits="userSpaceOnUse">
<stop stop-color="#001897" stop-opacity="0"/>
<stop offset="1" stop-color="#051EA2" stop-opacity="0.17"/>
</linearGradient>
<linearGradient id="paint2_linear" x1="111" y1="114.64" x2="111" y2="308" gradientUnits="userSpaceOnUse">
<stop stop-color="white" stop-opacity="0.74"/>
<stop offset="1" stop-color="white" stop-opacity="0"/>
</linearGradient>
<linearGradient id="paint3_linear" x1="111" y1="114.64" x2="111" y2="308" gradientUnits="userSpaceOnUse">
<stop stop-color="#001897" stop-opacity="0"/>
<stop offset="1" stop-color="#051EA2" stop-opacity="0.17"/>
</linearGradient>
<linearGradient id="paint4_linear" x1="118.959" y1="0" x2="118.959" y2="115" gradientUnits="userSpaceOnUse">
<stop stop-color="white" stop-opacity="0.74"/>
<stop offset="1" stop-color="white" stop-opacity="0"/>
</linearGradient>
<linearGradient id="paint5_linear" x1="118.959" y1="0" x2="118.959" y2="115" gradientUnits="userSpaceOnUse">
<stop stop-color="#001897" stop-opacity="0"/>
<stop offset="1" stop-color="#051EA2" stop-opacity="0.17"/>
</linearGradient>
<linearGradient id="paint6_linear" x1="350.249" y1="111.187" x2="350.249" y2="196.468" gradientUnits="userSpaceOnUse">
<stop stop-color="white" stop-opacity="0.74"/>
<stop offset="1" stop-color="white" stop-opacity="0"/>
</linearGradient>
<linearGradient id="paint7_linear" x1="350.249" y1="111.187" x2="350.249" y2="196.468" gradientUnits="userSpaceOnUse">
<stop stop-color="#001897" stop-opacity="0"/>
<stop offset="1" stop-color="#051EA2" stop-opacity="0.17"/>
</linearGradient>
<linearGradient id="paint8_linear" x1="399" y1="114.64" x2="399" y2="308" gradientUnits="userSpaceOnUse">
<stop stop-color="white" stop-opacity="0.94"/>
<stop offset="1" stop-color="white" stop-opacity="0"/>
</linearGradient>
<linearGradient id="paint9_linear" x1="399" y1="114.64" x2="399" y2="308" gradientUnits="userSpaceOnUse">
<stop offset="0.416667" stop-color="#C10000" stop-opacity="0"/>
<stop offset="1" stop-color="#860000" stop-opacity="0.69"/>
</linearGradient>
<linearGradient id="paint10_linear" x1="391.041" y1="0.379538" x2="391.041" y2="115" gradientUnits="userSpaceOnUse">
<stop stop-color="white" stop-opacity="0.94"/>
<stop offset="1" stop-color="white" stop-opacity="0"/>
</linearGradient>
<linearGradient id="paint11_linear" x1="391.041" y1="0.379538" x2="391.041" y2="115" gradientUnits="userSpaceOnUse">
<stop offset="0.416667" stop-color="#C10000" stop-opacity="0"/>
<stop offset="1" stop-color="#860000" stop-opacity="0.69"/>
</linearGradient>
<radialGradient id="paint12_radial" cx="0" cy="0" r="1" gradientUnits="userSpaceOnUse" gradientTransform="translate(255.518 136) rotate(90) scale(75 229.185)">
<stop offset="0.817608" stop-color="white"/>
<stop offset="0.817708" stop-color="white" stop-opacity="0"/>
</radialGradient>
<linearGradient id="paint13_linear" x1="405" y1="187.013" x2="405" y2="191" gradientUnits="userSpaceOnUse">
<stop stop-color="white" stop-opacity="0.94"/>
<stop offset="1" stop-color="white" stop-opacity="0"/>
</linearGradient>
<linearGradient id="paint14_linear" x1="405" y1="187.013" x2="405" y2="191" gradientUnits="userSpaceOnUse">
<stop offset="0.416667" stop-color="#C10000" stop-opacity="0"/>
<stop offset="1" stop-color="#860000" stop-opacity="0.69"/>
</linearGradient>
<linearGradient id="paint15_linear" x1="400" y1="184.01" x2="400" y2="187" gradientUnits="userSpaceOnUse">
<stop stop-color="white" stop-opacity="0.94"/>
<stop offset="1" stop-color="white" stop-opacity="0"/>
</linearGradient>
<linearGradient id="paint16_linear" x1="400" y1="184.01" x2="400" y2="187" gradientUnits="userSpaceOnUse">
<stop offset="0.416667" stop-color="#C10000" stop-opacity="0"/>
<stop offset="1" stop-color="#860000" stop-opacity="0.69"/>
</linearGradient>
<linearGradient id="paint17_linear" x1="399.5" y1="179.017" x2="399.5" y2="184" gradientUnits="userSpaceOnUse">
<stop stop-color="white" stop-opacity="0.94"/>
<stop offset="1" stop-color="white" stop-opacity="0"/>
</linearGradient>
<linearGradient id="paint18_linear" x1="399.5" y1="179.017" x2="399.5" y2="184" gradientUnits="userSpaceOnUse">
<stop offset="0.416667" stop-color="#C10000" stop-opacity="0"/>
<stop offset="1" stop-color="#860000" stop-opacity="0.69"/>
</linearGradient>
<linearGradient id="paint19_linear" x1="400.635" y1="175.64" x2="399.339" y2="179.398" gradientUnits="userSpaceOnUse">
<stop stop-color="white" stop-opacity="0.94"/>
<stop offset="1" stop-color="white" stop-opacity="0"/>
</linearGradient>
<linearGradient id="paint20_linear" x1="400.635" y1="175.64" x2="399.339" y2="179.398" gradientUnits="userSpaceOnUse">
<stop offset="0.416667" stop-color="#C10000" stop-opacity="0"/>
<stop offset="1" stop-color="#860000" stop-opacity="0.69"/>
</linearGradient>
<linearGradient id="paint21_linear" x1="424.5" y1="115.248" x2="424.5" y2="190" gradientUnits="userSpaceOnUse">
<stop stop-color="white" stop-opacity="0.94"/>
<stop offset="1" stop-color="white" stop-opacity="0"/>
</linearGradient>
<linearGradient id="paint22_linear" x1="424.5" y1="115.248" x2="424.5" y2="190" gradientUnits="userSpaceOnUse">
<stop offset="0.416667" stop-color="#C10000" stop-opacity="0"/>
<stop offset="1" stop-color="#860000" stop-opacity="0.69"/>
</linearGradient>
<linearGradient id="paint23_linear" x1="424.5" y1="115.248" x2="424.5" y2="190" gradientUnits="userSpaceOnUse">
<stop stop-color="white" stop-opacity="0.94"/>
<stop offset="1" stop-color="white" stop-opacity="0"/>
</linearGradient>
<linearGradient id="paint24_linear" x1="424.5" y1="115.248" x2="424.5" y2="190" gradientUnits="userSpaceOnUse">
<stop offset="0.416667" stop-color="#C10000" stop-opacity="0"/>
<stop offset="1" stop-color="#860000" stop-opacity="0.69"/>
</linearGradient>
<linearGradient id="paint25_linear" x1="105" y1="187" x2="105" y2="191.5" gradientUnits="userSpaceOnUse">
<stop stop-color="white" stop-opacity="0.74"/>
<stop offset="1" stop-color="white" stop-opacity="0"/>
</linearGradient>
<linearGradient id="paint26_linear" x1="105" y1="187" x2="105" y2="191.5" gradientUnits="userSpaceOnUse">
<stop stop-color="#001897" stop-opacity="0"/>
<stop offset="1" stop-color="#051EA2" stop-opacity="0.17"/>
</linearGradient>
<linearGradient id="paint27_linear" x1="110.25" y1="184" x2="110.25" y2="187.5" gradientUnits="userSpaceOnUse">
<stop stop-color="white" stop-opacity="0.74"/>
<stop offset="1" stop-color="white" stop-opacity="0"/>
</linearGradient>
<linearGradient id="paint28_linear" x1="110.25" y1="184" x2="110.25" y2="187.5" gradientUnits="userSpaceOnUse">
<stop stop-color="#001897" stop-opacity="0"/>
<stop offset="1" stop-color="#051EA2" stop-opacity="0.17"/>
</linearGradient>
<linearGradient id="paint29_linear" x1="110.5" y1="179.5" x2="110.5" y2="184" gradientUnits="userSpaceOnUse">
<stop stop-color="white" stop-opacity="0.74"/>
<stop offset="1" stop-color="white" stop-opacity="0"/>
</linearGradient>
<linearGradient id="paint30_linear" x1="110.5" y1="179.5" x2="110.5" y2="184" gradientUnits="userSpaceOnUse">
<stop stop-color="#001897" stop-opacity="0"/>
<stop offset="1" stop-color="#051EA2" stop-opacity="0.17"/>
</linearGradient>
<linearGradient id="paint31_linear" x1="109.394" y1="175.627" x2="110.666" y2="179.42" gradientUnits="userSpaceOnUse">
<stop stop-color="white" stop-opacity="0.74"/>
<stop offset="1" stop-color="white" stop-opacity="0"/>
</linearGradient>
<linearGradient id="paint32_linear" x1="109.394" y1="175.627" x2="110.666" y2="179.42" gradientUnits="userSpaceOnUse">
<stop stop-color="#001897" stop-opacity="0"/>
<stop offset="1" stop-color="#051EA2" stop-opacity="0.17"/>
</linearGradient>
<linearGradient id="paint33_linear" x1="85.0834" y1="115" x2="85.0834" y2="189.82" gradientUnits="userSpaceOnUse">
<stop stop-color="white" stop-opacity="0.74"/>
<stop offset="1" stop-color="white" stop-opacity="0"/>
</linearGradient>
<linearGradient id="paint34_linear" x1="85.0834" y1="115" x2="85.0834" y2="189.82" gradientUnits="userSpaceOnUse">
<stop stop-color="#001897" stop-opacity="0"/>
<stop offset="1" stop-color="#051EA2" stop-opacity="0.17"/>
</linearGradient>
</defs>
</svg>
