<svg width="65" height="65" viewBox="0 0 65 65" fill="none" xmlns="http://www.w3.org/2000/svg">
<path d="M57.4941 53.2299C60.8304 49.2192 63.1507 44.4646 64.259 39.3683C65.3672 34.272 65.2307 28.9839 63.8609 23.9515C62.4912 18.9191 59.9286 14.2903 56.3898 10.4568C52.8511 6.62322 48.4403 3.69767 43.5306 1.92761C38.621 0.157542 33.3569 -0.404962 28.1836 0.287678C23.0104 0.980319 18.0802 2.90773 13.8101 5.90686C9.54003 8.90598 6.0557 12.8886 3.65188 17.5178C1.24805 22.147 -0.00455927 27.2866 1.24695e-05 32.5018C0.0017668 40.0832 2.67562 47.4218 7.55237 53.2299L7.50591 53.2694C7.66853 53.4644 7.85437 53.6315 8.02163 53.8242C8.23071 54.0632 8.45605 54.2884 8.6721 54.5205C9.32256 55.2262 9.99161 55.9039 10.6932 56.5399C10.9069 56.7349 11.1276 56.916 11.3436 57.1017C12.087 57.7423 12.8513 58.3505 13.6435 58.9168C13.7457 58.9865 13.8386 59.077 13.9409 59.149V59.1211C19.3818 62.9468 25.8725 65 32.5256 65C39.1786 65 45.6694 62.9468 51.1103 59.1211V59.149C51.2125 59.077 51.3031 58.9865 51.4076 58.9168C52.1975 58.3481 52.9641 57.7423 53.7075 57.1017C53.9235 56.916 54.1442 56.7326 54.3579 56.5399C55.0595 55.9016 55.7286 55.2262 56.379 54.5205C56.5951 54.2884 56.8181 54.0632 57.0295 53.8242C57.1944 53.6315 57.3826 53.4644 57.5452 53.2671L57.4941 53.2299ZM32.5232 13.9323C34.5908 13.9323 36.612 14.5449 38.3311 15.6927C40.0502 16.8404 41.3901 18.4718 42.1814 20.3804C42.9726 22.289 43.1796 24.3892 42.7763 26.4154C42.3729 28.4416 41.3773 30.3028 39.9153 31.7636C38.4533 33.2244 36.5906 34.2192 34.5627 34.6223C32.5348 35.0253 30.4329 34.8184 28.5227 34.0279C26.6125 33.2373 24.9798 31.8985 23.8311 30.1808C22.6825 28.463 22.0693 26.4435 22.0693 24.3776C22.0693 21.6074 23.1707 18.9506 25.1312 16.9917C27.0917 15.0328 29.7507 13.9323 32.5232 13.9323ZM13.9548 53.2299C13.9951 50.1822 15.2347 47.2728 17.4054 45.1312C19.5761 42.9896 22.5034 41.7881 25.554 41.7865H39.4925C42.5431 41.7881 45.4703 42.9896 47.6411 45.1312C49.8118 47.2728 51.0514 50.1822 51.0917 53.2299C45.9968 57.8174 39.3816 60.3561 32.5232 60.3561C25.6649 60.3561 19.0497 57.8174 13.9548 53.2299Z" fill="white"/>
<path d="M32.5232 13.9323C34.5908 13.9323 36.612 14.5449 38.3311 15.6927C40.0502 16.8404 41.3901 18.4718 42.1814 20.3804C42.9726 22.289 43.1796 24.3892 42.7763 26.4154C42.3729 28.4416 41.3773 30.3028 39.9153 31.7636C38.4533 33.2244 36.5906 34.2192 34.5627 34.6223C32.5348 35.0253 30.4329 34.8184 28.5227 34.0279C26.6125 33.2373 24.9798 31.8985 23.8311 30.1808C22.6825 28.463 22.0693 26.4435 22.0693 24.3776C22.0693 21.6074 23.1707 18.9506 25.1312 16.9917C27.0917 15.0328 29.7507 13.9323 32.5232 13.9323Z" fill="white"/>
<path d="M13.9548 53.2299C13.9951 50.1822 15.2347 47.2728 17.4054 45.1312C19.5761 42.9896 22.5034 41.7881 25.554 41.7865H39.4925C42.5431 41.7881 45.4703 42.9896 47.6411 45.1312C49.8118 47.2728 51.0514 50.1822 51.0917 53.2299C45.9968 57.8174 39.3816 60.3561 32.5232 60.3561C25.6649 60.3561 19.0497 57.8174 13.9548 53.2299Z" fill="white"/>
<path d="M57.4941 53.2299C60.8304 49.2192 63.1507 44.4646 64.259 39.3683C65.3672 34.272 65.2307 28.9839 63.8609 23.9515C62.4912 18.9191 59.9286 14.2903 56.3898 10.4568C52.8511 6.62322 48.4403 3.69767 43.5306 1.92761C38.621 0.157542 33.3569 -0.404962 28.1836 0.287678C23.0104 0.980319 18.0802 2.90773 13.8101 5.90686C9.54003 8.90598 6.0557 12.8886 3.65188 17.5178C1.24805 22.147 -0.00455927 27.2866 1.24695e-05 32.5018C0.0017668 40.0832 2.67562 47.4218 7.55237 53.2299L7.50591 53.2694C7.66853 53.4644 7.85437 53.6315 8.02163 53.8242C8.23071 54.0632 8.45605 54.2884 8.6721 54.5205C9.32256 55.2262 9.99161 55.9039 10.6932 56.5399C10.9069 56.7349 11.1276 56.916 11.3436 57.1017C12.087 57.7423 12.8513 58.3505 13.6435 58.9168C13.7457 58.9865 13.8386 59.077 13.9409 59.149V59.1211C19.3818 62.9468 25.8725 65 32.5256 65C39.1786 65 45.6694 62.9468 51.1103 59.1211V59.149C51.2125 59.077 51.3031 58.9865 51.4076 58.9168C52.1975 58.3481 52.9641 57.7423 53.7075 57.1017C53.9235 56.916 54.1442 56.7326 54.3579 56.5399C55.0595 55.9016 55.7286 55.2262 56.379 54.5205C56.5951 54.2884 56.8181 54.0632 57.0295 53.8242C57.1944 53.6315 57.3826 53.4644 57.5452 53.2671L57.4941 53.2299ZM32.5232 13.9323C34.5908 13.9323 36.612 14.5449 38.3311 15.6927C40.0502 16.8404 41.3901 18.4718 42.1814 20.3804C42.9726 22.289 43.1796 24.3892 42.7763 26.4154C42.3729 28.4416 41.3773 30.3028 39.9153 31.7636C38.4533 33.2244 36.5906 34.2192 34.5627 34.6223C32.5348 35.0253 30.4329 34.8184 28.5227 34.0279C26.6125 33.2373 24.9798 31.8985 23.8311 30.1808C22.6825 28.463 22.0693 26.4435 22.0693 24.3776C22.0693 21.6074 23.1707 18.9506 25.1312 16.9917C27.0917 15.0328 29.7507 13.9323 32.5232 13.9323ZM13.9548 53.2299C13.9951 50.1822 15.2347 47.2728 17.4054 45.1312C19.5761 42.9896 22.5034 41.7881 25.554 41.7865H39.4925C42.5431 41.7881 45.4703 42.9896 47.6411 45.1312C49.8118 47.2728 51.0514 50.1822 51.0917 53.2299C45.9968 57.8174 39.3816 60.3561 32.5232 60.3561C25.6649 60.3561 19.0497 57.8174 13.9548 53.2299Z" fill="#BCBCBC"/>
</svg>
